# MagicaVoxel @ Ephtracy

# group
o 

# material
mtllib shell1.mtl
usemtl palette

# normals
vn -1 0 0
vn 1 0 0
vn 0 0 1
vn 0 0 -1
vn 0 -1 0
vn 0 1 0

# texcoords
vt 0.904297 0.5
vt 0.986328 0.5

# verts
v -1 0.1 -0.6
v -1 0.1 -0.8
v -1 0.1 -0.9
v -1 0.1 -1.2
v -1 0.1 -1.3
v -1 0.1 -1.5
v -1 0.2 -0.6
v -1 0.2 -0.8
v -1 0.2 -0.9
v -1 0.2 -1.2
v -1 0.2 -1.3
v -1 0.2 -1.5
v -0.9 0 -0.6
v -0.9 0 -0.8
v -0.9 0 -0.9
v -0.9 0 -1.2
v -0.9 0 -1.3
v -0.9 0 -1.5
v -0.9 0.1 -0.6
v -0.9 0.1 -0.8
v -0.9 0.1 -0.9
v -0.9 0.1 -1.2
v -0.9 0.1 -1.3
v -0.9 0.1 -1.5
v -0.9 0.1 -1.6
v -0.9 0.2 -0.6
v -0.9 0.2 -0.8
v -0.9 0.2 -0.9
v -0.9 0.2 -1.2
v -0.9 0.2 -1.3
v -0.9 0.2 -1.5
v -0.9 0.2 -1.6
v -0.9 0.3 -0.6
v -0.9 0.3 -0.8
v -0.9 0.3 -0.9
v -0.9 0.3 -1.2
v -0.9 0.3 -1.3
v -0.9 0.3 -1.5
v -0.8 0 -0.6
v -0.8 0 -0.8
v -0.8 0 -0.9
v -0.8 0 -1.2
v -0.8 0 -1.3
v -0.8 0 -1.5
v -0.8 0.1 -0.6
v -0.8 0.1 -0.8
v -0.8 0.1 -0.9
v -0.8 0.1 -1.2
v -0.8 0.1 -1.3
v -0.8 0.1 -1.5
v -0.8 0.1 -1.6
v -0.8 0.2 -0.6
v -0.8 0.2 -0.8
v -0.8 0.2 -0.9
v -0.8 0.2 -1.2
v -0.8 0.2 -1.3
v -0.8 0.2 -1.5
v -0.8 0.2 -1.6
v -0.8 0.3 -0.6
v -0.8 0.3 -0.8
v -0.8 0.3 -0.9
v -0.8 0.3 -1.2
v -0.8 0.3 -1.3
v -0.8 0.3 -1.5
v -0.7 0.1 -0.6
v -0.7 0.1 -0.8
v -0.7 0.1 -0.9
v -0.7 0.1 -1.2
v -0.7 0.1 -1.3
v -0.7 0.1 -1.5
v -0.7 0.2 -0.6
v -0.7 0.2 -0.8
v -0.7 0.2 -0.9
v -0.7 0.2 -1.2
v -0.7 0.2 -1.3
v -0.7 0.2 -1.5
v -1 0.1 -0.6
v -1 0.2 -0.6
v -0.9 0 -0.6
v -0.9 0.1 -0.6
v -0.9 0.2 -0.6
v -0.9 0.3 -0.6
v -0.8 0 -0.6
v -0.8 0.1 -0.6
v -0.8 0.2 -0.6
v -0.8 0.3 -0.6
v -0.7 0.1 -0.6
v -0.7 0.2 -0.6
v -1 0.1 -1.5
v -1 0.2 -1.5
v -0.9 0 -1.5
v -0.9 0.1 -1.5
v -0.9 0.2 -1.5
v -0.9 0.3 -1.5
v -0.8 0 -1.5
v -0.8 0.1 -1.5
v -0.8 0.2 -1.5
v -0.8 0.3 -1.5
v -0.7 0.1 -1.5
v -0.7 0.2 -1.5
v -0.9 0.1 -1.6
v -0.9 0.2 -1.6
v -0.8 0.1 -1.6
v -0.8 0.2 -1.6
v -0.9 0 -0.6
v -0.8 0 -0.6
v -0.9 0 -0.8
v -0.8 0 -0.8
v -0.9 0 -0.9
v -0.8 0 -0.9
v -0.9 0 -1.2
v -0.8 0 -1.2
v -0.9 0 -1.3
v -0.8 0 -1.3
v -0.9 0 -1.5
v -0.8 0 -1.5
v -1 0.1 -0.6
v -0.9 0.1 -0.6
v -0.8 0.1 -0.6
v -0.7 0.1 -0.6
v -1 0.1 -0.8
v -0.9 0.1 -0.8
v -0.8 0.1 -0.8
v -0.7 0.1 -0.8
v -1 0.1 -0.9
v -0.9 0.1 -0.9
v -0.8 0.1 -0.9
v -0.7 0.1 -0.9
v -1 0.1 -1.2
v -0.9 0.1 -1.2
v -0.8 0.1 -1.2
v -0.7 0.1 -1.2
v -1 0.1 -1.3
v -0.9 0.1 -1.3
v -0.8 0.1 -1.3
v -0.7 0.1 -1.3
v -1 0.1 -1.5
v -0.9 0.1 -1.5
v -0.8 0.1 -1.5
v -0.7 0.1 -1.5
v -0.9 0.1 -1.6
v -0.8 0.1 -1.6
v -1 0.2 -0.6
v -0.9 0.2 -0.6
v -0.8 0.2 -0.6
v -0.7 0.2 -0.6
v -1 0.2 -0.8
v -0.9 0.2 -0.8
v -0.8 0.2 -0.8
v -0.7 0.2 -0.8
v -1 0.2 -0.9
v -0.9 0.2 -0.9
v -0.8 0.2 -0.9
v -0.7 0.2 -0.9
v -1 0.2 -1.2
v -0.9 0.2 -1.2
v -0.8 0.2 -1.2
v -0.7 0.2 -1.2
v -1 0.2 -1.3
v -0.9 0.2 -1.3
v -0.8 0.2 -1.3
v -0.7 0.2 -1.3
v -1 0.2 -1.5
v -0.9 0.2 -1.5
v -0.8 0.2 -1.5
v -0.7 0.2 -1.5
v -0.9 0.2 -1.6
v -0.8 0.2 -1.6
v -0.9 0.3 -0.6
v -0.8 0.3 -0.6
v -0.9 0.3 -0.8
v -0.8 0.3 -0.8
v -0.9 0.3 -0.9
v -0.8 0.3 -0.9
v -0.9 0.3 -1.2
v -0.8 0.3 -1.2
v -0.9 0.3 -1.3
v -0.8 0.3 -1.3
v -0.9 0.3 -1.5
v -0.8 0.3 -1.5

# faces
f 7/2/1 2/2/1 1/2/1
f 8/1/1 3/1/1 2/1/1
f 8/2/1 2/2/1 7/2/1
f 9/2/1 4/2/1 3/2/1
f 9/1/1 3/1/1 8/1/1
f 10/1/1 5/1/1 4/1/1
f 10/2/1 4/2/1 9/2/1
f 11/2/1 6/2/1 5/2/1
f 11/1/1 5/1/1 10/1/1
f 12/2/1 6/2/1 11/2/1
f 19/2/1 14/2/1 13/2/1
f 20/1/1 15/1/1 14/1/1
f 20/2/1 14/2/1 19/2/1
f 21/2/1 16/2/1 15/2/1
f 21/1/1 15/1/1 20/1/1
f 22/1/1 17/1/1 16/1/1
f 22/2/1 16/2/1 21/2/1
f 23/2/1 18/2/1 17/2/1
f 23/1/1 17/1/1 22/1/1
f 24/2/1 18/2/1 23/2/1
f 31/1/1 25/1/1 24/1/1
f 32/1/1 25/1/1 31/1/1
f 33/2/1 27/2/1 26/2/1
f 34/1/1 28/1/1 27/1/1
f 34/2/1 27/2/1 33/2/1
f 35/2/1 29/2/1 28/2/1
f 35/1/1 28/1/1 34/1/1
f 36/1/1 30/1/1 29/1/1
f 36/2/1 29/2/1 35/2/1
f 37/2/1 31/2/1 30/2/1
f 37/1/1 30/1/1 36/1/1
f 38/2/1 31/2/1 37/2/1
f 39/2/2 40/2/2 45/2/2
f 40/1/2 41/1/2 46/1/2
f 45/2/2 40/2/2 46/2/2
f 41/2/2 42/2/2 47/2/2
f 46/1/2 41/1/2 47/1/2
f 42/1/2 43/1/2 48/1/2
f 47/2/2 42/2/2 48/2/2
f 43/2/2 44/2/2 49/2/2
f 48/1/2 43/1/2 49/1/2
f 49/2/2 44/2/2 50/2/2
f 50/1/2 51/1/2 57/1/2
f 57/1/2 51/1/2 58/1/2
f 52/2/2 53/2/2 59/2/2
f 53/1/2 54/1/2 60/1/2
f 59/2/2 53/2/2 60/2/2
f 54/2/2 55/2/2 61/2/2
f 60/1/2 54/1/2 61/1/2
f 55/1/2 56/1/2 62/1/2
f 61/2/2 55/2/2 62/2/2
f 56/2/2 57/2/2 63/2/2
f 62/1/2 56/1/2 63/1/2
f 63/2/2 57/2/2 64/2/2
f 65/2/2 66/2/2 71/2/2
f 66/1/2 67/1/2 72/1/2
f 71/2/2 66/2/2 72/2/2
f 67/2/2 68/2/2 73/2/2
f 72/1/2 67/1/2 73/1/2
f 68/1/2 69/1/2 74/1/2
f 73/2/2 68/2/2 74/2/2
f 69/2/2 70/2/2 75/2/2
f 74/1/2 69/1/2 75/1/2
f 75/2/2 70/2/2 76/2/2
f 80/2/3 78/2/3 77/2/3
f 81/2/3 78/2/3 80/2/3
f 83/2/3 80/2/3 79/2/3
f 84/1/3 81/1/3 80/1/3
f 84/2/3 80/2/3 83/2/3
f 85/2/3 82/2/3 81/2/3
f 85/1/3 81/1/3 84/1/3
f 86/2/3 82/2/3 85/2/3
f 87/2/3 85/2/3 84/2/3
f 88/2/3 85/2/3 87/2/3
f 89/2/4 90/2/4 92/2/4
f 92/2/4 90/2/4 93/2/4
f 91/2/4 92/2/4 95/2/4
f 95/2/4 92/2/4 96/2/4
f 93/2/4 94/2/4 97/2/4
f 97/2/4 94/2/4 98/2/4
f 96/2/4 97/2/4 99/2/4
f 99/2/4 97/2/4 100/2/4
f 101/1/4 102/1/4 103/1/4
f 103/1/4 102/1/4 104/1/4
f 107/2/5 106/2/5 105/2/5
f 108/2/5 106/2/5 107/2/5
f 109/1/5 108/1/5 107/1/5
f 110/1/5 108/1/5 109/1/5
f 111/2/5 110/2/5 109/2/5
f 112/2/5 110/2/5 111/2/5
f 113/1/5 112/1/5 111/1/5
f 114/1/5 112/1/5 113/1/5
f 115/2/5 114/2/5 113/2/5
f 116/2/5 114/2/5 115/2/5
f 121/2/5 118/2/5 117/2/5
f 122/2/5 118/2/5 121/2/5
f 123/2/5 120/2/5 119/2/5
f 124/2/5 120/2/5 123/2/5
f 125/1/5 122/1/5 121/1/5
f 126/1/5 122/1/5 125/1/5
f 127/1/5 124/1/5 123/1/5
f 128/1/5 124/1/5 127/1/5
f 129/2/5 126/2/5 125/2/5
f 130/2/5 126/2/5 129/2/5
f 131/2/5 128/2/5 127/2/5
f 132/2/5 128/2/5 131/2/5
f 133/1/5 130/1/5 129/1/5
f 134/1/5 130/1/5 133/1/5
f 135/1/5 132/1/5 131/1/5
f 136/1/5 132/1/5 135/1/5
f 137/2/5 134/2/5 133/2/5
f 138/2/5 134/2/5 137/2/5
f 139/2/5 136/2/5 135/2/5
f 140/2/5 136/2/5 139/2/5
f 141/1/5 139/1/5 138/1/5
f 142/1/5 139/1/5 141/1/5
f 143/2/6 144/2/6 147/2/6
f 147/2/6 144/2/6 148/2/6
f 145/2/6 146/2/6 149/2/6
f 149/2/6 146/2/6 150/2/6
f 147/1/6 148/1/6 151/1/6
f 151/1/6 148/1/6 152/1/6
f 149/1/6 150/1/6 153/1/6
f 153/1/6 150/1/6 154/1/6
f 151/2/6 152/2/6 155/2/6
f 155/2/6 152/2/6 156/2/6
f 153/2/6 154/2/6 157/2/6
f 157/2/6 154/2/6 158/2/6
f 155/1/6 156/1/6 159/1/6
f 159/1/6 156/1/6 160/1/6
f 157/1/6 158/1/6 161/1/6
f 161/1/6 158/1/6 162/1/6
f 159/2/6 160/2/6 163/2/6
f 163/2/6 160/2/6 164/2/6
f 161/2/6 162/2/6 165/2/6
f 165/2/6 162/2/6 166/2/6
f 164/1/6 165/1/6 167/1/6
f 167/1/6 165/1/6 168/1/6
f 169/2/6 170/2/6 171/2/6
f 171/2/6 170/2/6 172/2/6
f 171/1/6 172/1/6 173/1/6
f 173/1/6 172/1/6 174/1/6
f 173/2/6 174/2/6 175/2/6
f 175/2/6 174/2/6 176/2/6
f 175/1/6 176/1/6 177/1/6
f 177/1/6 176/1/6 178/1/6
f 177/2/6 178/2/6 179/2/6
f 179/2/6 178/2/6 180/2/6
