# MagicaVoxel @ Ephtracy

# group
o 

# material
mtllib body2.mtl
usemtl palette

# normals
vn -1 0 0
vn 1 0 0
vn 0 0 1
vn 0 0 -1
vn 0 -1 0
vn 0 1 0

# texcoords
vt 0.318359 0.5
vt 0.486328 0.5
vt 0.650391 0.5
vt 0.791016 0.5
vt 0.818359 0.5
vt 0.908203 0.5
vt 0.958984 0.5
vt 0.966797 0.5

# verts
v -0.9 0 -1.1
v -0.9 0 -1.2
v -0.9 0 -1.3
v -0.9 0 -1.4
v -0.9 0 -1.5
v -0.9 0 -1.6
v -0.9 0 -1.7
v -0.9 0 -1.8
v -0.9 0 -1.9
v -0.9 0 -2
v -0.9 0 -2.1
v -0.9 0 -2.2
v -0.9 0 -2.3
v -0.9 0 -2.4
v -0.9 0 -2.5
v -0.9 0 -2.6
v -0.9 0 -2.7
v -0.9 0 -2.8
v -0.9 0 -2.9
v -0.9 0 -3
v -0.9 0 -3.1
v -0.9 0 -3.2
v -0.9 0 -3.3
v -0.9 0 -3.4
v -0.9 0 -3.5
v -0.9 0 -3.6
v -0.9 0 -3.7
v -0.9 0 -3.8
v -0.9 0.1 -1
v -0.9 0.1 -1.1
v -0.9 0.1 -1.2
v -0.9 0.1 -1.3
v -0.9 0.1 -1.4
v -0.9 0.1 -1.5
v -0.9 0.1 -1.6
v -0.9 0.1 -1.7
v -0.9 0.1 -1.8
v -0.9 0.1 -1.9
v -0.9 0.1 -2
v -0.9 0.1 -2.1
v -0.9 0.1 -2.2
v -0.9 0.1 -2.3
v -0.9 0.1 -2.4
v -0.9 0.1 -2.5
v -0.9 0.1 -2.6
v -0.9 0.1 -2.7
v -0.9 0.1 -2.8
v -0.9 0.1 -2.9
v -0.9 0.1 -3
v -0.9 0.1 -3.1
v -0.9 0.1 -3.2
v -0.9 0.1 -3.3
v -0.9 0.1 -3.4
v -0.9 0.1 -3.5
v -0.9 0.1 -3.6
v -0.9 0.1 -3.7
v -0.9 0.1 -3.8
v -0.9 0.1 -3.9
v -0.9 0.2 -0.9
v -0.9 0.2 -1
v -0.9 0.2 -1.1
v -0.9 0.2 -1.2
v -0.9 0.2 -1.6
v -0.9 0.2 -1.7
v -0.9 0.2 -2.1
v -0.9 0.2 -2.2
v -0.9 0.2 -2.6
v -0.9 0.2 -2.7
v -0.9 0.2 -3.1
v -0.9 0.2 -3.2
v -0.9 0.2 -3.6
v -0.9 0.2 -3.7
v -0.9 0.2 -3.8
v -0.9 0.2 -3.9
v -0.9 0.2 -4
v -0.9 0.3 -0.8
v -0.9 0.3 -0.9
v -0.9 0.3 -1
v -0.9 0.3 -1.1
v -0.9 0.3 -1.2
v -0.9 0.3 -1.3
v -0.9 0.3 -1.6
v -0.9 0.3 -1.7
v -0.9 0.3 -1.8
v -0.9 0.3 -2.1
v -0.9 0.3 -2.2
v -0.9 0.3 -2.3
v -0.9 0.3 -2.6
v -0.9 0.3 -2.7
v -0.9 0.3 -2.8
v -0.9 0.3 -3.1
v -0.9 0.3 -3.2
v -0.9 0.3 -3.3
v -0.9 0.3 -3.6
v -0.9 0.3 -3.7
v -0.9 0.3 -3.8
v -0.9 0.3 -3.9
v -0.9 0.3 -4
v -0.9 0.3 -4.1
v -0.9 0.4 -0.8
v -0.9 0.4 -0.9
v -0.9 0.4 -1
v -0.9 0.4 -1.4
v -0.9 0.4 -1.5
v -0.9 0.4 -2.4
v -0.9 0.4 -2.5
v -0.9 0.4 -3.4
v -0.9 0.4 -3.5
v -0.9 0.4 -3.8
v -0.9 0.4 -3.9
v -0.9 0.4 -4
v -0.9 0.4 -4.1
v -0.9 0.5 -0.8
v -0.9 0.5 -0.9
v -0.9 0.5 -1
v -0.9 0.5 -1.1
v -0.9 0.5 -1.2
v -0.9 0.5 -1.3
v -0.9 0.5 -1.4
v -0.9 0.5 -1.5
v -0.9 0.5 -1.6
v -0.9 0.5 -1.7
v -0.9 0.5 -1.8
v -0.9 0.5 -1.9
v -0.9 0.5 -2
v -0.9 0.5 -2.1
v -0.9 0.5 -2.2
v -0.9 0.5 -2.3
v -0.9 0.5 -2.4
v -0.9 0.5 -2.5
v -0.9 0.5 -2.6
v -0.9 0.5 -2.7
v -0.9 0.5 -2.8
v -0.9 0.5 -2.9
v -0.9 0.5 -3
v -0.9 0.5 -3.1
v -0.9 0.5 -3.2
v -0.9 0.5 -3.3
v -0.9 0.5 -3.4
v -0.9 0.5 -3.5
v -0.9 0.5 -3.6
v -0.9 0.5 -3.7
v -0.9 0.5 -3.8
v -0.9 0.5 -3.9
v -0.9 0.5 -4
v -0.9 0.5 -4.1
v -0.9 0.6 -0.8
v -0.9 0.6 -0.9
v -0.9 0.6 -1
v -0.9 0.6 -1.1
v -0.9 0.6 -1.2
v -0.9 0.6 -1.3
v -0.9 0.6 -1.4
v -0.9 0.6 -1.5
v -0.9 0.6 -1.6
v -0.9 0.6 -1.7
v -0.9 0.6 -1.8
v -0.9 0.6 -1.9
v -0.9 0.6 -2
v -0.9 0.6 -2.1
v -0.9 0.6 -2.2
v -0.9 0.6 -2.3
v -0.9 0.6 -2.4
v -0.9 0.6 -2.5
v -0.9 0.6 -2.6
v -0.9 0.6 -2.7
v -0.9 0.6 -2.8
v -0.9 0.6 -2.9
v -0.9 0.6 -3
v -0.9 0.6 -3.1
v -0.9 0.6 -3.2
v -0.9 0.6 -3.3
v -0.9 0.6 -3.4
v -0.9 0.6 -3.5
v -0.9 0.6 -3.6
v -0.9 0.6 -3.7
v -0.9 0.6 -3.8
v -0.9 0.6 -3.9
v -0.9 0.6 -4
v -0.9 0.6 -4.1
v -0.9 0.7 -0.8
v -0.9 0.7 -1.3
v -0.9 0.7 -1.5
v -0.9 0.7 -2.1
v -0.9 0.7 -2.2
v -0.9 0.7 -2.7
v -0.9 0.7 -2.9
v -0.9 0.7 -3.2
v -0.9 0.7 -3.4
v -0.9 0.7 -4.1
v -0.5 0.7 -1.5
v -0.5 0.7 -1.6
v -0.5 0.7 -1.7
v -0.5 0.7 -1.8
v -0.5 0.7 -3.3
v -0.5 0.7 -3.5
v -0.5 0.7 -4
v -0.5 0.8 -1.6
v -0.5 0.8 -1.7
v -0.5 0.8 -1.8
v -0.5 0.8 -2.2
v -0.5 0.8 -2.3
v -0.5 0.8 -2.5
v -0.5 0.8 -2.8
v -0.5 0.8 -2.9
v -0.5 0.8 -3
v -0.5 0.8 -3.1
v -0.5 0.8 -3.3
v -0.5 0.8 -3.4
v -0.5 0.8 -3.6
v -0.5 0.8 -3.7
v -0.5 0.8 -3.8
v -0.5 0.8 -4
v -0.5 0.9 -1.5
v -0.5 0.9 -1.7
v -0.5 0.9 -2.2
v -0.5 0.9 -2.3
v -0.5 0.9 -2.5
v -0.5 0.9 -2.8
v -0.5 0.9 -2.9
v -0.5 0.9 -3
v -0.5 0.9 -3.1
v -0.5 0.9 -3.3
v -0.5 0.9 -3.4
v -0.5 0.9 -3.6
v -0.5 0.9 -3.7
v -0.5 0.9 -3.8
v -0.5 0.9 -4
v -0.3 0.6 -1.4
v -0.3 0.6 -1.5
v -0.3 0.8 -1.3
v -0.3 0.8 -1.4
v -0.3 0.9 -1.3
v -0.3 0.9 -1.4
v -0.3 0.9 -1.5
v 0.2 0.8 -1.3
v 0.2 0.8 -1.4
v 0.2 0.9 -1.3
v 0.2 0.9 -1.4
v 0.5 0 -1.1
v 0.5 0 -1.2
v 0.5 0 -1.3
v 0.5 0 -1.4
v 0.5 0 -1.5
v 0.5 0 -1.6
v 0.5 0 -1.7
v 0.5 0 -1.8
v 0.5 0 -1.9
v 0.5 0 -2
v 0.5 0 -2.1
v 0.5 0 -2.2
v 0.5 0 -2.3
v 0.5 0 -2.4
v 0.5 0 -2.5
v 0.5 0 -2.6
v 0.5 0 -2.7
v 0.5 0 -2.8
v 0.5 0 -2.9
v 0.5 0 -3
v 0.5 0 -3.1
v 0.5 0 -3.2
v 0.5 0 -3.3
v 0.5 0 -3.4
v 0.5 0 -3.5
v 0.5 0 -3.6
v 0.5 0 -3.7
v 0.5 0 -3.8
v 0.5 0.1 -1
v 0.5 0.1 -1.1
v 0.5 0.1 -1.2
v 0.5 0.1 -1.3
v 0.5 0.1 -1.4
v 0.5 0.1 -1.5
v 0.5 0.1 -1.6
v 0.5 0.1 -1.7
v 0.5 0.1 -1.8
v 0.5 0.1 -1.9
v 0.5 0.1 -2
v 0.5 0.1 -2.1
v 0.5 0.1 -2.2
v 0.5 0.1 -2.3
v 0.5 0.1 -2.4
v 0.5 0.1 -2.5
v 0.5 0.1 -2.6
v 0.5 0.1 -2.7
v 0.5 0.1 -2.8
v 0.5 0.1 -2.9
v 0.5 0.1 -3
v 0.5 0.1 -3.1
v 0.5 0.1 -3.2
v 0.5 0.1 -3.3
v 0.5 0.1 -3.4
v 0.5 0.1 -3.5
v 0.5 0.1 -3.6
v 0.5 0.1 -3.7
v 0.5 0.1 -3.8
v 0.5 0.1 -3.9
v 0.5 0.2 -0.9
v 0.5 0.2 -1
v 0.5 0.2 -1.1
v 0.5 0.2 -1.2
v 0.5 0.2 -1.6
v 0.5 0.2 -1.7
v 0.5 0.2 -2.1
v 0.5 0.2 -2.2
v 0.5 0.2 -2.6
v 0.5 0.2 -2.7
v 0.5 0.2 -3.1
v 0.5 0.2 -3.2
v 0.5 0.2 -3.6
v 0.5 0.2 -3.7
v 0.5 0.2 -3.8
v 0.5 0.2 -3.9
v 0.5 0.2 -4
v 0.5 0.3 -0.8
v 0.5 0.3 -0.9
v 0.5 0.3 -1
v 0.5 0.3 -1.1
v 0.5 0.3 -1.2
v 0.5 0.3 -1.3
v 0.5 0.3 -1.6
v 0.5 0.3 -1.7
v 0.5 0.3 -1.8
v 0.5 0.3 -2.1
v 0.5 0.3 -2.2
v 0.5 0.3 -2.3
v 0.5 0.3 -2.6
v 0.5 0.3 -2.7
v 0.5 0.3 -2.8
v 0.5 0.3 -3.1
v 0.5 0.3 -3.2
v 0.5 0.3 -3.3
v 0.5 0.3 -3.6
v 0.5 0.3 -3.7
v 0.5 0.3 -3.8
v 0.5 0.3 -3.9
v 0.5 0.3 -4
v 0.5 0.3 -4.1
v 0.5 0.4 -0.8
v 0.5 0.4 -0.9
v 0.5 0.4 -1
v 0.5 0.4 -1.1
v 0.5 0.4 -4
v 0.5 0.4 -4.1
v 0.5 0.5 -0.8
v 0.5 0.5 -0.9
v 0.5 0.5 -1
v 0.5 0.5 -1.1
v 0.5 0.5 -4
v 0.5 0.5 -4.1
v 0.5 0.6 -0.8
v 0.5 0.6 -0.9
v 0.5 0.6 -1
v 0.5 0.6 -1.1
v 0.5 0.6 -1.2
v 0.5 0.6 -1.5
v 0.5 0.6 -4
v 0.5 0.6 -4.1
v 0.5 0.7 -0.8
v 0.5 0.7 -1
v 0.5 0.7 -1.2
v 0.5 0.7 -1.5
v 0.5 0.7 -4
v 0.5 0.7 -4.1
v -0.5 0 -1.1
v -0.5 0 -1.2
v -0.5 0 -1.3
v -0.5 0 -1.4
v -0.5 0 -1.5
v -0.5 0 -1.6
v -0.5 0 -1.7
v -0.5 0 -1.8
v -0.5 0 -1.9
v -0.5 0 -2
v -0.5 0 -2.1
v -0.5 0 -2.2
v -0.5 0 -2.3
v -0.5 0 -2.4
v -0.5 0 -2.5
v -0.5 0 -2.6
v -0.5 0 -2.7
v -0.5 0 -2.8
v -0.5 0 -2.9
v -0.5 0 -3
v -0.5 0 -3.1
v -0.5 0 -3.2
v -0.5 0 -3.3
v -0.5 0 -3.4
v -0.5 0 -3.5
v -0.5 0 -3.6
v -0.5 0 -3.7
v -0.5 0 -3.8
v -0.5 0.1 -1
v -0.5 0.1 -1.1
v -0.5 0.1 -1.2
v -0.5 0.1 -1.3
v -0.5 0.1 -1.4
v -0.5 0.1 -1.5
v -0.5 0.1 -1.6
v -0.5 0.1 -1.7
v -0.5 0.1 -1.8
v -0.5 0.1 -1.9
v -0.5 0.1 -2
v -0.5 0.1 -2.1
v -0.5 0.1 -2.2
v -0.5 0.1 -2.3
v -0.5 0.1 -2.4
v -0.5 0.1 -2.5
v -0.5 0.1 -2.6
v -0.5 0.1 -2.7
v -0.5 0.1 -2.8
v -0.5 0.1 -2.9
v -0.5 0.1 -3
v -0.5 0.1 -3.1
v -0.5 0.1 -3.2
v -0.5 0.1 -3.3
v -0.5 0.1 -3.4
v -0.5 0.1 -3.5
v -0.5 0.1 -3.6
v -0.5 0.1 -3.7
v -0.5 0.1 -3.8
v -0.5 0.1 -3.9
v -0.5 0.2 -0.9
v -0.5 0.2 -1
v -0.5 0.2 -1.1
v -0.5 0.2 -1.2
v -0.5 0.2 -1.6
v -0.5 0.2 -1.7
v -0.5 0.2 -2.1
v -0.5 0.2 -2.2
v -0.5 0.2 -2.6
v -0.5 0.2 -2.7
v -0.5 0.2 -3.1
v -0.5 0.2 -3.2
v -0.5 0.2 -3.6
v -0.5 0.2 -3.7
v -0.5 0.2 -3.8
v -0.5 0.2 -3.9
v -0.5 0.2 -4
v -0.5 0.3 -0.8
v -0.5 0.3 -0.9
v -0.5 0.3 -1
v -0.5 0.3 -1.1
v -0.5 0.3 -1.2
v -0.5 0.3 -1.3
v -0.5 0.3 -1.6
v -0.5 0.3 -1.7
v -0.5 0.3 -1.8
v -0.5 0.3 -2.1
v -0.5 0.3 -2.2
v -0.5 0.3 -2.3
v -0.5 0.3 -2.6
v -0.5 0.3 -2.7
v -0.5 0.3 -2.8
v -0.5 0.3 -3.1
v -0.5 0.3 -3.2
v -0.5 0.3 -3.3
v -0.5 0.3 -3.6
v -0.5 0.3 -3.7
v -0.5 0.3 -3.8
v -0.5 0.3 -3.9
v -0.5 0.3 -4
v -0.5 0.3 -4.1
v -0.5 0.4 -0.8
v -0.5 0.4 -0.9
v -0.5 0.4 -1
v -0.5 0.4 -1.1
v -0.5 0.4 -4
v -0.5 0.4 -4.1
v -0.5 0.5 -0.8
v -0.5 0.5 -0.9
v -0.5 0.5 -1
v -0.5 0.5 -1.1
v -0.5 0.5 -4
v -0.5 0.5 -4.1
v -0.5 0.6 -0.8
v -0.5 0.6 -0.9
v -0.5 0.6 -1
v -0.5 0.6 -1.1
v -0.5 0.6 -1.2
v -0.5 0.6 -1.5
v -0.5 0.6 -4
v -0.5 0.6 -4.1
v -0.5 0.7 -0.8
v -0.5 0.7 -1
v -0.5 0.7 -1.2
v -0.5 0.7 -1.5
v -0.5 0.7 -4
v -0.5 0.7 -4.1
v -0.2 0.8 -1.3
v -0.2 0.8 -1.4
v -0.2 0.9 -1.3
v -0.2 0.9 -1.4
v 0.3 0.6 -1.4
v 0.3 0.6 -1.5
v 0.3 0.8 -1.3
v 0.3 0.8 -1.4
v 0.3 0.9 -1.3
v 0.3 0.9 -1.4
v 0.3 0.9 -1.5
v 0.5 0.7 -1.5
v 0.5 0.7 -1.6
v 0.5 0.7 -1.7
v 0.5 0.7 -1.8
v 0.5 0.7 -3.3
v 0.5 0.7 -3.5
v 0.5 0.7 -4
v 0.5 0.8 -1.6
v 0.5 0.8 -1.7
v 0.5 0.8 -1.8
v 0.5 0.8 -2.2
v 0.5 0.8 -2.3
v 0.5 0.8 -2.5
v 0.5 0.8 -2.8
v 0.5 0.8 -2.9
v 0.5 0.8 -3
v 0.5 0.8 -3.1
v 0.5 0.8 -3.3
v 0.5 0.8 -3.4
v 0.5 0.8 -3.6
v 0.5 0.8 -3.7
v 0.5 0.8 -3.8
v 0.5 0.8 -4
v 0.5 0.9 -1.5
v 0.5 0.9 -1.7
v 0.5 0.9 -2.2
v 0.5 0.9 -2.3
v 0.5 0.9 -2.5
v 0.5 0.9 -2.8
v 0.5 0.9 -2.9
v 0.5 0.9 -3
v 0.5 0.9 -3.1
v 0.5 0.9 -3.3
v 0.5 0.9 -3.4
v 0.5 0.9 -3.6
v 0.5 0.9 -3.7
v 0.5 0.9 -3.8
v 0.5 0.9 -4
v 0.9 0 -1.1
v 0.9 0 -1.2
v 0.9 0 -1.3
v 0.9 0 -1.4
v 0.9 0 -1.5
v 0.9 0 -1.6
v 0.9 0 -1.7
v 0.9 0 -1.8
v 0.9 0 -1.9
v 0.9 0 -2
v 0.9 0 -2.1
v 0.9 0 -2.2
v 0.9 0 -2.3
v 0.9 0 -2.4
v 0.9 0 -2.5
v 0.9 0 -2.6
v 0.9 0 -2.7
v 0.9 0 -2.8
v 0.9 0 -2.9
v 0.9 0 -3
v 0.9 0 -3.1
v 0.9 0 -3.2
v 0.9 0 -3.3
v 0.9 0 -3.4
v 0.9 0 -3.5
v 0.9 0 -3.6
v 0.9 0 -3.7
v 0.9 0 -3.8
v 0.9 0.1 -1
v 0.9 0.1 -1.1
v 0.9 0.1 -1.2
v 0.9 0.1 -1.3
v 0.9 0.1 -1.4
v 0.9 0.1 -1.5
v 0.9 0.1 -1.6
v 0.9 0.1 -1.7
v 0.9 0.1 -1.8
v 0.9 0.1 -1.9
v 0.9 0.1 -2
v 0.9 0.1 -2.1
v 0.9 0.1 -2.2
v 0.9 0.1 -2.3
v 0.9 0.1 -2.4
v 0.9 0.1 -2.5
v 0.9 0.1 -2.6
v 0.9 0.1 -2.7
v 0.9 0.1 -2.8
v 0.9 0.1 -2.9
v 0.9 0.1 -3
v 0.9 0.1 -3.1
v 0.9 0.1 -3.2
v 0.9 0.1 -3.3
v 0.9 0.1 -3.4
v 0.9 0.1 -3.5
v 0.9 0.1 -3.6
v 0.9 0.1 -3.7
v 0.9 0.1 -3.8
v 0.9 0.1 -3.9
v 0.9 0.2 -0.9
v 0.9 0.2 -1
v 0.9 0.2 -1.1
v 0.9 0.2 -1.2
v 0.9 0.2 -1.6
v 0.9 0.2 -1.7
v 0.9 0.2 -2.1
v 0.9 0.2 -2.2
v 0.9 0.2 -2.6
v 0.9 0.2 -2.7
v 0.9 0.2 -3.1
v 0.9 0.2 -3.2
v 0.9 0.2 -3.6
v 0.9 0.2 -3.7
v 0.9 0.2 -3.8
v 0.9 0.2 -3.9
v 0.9 0.2 -4
v 0.9 0.3 -0.8
v 0.9 0.3 -0.9
v 0.9 0.3 -1
v 0.9 0.3 -1.1
v 0.9 0.3 -1.2
v 0.9 0.3 -1.3
v 0.9 0.3 -1.6
v 0.9 0.3 -1.7
v 0.9 0.3 -1.8
v 0.9 0.3 -2.1
v 0.9 0.3 -2.2
v 0.9 0.3 -2.3
v 0.9 0.3 -2.6
v 0.9 0.3 -2.7
v 0.9 0.3 -2.8
v 0.9 0.3 -3.1
v 0.9 0.3 -3.2
v 0.9 0.3 -3.3
v 0.9 0.3 -3.6
v 0.9 0.3 -3.7
v 0.9 0.3 -3.8
v 0.9 0.3 -3.9
v 0.9 0.3 -4
v 0.9 0.3 -4.1
v 0.9 0.4 -0.8
v 0.9 0.4 -0.9
v 0.9 0.4 -1
v 0.9 0.4 -1.4
v 0.9 0.4 -1.5
v 0.9 0.4 -2.4
v 0.9 0.4 -2.5
v 0.9 0.4 -3.4
v 0.9 0.4 -3.5
v 0.9 0.4 -3.8
v 0.9 0.4 -3.9
v 0.9 0.4 -4
v 0.9 0.4 -4.1
v 0.9 0.5 -0.8
v 0.9 0.5 -0.9
v 0.9 0.5 -1
v 0.9 0.5 -1.1
v 0.9 0.5 -1.2
v 0.9 0.5 -1.3
v 0.9 0.5 -1.4
v 0.9 0.5 -1.5
v 0.9 0.5 -1.6
v 0.9 0.5 -1.7
v 0.9 0.5 -1.8
v 0.9 0.5 -1.9
v 0.9 0.5 -2
v 0.9 0.5 -2.1
v 0.9 0.5 -2.2
v 0.9 0.5 -2.3
v 0.9 0.5 -2.4
v 0.9 0.5 -2.5
v 0.9 0.5 -2.6
v 0.9 0.5 -2.7
v 0.9 0.5 -2.8
v 0.9 0.5 -2.9
v 0.9 0.5 -3
v 0.9 0.5 -3.1
v 0.9 0.5 -3.2
v 0.9 0.5 -3.3
v 0.9 0.5 -3.4
v 0.9 0.5 -3.5
v 0.9 0.5 -3.6
v 0.9 0.5 -3.7
v 0.9 0.5 -3.8
v 0.9 0.5 -3.9
v 0.9 0.5 -4
v 0.9 0.5 -4.1
v 0.9 0.6 -0.8
v 0.9 0.6 -0.9
v 0.9 0.6 -1
v 0.9 0.6 -1.1
v 0.9 0.6 -1.2
v 0.9 0.6 -1.3
v 0.9 0.6 -1.4
v 0.9 0.6 -1.5
v 0.9 0.6 -1.6
v 0.9 0.6 -1.7
v 0.9 0.6 -1.8
v 0.9 0.6 -1.9
v 0.9 0.6 -2
v 0.9 0.6 -2.1
v 0.9 0.6 -2.2
v 0.9 0.6 -2.3
v 0.9 0.6 -2.4
v 0.9 0.6 -2.5
v 0.9 0.6 -2.6
v 0.9 0.6 -2.7
v 0.9 0.6 -2.8
v 0.9 0.6 -2.9
v 0.9 0.6 -3
v 0.9 0.6 -3.1
v 0.9 0.6 -3.2
v 0.9 0.6 -3.3
v 0.9 0.6 -3.4
v 0.9 0.6 -3.5
v 0.9 0.6 -3.6
v 0.9 0.6 -3.7
v 0.9 0.6 -3.8
v 0.9 0.6 -3.9
v 0.9 0.6 -4
v 0.9 0.6 -4.1
v 0.9 0.7 -0.8
v 0.9 0.7 -1.3
v 0.9 0.7 -1.5
v 0.9 0.7 -2.1
v 0.9 0.7 -2.2
v 0.9 0.7 -2.7
v 0.9 0.7 -2.9
v 0.9 0.7 -3.2
v 0.9 0.7 -3.4
v 0.9 0.7 -4.1
v -0.9 0.3 -0.8
v -0.9 0.4 -0.8
v -0.9 0.5 -0.8
v -0.9 0.6 -0.8
v -0.9 0.7 -0.8
v -0.5 0.3 -0.8
v -0.5 0.4 -0.8
v -0.5 0.5 -0.8
v -0.5 0.6 -0.8
v -0.5 0.7 -0.8
v 0.5 0.3 -0.8
v 0.5 0.4 -0.8
v 0.5 0.5 -0.8
v 0.5 0.6 -0.8
v 0.5 0.7 -0.8
v 0.9 0.3 -0.8
v 0.9 0.4 -0.8
v 0.9 0.5 -0.8
v 0.9 0.6 -0.8
v 0.9 0.7 -0.8
v -0.9 0.2 -0.9
v -0.9 0.3 -0.9
v -0.9 0.5 -0.9
v -0.9 0.6 -0.9
v -0.5 0.2 -0.9
v -0.5 0.3 -0.9
v -0.5 0.5 -0.9
v -0.5 0.6 -0.9
v 0.5 0.2 -0.9
v 0.5 0.3 -0.9
v 0.5 0.5 -0.9
v 0.5 0.6 -0.9
v 0.9 0.2 -0.9
v 0.9 0.3 -0.9
v 0.9 0.5 -0.9
v 0.9 0.6 -0.9
v -0.9 0.1 -1
v -0.9 0.2 -1
v -0.5 0.1 -1
v -0.5 0.2 -1
v 0.5 0.1 -1
v 0.5 0.2 -1
v 0.9 0.1 -1
v 0.9 0.2 -1
v -0.9 0 -1.1
v -0.9 0.1 -1.1
v -0.5 0 -1.1
v -0.5 0.1 -1.1
v -0.5 0.3 -1.1
v -0.5 0.4 -1.1
v -0.5 0.5 -1.1
v -0.5 0.6 -1.1
v -0.4 0.3 -1.1
v -0.4 0.4 -1.1
v -0.3 0.4 -1.1
v -0.3 0.5 -1.1
v -0.3 0.6 -1.1
v -0.1 0.3 -1.1
v -0.1 0.4 -1.1
v -0.1 0.5 -1.1
v -0.1 0.6 -1.1
v 0.1 0.3 -1.1
v 0.1 0.4 -1.1
v 0.1 0.5 -1.1
v 0.1 0.6 -1.1
v 0.3 0.4 -1.1
v 0.3 0.5 -1.1
v 0.3 0.6 -1.1
v 0.4 0.3 -1.1
v 0.4 0.4 -1.1
v 0.5 0 -1.1
v 0.5 0.1 -1.1
v 0.5 0.3 -1.1
v 0.5 0.4 -1.1
v 0.5 0.5 -1.1
v 0.5 0.6 -1.1
v 0.9 0 -1.1
v 0.9 0.1 -1.1
v -0.3 0.8 -1.3
v -0.3 0.9 -1.3
v -0.2 0.8 -1.3
v -0.2 0.9 -1.3
v 0.2 0.8 -1.3
v 0.2 0.9 -1.3
v 0.3 0.8 -1.3
v 0.3 0.9 -1.3
v -0.3 0.6 -1.4
v -0.3 0.8 -1.4
v -0.2 0.8 -1.4
v -0.2 0.9 -1.4
v 0.2 0.8 -1.4
v 0.2 0.9 -1.4
v 0.3 0.6 -1.4
v 0.3 0.8 -1.4
v -0.5 0.6 -1.5
v -0.5 0.7 -1.5
v -0.5 0.9 -1.5
v -0.4 0.7 -1.5
v -0.4 0.9 -1.5
v -0.3 0.6 -1.5
v -0.3 0.9 -1.5
v 0.3 0.6 -1.5
v 0.3 0.9 -1.5
v 0.4 0.7 -1.5
v 0.4 0.9 -1.5
v 0.5 0.6 -1.5
v 0.5 0.7 -1.5
v 0.5 0.9 -1.5
v -0.9 0 -3.8
v -0.9 0.1 -3.8
v -0.5 0 -3.8
v -0.5 0.1 -3.8
v 0.5 0 -3.8
v 0.5 0.1 -3.8
v 0.9 0 -3.8
v 0.9 0.1 -3.8
v -0.9 0.1 -3.9
v -0.9 0.2 -3.9
v -0.5 0.1 -3.9
v -0.5 0.2 -3.9
v 0.5 0.1 -3.9
v 0.5 0.2 -3.9
v 0.9 0.1 -3.9
v 0.9 0.2 -3.9
v -0.9 0.2 -4
v -0.9 0.3 -4
v -0.9 0.5 -4
v -0.9 0.6 -4
v -0.5 0.2 -4
v -0.5 0.3 -4
v -0.5 0.4 -4
v -0.5 0.5 -4
v -0.5 0.6 -4
v -0.5 0.7 -4
v -0.5 0.8 -4
v -0.5 0.9 -4
v -0.4 0.3 -4
v -0.4 0.4 -4
v -0.4 0.5 -4
v -0.4 0.7 -4
v -0.4 0.8 -4
v -0.3 0.3 -4
v -0.3 0.4 -4
v -0.3 0.5 -4
v -0.3 0.6 -4
v -0.3 0.7 -4
v -0.3 0.9 -4
v -0.2 0.3 -4
v -0.2 0.5 -4
v -0.1 0.3 -4
v -0.1 0.4 -4
v -0.1 0.7 -4
v -0.1 0.8 -4
v 0.1 0.3 -4
v 0.1 0.4 -4
v 0.1 0.7 -4
v 0.1 0.8 -4
v 0.2 0.3 -4
v 0.2 0.5 -4
v 0.3 0.3 -4
v 0.3 0.4 -4
v 0.3 0.5 -4
v 0.3 0.6 -4
v 0.3 0.7 -4
v 0.3 0.9 -4
v 0.4 0.3 -4
v 0.4 0.4 -4
v 0.4 0.5 -4
v 0.4 0.7 -4
v 0.4 0.8 -4
v 0.5 0.2 -4
v 0.5 0.3 -4
v 0.5 0.4 -4
v 0.5 0.5 -4
v 0.5 0.6 -4
v 0.5 0.7 -4
v 0.5 0.8 -4
v 0.5 0.9 -4
v 0.9 0.2 -4
v 0.9 0.3 -4
v 0.9 0.5 -4
v 0.9 0.6 -4
v -0.9 0.3 -4.1
v -0.9 0.4 -4.1
v -0.9 0.5 -4.1
v -0.9 0.6 -4.1
v -0.9 0.7 -4.1
v -0.5 0.3 -4.1
v -0.5 0.4 -4.1
v -0.5 0.5 -4.1
v -0.5 0.6 -4.1
v -0.5 0.7 -4.1
v 0.5 0.3 -4.1
v 0.5 0.4 -4.1
v 0.5 0.5 -4.1
v 0.5 0.6 -4.1
v 0.5 0.7 -4.1
v 0.9 0.3 -4.1
v 0.9 0.4 -4.1
v 0.9 0.5 -4.1
v 0.9 0.6 -4.1
v 0.9 0.7 -4.1
v -0.9 0 -1.1
v -0.5 0 -1.1
v 0.5 0 -1.1
v 0.9 0 -1.1
v -0.9 0 -1.2
v -0.5 0 -1.2
v 0.5 0 -1.2
v 0.9 0 -1.2
v -0.9 0 -1.3
v -0.5 0 -1.3
v 0.5 0 -1.3
v 0.9 0 -1.3
v -0.9 0 -1.4
v -0.5 0 -1.4
v 0.5 0 -1.4
v 0.9 0 -1.4
v -0.9 0 -1.5
v -0.5 0 -1.5
v 0.5 0 -1.5
v 0.9 0 -1.5
v -0.9 0 -1.6
v -0.5 0 -1.6
v 0.5 0 -1.6
v 0.9 0 -1.6
v -0.9 0 -1.7
v -0.5 0 -1.7
v 0.5 0 -1.7
v 0.9 0 -1.7
v -0.9 0 -1.8
v -0.5 0 -1.8
v 0.5 0 -1.8
v 0.9 0 -1.8
v -0.9 0 -1.9
v -0.5 0 -1.9
v 0.5 0 -1.9
v 0.9 0 -1.9
v -0.9 0 -2
v -0.5 0 -2
v 0.5 0 -2
v 0.9 0 -2
v -0.9 0 -2.1
v -0.5 0 -2.1
v 0.5 0 -2.1
v 0.9 0 -2.1
v -0.9 0 -2.2
v -0.5 0 -2.2
v 0.5 0 -2.2
v 0.9 0 -2.2
v -0.9 0 -2.3
v -0.5 0 -2.3
v 0.5 0 -2.3
v 0.9 0 -2.3
v -0.9 0 -2.4
v -0.5 0 -2.4
v 0.5 0 -2.4
v 0.9 0 -2.4
v -0.9 0 -2.5
v -0.5 0 -2.5
v 0.5 0 -2.5
v 0.9 0 -2.5
v -0.9 0 -2.6
v -0.5 0 -2.6
v 0.5 0 -2.6
v 0.9 0 -2.6
v -0.9 0 -2.7
v -0.5 0 -2.7
v 0.5 0 -2.7
v 0.9 0 -2.7
v -0.9 0 -2.8
v -0.5 0 -2.8
v 0.5 0 -2.8
v 0.9 0 -2.8
v -0.9 0 -2.9
v -0.5 0 -2.9
v 0.5 0 -2.9
v 0.9 0 -2.9
v -0.9 0 -3
v -0.5 0 -3
v 0.5 0 -3
v 0.9 0 -3
v -0.9 0 -3.1
v -0.5 0 -3.1
v 0.5 0 -3.1
v 0.9 0 -3.1
v -0.9 0 -3.2
v -0.5 0 -3.2
v 0.5 0 -3.2
v 0.9 0 -3.2
v -0.9 0 -3.3
v -0.5 0 -3.3
v 0.5 0 -3.3
v 0.9 0 -3.3
v -0.9 0 -3.4
v -0.5 0 -3.4
v 0.5 0 -3.4
v 0.9 0 -3.4
v -0.9 0 -3.5
v -0.5 0 -3.5
v 0.5 0 -3.5
v 0.9 0 -3.5
v -0.9 0 -3.6
v -0.5 0 -3.6
v 0.5 0 -3.6
v 0.9 0 -3.6
v -0.9 0 -3.7
v -0.5 0 -3.7
v 0.5 0 -3.7
v 0.9 0 -3.7
v -0.9 0 -3.8
v -0.5 0 -3.8
v 0.5 0 -3.8
v 0.9 0 -3.8
v -0.9 0.1 -1
v -0.5 0.1 -1
v 0.5 0.1 -1
v 0.9 0.1 -1
v -0.9 0.1 -1.1
v -0.5 0.1 -1.1
v 0.5 0.1 -1.1
v 0.9 0.1 -1.1
v -0.9 0.1 -3.8
v -0.5 0.1 -3.8
v 0.5 0.1 -3.8
v 0.9 0.1 -3.8
v -0.9 0.1 -3.9
v -0.5 0.1 -3.9
v 0.5 0.1 -3.9
v 0.9 0.1 -3.9
v -0.9 0.2 -0.9
v -0.5 0.2 -0.9
v 0.5 0.2 -0.9
v 0.9 0.2 -0.9
v -0.9 0.2 -1
v -0.5 0.2 -1
v 0.5 0.2 -1
v 0.9 0.2 -1
v -0.9 0.2 -3.9
v -0.5 0.2 -3.9
v 0.5 0.2 -3.9
v 0.9 0.2 -3.9
v -0.9 0.2 -4
v -0.5 0.2 -4
v 0.5 0.2 -4
v 0.9 0.2 -4
v -0.9 0.3 -0.8
v -0.5 0.3 -0.8
v 0.5 0.3 -0.8
v 0.9 0.3 -0.8
v -0.9 0.3 -0.9
v -0.5 0.3 -0.9
v 0.5 0.3 -0.9
v 0.9 0.3 -0.9
v -0.5 0.3 -1.1
v -0.4 0.3 -1.1
v -0.1 0.3 -1.1
v 0.1 0.3 -1.1
v 0.4 0.3 -1.1
v 0.5 0.3 -1.1
v -0.5 0.3 -1.2
v -0.4 0.3 -1.2
v -0.1 0.3 -1.2
v 0.1 0.3 -1.2
v 0.4 0.3 -1.2
v 0.5 0.3 -1.2
v -0.5 0.3 -1.3
v 0.5 0.3 -1.3
v -0.5 0.3 -1.6
v 0.5 0.3 -1.6
v -0.5 0.3 -1.7
v 0.5 0.3 -1.7
v -0.5 0.3 -1.8
v 0.5 0.3 -1.8
v -0.5 0.3 -2.1
v 0.5 0.3 -2.1
v -0.5 0.3 -2.2
v 0.5 0.3 -2.2
v -0.5 0.3 -2.3
v 0.5 0.3 -2.3
v -0.5 0.3 -2.6
v 0.5 0.3 -2.6
v -0.5 0.3 -2.7
v 0.5 0.3 -2.7
v -0.5 0.3 -2.8
v 0.5 0.3 -2.8
v -0.5 0.3 -3.1
v 0.5 0.3 -3.1
v -0.5 0.3 -3.2
v 0.5 0.3 -3.2
v -0.5 0.3 -3.3
v 0.5 0.3 -3.3
v -0.5 0.3 -3.6
v 0.5 0.3 -3.6
v -0.5 0.3 -3.7
v 0.5 0.3 -3.7
v -0.5 0.3 -3.8
v 0.5 0.3 -3.8
v -0.5 0.3 -3.9
v -0.4 0.3 -3.9
v -0.3 0.3 -3.9
v -0.2 0.3 -3.9
v -0.1 0.3 -3.9
v 0.1 0.3 -3.9
v 0.2 0.3 -3.9
v 0.3 0.3 -3.9
v 0.4 0.3 -3.9
v 0.5 0.3 -3.9
v -0.9 0.3 -4
v -0.5 0.3 -4
v -0.4 0.3 -4
v -0.3 0.3 -4
v -0.2 0.3 -4
v -0.1 0.3 -4
v 0.1 0.3 -4
v 0.2 0.3 -4
v 0.3 0.3 -4
v 0.4 0.3 -4
v 0.5 0.3 -4
v 0.9 0.3 -4
v -0.9 0.3 -4.1
v -0.5 0.3 -4.1
v 0.5 0.3 -4.1
v 0.9 0.3 -4.1
v -0.9 0.6 -0.8
v -0.5 0.6 -0.8
v 0.5 0.6 -0.8
v 0.9 0.6 -0.8
v -0.9 0.6 -0.9
v -0.5 0.6 -0.9
v 0.5 0.6 -0.9
v 0.9 0.6 -0.9
v -0.9 0.6 -4
v -0.5 0.6 -4
v 0.5 0.6 -4
v 0.9 0.6 -4
v -0.9 0.6 -4.1
v -0.5 0.6 -4.1
v 0.5 0.6 -4.1
v 0.9 0.6 -4.1
v -0.3 0.8 -1.3
v -0.2 0.8 -1.3
v 0.2 0.8 -1.3
v 0.3 0.8 -1.3
v -0.3 0.8 -1.4
v -0.2 0.8 -1.4
v 0.2 0.8 -1.4
v 0.3 0.8 -1.4
v -0.9 0.5 -0.8
v -0.5 0.5 -0.8
v 0.5 0.5 -0.8
v 0.9 0.5 -0.8
v -0.9 0.5 -0.9
v -0.5 0.5 -0.9
v 0.5 0.5 -0.9
v 0.9 0.5 -0.9
v -0.9 0.5 -4
v -0.5 0.5 -4
v 0.5 0.5 -4
v 0.9 0.5 -4
v -0.9 0.5 -4.1
v -0.5 0.5 -4.1
v 0.5 0.5 -4.1
v 0.9 0.5 -4.1
v -0.5 0.6 -1.1
v -0.3 0.6 -1.1
v -0.1 0.6 -1.1
v 0.1 0.6 -1.1
v 0.3 0.6 -1.1
v 0.5 0.6 -1.1
v -0.5 0.6 -1.2
v -0.4 0.6 -1.2
v -0.1 0.6 -1.2
v 0.1 0.6 -1.2
v 0.4 0.6 -1.2
v 0.5 0.6 -1.2
v -0.4 0.6 -1.3
v -0.3 0.6 -1.3
v 0.3 0.6 -1.3
v 0.4 0.6 -1.3
v -0.3 0.6 -1.4
v 0.3 0.6 -1.4
v -0.5 0.6 -1.5
v -0.3 0.6 -1.5
v 0.3 0.6 -1.5
v 0.5 0.6 -1.5
v -0.9 0.7 -0.8
v -0.5 0.7 -0.8
v 0.5 0.7 -0.8
v 0.9 0.7 -0.8
v -0.6 0.7 -1
v -0.5 0.7 -1
v 0.5 0.7 -1
v 0.6 0.7 -1
v -0.6 0.7 -1.2
v -0.5 0.7 -1.2
v 0.5 0.7 -1.2
v 0.6 0.7 -1.2
v -0.9 0.7 -1.3
v -0.8 0.7 -1.3
v 0.8 0.7 -1.3
v 0.9 0.7 -1.3
v -0.9 0.7 -1.5
v -0.8 0.7 -1.5
v -0.5 0.7 -1.5
v 0.5 0.7 -1.5
v 0.8 0.7 -1.5
v 0.9 0.7 -1.5
v -0.7 0.7 -1.6
v -0.5 0.7 -1.6
v 0.5 0.7 -1.6
v 0.7 0.7 -1.6
v -0.7 0.7 -1.7
v -0.5 0.7 -1.7
v 0.5 0.7 -1.7
v 0.7 0.7 -1.7
v -0.5 0.7 -1.8
v 0.5 0.7 -1.8
v -0.9 0.7 -2.1
v -0.7 0.7 -2.1
v 0.7 0.7 -2.1
v 0.9 0.7 -2.1
v -0.9 0.7 -2.2
v -0.7 0.7 -2.2
v 0.7 0.7 -2.2
v 0.9 0.7 -2.2
v -0.7 0.7 -2.3
v -0.6 0.7 -2.3
v 0.6 0.7 -2.3
v 0.7 0.7 -2.3
v -0.7 0.7 -2.4
v -0.6 0.7 -2.4
v 0.6 0.7 -2.4
v 0.7 0.7 -2.4
v -0.9 0.7 -2.7
v -0.8 0.7 -2.7
v 0.8 0.7 -2.7
v 0.9 0.7 -2.7
v -0.9 0.7 -2.9
v -0.8 0.7 -2.9
v 0.8 0.7 -2.9
v 0.9 0.7 -2.9
v -0.9 0.7 -3.2
v -0.8 0.7 -3.2
v 0.8 0.7 -3.2
v 0.9 0.7 -3.2
v -0.8 0.7 -3.3
v -0.5 0.7 -3.3
v 0.5 0.7 -3.3
v 0.8 0.7 -3.3
v -0.9 0.7 -3.4
v -0.8 0.7 -3.4
v 0.8 0.7 -3.4
v 0.9 0.7 -3.4
v -0.8 0.7 -3.5
v -0.5 0.7 -3.5
v 0.5 0.7 -3.5
v 0.8 0.7 -3.5
v -0.8 0.7 -3.8
v -0.7 0.7 -3.8
v 0.7 0.7 -3.8
v 0.8 0.7 -3.8
v -0.8 0.7 -3.9
v -0.7 0.7 -3.9
v 0.7 0.7 -3.9
v 0.8 0.7 -3.9
v -0.5 0.7 -4
v 0.5 0.7 -4
v -0.9 0.7 -4.1
v -0.5 0.7 -4.1
v 0.5 0.7 -4.1
v 0.9 0.7 -4.1
v -0.3 0.9 -1.3
v -0.2 0.9 -1.3
v 0.2 0.9 -1.3
v 0.3 0.9 -1.3
v -0.3 0.9 -1.4
v -0.2 0.9 -1.4
v 0.2 0.9 -1.4
v 0.3 0.9 -1.4
v -0.5 0.9 -1.5
v -0.4 0.9 -1.5
v -0.3 0.9 -1.5
v 0.3 0.9 -1.5
v 0.4 0.9 -1.5
v 0.5 0.9 -1.5
v -0.4 0.9 -1.6
v -0.3 0.9 -1.6
v 0.3 0.9 -1.6
v 0.4 0.9 -1.6
v -0.5 0.9 -1.7
v -0.4 0.9 -1.7
v -0.3 0.9 -1.7
v 0.3 0.9 -1.7
v 0.4 0.9 -1.7
v 0.5 0.9 -1.7
v -0.4 0.9 -1.8
v -0.3 0.9 -1.8
v -0.1 0.9 -1.8
v 0.1 0.9 -1.8
v 0.3 0.9 -1.8
v 0.4 0.9 -1.8
v -0.4 0.9 -1.9
v -0.2 0.9 -1.9
v -0.1 0.9 -1.9
v 0.1 0.9 -1.9
v 0.2 0.9 -1.9
v 0.4 0.9 -1.9
v -0.2 0.9 -2
v -0.1 0.9 -2
v 0.1 0.9 -2
v 0.2 0.9 -2
v -0.1 0.9 -2.1
v 0.1 0.9 -2.1
v -0.5 0.9 -2.2
v -0.4 0.9 -2.2
v -0.2 0.9 -2.2
v -0.1 0.9 -2.2
v 0.1 0.9 -2.2
v 0.2 0.9 -2.2
v 0.4 0.9 -2.2
v 0.5 0.9 -2.2
v -0.5 0.9 -2.3
v -0.4 0.9 -2.3
v -0.3 0.9 -2.3
v -0.2 0.9 -2.3
v 0.2 0.9 -2.3
v 0.3 0.9 -2.3
v 0.4 0.9 -2.3
v 0.5 0.9 -2.3
v -0.3 0.9 -2.4
v -0.2 0.9 -2.4
v 0.2 0.9 -2.4
v 0.3 0.9 -2.4
v -0.5 0.9 -2.5
v -0.4 0.9 -2.5
v 0.4 0.9 -2.5
v 0.5 0.9 -2.5
v -0.4 0.9 -2.6
v -0.3 0.9 -2.6
v -0.2 0.9 -2.6
v -0.1 0.9 -2.6
v 0.1 0.9 -2.6
v 0.2 0.9 -2.6
v 0.3 0.9 -2.6
v 0.4 0.9 -2.6
v -0.5 0.9 -2.8
v -0.4 0.9 -2.8
v -0.2 0.9 -2.8
v -0.1 0.9 -2.8
v 0.1 0.9 -2.8
v 0.2 0.9 -2.8
v 0.4 0.9 -2.8
v 0.5 0.9 -2.8
v -0.5 0.9 -2.9
v -0.4 0.9 -2.9
v -0.2 0.9 -2.9
v -0.1 0.9 -2.9
v 0.1 0.9 -2.9
v 0.2 0.9 -2.9
v 0.4 0.9 -2.9
v 0.5 0.9 -2.9
v -0.5 0.9 -3
v -0.4 0.9 -3
v -0.2 0.9 -3
v -0.1 0.9 -3
v 0.1 0.9 -3
v 0.2 0.9 -3
v 0.4 0.9 -3
v 0.5 0.9 -3
v -0.5 0.9 -3.1
v -0.2 0.9 -3.1
v -0.1 0.9 -3.1
v 0.1 0.9 -3.1
v 0.2 0.9 -3.1
v 0.5 0.9 -3.1
v -0.5 0.9 -3.3
v -0.4 0.9 -3.3
v -0.3 0.9 -3.3
v -0.2 0.9 -3.3
v 0.2 0.9 -3.3
v 0.3 0.9 -3.3
v 0.4 0.9 -3.3
v 0.5 0.9 -3.3
v -0.5 0.9 -3.4
v -0.4 0.9 -3.4
v -0.3 0.9 -3.4
v -0.1 0.9 -3.4
v 0.1 0.9 -3.4
v 0.3 0.9 -3.4
v 0.4 0.9 -3.4
v 0.5 0.9 -3.4
v -0.3 0.9 -3.5
v -0.1 0.9 -3.5
v 0.1 0.9 -3.5
v 0.3 0.9 -3.5
v -0.5 0.9 -3.6
v -0.4 0.9 -3.6
v 0.4 0.9 -3.6
v 0.5 0.9 -3.6
v -0.5 0.9 -3.7
v -0.4 0.9 -3.7
v -0.3 0.9 -3.7
v -0.2 0.9 -3.7
v -0.1 0.9 -3.7
v 0.1 0.9 -3.7
v 0.2 0.9 -3.7
v 0.3 0.9 -3.7
v 0.4 0.9 -3.7
v 0.5 0.9 -3.7
v -0.5 0.9 -3.8
v -0.4 0.9 -3.8
v 0.4 0.9 -3.8
v 0.5 0.9 -3.8
v -0.4 0.9 -3.9
v -0.3 0.9 -3.9
v -0.2 0.9 -3.9
v 0.2 0.9 -3.9
v 0.3 0.9 -3.9
v 0.4 0.9 -3.9
v -0.5 0.9 -4
v -0.3 0.9 -4
v 0.3 0.9 -4
v 0.5 0.9 -4

# faces
f 30/3/1 2/3/1 1/3/1
f 31/6/1 3/6/1 2/6/1
f 31/3/1 2/3/1 30/3/1
f 32/3/1 4/3/1 3/3/1
f 32/6/1 3/6/1 31/6/1
f 33/6/1 5/6/1 4/6/1
f 33/3/1 4/3/1 32/3/1
f 34/3/1 6/3/1 5/3/1
f 34/6/1 5/6/1 33/6/1
f 35/6/1 7/6/1 6/6/1
f 35/3/1 6/3/1 34/3/1
f 36/3/1 8/3/1 7/3/1
f 36/6/1 7/6/1 35/6/1
f 37/6/1 9/6/1 8/6/1
f 37/3/1 8/3/1 36/3/1
f 38/3/1 10/3/1 9/3/1
f 38/6/1 9/6/1 37/6/1
f 39/6/1 11/6/1 10/6/1
f 39/3/1 10/3/1 38/3/1
f 40/3/1 12/3/1 11/3/1
f 40/6/1 11/6/1 39/6/1
f 41/6/1 13/6/1 12/6/1
f 41/3/1 12/3/1 40/3/1
f 42/3/1 14/3/1 13/3/1
f 42/6/1 13/6/1 41/6/1
f 43/6/1 15/6/1 14/6/1
f 43/3/1 14/3/1 42/3/1
f 44/3/1 16/3/1 15/3/1
f 44/6/1 15/6/1 43/6/1
f 45/6/1 17/6/1 16/6/1
f 45/3/1 16/3/1 44/3/1
f 46/3/1 18/3/1 17/3/1
f 46/6/1 17/6/1 45/6/1
f 47/6/1 19/6/1 18/6/1
f 47/3/1 18/3/1 46/3/1
f 48/3/1 20/3/1 19/3/1
f 48/6/1 19/6/1 47/6/1
f 49/6/1 21/6/1 20/6/1
f 49/3/1 20/3/1 48/3/1
f 50/3/1 22/3/1 21/3/1
f 50/6/1 21/6/1 49/6/1
f 51/6/1 23/6/1 22/6/1
f 51/3/1 22/3/1 50/3/1
f 52/3/1 24/3/1 23/3/1
f 52/6/1 23/6/1 51/6/1
f 53/6/1 25/6/1 24/6/1
f 53/3/1 24/3/1 52/3/1
f 54/3/1 26/3/1 25/3/1
f 54/6/1 25/6/1 53/6/1
f 55/6/1 27/6/1 26/6/1
f 55/3/1 26/3/1 54/3/1
f 56/3/1 28/3/1 27/3/1
f 56/6/1 27/6/1 55/6/1
f 57/3/1 28/3/1 56/3/1
f 60/6/1 30/6/1 29/6/1
f 61/2/1 31/2/1 30/2/1
f 61/2/1 32/2/1 31/2/1
f 61/6/1 30/6/1 60/6/1
f 62/2/1 32/2/1 61/2/1
f 63/5/1 33/5/1 32/5/1
f 63/5/1 34/5/1 33/5/1
f 63/5/1 35/5/1 34/5/1
f 63/2/1 36/2/1 35/2/1
f 63/2/1 37/2/1 36/2/1
f 64/2/1 37/2/1 63/2/1
f 65/5/1 38/5/1 37/5/1
f 65/5/1 39/5/1 38/5/1
f 65/5/1 40/5/1 39/5/1
f 65/2/1 41/2/1 40/2/1
f 65/2/1 42/2/1 41/2/1
f 66/2/1 42/2/1 65/2/1
f 67/5/1 43/5/1 42/5/1
f 67/5/1 44/5/1 43/5/1
f 67/5/1 45/5/1 44/5/1
f 67/2/1 46/2/1 45/2/1
f 67/2/1 47/2/1 46/2/1
f 68/2/1 47/2/1 67/2/1
f 69/2/1 52/2/1 51/2/1
f 69/5/1 48/5/1 47/5/1
f 69/5/1 49/5/1 48/5/1
f 69/5/1 50/5/1 49/5/1
f 69/2/1 51/2/1 50/2/1
f 70/2/1 52/2/1 69/2/1
f 71/5/1 55/5/1 54/5/1
f 71/2/1 57/2/1 56/2/1
f 71/2/1 56/2/1 55/2/1
f 71/5/1 54/5/1 53/5/1
f 71/5/1 53/5/1 52/5/1
f 72/2/1 57/2/1 71/2/1
f 73/6/1 58/6/1 57/6/1
f 73/2/1 57/2/1 72/2/1
f 74/6/1 58/6/1 73/6/1
f 77/3/1 60/3/1 59/3/1
f 78/5/1 61/5/1 60/5/1
f 78/3/1 60/3/1 77/3/1
f 79/1/1 62/1/1 61/1/1
f 79/5/1 61/5/1 78/5/1
f 80/2/1 32/2/1 62/2/1
f 80/1/1 62/1/1 79/1/1
f 81/5/1 63/5/1 32/5/1
f 81/2/1 32/2/1 80/2/1
f 82/1/1 64/1/1 63/1/1
f 82/5/1 63/5/1 81/5/1
f 83/2/1 37/2/1 64/2/1
f 83/1/1 64/1/1 82/1/1
f 84/5/1 65/5/1 37/5/1
f 84/2/1 37/2/1 83/2/1
f 85/1/1 66/1/1 65/1/1
f 85/5/1 65/5/1 84/5/1
f 86/2/1 42/2/1 66/2/1
f 86/1/1 66/1/1 85/1/1
f 87/5/1 67/5/1 42/5/1
f 87/2/1 42/2/1 86/2/1
f 88/1/1 68/1/1 67/1/1
f 88/5/1 67/5/1 87/5/1
f 89/2/1 47/2/1 68/2/1
f 89/1/1 68/1/1 88/1/1
f 90/5/1 69/5/1 47/5/1
f 90/2/1 47/2/1 89/2/1
f 91/1/1 70/1/1 69/1/1
f 91/5/1 69/5/1 90/5/1
f 92/2/1 52/2/1 70/2/1
f 92/1/1 70/1/1 91/1/1
f 93/5/1 71/5/1 52/5/1
f 93/2/1 52/2/1 92/2/1
f 94/1/1 72/1/1 71/1/1
f 94/5/1 71/5/1 93/5/1
f 95/2/1 73/2/1 72/2/1
f 95/1/1 72/1/1 94/1/1
f 96/5/1 74/5/1 73/5/1
f 96/2/1 73/2/1 95/2/1
f 97/3/1 75/3/1 74/3/1
f 97/5/1 74/5/1 96/5/1
f 98/3/1 75/3/1 97/3/1
f 100/6/1 77/6/1 76/6/1
f 101/2/1 79/2/1 78/2/1
f 101/6/1 77/6/1 100/6/1
f 101/2/1 78/2/1 77/2/1
f 102/2/1 79/2/1 101/2/1
f 103/5/1 91/5/1 90/5/1
f 103/5/1 93/5/1 92/5/1
f 103/5/1 96/5/1 95/5/1
f 103/5/1 90/5/1 89/5/1
f 103/5/1 89/5/1 88/5/1
f 103/5/1 82/5/1 81/5/1
f 103/5/1 95/5/1 94/5/1
f 103/5/1 94/5/1 93/5/1
f 103/5/1 92/5/1 91/5/1
f 103/5/1 88/5/1 87/5/1
f 103/5/1 87/5/1 86/5/1
f 103/5/1 83/5/1 82/5/1
f 103/5/1 84/5/1 83/5/1
f 103/5/1 85/5/1 84/5/1
f 103/5/1 86/5/1 85/5/1
f 103/5/1 81/5/1 80/5/1
f 103/5/1 80/5/1 79/5/1
f 104/5/1 96/5/1 103/5/1
f 105/5/1 96/5/1 104/5/1
f 106/5/1 96/5/1 105/5/1
f 107/5/1 96/5/1 106/5/1
f 108/5/1 96/5/1 107/5/1
f 109/2/1 98/2/1 97/2/1
f 109/5/1 96/5/1 108/5/1
f 109/2/1 97/2/1 96/2/1
f 110/2/1 98/2/1 109/2/1
f 111/6/1 99/6/1 98/6/1
f 111/2/1 98/2/1 110/2/1
f 112/6/1 99/6/1 111/6/1
f 113/3/1 101/3/1 100/3/1
f 114/1/1 102/1/1 101/1/1
f 114/3/1 101/3/1 113/3/1
f 115/2/1 79/2/1 102/2/1
f 115/1/1 102/1/1 114/1/1
f 116/5/1 103/5/1 79/5/1
f 116/2/1 79/2/1 115/2/1
f 117/5/1 103/5/1 116/5/1
f 118/5/1 103/5/1 117/5/1
f 119/2/1 104/2/1 103/2/1
f 119/5/1 103/5/1 118/5/1
f 120/5/1 105/5/1 104/5/1
f 120/2/1 104/2/1 119/2/1
f 121/5/1 105/5/1 120/5/1
f 122/5/1 105/5/1 121/5/1
f 123/5/1 105/5/1 122/5/1
f 124/5/1 105/5/1 123/5/1
f 125/5/1 105/5/1 124/5/1
f 126/5/1 105/5/1 125/5/1
f 127/5/1 105/5/1 126/5/1
f 128/5/1 105/5/1 127/5/1
f 129/2/1 106/2/1 105/2/1
f 129/5/1 105/5/1 128/5/1
f 130/5/1 107/5/1 106/5/1
f 130/2/1 106/2/1 129/2/1
f 131/5/1 107/5/1 130/5/1
f 132/5/1 107/5/1 131/5/1
f 133/5/1 107/5/1 132/5/1
f 134/5/1 107/5/1 133/5/1
f 135/5/1 107/5/1 134/5/1
f 136/5/1 107/5/1 135/5/1
f 137/5/1 107/5/1 136/5/1
f 138/5/1 107/5/1 137/5/1
f 139/2/1 108/2/1 107/2/1
f 139/5/1 107/5/1 138/5/1
f 140/5/1 109/5/1 108/5/1
f 140/2/1 108/2/1 139/2/1
f 141/5/1 109/5/1 140/5/1
f 142/5/1 109/5/1 141/5/1
f 143/1/1 110/1/1 109/1/1
f 143/5/1 109/5/1 142/5/1
f 144/2/1 111/2/1 110/2/1
f 144/1/1 110/1/1 143/1/1
f 145/3/1 112/3/1 111/3/1
f 145/2/1 111/2/1 144/2/1
f 146/3/1 112/3/1 145/3/1
f 148/6/1 115/6/1 114/6/1
f 149/3/1 116/3/1 115/3/1
f 149/6/1 115/6/1 148/6/1
f 150/6/1 117/6/1 116/6/1
f 150/3/1 116/3/1 149/3/1
f 151/3/1 118/3/1 117/3/1
f 151/6/1 117/6/1 150/6/1
f 152/6/1 119/6/1 118/6/1
f 152/3/1 118/3/1 151/3/1
f 153/3/1 120/3/1 119/3/1
f 153/6/1 119/6/1 152/6/1
f 154/6/1 121/6/1 120/6/1
f 154/3/1 120/3/1 153/3/1
f 155/3/1 122/3/1 121/3/1
f 155/6/1 121/6/1 154/6/1
f 156/6/1 123/6/1 122/6/1
f 156/3/1 122/3/1 155/3/1
f 157/3/1 124/3/1 123/3/1
f 157/6/1 123/6/1 156/6/1
f 158/6/1 125/6/1 124/6/1
f 158/3/1 124/3/1 157/3/1
f 159/3/1 126/3/1 125/3/1
f 159/6/1 125/6/1 158/6/1
f 160/6/1 127/6/1 126/6/1
f 160/3/1 126/3/1 159/3/1
f 161/3/1 128/3/1 127/3/1
f 161/6/1 127/6/1 160/6/1
f 162/6/1 129/6/1 128/6/1
f 162/3/1 128/3/1 161/3/1
f 163/3/1 130/3/1 129/3/1
f 163/6/1 129/6/1 162/6/1
f 164/6/1 131/6/1 130/6/1
f 164/3/1 130/3/1 163/3/1
f 165/3/1 132/3/1 131/3/1
f 165/6/1 131/6/1 164/6/1
f 166/6/1 133/6/1 132/6/1
f 166/3/1 132/3/1 165/3/1
f 167/3/1 134/3/1 133/3/1
f 167/6/1 133/6/1 166/6/1
f 168/6/1 135/6/1 134/6/1
f 168/3/1 134/3/1 167/3/1
f 169/3/1 136/3/1 135/3/1
f 169/6/1 135/6/1 168/6/1
f 170/6/1 137/6/1 136/6/1
f 170/3/1 136/3/1 169/3/1
f 171/3/1 138/3/1 137/3/1
f 171/6/1 137/6/1 170/6/1
f 172/6/1 139/6/1 138/6/1
f 172/3/1 138/3/1 171/3/1
f 173/3/1 140/3/1 139/3/1
f 173/6/1 139/6/1 172/6/1
f 174/6/1 141/6/1 140/6/1
f 174/3/1 140/3/1 173/3/1
f 175/3/1 142/3/1 141/3/1
f 175/6/1 141/6/1 174/6/1
f 176/6/1 143/6/1 142/6/1
f 176/3/1 142/3/1 175/3/1
f 177/3/1 144/3/1 143/3/1
f 177/6/1 143/6/1 176/6/1
f 178/6/1 145/6/1 144/6/1
f 178/3/1 144/3/1 177/3/1
f 179/6/1 145/6/1 178/6/1
f 181/8/1 150/8/1 149/8/1
f 181/8/1 151/8/1 150/8/1
f 181/8/1 148/8/1 147/8/1
f 181/8/1 149/8/1 148/8/1
f 181/8/1 152/8/1 151/8/1
f 182/4/1 153/4/1 152/4/1
f 182/8/1 152/8/1 181/8/1
f 182/4/1 154/4/1 153/4/1
f 183/8/1 160/8/1 159/8/1
f 183/4/1 154/4/1 182/4/1
f 183/8/1 155/8/1 154/8/1
f 183/8/1 156/8/1 155/8/1
f 183/8/1 157/8/1 156/8/1
f 183/8/1 158/8/1 157/8/1
f 183/8/1 159/8/1 158/8/1
f 184/4/1 161/4/1 160/4/1
f 184/8/1 160/8/1 183/8/1
f 185/8/1 166/8/1 165/8/1
f 185/4/1 161/4/1 184/4/1
f 185/8/1 165/8/1 164/8/1
f 185/8/1 164/8/1 163/8/1
f 185/8/1 163/8/1 162/8/1
f 185/8/1 162/8/1 161/8/1
f 186/4/1 168/4/1 167/4/1
f 186/8/1 166/8/1 185/8/1
f 186/4/1 167/4/1 166/4/1
f 187/8/1 170/8/1 169/8/1
f 187/4/1 168/4/1 186/4/1
f 187/8/1 171/8/1 170/8/1
f 187/8/1 169/8/1 168/8/1
f 188/4/1 173/4/1 172/4/1
f 188/8/1 171/8/1 187/8/1
f 188/4/1 172/4/1 171/4/1
f 189/8/1 174/8/1 173/8/1
f 189/4/1 173/4/1 188/4/1
f 189/8/1 177/8/1 176/8/1
f 189/8/1 180/8/1 179/8/1
f 189/8/1 179/8/1 178/8/1
f 189/8/1 175/8/1 174/8/1
f 189/8/1 176/8/1 175/8/1
f 189/8/1 178/8/1 177/8/1
f 190/8/1 180/8/1 189/8/1
f 198/4/1 192/4/1 191/4/1
f 198/2/1 193/2/1 192/2/1
f 199/3/1 194/3/1 193/3/1
f 199/2/1 193/2/1 198/2/1
f 200/2/1 197/2/1 196/2/1
f 200/3/1 194/3/1 199/3/1
f 200/2/1 196/2/1 195/2/1
f 200/2/1 195/2/1 194/2/1
f 201/2/1 197/2/1 200/2/1
f 202/2/1 197/2/1 201/2/1
f 203/2/1 197/2/1 202/2/1
f 204/2/1 197/2/1 203/2/1
f 205/2/1 197/2/1 204/2/1
f 206/2/1 197/2/1 205/2/1
f 207/2/1 197/2/1 206/2/1
f 208/2/1 197/2/1 207/2/1
f 209/2/1 197/2/1 208/2/1
f 210/2/1 197/2/1 209/2/1
f 211/2/1 197/2/1 210/2/1
f 212/2/1 197/2/1 211/2/1
f 213/2/1 197/2/1 212/2/1
f 214/4/1 199/4/1 198/4/1
f 214/4/1 198/4/1 191/4/1
f 215/2/1 200/2/1 199/2/1
f 215/4/1 199/4/1 214/4/1
f 215/2/1 201/2/1 200/2/1
f 216/3/1 202/3/1 201/3/1
f 216/2/1 201/2/1 215/2/1
f 217/2/1 203/2/1 202/2/1
f 217/3/1 202/3/1 216/3/1
f 218/3/1 204/3/1 203/3/1
f 218/2/1 203/2/1 217/2/1
f 219/2/1 205/2/1 204/2/1
f 219/3/1 204/3/1 218/3/1
f 220/4/1 206/4/1 205/4/1
f 220/2/1 205/2/1 219/2/1
f 221/2/1 207/2/1 206/2/1
f 221/4/1 206/4/1 220/4/1
f 222/4/1 208/4/1 207/4/1
f 222/2/1 207/2/1 221/2/1
f 223/3/1 209/3/1 208/3/1
f 223/4/1 208/4/1 222/4/1
f 224/2/1 210/2/1 209/2/1
f 224/3/1 209/3/1 223/3/1
f 225/3/1 211/3/1 210/3/1
f 225/2/1 210/2/1 224/2/1
f 226/2/1 212/2/1 211/2/1
f 226/3/1 211/3/1 225/3/1
f 227/3/1 213/3/1 212/3/1
f 227/2/1 212/2/1 226/2/1
f 228/3/1 213/3/1 227/3/1
f 232/2/1 230/2/1 229/2/1
f 233/7/1 232/7/1 231/7/1
f 234/2/1 230/2/1 232/2/1
f 234/7/1 232/7/1 233/7/1
f 235/2/1 230/2/1 234/2/1
f 238/7/1 237/7/1 236/7/1
f 239/7/1 237/7/1 238/7/1
f 269/3/1 241/3/1 240/3/1
f 270/6/1 242/6/1 241/6/1
f 270/3/1 241/3/1 269/3/1
f 271/3/1 243/3/1 242/3/1
f 271/6/1 242/6/1 270/6/1
f 272/6/1 244/6/1 243/6/1
f 272/3/1 243/3/1 271/3/1
f 273/3/1 245/3/1 244/3/1
f 273/6/1 244/6/1 272/6/1
f 274/6/1 246/6/1 245/6/1
f 274/3/1 245/3/1 273/3/1
f 275/3/1 247/3/1 246/3/1
f 275/6/1 246/6/1 274/6/1
f 276/6/1 248/6/1 247/6/1
f 276/3/1 247/3/1 275/3/1
f 277/3/1 249/3/1 248/3/1
f 277/6/1 248/6/1 276/6/1
f 278/6/1 250/6/1 249/6/1
f 278/3/1 249/3/1 277/3/1
f 279/3/1 251/3/1 250/3/1
f 279/6/1 250/6/1 278/6/1
f 280/6/1 252/6/1 251/6/1
f 280/3/1 251/3/1 279/3/1
f 281/3/1 253/3/1 252/3/1
f 281/6/1 252/6/1 280/6/1
f 282/6/1 254/6/1 253/6/1
f 282/3/1 253/3/1 281/3/1
f 283/3/1 255/3/1 254/3/1
f 283/6/1 254/6/1 282/6/1
f 284/6/1 256/6/1 255/6/1
f 284/3/1 255/3/1 283/3/1
f 285/3/1 257/3/1 256/3/1
f 285/6/1 256/6/1 284/6/1
f 286/6/1 258/6/1 257/6/1
f 286/3/1 257/3/1 285/3/1
f 287/3/1 259/3/1 258/3/1
f 287/6/1 258/6/1 286/6/1
f 288/6/1 260/6/1 259/6/1
f 288/3/1 259/3/1 287/3/1
f 289/3/1 261/3/1 260/3/1
f 289/6/1 260/6/1 288/6/1
f 290/6/1 262/6/1 261/6/1
f 290/3/1 261/3/1 289/3/1
f 291/3/1 263/3/1 262/3/1
f 291/6/1 262/6/1 290/6/1
f 292/6/1 264/6/1 263/6/1
f 292/3/1 263/3/1 291/3/1
f 293/3/1 265/3/1 264/3/1
f 293/6/1 264/6/1 292/6/1
f 294/6/1 266/6/1 265/6/1
f 294/3/1 265/3/1 293/3/1
f 295/3/1 267/3/1 266/3/1
f 295/6/1 266/6/1 294/6/1
f 296/3/1 267/3/1 295/3/1
f 299/6/1 269/6/1 268/6/1
f 300/2/1 270/2/1 269/2/1
f 300/2/1 271/2/1 270/2/1
f 300/6/1 269/6/1 299/6/1
f 301/2/1 271/2/1 300/2/1
f 302/5/1 272/5/1 271/5/1
f 302/5/1 273/5/1 272/5/1
f 302/5/1 274/5/1 273/5/1
f 302/2/1 275/2/1 274/2/1
f 302/2/1 276/2/1 275/2/1
f 303/2/1 276/2/1 302/2/1
f 304/5/1 277/5/1 276/5/1
f 304/5/1 278/5/1 277/5/1
f 304/5/1 279/5/1 278/5/1
f 304/2/1 280/2/1 279/2/1
f 304/2/1 281/2/1 280/2/1
f 305/2/1 281/2/1 304/2/1
f 306/5/1 282/5/1 281/5/1
f 306/5/1 283/5/1 282/5/1
f 306/5/1 284/5/1 283/5/1
f 306/2/1 285/2/1 284/2/1
f 306/2/1 286/2/1 285/2/1
f 307/2/1 286/2/1 306/2/1
f 308/2/1 291/2/1 290/2/1
f 308/5/1 287/5/1 286/5/1
f 308/5/1 288/5/1 287/5/1
f 308/5/1 289/5/1 288/5/1
f 308/2/1 290/2/1 289/2/1
f 309/2/1 291/2/1 308/2/1
f 310/5/1 294/5/1 293/5/1
f 310/2/1 296/2/1 295/2/1
f 310/2/1 295/2/1 294/2/1
f 310/5/1 293/5/1 292/5/1
f 310/5/1 292/5/1 291/5/1
f 311/2/1 296/2/1 310/2/1
f 312/6/1 297/6/1 296/6/1
f 312/2/1 296/2/1 311/2/1
f 313/6/1 297/6/1 312/6/1
f 316/3/1 299/3/1 298/3/1
f 317/5/1 300/5/1 299/5/1
f 317/3/1 299/3/1 316/3/1
f 318/1/1 301/1/1 300/1/1
f 318/5/1 300/5/1 317/5/1
f 319/2/1 271/2/1 301/2/1
f 319/1/1 301/1/1 318/1/1
f 320/5/1 302/5/1 271/5/1
f 320/2/1 271/2/1 319/2/1
f 321/1/1 303/1/1 302/1/1
f 321/5/1 302/5/1 320/5/1
f 322/2/1 276/2/1 303/2/1
f 322/1/1 303/1/1 321/1/1
f 323/5/1 304/5/1 276/5/1
f 323/2/1 276/2/1 322/2/1
f 324/1/1 305/1/1 304/1/1
f 324/5/1 304/5/1 323/5/1
f 325/2/1 281/2/1 305/2/1
f 325/1/1 305/1/1 324/1/1
f 326/5/1 306/5/1 281/5/1
f 326/2/1 281/2/1 325/2/1
f 327/1/1 307/1/1 306/1/1
f 327/5/1 306/5/1 326/5/1
f 328/2/1 286/2/1 307/2/1
f 328/1/1 307/1/1 327/1/1
f 329/5/1 308/5/1 286/5/1
f 329/2/1 286/2/1 328/2/1
f 330/1/1 309/1/1 308/1/1
f 330/5/1 308/5/1 329/5/1
f 331/2/1 291/2/1 309/2/1
f 331/1/1 309/1/1 330/1/1
f 332/5/1 310/5/1 291/5/1
f 332/2/1 291/2/1 331/2/1
f 333/1/1 311/1/1 310/1/1
f 333/5/1 310/5/1 332/5/1
f 334/2/1 312/2/1 311/2/1
f 334/1/1 311/1/1 333/1/1
f 335/5/1 313/5/1 312/5/1
f 335/2/1 312/2/1 334/2/1
f 336/3/1 314/3/1 313/3/1
f 336/5/1 313/5/1 335/5/1
f 337/3/1 314/3/1 336/3/1
f 339/6/1 316/6/1 315/6/1
f 340/2/1 318/2/1 317/2/1
f 340/6/1 316/6/1 339/6/1
f 340/2/1 317/2/1 316/2/1
f 341/2/1 318/2/1 340/2/1
f 342/2/1 318/2/1 341/2/1
f 343/6/1 338/6/1 337/6/1
f 344/6/1 338/6/1 343/6/1
f 345/3/1 340/3/1 339/3/1
f 346/1/1 341/1/1 340/1/1
f 346/3/1 340/3/1 345/3/1
f 347/2/1 342/2/1 341/2/1
f 347/1/1 341/1/1 346/1/1
f 348/2/1 342/2/1 347/2/1
f 349/3/1 344/3/1 343/3/1
f 350/3/1 344/3/1 349/3/1
f 352/6/1 347/6/1 346/6/1
f 353/3/1 348/3/1 347/3/1
f 353/6/1 347/6/1 352/6/1
f 354/3/1 348/3/1 353/3/1
f 359/8/1 352/8/1 351/8/1
f 359/8/1 353/8/1 352/8/1
f 360/4/1 354/4/1 353/4/1
f 360/8/1 353/8/1 359/8/1
f 360/4/1 355/4/1 354/4/1
f 361/8/1 356/8/1 355/8/1
f 361/4/1 355/4/1 360/4/1
f 362/8/1 356/8/1 361/8/1
f 363/8/1 358/8/1 357/8/1
f 364/8/1 358/8/1 363/8/1
f 365/3/2 366/3/2 394/3/2
f 366/6/2 367/6/2 395/6/2
f 394/3/2 366/3/2 395/3/2
f 367/3/2 368/3/2 396/3/2
f 395/6/2 367/6/2 396/6/2
f 368/6/2 369/6/2 397/6/2
f 396/3/2 368/3/2 397/3/2
f 369/3/2 370/3/2 398/3/2
f 397/6/2 369/6/2 398/6/2
f 370/6/2 371/6/2 399/6/2
f 398/3/2 370/3/2 399/3/2
f 371/3/2 372/3/2 400/3/2
f 399/6/2 371/6/2 400/6/2
f 372/6/2 373/6/2 401/6/2
f 400/3/2 372/3/2 401/3/2
f 373/3/2 374/3/2 402/3/2
f 401/6/2 373/6/2 402/6/2
f 374/6/2 375/6/2 403/6/2
f 402/3/2 374/3/2 403/3/2
f 375/3/2 376/3/2 404/3/2
f 403/6/2 375/6/2 404/6/2
f 376/6/2 377/6/2 405/6/2
f 404/3/2 376/3/2 405/3/2
f 377/3/2 378/3/2 406/3/2
f 405/6/2 377/6/2 406/6/2
f 378/6/2 379/6/2 407/6/2
f 406/3/2 378/3/2 407/3/2
f 379/3/2 380/3/2 408/3/2
f 407/6/2 379/6/2 408/6/2
f 380/6/2 381/6/2 409/6/2
f 408/3/2 380/3/2 409/3/2
f 381/3/2 382/3/2 410/3/2
f 409/6/2 381/6/2 410/6/2
f 382/6/2 383/6/2 411/6/2
f 410/3/2 382/3/2 411/3/2
f 383/3/2 384/3/2 412/3/2
f 411/6/2 383/6/2 412/6/2
f 384/6/2 385/6/2 413/6/2
f 412/3/2 384/3/2 413/3/2
f 385/3/2 386/3/2 414/3/2
f 413/6/2 385/6/2 414/6/2
f 386/6/2 387/6/2 415/6/2
f 414/3/2 386/3/2 415/3/2
f 387/3/2 388/3/2 416/3/2
f 415/6/2 387/6/2 416/6/2
f 388/6/2 389/6/2 417/6/2
f 416/3/2 388/3/2 417/3/2
f 389/3/2 390/3/2 418/3/2
f 417/6/2 389/6/2 418/6/2
f 390/6/2 391/6/2 419/6/2
f 418/3/2 390/3/2 419/3/2
f 391/3/2 392/3/2 420/3/2
f 419/6/2 391/6/2 420/6/2
f 420/3/2 392/3/2 421/3/2
f 393/6/2 394/6/2 424/6/2
f 394/2/2 395/2/2 425/2/2
f 395/2/2 396/2/2 425/2/2
f 424/6/2 394/6/2 425/6/2
f 425/2/2 396/2/2 426/2/2
f 396/5/2 397/5/2 427/5/2
f 397/5/2 398/5/2 427/5/2
f 398/5/2 399/5/2 427/5/2
f 399/2/2 400/2/2 427/2/2
f 400/2/2 401/2/2 427/2/2
f 427/2/2 401/2/2 428/2/2
f 401/5/2 402/5/2 429/5/2
f 402/5/2 403/5/2 429/5/2
f 403/5/2 404/5/2 429/5/2
f 404/2/2 405/2/2 429/2/2
f 405/2/2 406/2/2 429/2/2
f 429/2/2 406/2/2 430/2/2
f 406/5/2 407/5/2 431/5/2
f 407/5/2 408/5/2 431/5/2
f 408/5/2 409/5/2 431/5/2
f 409/2/2 410/2/2 431/2/2
f 410/2/2 411/2/2 431/2/2
f 431/2/2 411/2/2 432/2/2
f 415/2/2 416/2/2 433/2/2
f 411/5/2 412/5/2 433/5/2
f 412/5/2 413/5/2 433/5/2
f 413/5/2 414/5/2 433/5/2
f 414/2/2 415/2/2 433/2/2
f 433/2/2 416/2/2 434/2/2
f 418/5/2 419/5/2 435/5/2
f 420/2/2 421/2/2 435/2/2
f 419/2/2 420/2/2 435/2/2
f 417/5/2 418/5/2 435/5/2
f 416/5/2 417/5/2 435/5/2
f 435/2/2 421/2/2 436/2/2
f 421/6/2 422/6/2 437/6/2
f 436/2/2 421/2/2 437/2/2
f 437/6/2 422/6/2 438/6/2
f 423/3/2 424/3/2 441/3/2
f 424/5/2 425/5/2 442/5/2
f 441/3/2 424/3/2 442/3/2
f 425/1/2 426/1/2 443/1/2
f 442/5/2 425/5/2 443/5/2
f 426/2/2 396/2/2 444/2/2
f 443/1/2 426/1/2 444/1/2
f 396/5/2 427/5/2 445/5/2
f 444/2/2 396/2/2 445/2/2
f 427/1/2 428/1/2 446/1/2
f 445/5/2 427/5/2 446/5/2
f 428/2/2 401/2/2 447/2/2
f 446/1/2 428/1/2 447/1/2
f 401/5/2 429/5/2 448/5/2
f 447/2/2 401/2/2 448/2/2
f 429/1/2 430/1/2 449/1/2
f 448/5/2 429/5/2 449/5/2
f 430/2/2 406/2/2 450/2/2
f 449/1/2 430/1/2 450/1/2
f 406/5/2 431/5/2 451/5/2
f 450/2/2 406/2/2 451/2/2
f 431/1/2 432/1/2 452/1/2
f 451/5/2 431/5/2 452/5/2
f 432/2/2 411/2/2 453/2/2
f 452/1/2 432/1/2 453/1/2
f 411/5/2 433/5/2 454/5/2
f 453/2/2 411/2/2 454/2/2
f 433/1/2 434/1/2 455/1/2
f 454/5/2 433/5/2 455/5/2
f 434/2/2 416/2/2 456/2/2
f 455/1/2 434/1/2 456/1/2
f 416/5/2 435/5/2 457/5/2
f 456/2/2 416/2/2 457/2/2
f 435/1/2 436/1/2 458/1/2
f 457/5/2 435/5/2 458/5/2
f 436/2/2 437/2/2 459/2/2
f 458/1/2 436/1/2 459/1/2
f 437/5/2 438/5/2 460/5/2
f 459/2/2 437/2/2 460/2/2
f 438/3/2 439/3/2 461/3/2
f 460/5/2 438/5/2 461/5/2
f 461/3/2 439/3/2 462/3/2
f 440/6/2 441/6/2 464/6/2
f 442/2/2 443/2/2 465/2/2
f 464/6/2 441/6/2 465/6/2
f 441/2/2 442/2/2 465/2/2
f 465/2/2 443/2/2 466/2/2
f 466/2/2 443/2/2 467/2/2
f 462/6/2 463/6/2 468/6/2
f 468/6/2 463/6/2 469/6/2
f 464/3/2 465/3/2 470/3/2
f 465/1/2 466/1/2 471/1/2
f 470/3/2 465/3/2 471/3/2
f 466/2/2 467/2/2 472/2/2
f 471/1/2 466/1/2 472/1/2
f 472/2/2 467/2/2 473/2/2
f 468/3/2 469/3/2 474/3/2
f 474/3/2 469/3/2 475/3/2
f 471/6/2 472/6/2 477/6/2
f 472/3/2 473/3/2 478/3/2
f 477/6/2 472/6/2 478/6/2
f 478/3/2 473/3/2 479/3/2
f 476/8/2 477/8/2 484/8/2
f 477/8/2 478/8/2 484/8/2
f 478/4/2 479/4/2 485/4/2
f 484/8/2 478/8/2 485/8/2
f 479/4/2 480/4/2 485/4/2
f 480/8/2 481/8/2 486/8/2
f 485/4/2 480/4/2 486/4/2
f 486/8/2 481/8/2 487/8/2
f 482/8/2 483/8/2 488/8/2
f 488/8/2 483/8/2 489/8/2
f 490/7/2 491/7/2 492/7/2
f 492/7/2 491/7/2 493/7/2
f 494/2/2 495/2/2 497/2/2
f 496/7/2 497/7/2 498/7/2
f 497/2/2 495/2/2 499/2/2
f 498/7/2 497/7/2 499/7/2
f 499/2/2 495/2/2 500/2/2
f 501/4/2 502/4/2 508/4/2
f 502/2/2 503/2/2 508/2/2
f 503/3/2 504/3/2 509/3/2
f 508/2/2 503/2/2 509/2/2
f 506/2/2 507/2/2 510/2/2
f 509/3/2 504/3/2 510/3/2
f 505/2/2 506/2/2 510/2/2
f 504/2/2 505/2/2 510/2/2
f 510/2/2 507/2/2 511/2/2
f 511/2/2 507/2/2 512/2/2
f 512/2/2 507/2/2 513/2/2
f 513/2/2 507/2/2 514/2/2
f 514/2/2 507/2/2 515/2/2
f 515/2/2 507/2/2 516/2/2
f 516/2/2 507/2/2 517/2/2
f 517/2/2 507/2/2 518/2/2
f 518/2/2 507/2/2 519/2/2
f 519/2/2 507/2/2 520/2/2
f 520/2/2 507/2/2 521/2/2
f 521/2/2 507/2/2 522/2/2
f 522/2/2 507/2/2 523/2/2
f 508/4/2 509/4/2 524/4/2
f 501/4/2 508/4/2 524/4/2
f 509/2/2 510/2/2 525/2/2
f 524/4/2 509/4/2 525/4/2
f 510/2/2 511/2/2 525/2/2
f 511/3/2 512/3/2 526/3/2
f 525/2/2 511/2/2 526/2/2
f 512/2/2 513/2/2 527/2/2
f 526/3/2 512/3/2 527/3/2
f 513/3/2 514/3/2 528/3/2
f 527/2/2 513/2/2 528/2/2
f 514/2/2 515/2/2 529/2/2
f 528/3/2 514/3/2 529/3/2
f 515/4/2 516/4/2 530/4/2
f 529/2/2 515/2/2 530/2/2
f 516/2/2 517/2/2 531/2/2
f 530/4/2 516/4/2 531/4/2
f 517/4/2 518/4/2 532/4/2
f 531/2/2 517/2/2 532/2/2
f 518/3/2 519/3/2 533/3/2
f 532/4/2 518/4/2 533/4/2
f 519/2/2 520/2/2 534/2/2
f 533/3/2 519/3/2 534/3/2
f 520/3/2 521/3/2 535/3/2
f 534/2/2 520/2/2 535/2/2
f 521/2/2 522/2/2 536/2/2
f 535/3/2 521/3/2 536/3/2
f 522/3/2 523/3/2 537/3/2
f 536/2/2 522/2/2 537/2/2
f 537/3/2 523/3/2 538/3/2
f 539/3/2 540/3/2 568/3/2
f 540/6/2 541/6/2 569/6/2
f 568/3/2 540/3/2 569/3/2
f 541/3/2 542/3/2 570/3/2
f 569/6/2 541/6/2 570/6/2
f 542/6/2 543/6/2 571/6/2
f 570/3/2 542/3/2 571/3/2
f 543/3/2 544/3/2 572/3/2
f 571/6/2 543/6/2 572/6/2
f 544/6/2 545/6/2 573/6/2
f 572/3/2 544/3/2 573/3/2
f 545/3/2 546/3/2 574/3/2
f 573/6/2 545/6/2 574/6/2
f 546/6/2 547/6/2 575/6/2
f 574/3/2 546/3/2 575/3/2
f 547/3/2 548/3/2 576/3/2
f 575/6/2 547/6/2 576/6/2
f 548/6/2 549/6/2 577/6/2
f 576/3/2 548/3/2 577/3/2
f 549/3/2 550/3/2 578/3/2
f 577/6/2 549/6/2 578/6/2
f 550/6/2 551/6/2 579/6/2
f 578/3/2 550/3/2 579/3/2
f 551/3/2 552/3/2 580/3/2
f 579/6/2 551/6/2 580/6/2
f 552/6/2 553/6/2 581/6/2
f 580/3/2 552/3/2 581/3/2
f 553/3/2 554/3/2 582/3/2
f 581/6/2 553/6/2 582/6/2
f 554/6/2 555/6/2 583/6/2
f 582/3/2 554/3/2 583/3/2
f 555/3/2 556/3/2 584/3/2
f 583/6/2 555/6/2 584/6/2
f 556/6/2 557/6/2 585/6/2
f 584/3/2 556/3/2 585/3/2
f 557/3/2 558/3/2 586/3/2
f 585/6/2 557/6/2 586/6/2
f 558/6/2 559/6/2 587/6/2
f 586/3/2 558/3/2 587/3/2
f 559/3/2 560/3/2 588/3/2
f 587/6/2 559/6/2 588/6/2
f 560/6/2 561/6/2 589/6/2
f 588/3/2 560/3/2 589/3/2
f 561/3/2 562/3/2 590/3/2
f 589/6/2 561/6/2 590/6/2
f 562/6/2 563/6/2 591/6/2
f 590/3/2 562/3/2 591/3/2
f 563/3/2 564/3/2 592/3/2
f 591/6/2 563/6/2 592/6/2
f 564/6/2 565/6/2 593/6/2
f 592/3/2 564/3/2 593/3/2
f 565/3/2 566/3/2 594/3/2
f 593/6/2 565/6/2 594/6/2
f 594/3/2 566/3/2 595/3/2
f 567/6/2 568/6/2 598/6/2
f 568/2/2 569/2/2 599/2/2
f 569/2/2 570/2/2 599/2/2
f 598/6/2 568/6/2 599/6/2
f 599/2/2 570/2/2 600/2/2
f 570/5/2 571/5/2 601/5/2
f 571/5/2 572/5/2 601/5/2
f 572/5/2 573/5/2 601/5/2
f 573/2/2 574/2/2 601/2/2
f 574/2/2 575/2/2 601/2/2
f 601/2/2 575/2/2 602/2/2
f 575/5/2 576/5/2 603/5/2
f 576/5/2 577/5/2 603/5/2
f 577/5/2 578/5/2 603/5/2
f 578/2/2 579/2/2 603/2/2
f 579/2/2 580/2/2 603/2/2
f 603/2/2 580/2/2 604/2/2
f 580/5/2 581/5/2 605/5/2
f 581/5/2 582/5/2 605/5/2
f 582/5/2 583/5/2 605/5/2
f 583/2/2 584/2/2 605/2/2
f 584/2/2 585/2/2 605/2/2
f 605/2/2 585/2/2 606/2/2
f 589/2/2 590/2/2 607/2/2
f 585/5/2 586/5/2 607/5/2
f 586/5/2 587/5/2 607/5/2
f 587/5/2 588/5/2 607/5/2
f 588/2/2 589/2/2 607/2/2
f 607/2/2 590/2/2 608/2/2
f 592/5/2 593/5/2 609/5/2
f 594/2/2 595/2/2 609/2/2
f 593/2/2 594/2/2 609/2/2
f 591/5/2 592/5/2 609/5/2
f 590/5/2 591/5/2 609/5/2
f 609/2/2 595/2/2 610/2/2
f 595/6/2 596/6/2 611/6/2
f 610/2/2 595/2/2 611/2/2
f 611/6/2 596/6/2 612/6/2
f 597/3/2 598/3/2 615/3/2
f 598/5/2 599/5/2 616/5/2
f 615/3/2 598/3/2 616/3/2
f 599/1/2 600/1/2 617/1/2
f 616/5/2 599/5/2 617/5/2
f 600/2/2 570/2/2 618/2/2
f 617/1/2 600/1/2 618/1/2
f 570/5/2 601/5/2 619/5/2
f 618/2/2 570/2/2 619/2/2
f 601/1/2 602/1/2 620/1/2
f 619/5/2 601/5/2 620/5/2
f 602/2/2 575/2/2 621/2/2
f 620/1/2 602/1/2 621/1/2
f 575/5/2 603/5/2 622/5/2
f 621/2/2 575/2/2 622/2/2
f 603/1/2 604/1/2 623/1/2
f 622/5/2 603/5/2 623/5/2
f 604/2/2 580/2/2 624/2/2
f 623/1/2 604/1/2 624/1/2
f 580/5/2 605/5/2 625/5/2
f 624/2/2 580/2/2 625/2/2
f 605/1/2 606/1/2 626/1/2
f 625/5/2 605/5/2 626/5/2
f 606/2/2 585/2/2 627/2/2
f 626/1/2 606/1/2 627/1/2
f 585/5/2 607/5/2 628/5/2
f 627/2/2 585/2/2 628/2/2
f 607/1/2 608/1/2 629/1/2
f 628/5/2 607/5/2 629/5/2
f 608/2/2 590/2/2 630/2/2
f 629/1/2 608/1/2 630/1/2
f 590/5/2 609/5/2 631/5/2
f 630/2/2 590/2/2 631/2/2
f 609/1/2 610/1/2 632/1/2
f 631/5/2 609/5/2 632/5/2
f 610/2/2 611/2/2 633/2/2
f 632/1/2 610/1/2 633/1/2
f 611/5/2 612/5/2 634/5/2
f 633/2/2 611/2/2 634/2/2
f 612/3/2 613/3/2 635/3/2
f 634/5/2 612/5/2 635/5/2
f 635/3/2 613/3/2 636/3/2
f 614/6/2 615/6/2 638/6/2
f 616/2/2 617/2/2 639/2/2
f 638/6/2 615/6/2 639/6/2
f 615/2/2 616/2/2 639/2/2
f 639/2/2 617/2/2 640/2/2
f 628/5/2 629/5/2 641/5/2
f 630/5/2 631/5/2 641/5/2
f 633/5/2 634/5/2 641/5/2
f 627/5/2 628/5/2 641/5/2
f 626/5/2 627/5/2 641/5/2
f 619/5/2 620/5/2 641/5/2
f 632/5/2 633/5/2 641/5/2
f 631/5/2 632/5/2 641/5/2
f 629/5/2 630/5/2 641/5/2
f 625/5/2 626/5/2 641/5/2
f 624/5/2 625/5/2 641/5/2
f 620/5/2 621/5/2 641/5/2
f 621/5/2 622/5/2 641/5/2
f 622/5/2 623/5/2 641/5/2
f 623/5/2 624/5/2 641/5/2
f 618/5/2 619/5/2 641/5/2
f 617/5/2 618/5/2 641/5/2
f 641/5/2 634/5/2 642/5/2
f 642/5/2 634/5/2 643/5/2
f 643/5/2 634/5/2 644/5/2
f 644/5/2 634/5/2 645/5/2
f 645/5/2 634/5/2 646/5/2
f 635/2/2 636/2/2 647/2/2
f 646/5/2 634/5/2 647/5/2
f 634/2/2 635/2/2 647/2/2
f 647/2/2 636/2/2 648/2/2
f 636/6/2 637/6/2 649/6/2
f 648/2/2 636/2/2 649/2/2
f 649/6/2 637/6/2 650/6/2
f 638/3/2 639/3/2 651/3/2
f 639/1/2 640/1/2 652/1/2
f 651/3/2 639/3/2 652/3/2
f 640/2/2 617/2/2 653/2/2
f 652/1/2 640/1/2 653/1/2
f 617/5/2 641/5/2 654/5/2
f 653/2/2 617/2/2 654/2/2
f 654/5/2 641/5/2 655/5/2
f 655/5/2 641/5/2 656/5/2
f 641/2/2 642/2/2 657/2/2
f 656/5/2 641/5/2 657/5/2
f 642/5/2 643/5/2 658/5/2
f 657/2/2 642/2/2 658/2/2
f 658/5/2 643/5/2 659/5/2
f 659/5/2 643/5/2 660/5/2
f 660/5/2 643/5/2 661/5/2
f 661/5/2 643/5/2 662/5/2
f 662/5/2 643/5/2 663/5/2
f 663/5/2 643/5/2 664/5/2
f 664/5/2 643/5/2 665/5/2
f 665/5/2 643/5/2 666/5/2
f 643/2/2 644/2/2 667/2/2
f 666/5/2 643/5/2 667/5/2
f 644/5/2 645/5/2 668/5/2
f 667/2/2 644/2/2 668/2/2
f 668/5/2 645/5/2 669/5/2
f 669/5/2 645/5/2 670/5/2
f 670/5/2 645/5/2 671/5/2
f 671/5/2 645/5/2 672/5/2
f 672/5/2 645/5/2 673/5/2
f 673/5/2 645/5/2 674/5/2
f 674/5/2 645/5/2 675/5/2
f 675/5/2 645/5/2 676/5/2
f 645/2/2 646/2/2 677/2/2
f 676/5/2 645/5/2 677/5/2
f 646/5/2 647/5/2 678/5/2
f 677/2/2 646/2/2 678/2/2
f 678/5/2 647/5/2 679/5/2
f 679/5/2 647/5/2 680/5/2
f 647/1/2 648/1/2 681/1/2
f 680/5/2 647/5/2 681/5/2
f 648/2/2 649/2/2 682/2/2
f 681/1/2 648/1/2 682/1/2
f 649/3/2 650/3/2 683/3/2
f 682/2/2 649/2/2 683/2/2
f 683/3/2 650/3/2 684/3/2
f 652/6/2 653/6/2 686/6/2
f 653/3/2 654/3/2 687/3/2
f 686/6/2 653/6/2 687/6/2
f 654/6/2 655/6/2 688/6/2
f 687/3/2 654/3/2 688/3/2
f 655/3/2 656/3/2 689/3/2
f 688/6/2 655/6/2 689/6/2
f 656/6/2 657/6/2 690/6/2
f 689/3/2 656/3/2 690/3/2
f 657/3/2 658/3/2 691/3/2
f 690/6/2 657/6/2 691/6/2
f 658/6/2 659/6/2 692/6/2
f 691/3/2 658/3/2 692/3/2
f 659/3/2 660/3/2 693/3/2
f 692/6/2 659/6/2 693/6/2
f 660/6/2 661/6/2 694/6/2
f 693/3/2 660/3/2 694/3/2
f 661/3/2 662/3/2 695/3/2
f 694/6/2 661/6/2 695/6/2
f 662/6/2 663/6/2 696/6/2
f 695/3/2 662/3/2 696/3/2
f 663/3/2 664/3/2 697/3/2
f 696/6/2 663/6/2 697/6/2
f 664/6/2 665/6/2 698/6/2
f 697/3/2 664/3/2 698/3/2
f 665/3/2 666/3/2 699/3/2
f 698/6/2 665/6/2 699/6/2
f 666/6/2 667/6/2 700/6/2
f 699/3/2 666/3/2 700/3/2
f 667/3/2 668/3/2 701/3/2
f 700/6/2 667/6/2 701/6/2
f 668/6/2 669/6/2 702/6/2
f 701/3/2 668/3/2 702/3/2
f 669/3/2 670/3/2 703/3/2
f 702/6/2 669/6/2 703/6/2
f 670/6/2 671/6/2 704/6/2
f 703/3/2 670/3/2 704/3/2
f 671/3/2 672/3/2 705/3/2
f 704/6/2 671/6/2 705/6/2
f 672/6/2 673/6/2 706/6/2
f 705/3/2 672/3/2 706/3/2
f 673/3/2 674/3/2 707/3/2
f 706/6/2 673/6/2 707/6/2
f 674/6/2 675/6/2 708/6/2
f 707/3/2 674/3/2 708/3/2
f 675/3/2 676/3/2 709/3/2
f 708/6/2 675/6/2 709/6/2
f 676/6/2 677/6/2 710/6/2
f 709/3/2 676/3/2 710/3/2
f 677/3/2 678/3/2 711/3/2
f 710/6/2 677/6/2 711/6/2
f 678/6/2 679/6/2 712/6/2
f 711/3/2 678/3/2 712/3/2
f 679/3/2 680/3/2 713/3/2
f 712/6/2 679/6/2 713/6/2
f 680/6/2 681/6/2 714/6/2
f 713/3/2 680/3/2 714/3/2
f 681/3/2 682/3/2 715/3/2
f 714/6/2 681/6/2 715/6/2
f 682/6/2 683/6/2 716/6/2
f 715/3/2 682/3/2 716/3/2
f 716/6/2 683/6/2 717/6/2
f 687/8/2 688/8/2 719/8/2
f 688/8/2 689/8/2 719/8/2
f 685/8/2 686/8/2 719/8/2
f 686/8/2 687/8/2 719/8/2
f 689/8/2 690/8/2 719/8/2
f 690/4/2 691/4/2 720/4/2
f 719/8/2 690/8/2 720/8/2
f 691/4/2 692/4/2 720/4/2
f 697/8/2 698/8/2 721/8/2
f 720/4/2 692/4/2 721/4/2
f 692/8/2 693/8/2 721/8/2
f 693/8/2 694/8/2 721/8/2
f 694/8/2 695/8/2 721/8/2
f 695/8/2 696/8/2 721/8/2
f 696/8/2 697/8/2 721/8/2
f 698/4/2 699/4/2 722/4/2
f 721/8/2 698/8/2 722/8/2
f 703/8/2 704/8/2 723/8/2
f 722/4/2 699/4/2 723/4/2
f 702/8/2 703/8/2 723/8/2
f 701/8/2 702/8/2 723/8/2
f 700/8/2 701/8/2 723/8/2
f 699/8/2 700/8/2 723/8/2
f 705/4/2 706/4/2 724/4/2
f 723/8/2 704/8/2 724/8/2
f 704/4/2 705/4/2 724/4/2
f 707/8/2 708/8/2 725/8/2
f 724/4/2 706/4/2 725/4/2
f 708/8/2 709/8/2 725/8/2
f 706/8/2 707/8/2 725/8/2
f 710/4/2 711/4/2 726/4/2
f 725/8/2 709/8/2 726/8/2
f 709/4/2 710/4/2 726/4/2
f 711/8/2 712/8/2 727/8/2
f 726/4/2 711/4/2 727/4/2
f 714/8/2 715/8/2 727/8/2
f 717/8/2 718/8/2 727/8/2
f 716/8/2 717/8/2 727/8/2
f 712/8/2 713/8/2 727/8/2
f 713/8/2 714/8/2 727/8/2
f 715/8/2 716/8/2 727/8/2
f 727/8/2 718/8/2 728/8/2
f 734/6/3 730/6/3 729/6/3
f 735/3/3 731/3/3 730/3/3
f 735/6/3 730/6/3 734/6/3
f 736/3/3 731/3/3 735/3/3
f 737/8/3 733/8/3 732/8/3
f 738/8/3 733/8/3 737/8/3
f 744/6/3 740/6/3 739/6/3
f 745/3/3 741/3/3 740/3/3
f 745/6/3 740/6/3 744/6/3
f 746/3/3 741/3/3 745/3/3
f 747/8/3 743/8/3 742/8/3
f 748/8/3 743/8/3 747/8/3
f 753/3/3 750/3/3 749/3/3
f 754/3/3 750/3/3 753/3/3
f 755/6/3 752/6/3 751/6/3
f 756/6/3 752/6/3 755/6/3
f 761/3/3 758/3/3 757/3/3
f 762/3/3 758/3/3 761/3/3
f 763/6/3 760/6/3 759/6/3
f 764/6/3 760/6/3 763/6/3
f 767/6/3 766/6/3 765/6/3
f 768/6/3 766/6/3 767/6/3
f 771/6/3 770/6/3 769/6/3
f 772/6/3 770/6/3 771/6/3
f 775/3/3 774/3/3 773/3/3
f 776/3/3 774/3/3 775/3/3
f 781/1/3 778/1/3 777/1/3
f 782/3/3 779/3/3 778/3/3
f 782/1/3 778/1/3 781/1/3
f 783/3/3 782/3/3 781/3/3
f 783/3/3 779/3/3 782/3/3
f 784/1/3 780/1/3 779/1/3
f 784/3/3 779/3/3 783/3/3
f 785/1/3 780/1/3 784/1/3
f 786/3/3 783/3/3 781/3/3
f 787/1/3 784/1/3 783/1/3
f 787/3/3 783/3/3 786/3/3
f 788/3/3 785/3/3 784/3/3
f 788/1/3 784/1/3 787/1/3
f 789/3/3 785/3/3 788/3/3
f 790/4/3 787/4/3 786/4/3
f 791/3/3 788/3/3 787/3/3
f 791/4/3 787/4/3 790/4/3
f 792/4/3 789/4/3 788/4/3
f 792/3/3 788/3/3 791/3/3
f 793/4/3 789/4/3 792/4/3
f 794/3/3 791/3/3 790/3/3
f 794/1/3 792/1/3 791/1/3
f 795/3/3 793/3/3 792/3/3
f 795/1/3 792/1/3 794/1/3
f 796/3/3 793/3/3 795/3/3
f 797/3/3 794/3/3 790/3/3
f 797/3/3 795/3/3 794/3/3
f 798/3/3 795/3/3 797/3/3
f 801/1/3 798/1/3 797/1/3
f 802/3/3 795/3/3 798/3/3
f 802/1/3 798/1/3 801/1/3
f 803/1/3 796/1/3 795/1/3
f 803/3/3 795/3/3 802/3/3
f 804/1/3 796/1/3 803/1/3
f 805/3/3 800/3/3 799/3/3
f 806/3/3 800/3/3 805/3/3
f 809/7/3 808/7/3 807/7/3
f 810/7/3 808/7/3 809/7/3
f 813/7/3 812/7/3 811/7/3
f 814/7/3 812/7/3 813/7/3
f 817/2/3 816/2/3 815/2/3
f 819/2/3 817/2/3 815/2/3
f 819/2/3 818/2/3 817/2/3
f 820/2/3 818/2/3 819/2/3
f 821/2/3 819/2/3 815/2/3
f 822/2/3 819/2/3 821/2/3
f 826/2/3 824/2/3 823/2/3
f 826/4/3 825/4/3 824/4/3
f 827/4/3 825/4/3 826/4/3
f 828/2/3 826/2/3 823/2/3
f 828/2/3 827/2/3 826/2/3
f 829/2/3 827/2/3 828/2/3
f 832/2/3 831/2/3 830/2/3
f 833/2/3 831/2/3 832/2/3
f 834/2/3 832/2/3 830/2/3
f 835/4/3 833/4/3 832/4/3
f 835/2/3 832/2/3 834/2/3
f 836/4/3 833/4/3 835/4/3
f 837/3/4 838/3/4 839/3/4
f 839/3/4 838/3/4 840/3/4
f 841/3/4 842/3/4 843/3/4
f 843/3/4 842/3/4 844/3/4
f 845/6/4 846/6/4 847/6/4
f 847/6/4 846/6/4 848/6/4
f 849/6/4 850/6/4 851/6/4
f 851/6/4 850/6/4 852/6/4
f 853/3/4 854/3/4 857/3/4
f 857/3/4 854/3/4 858/3/4
f 855/6/4 856/6/4 860/6/4
f 860/6/4 856/6/4 861/6/4
f 858/3/4 859/3/4 865/3/4
f 862/2/4 863/2/4 866/2/4
f 865/3/4 859/3/4 866/3/4
f 859/2/4 860/2/4 866/2/4
f 861/2/4 862/2/4 866/2/4
f 860/2/4 861/2/4 866/2/4
f 866/2/4 863/2/4 867/2/4
f 867/2/4 863/2/4 868/2/4
f 863/3/4 864/3/4 869/3/4
f 868/2/4 863/2/4 869/2/4
f 865/2/4 866/2/4 870/2/4
f 866/3/4 867/3/4 871/3/4
f 870/2/4 866/2/4 871/2/4
f 867/2/4 868/2/4 872/2/4
f 871/3/4 867/3/4 872/3/4
f 872/2/4 868/2/4 873/2/4
f 868/3/4 869/3/4 874/3/4
f 873/2/4 868/2/4 874/2/4
f 869/3/4 864/3/4 875/3/4
f 874/3/4 869/3/4 875/3/4
f 870/3/4 871/3/4 876/3/4
f 872/3/4 873/3/4 876/3/4
f 871/3/4 872/3/4 876/3/4
f 876/3/4 873/3/4 877/3/4
f 876/2/4 877/2/4 878/2/4
f 878/2/4 877/2/4 879/2/4
f 873/2/4 874/2/4 880/2/4
f 874/2/4 875/2/4 880/2/4
f 880/2/4 875/2/4 881/2/4
f 878/3/4 879/3/4 882/3/4
f 879/2/4 877/2/4 883/2/4
f 882/3/4 879/3/4 883/3/4
f 873/2/4 880/2/4 884/2/4
f 880/3/4 881/3/4 884/3/4
f 881/2/4 875/2/4 885/2/4
f 884/3/4 881/3/4 885/3/4
f 882/2/4 883/2/4 886/2/4
f 877/3/4 873/3/4 887/3/4
f 886/2/4 883/2/4 887/2/4
f 883/2/4 877/2/4 887/2/4
f 886/3/4 887/3/4 888/3/4
f 888/3/4 887/3/4 889/3/4
f 887/3/4 873/3/4 890/3/4
f 889/3/4 887/3/4 890/3/4
f 873/2/4 884/2/4 891/2/4
f 890/3/4 873/3/4 891/3/4
f 884/2/4 885/2/4 891/2/4
f 891/2/4 885/2/4 892/2/4
f 885/2/4 875/2/4 893/2/4
f 892/2/4 885/2/4 893/2/4
f 888/2/4 889/2/4 894/2/4
f 889/3/4 890/3/4 895/3/4
f 894/2/4 889/2/4 895/2/4
f 891/2/4 892/2/4 896/2/4
f 895/3/4 890/3/4 896/3/4
f 890/2/4 891/2/4 896/2/4
f 892/3/4 893/3/4 897/3/4
f 896/2/4 892/2/4 897/2/4
f 897/3/4 893/3/4 898/3/4
f 894/3/4 895/3/4 900/3/4
f 895/2/4 896/2/4 901/2/4
f 896/2/4 897/2/4 901/2/4
f 900/3/4 895/3/4 901/3/4
f 897/2/4 898/2/4 901/2/4
f 901/2/4 898/2/4 902/2/4
f 902/2/4 898/2/4 903/2/4
f 903/2/4 898/2/4 904/2/4
f 898/3/4 893/3/4 905/3/4
f 904/2/4 898/2/4 905/2/4
f 905/3/4 893/3/4 906/3/4
f 899/3/4 900/3/4 907/3/4
f 907/3/4 900/3/4 908/3/4
f 902/6/4 903/6/4 909/6/4
f 909/6/4 903/6/4 910/6/4
f 911/6/4 912/6/4 916/6/4
f 912/3/4 913/3/4 917/3/4
f 916/6/4 912/6/4 917/6/4
f 917/3/4 913/3/4 918/3/4
f 914/8/4 915/8/4 919/8/4
f 919/8/4 915/8/4 920/8/4
f 921/6/4 922/6/4 926/6/4
f 922/3/4 923/3/4 927/3/4
f 926/6/4 922/6/4 927/6/4
f 927/3/4 923/3/4 928/3/4
f 924/8/4 925/8/4 929/8/4
f 929/8/4 925/8/4 930/8/4
f 935/3/5 932/3/5 931/3/5
f 936/3/5 932/3/5 935/3/5
f 937/3/5 934/3/5 933/3/5
f 938/3/5 934/3/5 937/3/5
f 939/6/5 936/6/5 935/6/5
f 940/6/5 936/6/5 939/6/5
f 941/6/5 938/6/5 937/6/5
f 942/6/5 938/6/5 941/6/5
f 943/3/5 940/3/5 939/3/5
f 944/3/5 940/3/5 943/3/5
f 945/3/5 942/3/5 941/3/5
f 946/3/5 942/3/5 945/3/5
f 947/6/5 944/6/5 943/6/5
f 948/6/5 944/6/5 947/6/5
f 949/6/5 946/6/5 945/6/5
f 950/6/5 946/6/5 949/6/5
f 951/3/5 948/3/5 947/3/5
f 952/3/5 948/3/5 951/3/5
f 953/3/5 950/3/5 949/3/5
f 954/3/5 950/3/5 953/3/5
f 955/6/5 952/6/5 951/6/5
f 956/6/5 952/6/5 955/6/5
f 957/6/5 954/6/5 953/6/5
f 958/6/5 954/6/5 957/6/5
f 959/3/5 956/3/5 955/3/5
f 960/3/5 956/3/5 959/3/5
f 961/3/5 958/3/5 957/3/5
f 962/3/5 958/3/5 961/3/5
f 963/6/5 960/6/5 959/6/5
f 964/6/5 960/6/5 963/6/5
f 965/6/5 962/6/5 961/6/5
f 966/6/5 962/6/5 965/6/5
f 967/3/5 964/3/5 963/3/5
f 968/3/5 964/3/5 967/3/5
f 969/3/5 966/3/5 965/3/5
f 970/3/5 966/3/5 969/3/5
f 971/6/5 968/6/5 967/6/5
f 972/6/5 968/6/5 971/6/5
f 973/6/5 970/6/5 969/6/5
f 974/6/5 970/6/5 973/6/5
f 975/3/5 972/3/5 971/3/5
f 976/3/5 972/3/5 975/3/5
f 977/3/5 974/3/5 973/3/5
f 978/3/5 974/3/5 977/3/5
f 979/6/5 976/6/5 975/6/5
f 980/6/5 976/6/5 979/6/5
f 981/6/5 978/6/5 977/6/5
f 982/6/5 978/6/5 981/6/5
f 983/3/5 980/3/5 979/3/5
f 984/3/5 980/3/5 983/3/5
f 985/3/5 982/3/5 981/3/5
f 986/3/5 982/3/5 985/3/5
f 987/6/5 984/6/5 983/6/5
f 988/6/5 984/6/5 987/6/5
f 989/6/5 986/6/5 985/6/5
f 990/6/5 986/6/5 989/6/5
f 991/3/5 988/3/5 987/3/5
f 992/3/5 988/3/5 991/3/5
f 993/3/5 990/3/5 989/3/5
f 994/3/5 990/3/5 993/3/5
f 995/6/5 992/6/5 991/6/5
f 996/6/5 992/6/5 995/6/5
f 997/6/5 994/6/5 993/6/5
f 998/6/5 994/6/5 997/6/5
f 999/3/5 996/3/5 995/3/5
f 1000/3/5 996/3/5 999/3/5
f 1001/3/5 998/3/5 997/3/5
f 1002/3/5 998/3/5 1001/3/5
f 1003/6/5 1000/6/5 999/6/5
f 1004/6/5 1000/6/5 1003/6/5
f 1005/6/5 1002/6/5 1001/6/5
f 1006/6/5 1002/6/5 1005/6/5
f 1007/3/5 1004/3/5 1003/3/5
f 1008/3/5 1004/3/5 1007/3/5
f 1009/3/5 1006/3/5 1005/3/5
f 1010/3/5 1006/3/5 1009/3/5
f 1011/6/5 1008/6/5 1007/6/5
f 1012/6/5 1008/6/5 1011/6/5
f 1013/6/5 1010/6/5 1009/6/5
f 1014/6/5 1010/6/5 1013/6/5
f 1015/3/5 1012/3/5 1011/3/5
f 1016/3/5 1012/3/5 1015/3/5
f 1017/3/5 1014/3/5 1013/3/5
f 1018/3/5 1014/3/5 1017/3/5
f 1019/6/5 1016/6/5 1015/6/5
f 1020/6/5 1016/6/5 1019/6/5
f 1021/6/5 1018/6/5 1017/6/5
f 1022/6/5 1018/6/5 1021/6/5
f 1023/3/5 1020/3/5 1019/3/5
f 1024/3/5 1020/3/5 1023/3/5
f 1025/3/5 1022/3/5 1021/3/5
f 1026/3/5 1022/3/5 1025/3/5
f 1027/6/5 1024/6/5 1023/6/5
f 1028/6/5 1024/6/5 1027/6/5
f 1029/6/5 1026/6/5 1025/6/5
f 1030/6/5 1026/6/5 1029/6/5
f 1031/3/5 1028/3/5 1027/3/5
f 1032/3/5 1028/3/5 1031/3/5
f 1033/3/5 1030/3/5 1029/3/5
f 1034/3/5 1030/3/5 1033/3/5
f 1035/6/5 1032/6/5 1031/6/5
f 1036/6/5 1032/6/5 1035/6/5
f 1037/6/5 1034/6/5 1033/6/5
f 1038/6/5 1034/6/5 1037/6/5
f 1039/3/5 1036/3/5 1035/3/5
f 1040/3/5 1036/3/5 1039/3/5
f 1041/3/5 1038/3/5 1037/3/5
f 1042/3/5 1038/3/5 1041/3/5
f 1047/6/5 1044/6/5 1043/6/5
f 1048/6/5 1044/6/5 1047/6/5
f 1049/6/5 1046/6/5 1045/6/5
f 1050/6/5 1046/6/5 1049/6/5
f 1055/6/5 1052/6/5 1051/6/5
f 1056/6/5 1052/6/5 1055/6/5
f 1057/6/5 1054/6/5 1053/6/5
f 1058/6/5 1054/6/5 1057/6/5
f 1063/3/5 1060/3/5 1059/3/5
f 1064/3/5 1060/3/5 1063/3/5
f 1065/3/5 1062/3/5 1061/3/5
f 1066/3/5 1062/3/5 1065/3/5
f 1071/3/5 1068/3/5 1067/3/5
f 1072/3/5 1068/3/5 1071/3/5
f 1073/3/5 1070/3/5 1069/3/5
f 1074/3/5 1070/3/5 1073/3/5
f 1079/6/5 1076/6/5 1075/6/5
f 1080/6/5 1076/6/5 1079/6/5
f 1081/6/5 1078/6/5 1077/6/5
f 1082/6/5 1078/6/5 1081/6/5
f 1089/1/5 1084/1/5 1083/1/5
f 1090/3/5 1085/3/5 1084/3/5
f 1090/1/5 1084/1/5 1089/1/5
f 1091/4/5 1086/4/5 1085/4/5
f 1091/3/5 1085/3/5 1090/3/5
f 1092/3/5 1087/3/5 1086/3/5
f 1092/4/5 1086/4/5 1091/4/5
f 1093/1/5 1088/1/5 1087/1/5
f 1093/3/5 1087/3/5 1092/3/5
f 1094/1/5 1088/1/5 1093/1/5
f 1095/3/5 1092/3/5 1091/3/5
f 1095/3/5 1090/3/5 1089/3/5
f 1095/3/5 1094/3/5 1093/3/5
f 1095/3/5 1093/3/5 1092/3/5
f 1095/3/5 1091/3/5 1090/3/5
f 1096/3/5 1094/3/5 1095/3/5
f 1097/3/5 1096/3/5 1095/3/5
f 1098/3/5 1096/3/5 1097/3/5
f 1099/3/5 1098/3/5 1097/3/5
f 1100/3/5 1098/3/5 1099/3/5
f 1101/3/5 1100/3/5 1099/3/5
f 1102/3/5 1100/3/5 1101/3/5
f 1103/3/5 1102/3/5 1101/3/5
f 1104/3/5 1102/3/5 1103/3/5
f 1105/3/5 1104/3/5 1103/3/5
f 1106/3/5 1104/3/5 1105/3/5
f 1107/3/5 1106/3/5 1105/3/5
f 1108/3/5 1106/3/5 1107/3/5
f 1109/3/5 1108/3/5 1107/3/5
f 1110/3/5 1108/3/5 1109/3/5
f 1111/3/5 1110/3/5 1109/3/5
f 1112/3/5 1110/3/5 1111/3/5
f 1113/3/5 1112/3/5 1111/3/5
f 1114/3/5 1112/3/5 1113/3/5
f 1115/3/5 1114/3/5 1113/3/5
f 1116/3/5 1114/3/5 1115/3/5
f 1117/3/5 1116/3/5 1115/3/5
f 1118/3/5 1116/3/5 1117/3/5
f 1119/3/5 1118/3/5 1117/3/5
f 1120/3/5 1118/3/5 1119/3/5
f 1121/3/5 1120/3/5 1119/3/5
f 1122/3/5 1120/3/5 1121/3/5
f 1123/3/5 1122/3/5 1121/3/5
f 1124/3/5 1122/3/5 1123/3/5
f 1125/3/5 1124/3/5 1123/3/5
f 1126/3/5 1124/3/5 1125/3/5
f 1127/3/5 1126/3/5 1125/3/5
f 1128/3/5 1126/3/5 1127/3/5
f 1129/3/5 1126/3/5 1128/3/5
f 1130/3/5 1126/3/5 1129/3/5
f 1131/3/5 1126/3/5 1130/3/5
f 1132/3/5 1126/3/5 1131/3/5
f 1133/3/5 1126/3/5 1132/3/5
f 1134/3/5 1126/3/5 1133/3/5
f 1135/3/5 1126/3/5 1134/3/5
f 1136/3/5 1126/3/5 1135/3/5
f 1138/3/5 1128/3/5 1127/3/5
f 1139/2/5 1129/2/5 1128/2/5
f 1139/3/5 1128/3/5 1138/3/5
f 1140/3/5 1130/3/5 1129/3/5
f 1140/2/5 1129/2/5 1139/2/5
f 1141/2/5 1131/2/5 1130/2/5
f 1141/3/5 1130/3/5 1140/3/5
f 1142/3/5 1132/3/5 1131/3/5
f 1142/2/5 1131/2/5 1141/2/5
f 1143/2/5 1133/2/5 1132/2/5
f 1143/3/5 1132/3/5 1142/3/5
f 1144/3/5 1134/3/5 1133/3/5
f 1144/2/5 1133/2/5 1143/2/5
f 1145/2/5 1135/2/5 1134/2/5
f 1145/3/5 1134/3/5 1144/3/5
f 1146/3/5 1136/3/5 1135/3/5
f 1146/2/5 1135/2/5 1145/2/5
f 1147/3/5 1136/3/5 1146/3/5
f 1149/6/5 1138/6/5 1137/6/5
f 1150/6/5 1138/6/5 1149/6/5
f 1151/6/5 1148/6/5 1147/6/5
f 1152/6/5 1148/6/5 1151/6/5
f 1157/8/5 1154/8/5 1153/8/5
f 1158/8/5 1154/8/5 1157/8/5
f 1159/8/5 1156/8/5 1155/8/5
f 1160/8/5 1156/8/5 1159/8/5
f 1165/8/5 1162/8/5 1161/8/5
f 1166/8/5 1162/8/5 1165/8/5
f 1167/8/5 1164/8/5 1163/8/5
f 1168/8/5 1164/8/5 1167/8/5
f 1173/7/5 1170/7/5 1169/7/5
f 1174/7/5 1170/7/5 1173/7/5
f 1175/7/5 1172/7/5 1171/7/5
f 1176/7/5 1172/7/5 1175/7/5
f 1177/3/6 1178/3/6 1181/3/6
f 1181/3/6 1178/3/6 1182/3/6
f 1179/3/6 1180/3/6 1183/3/6
f 1183/3/6 1180/3/6 1184/3/6
f 1185/3/6 1186/3/6 1189/3/6
f 1189/3/6 1186/3/6 1190/3/6
f 1187/3/6 1188/3/6 1191/3/6
f 1191/3/6 1188/3/6 1192/3/6
f 1193/1/6 1194/1/6 1199/1/6
f 1199/1/6 1194/1/6 1200/1/6
f 1194/3/6 1195/3/6 1201/3/6
f 1195/4/6 1196/4/6 1201/4/6
f 1196/3/6 1197/3/6 1202/3/6
f 1201/4/6 1196/4/6 1202/4/6
f 1197/1/6 1198/1/6 1203/1/6
f 1203/1/6 1198/1/6 1204/1/6
f 1200/1/6 1194/1/6 1205/1/6
f 1199/3/6 1200/3/6 1205/3/6
f 1194/3/6 1201/3/6 1206/3/6
f 1205/1/6 1194/1/6 1206/1/6
f 1201/3/6 1202/3/6 1206/3/6
f 1202/3/6 1197/3/6 1207/3/6
f 1206/3/6 1202/3/6 1207/3/6
f 1197/1/6 1203/1/6 1207/1/6
f 1203/3/6 1204/3/6 1208/3/6
f 1207/1/6 1203/1/6 1208/1/6
f 1205/3/6 1206/3/6 1209/3/6
f 1206/3/6 1207/3/6 1209/3/6
f 1207/3/6 1208/3/6 1209/3/6
f 1209/3/6 1208/3/6 1210/3/6
f 1199/3/6 1205/3/6 1211/3/6
f 1205/3/6 1209/3/6 1211/3/6
f 1211/3/6 1209/3/6 1212/3/6
f 1210/3/6 1208/3/6 1213/3/6
f 1208/3/6 1204/3/6 1214/3/6
f 1213/3/6 1208/3/6 1214/3/6
f 1215/8/6 1216/8/6 1219/8/6
f 1219/8/6 1216/8/6 1220/8/6
f 1217/8/6 1218/8/6 1221/8/6
f 1221/8/6 1218/8/6 1222/8/6
f 1219/4/6 1220/4/6 1223/4/6
f 1215/8/6 1219/8/6 1223/8/6
f 1223/4/6 1220/4/6 1224/4/6
f 1221/4/6 1222/4/6 1225/4/6
f 1222/8/6 1218/8/6 1226/8/6
f 1225/4/6 1222/4/6 1226/4/6
f 1223/8/6 1224/8/6 1227/8/6
f 1215/8/6 1223/8/6 1227/8/6
f 1227/8/6 1224/8/6 1228/8/6
f 1226/8/6 1218/8/6 1229/8/6
f 1225/8/6 1226/8/6 1229/8/6
f 1229/8/6 1218/8/6 1230/8/6
f 1227/4/6 1228/4/6 1231/4/6
f 1228/8/6 1224/8/6 1232/8/6
f 1231/4/6 1228/4/6 1232/4/6
f 1232/8/6 1224/8/6 1233/8/6
f 1225/8/6 1229/8/6 1234/8/6
f 1229/4/6 1230/4/6 1235/4/6
f 1234/8/6 1229/8/6 1235/8/6
f 1235/4/6 1230/4/6 1236/4/6
f 1232/8/6 1233/8/6 1237/8/6
f 1231/8/6 1232/8/6 1237/8/6
f 1237/8/6 1233/8/6 1238/8/6
f 1235/8/6 1236/8/6 1239/8/6
f 1234/8/6 1235/8/6 1239/8/6
f 1239/8/6 1236/8/6 1240/8/6
f 1237/4/6 1238/4/6 1241/4/6
f 1231/8/6 1237/8/6 1241/8/6
f 1241/4/6 1238/4/6 1242/4/6
f 1239/4/6 1240/4/6 1243/4/6
f 1240/8/6 1236/8/6 1244/8/6
f 1243/4/6 1240/4/6 1244/4/6
f 1241/8/6 1242/8/6 1245/8/6
f 1243/8/6 1244/8/6 1246/8/6
f 1231/8/6 1241/8/6 1247/8/6
f 1241/8/6 1245/8/6 1247/8/6
f 1247/8/6 1245/8/6 1248/8/6
f 1244/8/6 1236/8/6 1249/8/6
f 1246/8/6 1244/8/6 1249/8/6
f 1249/8/6 1236/8/6 1250/8/6
f 1247/4/6 1248/4/6 1251/4/6
f 1248/8/6 1245/8/6 1252/8/6
f 1251/4/6 1248/4/6 1252/4/6
f 1246/8/6 1249/8/6 1253/8/6
f 1249/4/6 1250/4/6 1253/4/6
f 1253/4/6 1250/4/6 1254/4/6
f 1252/8/6 1245/8/6 1255/8/6
f 1251/8/6 1252/8/6 1255/8/6
f 1255/8/6 1245/8/6 1256/8/6
f 1253/8/6 1254/8/6 1257/8/6
f 1246/8/6 1253/8/6 1257/8/6
f 1257/8/6 1254/8/6 1258/8/6
f 1255/4/6 1256/4/6 1259/4/6
f 1251/8/6 1255/8/6 1259/8/6
f 1256/8/6 1245/8/6 1260/8/6
f 1259/4/6 1256/4/6 1260/4/6
f 1257/4/6 1258/4/6 1261/4/6
f 1246/8/6 1257/8/6 1261/8/6
f 1258/8/6 1254/8/6 1262/8/6
f 1261/4/6 1258/4/6 1262/4/6
f 1251/8/6 1259/8/6 1263/8/6
f 1259/8/6 1260/8/6 1263/8/6
f 1263/8/6 1260/8/6 1264/8/6
f 1262/8/6 1254/8/6 1265/8/6
f 1261/8/6 1262/8/6 1265/8/6
f 1265/8/6 1254/8/6 1266/8/6
f 1263/4/6 1264/4/6 1267/4/6
f 1264/8/6 1260/8/6 1268/8/6
f 1267/4/6 1264/4/6 1268/4/6
f 1261/8/6 1265/8/6 1269/8/6
f 1265/4/6 1266/4/6 1269/4/6
f 1269/4/6 1266/4/6 1270/4/6
f 1267/8/6 1268/8/6 1271/8/6
f 1268/8/6 1260/8/6 1272/8/6
f 1271/8/6 1268/8/6 1272/8/6
f 1261/8/6 1269/8/6 1273/8/6
f 1269/8/6 1270/8/6 1273/8/6
f 1273/8/6 1270/8/6 1274/8/6
f 1272/8/6 1260/8/6 1275/8/6
f 1271/4/6 1272/4/6 1275/4/6
f 1260/8/6 1245/8/6 1276/8/6
f 1275/8/6 1260/8/6 1276/8/6
f 1246/8/6 1261/8/6 1277/8/6
f 1261/8/6 1273/8/6 1277/8/6
f 1273/4/6 1274/4/6 1278/4/6
f 1277/8/6 1273/8/6 1278/8/6
f 1275/4/6 1276/4/6 1279/4/6
f 1271/4/6 1275/4/6 1279/4/6
f 1279/4/6 1276/4/6 1280/4/6
f 1278/4/6 1274/4/6 1281/4/6
f 1277/4/6 1278/4/6 1281/4/6
f 1281/4/6 1274/4/6 1282/4/6
f 1280/4/6 1276/4/6 1283/4/6
f 1279/8/6 1280/8/6 1283/8/6
f 1283/4/6 1276/4/6 1284/4/6
f 1277/4/6 1281/4/6 1285/4/6
f 1281/8/6 1282/8/6 1286/8/6
f 1285/4/6 1281/4/6 1286/4/6
f 1283/8/6 1284/8/6 1287/8/6
f 1279/8/6 1283/8/6 1287/8/6
f 1287/8/6 1284/8/6 1288/8/6
f 1285/8/6 1286/8/6 1289/8/6
f 1286/8/6 1282/8/6 1290/8/6
f 1289/8/6 1286/8/6 1290/8/6
f 1279/8/6 1287/8/6 1291/8/6
f 1287/4/6 1288/4/6 1291/4/6
f 1288/8/6 1284/8/6 1292/8/6
f 1291/4/6 1288/4/6 1292/4/6
f 1285/8/6 1289/8/6 1293/8/6
f 1289/4/6 1290/4/6 1293/4/6
f 1290/8/6 1282/8/6 1294/8/6
f 1293/4/6 1290/4/6 1294/4/6
f 1292/8/6 1284/8/6 1295/8/6
f 1291/8/6 1292/8/6 1295/8/6
f 1285/8/6 1293/8/6 1296/8/6
f 1293/8/6 1294/8/6 1296/8/6
f 1279/8/6 1291/8/6 1297/8/6
f 1291/8/6 1295/8/6 1297/8/6
f 1297/8/6 1295/8/6 1298/8/6
f 1296/8/6 1294/8/6 1299/8/6
f 1294/8/6 1282/8/6 1300/8/6
f 1299/8/6 1294/8/6 1300/8/6
f 1301/7/6 1302/7/6 1305/7/6
f 1305/7/6 1302/7/6 1306/7/6
f 1303/7/6 1304/7/6 1307/7/6
f 1307/7/6 1304/7/6 1308/7/6
f 1305/2/6 1306/2/6 1311/2/6
f 1306/2/6 1307/2/6 1311/2/6
f 1307/2/6 1308/2/6 1311/2/6
f 1311/2/6 1308/2/6 1312/2/6
f 1309/4/6 1310/4/6 1315/4/6
f 1311/2/6 1312/2/6 1315/2/6
f 1312/2/6 1313/2/6 1315/2/6
f 1310/2/6 1311/2/6 1315/2/6
f 1315/2/6 1313/2/6 1316/2/6
f 1316/2/6 1313/2/6 1317/2/6
f 1313/4/6 1314/4/6 1318/4/6
f 1317/2/6 1313/2/6 1318/2/6
f 1309/4/6 1315/4/6 1319/4/6
f 1315/4/6 1316/4/6 1319/4/6
f 1319/4/6 1316/4/6 1320/4/6
f 1316/2/6 1317/2/6 1321/2/6
f 1320/4/6 1316/4/6 1321/4/6
f 1317/4/6 1318/4/6 1322/4/6
f 1321/2/6 1317/2/6 1322/2/6
f 1318/4/6 1314/4/6 1323/4/6
f 1322/4/6 1318/4/6 1323/4/6
f 1323/4/6 1314/4/6 1324/4/6
f 1319/2/6 1320/2/6 1325/2/6
f 1320/3/6 1321/3/6 1325/3/6
f 1321/2/6 1322/2/6 1326/2/6
f 1325/3/6 1321/3/6 1326/3/6
f 1326/2/6 1322/2/6 1327/2/6
f 1327/2/6 1322/2/6 1328/2/6
f 1322/3/6 1323/3/6 1329/3/6
f 1328/2/6 1322/2/6 1329/2/6
f 1323/2/6 1324/2/6 1330/2/6
f 1329/3/6 1323/3/6 1330/3/6
f 1319/2/6 1325/2/6 1331/2/6
f 1325/2/6 1326/2/6 1331/2/6
f 1326/2/6 1327/2/6 1331/2/6
f 1331/2/6 1327/2/6 1332/2/6
f 1327/3/6 1328/3/6 1333/3/6
f 1332/2/6 1327/2/6 1333/2/6
f 1328/2/6 1329/2/6 1334/2/6
f 1333/3/6 1328/3/6 1334/3/6
f 1329/2/6 1330/2/6 1334/2/6
f 1334/2/6 1330/2/6 1335/2/6
f 1330/2/6 1324/2/6 1336/2/6
f 1335/2/6 1330/2/6 1336/2/6
f 1332/3/6 1333/3/6 1337/3/6
f 1331/4/6 1332/4/6 1337/4/6
f 1333/2/6 1334/2/6 1338/2/6
f 1337/3/6 1333/3/6 1338/3/6
f 1334/3/6 1335/3/6 1339/3/6
f 1338/2/6 1334/2/6 1339/2/6
f 1335/4/6 1336/4/6 1340/4/6
f 1339/3/6 1335/3/6 1340/3/6
f 1337/2/6 1338/2/6 1341/2/6
f 1338/2/6 1339/2/6 1341/2/6
f 1339/2/6 1340/2/6 1341/2/6
f 1341/2/6 1340/2/6 1342/2/6
f 1319/2/6 1331/2/6 1343/2/6
f 1331/4/6 1337/4/6 1344/4/6
f 1343/2/6 1331/2/6 1344/2/6
f 1337/2/6 1341/2/6 1345/2/6
f 1344/4/6 1337/4/6 1345/4/6
f 1341/4/6 1342/4/6 1346/4/6
f 1345/2/6 1341/2/6 1346/2/6
f 1342/2/6 1340/2/6 1347/2/6
f 1346/4/6 1342/4/6 1347/4/6
f 1340/4/6 1336/4/6 1348/4/6
f 1347/2/6 1340/2/6 1348/2/6
f 1336/2/6 1324/2/6 1349/2/6
f 1348/4/6 1336/4/6 1349/4/6
f 1349/2/6 1324/2/6 1350/2/6
f 1343/3/6 1344/3/6 1351/3/6
f 1346/2/6 1347/2/6 1352/2/6
f 1351/3/6 1344/3/6 1352/3/6
f 1347/2/6 1348/2/6 1352/2/6
f 1345/2/6 1346/2/6 1352/2/6
f 1348/2/6 1349/2/6 1352/2/6
f 1344/2/6 1345/2/6 1352/2/6
f 1352/2/6 1349/2/6 1353/2/6
f 1353/2/6 1349/2/6 1354/2/6
f 1354/2/6 1349/2/6 1355/2/6
f 1355/2/6 1349/2/6 1356/2/6
f 1349/3/6 1350/3/6 1357/3/6
f 1356/2/6 1349/2/6 1357/2/6
f 1357/3/6 1350/3/6 1358/3/6
f 1352/4/6 1353/4/6 1359/4/6
f 1353/3/6 1354/3/6 1359/3/6
f 1354/2/6 1355/2/6 1360/2/6
f 1359/3/6 1354/3/6 1360/3/6
f 1355/3/6 1356/3/6 1361/3/6
f 1360/2/6 1355/2/6 1361/2/6
f 1356/4/6 1357/4/6 1362/4/6
f 1361/3/6 1356/3/6 1362/3/6
f 1351/2/6 1352/2/6 1363/2/6
f 1352/4/6 1359/4/6 1364/4/6
f 1363/2/6 1352/2/6 1364/2/6
f 1362/4/6 1357/4/6 1365/4/6
f 1357/2/6 1358/2/6 1365/2/6
f 1365/2/6 1358/2/6 1366/2/6
f 1364/4/6 1359/4/6 1367/4/6
f 1363/3/6 1364/3/6 1367/3/6
f 1359/2/6 1360/2/6 1368/2/6
f 1367/4/6 1359/4/6 1368/4/6
f 1360/2/6 1361/2/6 1368/2/6
f 1361/2/6 1362/2/6 1368/2/6
f 1368/2/6 1362/2/6 1369/2/6
f 1369/2/6 1362/2/6 1370/2/6
f 1370/2/6 1362/2/6 1371/2/6
f 1371/2/6 1362/2/6 1372/2/6
f 1362/4/6 1365/4/6 1373/4/6
f 1372/2/6 1362/2/6 1373/2/6
f 1365/3/6 1366/3/6 1374/3/6
f 1373/4/6 1365/4/6 1374/4/6
f 1363/3/6 1367/3/6 1375/3/6
f 1367/2/6 1368/2/6 1376/2/6
f 1375/3/6 1367/3/6 1376/3/6
f 1368/2/6 1369/2/6 1376/2/6
f 1369/3/6 1370/3/6 1377/3/6
f 1376/2/6 1369/2/6 1377/2/6
f 1370/2/6 1371/2/6 1378/2/6
f 1377/3/6 1370/3/6 1378/3/6
f 1371/3/6 1372/3/6 1379/3/6
f 1378/2/6 1371/2/6 1379/2/6
f 1372/2/6 1373/2/6 1380/2/6
f 1379/3/6 1372/3/6 1380/3/6
f 1373/2/6 1374/2/6 1380/2/6
f 1374/3/6 1366/3/6 1381/3/6
f 1380/2/6 1374/2/6 1381/2/6
f 1381/3/6 1366/3/6 1382/3/6
f 1379/2/6 1380/2/6 1383/2/6
f 1378/2/6 1379/2/6 1383/2/6
f 1381/2/6 1382/2/6 1383/2/6
f 1380/2/6 1381/2/6 1383/2/6
f 1375/2/6 1376/2/6 1383/2/6
f 1376/2/6 1377/2/6 1383/2/6
f 1377/2/6 1378/2/6 1383/2/6
f 1383/2/6 1382/2/6 1384/2/6
f 1384/2/6 1382/2/6 1385/2/6
f 1385/2/6 1382/2/6 1386/2/6
f 1386/2/6 1382/2/6 1387/2/6
f 1387/2/6 1382/2/6 1388/2/6
f 1388/2/6 1382/2/6 1389/2/6
f 1389/2/6 1382/2/6 1390/2/6
f 1383/4/6 1384/4/6 1391/4/6
f 1384/2/6 1385/2/6 1392/2/6
f 1391/4/6 1384/4/6 1392/4/6
f 1385/3/6 1386/3/6 1393/3/6
f 1392/2/6 1385/2/6 1393/2/6
f 1386/2/6 1387/2/6 1394/2/6
f 1393/3/6 1386/3/6 1394/3/6
f 1387/3/6 1388/3/6 1395/3/6
f 1394/2/6 1387/2/6 1395/2/6
f 1388/2/6 1389/2/6 1396/2/6
f 1395/3/6 1388/3/6 1396/3/6
f 1389/4/6 1390/4/6 1397/4/6
f 1396/2/6 1389/2/6 1397/2/6
f 1397/4/6 1390/4/6 1398/4/6
f 1391/2/6 1392/2/6 1399/2/6
f 1392/2/6 1393/2/6 1399/2/6
f 1397/2/6 1398/2/6 1399/2/6
f 1396/2/6 1397/2/6 1399/2/6
f 1395/2/6 1396/2/6 1399/2/6
f 1394/2/6 1395/2/6 1399/2/6
f 1393/2/6 1394/2/6 1399/2/6
f 1399/2/6 1398/2/6 1400/2/6
f 1400/2/6 1398/2/6 1401/2/6
f 1401/2/6 1398/2/6 1402/2/6
f 1402/2/6 1398/2/6 1403/2/6
f 1403/2/6 1398/2/6 1404/2/6
f 1399/4/6 1400/4/6 1405/4/6
f 1405/4/6 1400/4/6 1406/4/6
f 1406/4/6 1400/4/6 1407/4/6
f 1400/3/6 1401/3/6 1408/3/6
f 1407/4/6 1400/4/6 1408/4/6
f 1402/3/6 1403/3/6 1409/3/6
f 1403/4/6 1404/4/6 1409/4/6
f 1409/4/6 1404/4/6 1410/4/6
f 1410/4/6 1404/4/6 1411/4/6
f 1411/4/6 1404/4/6 1412/4/6
f 1405/3/6 1406/3/6 1413/3/6
f 1406/2/6 1407/2/6 1414/2/6
f 1413/3/6 1406/3/6 1414/3/6
f 1407/3/6 1408/3/6 1415/3/6
f 1414/2/6 1407/2/6 1415/2/6
f 1401/2/6 1402/2/6 1416/2/6
f 1415/3/6 1408/3/6 1416/3/6
f 1408/3/6 1401/3/6 1416/3/6
f 1402/3/6 1409/3/6 1417/3/6
f 1416/2/6 1402/2/6 1417/2/6
f 1409/3/6 1410/3/6 1417/3/6
f 1410/2/6 1411/2/6 1418/2/6
f 1417/3/6 1410/3/6 1418/3/6
f 1411/3/6 1412/3/6 1419/3/6
f 1418/2/6 1411/2/6 1419/2/6
f 1419/3/6 1412/3/6 1420/3/6
f 1414/2/6 1415/2/6 1421/2/6
f 1417/2/6 1418/2/6 1421/2/6
f 1419/2/6 1420/2/6 1421/2/6
f 1418/2/6 1419/2/6 1421/2/6
f 1416/2/6 1417/2/6 1421/2/6
f 1415/2/6 1416/2/6 1421/2/6
f 1413/2/6 1414/2/6 1421/2/6
f 1421/2/6 1420/2/6 1422/2/6
f 1422/2/6 1420/2/6 1423/2/6
f 1423/2/6 1420/2/6 1424/2/6
f 1413/2/6 1421/2/6 1425/2/6
f 1425/2/6 1421/2/6 1426/2/6
f 1424/2/6 1420/2/6 1427/2/6
f 1427/2/6 1420/2/6 1428/2/6
f 1425/3/6 1426/3/6 1429/3/6
f 1426/2/6 1421/2/6 1430/2/6
f 1429/3/6 1426/3/6 1430/3/6
f 1421/3/6 1422/3/6 1431/3/6
f 1430/2/6 1421/2/6 1431/2/6
f 1431/3/6 1422/3/6 1432/3/6
f 1422/2/6 1423/2/6 1433/2/6
f 1432/3/6 1422/3/6 1433/3/6
f 1423/3/6 1424/3/6 1434/3/6
f 1433/2/6 1423/2/6 1434/2/6
f 1434/3/6 1424/3/6 1435/3/6
f 1424/2/6 1427/2/6 1436/2/6
f 1435/3/6 1424/3/6 1436/3/6
f 1427/3/6 1428/3/6 1437/3/6
f 1436/2/6 1427/2/6 1437/2/6
f 1437/3/6 1428/3/6 1438/3/6
f 1429/2/6 1430/2/6 1439/2/6
f 1431/2/6 1432/2/6 1439/2/6
f 1430/2/6 1431/2/6 1439/2/6
f 1439/2/6 1432/2/6 1440/2/6
f 1437/2/6 1438/2/6 1441/2/6
f 1435/2/6 1436/2/6 1441/2/6
f 1436/2/6 1437/2/6 1441/2/6
f 1441/2/6 1438/2/6 1442/2/6
f 1440/2/6 1432/2/6 1443/2/6
f 1439/3/6 1440/3/6 1443/3/6
f 1443/2/6 1432/2/6 1444/2/6
f 1432/3/6 1433/3/6 1445/3/6
f 1444/2/6 1432/2/6 1445/2/6
f 1434/3/6 1435/3/6 1445/3/6
f 1433/3/6 1434/3/6 1445/3/6
f 1435/2/6 1441/2/6 1446/2/6
f 1445/3/6 1435/3/6 1446/3/6
f 1446/2/6 1441/2/6 1447/2/6
f 1441/3/6 1442/3/6 1448/3/6
f 1447/2/6 1441/2/6 1448/2/6
f 1443/3/6 1444/3/6 1449/3/6
f 1439/3/6 1443/3/6 1449/3/6
f 1446/2/6 1447/2/6 1450/2/6
f 1449/3/6 1444/3/6 1450/3/6
f 1444/2/6 1445/2/6 1450/2/6
f 1445/2/6 1446/2/6 1450/2/6
f 1447/3/6 1448/3/6 1451/3/6
f 1450/2/6 1447/2/6 1451/2/6
f 1448/3/6 1442/3/6 1452/3/6
f 1451/3/6 1448/3/6 1452/3/6
