# MagicaVoxel @ Ephtracy

# group
o 

# material
mtllib shell2.mtl
usemtl palette

# normals
vn -1 0 0
vn 1 0 0
vn 0 0 1
vn 0 0 -1
vn 0 -1 0
vn 0 1 0

# texcoords
vt 0.861328 0.5
vt 0.908203 0.5
vt 0.994141 0.5

# verts
v 0.4 0 1.7
v 0.4 0 1.6
v 0.4 0 1.5
v 0.4 0 1.2
v 0.4 0 1
v 0.4 0.3 1.7
v 0.4 0.3 1.6
v 0.4 0.3 1.5
v 0.4 0.3 1.2
v 0.4 0.3 1
v 0.5 0.1 1.8
v 0.5 0.1 1.7
v 0.5 0.2 1.8
v 0.5 0.2 1.7
v 0.6 0.1 1.8
v 0.6 0.1 1.7
v 0.6 0.2 1.8
v 0.6 0.2 1.7
v 0.7 0 1.7
v 0.7 0 1.6
v 0.7 0 1.5
v 0.7 0 1.2
v 0.7 0 1
v 0.7 0.3 1.7
v 0.7 0.3 1.6
v 0.7 0.3 1.5
v 0.7 0.3 1.2
v 0.7 0.3 1
v 0.5 0.1 1.8
v 0.5 0.2 1.8
v 0.6 0.1 1.8
v 0.6 0.2 1.8
v 0.4 0 1.7
v 0.4 0.3 1.7
v 0.5 0.1 1.7
v 0.5 0.2 1.7
v 0.6 0.1 1.7
v 0.6 0.2 1.7
v 0.7 0 1.7
v 0.7 0.3 1.7
v 0.4 0 1
v 0.4 0.3 1
v 0.5 0.1 1
v 0.5 0.2 1
v 0.6 0.1 1
v 0.6 0.2 1
v 0.7 0 1
v 0.7 0.3 1
v 0.4 0 1.7
v 0.7 0 1.7
v 0.4 0 1.6
v 0.7 0 1.6
v 0.4 0 1.5
v 0.7 0 1.5
v 0.4 0 1.2
v 0.7 0 1.2
v 0.4 0 1
v 0.7 0 1
v 0.5 0.1 1.8
v 0.6 0.1 1.8
v 0.5 0.1 1.7
v 0.6 0.1 1.7
v 0.5 0.2 1.8
v 0.6 0.2 1.8
v 0.5 0.2 1.7
v 0.6 0.2 1.7
v 0.4 0.3 1.7
v 0.7 0.3 1.7
v 0.4 0.3 1.6
v 0.7 0.3 1.6
v 0.4 0.3 1.5
v 0.7 0.3 1.5
v 0.4 0.3 1.2
v 0.7 0.3 1.2
v 0.4 0.3 1
v 0.7 0.3 1

# faces
f 6/2/1 2/2/1 1/2/1
f 7/3/1 3/3/1 2/3/1
f 7/2/1 2/2/1 6/2/1
f 8/2/1 4/2/1 3/2/1
f 8/3/1 3/3/1 7/3/1
f 9/1/1 5/1/1 4/1/1
f 9/2/1 4/2/1 8/2/1
f 10/1/1 5/1/1 9/1/1
f 13/3/1 12/3/1 11/3/1
f 14/3/1 12/3/1 13/3/1
f 15/3/2 16/3/2 17/3/2
f 17/3/2 16/3/2 18/3/2
f 19/2/2 20/2/2 24/2/2
f 20/3/2 21/3/2 25/3/2
f 24/2/2 20/2/2 25/2/2
f 21/2/2 22/2/2 26/2/2
f 25/3/2 21/3/2 26/3/2
f 22/1/2 23/1/2 27/1/2
f 26/2/2 22/2/2 27/2/2
f 27/1/2 23/1/2 28/1/2
f 31/3/3 30/3/3 29/3/3
f 32/3/3 30/3/3 31/3/3
f 35/2/3 34/2/3 33/2/3
f 36/2/3 34/2/3 35/2/3
f 37/2/3 35/2/3 33/2/3
f 38/2/3 34/2/3 36/2/3
f 39/2/3 37/2/3 33/2/3
f 39/2/3 38/2/3 37/2/3
f 40/2/3 34/2/3 38/2/3
f 40/2/3 38/2/3 39/2/3
f 41/1/4 42/1/4 43/1/4
f 43/1/4 42/1/4 44/1/4
f 41/1/4 43/1/4 45/1/4
f 43/2/4 44/2/4 45/2/4
f 44/1/4 42/1/4 46/1/4
f 45/2/4 44/2/4 46/2/4
f 41/1/4 45/1/4 47/1/4
f 45/1/4 46/1/4 47/1/4
f 46/1/4 42/1/4 48/1/4
f 47/1/4 46/1/4 48/1/4
f 51/2/5 50/2/5 49/2/5
f 52/2/5 50/2/5 51/2/5
f 53/3/5 52/3/5 51/3/5
f 54/3/5 52/3/5 53/3/5
f 55/2/5 54/2/5 53/2/5
f 56/2/5 54/2/5 55/2/5
f 57/1/5 56/1/5 55/1/5
f 58/1/5 56/1/5 57/1/5
f 61/3/5 60/3/5 59/3/5
f 62/3/5 60/3/5 61/3/5
f 63/3/6 64/3/6 65/3/6
f 65/3/6 64/3/6 66/3/6
f 67/2/6 68/2/6 69/2/6
f 69/2/6 68/2/6 70/2/6
f 69/3/6 70/3/6 71/3/6
f 71/3/6 70/3/6 72/3/6
f 71/2/6 72/2/6 73/2/6
f 73/2/6 72/2/6 74/2/6
f 73/1/6 74/1/6 75/1/6
f 75/1/6 74/1/6 76/1/6
