# MagicaVoxel @ Ephtracy

# group
o 

# material
mtllib tower2.mtl
usemtl palette

# normals
vn -1 0 0
vn 1 0 0
vn 0 0 1
vn 0 0 -1
vn 0 -1 0
vn 0 1 0

# texcoords
vt 0.318359 0.5
vt 0.486328 0.5
vt 0.650391 0.5
vt 0.654297 0.5
vt 0.791016 0.5

# verts
v -0.5 0 -0.8
v -0.5 0 -0.9
v -0.5 0 -1.1
v -0.5 0 -1.2
v -0.5 0 -1.4
v -0.5 0 -1.5
v -0.5 0 -1.6
v -0.5 0 -1.7
v -0.5 0 -1.8
v -0.5 0.1 -0.8
v -0.5 0.1 -0.9
v -0.5 0.1 -1
v -0.5 0.1 -1.1
v -0.5 0.1 -1.2
v -0.5 0.1 -1.3
v -0.5 0.1 -1.4
v -0.5 0.1 -1.5
v -0.5 0.1 -1.6
v -0.5 0.2 -0.8
v -0.5 0.2 -0.9
v -0.5 0.2 -1
v -0.5 0.2 -1.1
v -0.5 0.2 -1.2
v -0.5 0.2 -1.3
v -0.5 0.2 -1.4
v -0.5 0.2 -1.5
v -0.5 0.2 -1.6
v -0.5 0.2 -1.7
v -0.5 0.2 -1.8
v -0.5 0.3 -0.8
v -0.5 0.3 -0.9
v -0.5 0.3 -1
v -0.5 0.3 -1.1
v -0.5 0.3 -1.2
v -0.5 0.3 -1.4
v -0.5 0.3 -1.5
v -0.5 0.3 -1.6
v -0.5 0.3 -1.7
v -0.5 0.3 -1.8
v -0.5 0.4 -0.8
v -0.5 0.4 -0.9
v -0.5 0.4 -1
v -0.5 0.4 -1.1
v -0.5 0.4 -1.2
v -0.5 0.4 -1.4
v -0.5 0.4 -1.6
v -0.5 0.4 -1.7
v -0.5 0.4 -1.8
v -0.4 0 -0.7
v -0.4 0 -0.8
v -0.4 0 -1.8
v -0.4 0 -1.9
v -0.4 0.1 -0.8
v -0.4 0.1 -1.8
v -0.4 0.1 -1.9
v -0.4 0.2 -0.7
v -0.4 0.2 -0.8
v -0.4 0.2 -1.8
v -0.4 0.2 -1.9
v -0.4 0.3 -0.7
v -0.4 0.3 -0.8
v -0.4 0.3 -1.8
v -0.4 0.3 -1.9
v -0.4 0.4 -0.7
v -0.4 0.4 -0.8
v -0.4 0.4 -1.8
v -0.4 0.4 -1.9
v -0.3 0.4 -1.2
v -0.3 0.4 -1.7
v -0.3 0.4 -1.8
v -0.3 0.5 -1.2
v -0.3 0.5 -1.7
v -0.3 0.5 -1.8
v -0.2 0 -0.6
v -0.2 0 -0.7
v -0.2 0.1 -0.7
v -0.2 0.2 -0.6
v -0.2 0.2 -0.7
v -0.2 0.4 -0.6
v -0.2 0.4 -0.7
v -0.2 0.5 -1.3
v -0.2 0.5 -1.7
v -0.2 0.6 -1.3
v -0.2 0.6 -1.7
v -0.1 0.1 0.4
v -0.1 0.1 0.3
v -0.1 0.1 0.2
v -0.1 0.1 0.1
v -0.1 0.1 -0.1
v -0.1 0.1 -0.3
v -0.1 0.1 -0.4
v -0.1 0.1 -0.6
v -0.1 0.2 0.3
v -0.1 0.2 0.2
v -0.1 0.2 0.1
v -0.1 0.2 -0.1
v -0.1 0.2 -0.2
v -0.1 0.2 -0.3
v -0.1 0.2 -0.4
v -0.1 0.2 -0.6
v -0.1 0.3 0.4
v -0.1 0.3 0.2
v -0.1 0.3 0.1
v -0.1 0.3 -0.2
v -0.1 0.3 -0.3
v -0.1 0.3 -0.6
v 0.1 0.1 0.4
v 0.1 0.1 0.3
v 0.1 0.1 0.2
v 0.1 0.1 0.1
v 0.1 0.1 -0.1
v 0.1 0.1 -0.3
v 0.1 0.1 -0.4
v 0.1 0.1 -0.6
v 0.1 0.2 0.3
v 0.1 0.2 0.2
v 0.1 0.2 0.1
v 0.1 0.2 -0.1
v 0.1 0.2 -0.2
v 0.1 0.2 -0.3
v 0.1 0.2 -0.4
v 0.1 0.2 -0.6
v 0.1 0.3 0.4
v 0.1 0.3 0.2
v 0.1 0.3 0.1
v 0.1 0.3 -0.2
v 0.1 0.3 -0.3
v 0.1 0.3 -0.6
v 0.2 0 -0.6
v 0.2 0 -0.7
v 0.2 0.1 -0.7
v 0.2 0.2 -0.6
v 0.2 0.2 -0.7
v 0.2 0.4 -0.6
v 0.2 0.4 -0.7
v 0.2 0.5 -1.3
v 0.2 0.5 -1.7
v 0.2 0.6 -1.3
v 0.2 0.6 -1.7
v 0.3 0.4 -1.2
v 0.3 0.4 -1.7
v 0.3 0.4 -1.8
v 0.3 0.5 -1.2
v 0.3 0.5 -1.7
v 0.3 0.5 -1.8
v 0.4 0 -0.7
v 0.4 0 -0.8
v 0.4 0 -1.8
v 0.4 0 -1.9
v 0.4 0.1 -0.8
v 0.4 0.1 -1.8
v 0.4 0.1 -1.9
v 0.4 0.2 -0.7
v 0.4 0.2 -0.8
v 0.4 0.2 -1.8
v 0.4 0.2 -1.9
v 0.4 0.3 -0.7
v 0.4 0.3 -0.8
v 0.4 0.3 -1.8
v 0.4 0.3 -1.9
v 0.4 0.4 -0.7
v 0.4 0.4 -0.8
v 0.4 0.4 -1.8
v 0.4 0.4 -1.9
v 0.5 0 -0.8
v 0.5 0 -0.9
v 0.5 0 -1.1
v 0.5 0 -1.2
v 0.5 0 -1.4
v 0.5 0 -1.5
v 0.5 0 -1.6
v 0.5 0 -1.7
v 0.5 0 -1.8
v 0.5 0.1 -0.8
v 0.5 0.1 -0.9
v 0.5 0.1 -1
v 0.5 0.1 -1.1
v 0.5 0.1 -1.2
v 0.5 0.1 -1.3
v 0.5 0.1 -1.4
v 0.5 0.1 -1.5
v 0.5 0.1 -1.6
v 0.5 0.2 -0.8
v 0.5 0.2 -0.9
v 0.5 0.2 -1
v 0.5 0.2 -1.1
v 0.5 0.2 -1.2
v 0.5 0.2 -1.3
v 0.5 0.2 -1.4
v 0.5 0.2 -1.5
v 0.5 0.2 -1.6
v 0.5 0.2 -1.7
v 0.5 0.2 -1.8
v 0.5 0.3 -0.8
v 0.5 0.3 -0.9
v 0.5 0.3 -1
v 0.5 0.3 -1.1
v 0.5 0.3 -1.2
v 0.5 0.3 -1.4
v 0.5 0.3 -1.5
v 0.5 0.3 -1.6
v 0.5 0.3 -1.7
v 0.5 0.3 -1.8
v 0.5 0.4 -0.8
v 0.5 0.4 -0.9
v 0.5 0.4 -1
v 0.5 0.4 -1.1
v 0.5 0.4 -1.2
v 0.5 0.4 -1.4
v 0.5 0.4 -1.6
v 0.5 0.4 -1.7
v 0.5 0.4 -1.8
v -0.1 0.1 0.4
v -0.1 0.3 0.4
v 0.1 0.1 0.4
v 0.1 0.3 0.4
v -0.2 0 -0.6
v -0.2 0.2 -0.6
v -0.2 0.4 -0.6
v -0.1 0.1 -0.6
v -0.1 0.2 -0.6
v -0.1 0.3 -0.6
v -0.1 0.4 -0.6
v 0.1 0.1 -0.6
v 0.1 0.2 -0.6
v 0.1 0.3 -0.6
v 0.1 0.4 -0.6
v 0.2 0 -0.6
v 0.2 0.2 -0.6
v 0.2 0.4 -0.6
v -0.4 0 -0.7
v -0.4 0.2 -0.7
v -0.4 0.3 -0.7
v -0.4 0.4 -0.7
v -0.3 0 -0.7
v -0.3 0.1 -0.7
v -0.3 0.2 -0.7
v -0.3 0.3 -0.7
v -0.3 0.4 -0.7
v -0.2 0 -0.7
v -0.2 0.1 -0.7
v -0.2 0.2 -0.7
v -0.2 0.4 -0.7
v 0.2 0 -0.7
v 0.2 0.1 -0.7
v 0.2 0.2 -0.7
v 0.2 0.4 -0.7
v 0.3 0 -0.7
v 0.3 0.1 -0.7
v 0.3 0.2 -0.7
v 0.3 0.3 -0.7
v 0.3 0.4 -0.7
v 0.4 0 -0.7
v 0.4 0.2 -0.7
v 0.4 0.3 -0.7
v 0.4 0.4 -0.7
v -0.5 0 -0.8
v -0.5 0.1 -0.8
v -0.5 0.2 -0.8
v -0.5 0.3 -0.8
v -0.5 0.4 -0.8
v -0.4 0 -0.8
v -0.4 0.1 -0.8
v -0.4 0.2 -0.8
v -0.4 0.3 -0.8
v -0.4 0.4 -0.8
v 0.4 0 -0.8
v 0.4 0.1 -0.8
v 0.4 0.2 -0.8
v 0.4 0.3 -0.8
v 0.4 0.4 -0.8
v 0.5 0 -0.8
v 0.5 0.1 -0.8
v 0.5 0.2 -0.8
v 0.5 0.3 -0.8
v 0.5 0.4 -0.8
v -0.3 0.4 -1.2
v -0.3 0.5 -1.2
v -0.2 0.4 -1.2
v -0.2 0.5 -1.2
v -0.1 0.4 -1.2
v -0.1 0.5 -1.2
v 0.1 0.4 -1.2
v 0.1 0.5 -1.2
v 0.2 0.4 -1.2
v 0.2 0.5 -1.2
v 0.3 0.4 -1.2
v 0.3 0.5 -1.2
v -0.2 0.5 -1.3
v -0.2 0.6 -1.3
v -0.1 0.5 -1.3
v 0.1 0.5 -1.3
v 0.2 0.5 -1.3
v 0.2 0.6 -1.3
v -0.2 0.5 -1.7
v -0.2 0.6 -1.7
v 0.2 0.5 -1.7
v 0.2 0.6 -1.7
v -0.5 0 -1.8
v -0.5 0.2 -1.8
v -0.5 0.3 -1.8
v -0.5 0.4 -1.8
v -0.4 0 -1.8
v -0.4 0.1 -1.8
v -0.4 0.2 -1.8
v -0.4 0.3 -1.8
v -0.4 0.4 -1.8
v -0.3 0.4 -1.8
v -0.3 0.5 -1.8
v -0.2 0.4 -1.8
v -0.2 0.5 -1.8
v 0.2 0.4 -1.8
v 0.2 0.5 -1.8
v 0.3 0.4 -1.8
v 0.3 0.5 -1.8
v 0.4 0 -1.8
v 0.4 0.1 -1.8
v 0.4 0.2 -1.8
v 0.4 0.3 -1.8
v 0.4 0.4 -1.8
v 0.5 0 -1.8
v 0.5 0.2 -1.8
v 0.5 0.3 -1.8
v 0.5 0.4 -1.8
v -0.4 0 -1.9
v -0.4 0.1 -1.9
v -0.4 0.2 -1.9
v -0.4 0.3 -1.9
v -0.4 0.4 -1.9
v -0.3 0 -1.9
v -0.3 0.1 -1.9
v -0.3 0.2 -1.9
v -0.2 0 -1.9
v -0.2 0.1 -1.9
v -0.2 0.2 -1.9
v -0.2 0.3 -1.9
v -0.1 0 -1.9
v -0.1 0.1 -1.9
v -0.1 0.2 -1.9
v -0.1 0.3 -1.9
v 0.1 0 -1.9
v 0.1 0.1 -1.9
v 0.1 0.2 -1.9
v 0.1 0.3 -1.9
v 0.2 0 -1.9
v 0.2 0.1 -1.9
v 0.2 0.2 -1.9
v 0.2 0.3 -1.9
v 0.3 0 -1.9
v 0.3 0.1 -1.9
v 0.3 0.2 -1.9
v 0.4 0 -1.9
v 0.4 0.1 -1.9
v 0.4 0.2 -1.9
v 0.4 0.3 -1.9
v 0.4 0.4 -1.9
v -0.2 0 -0.6
v 0.2 0 -0.6
v -0.4 0 -0.7
v -0.3 0 -0.7
v -0.2 0 -0.7
v 0.2 0 -0.7
v 0.3 0 -0.7
v 0.4 0 -0.7
v -0.5 0 -0.8
v -0.4 0 -0.8
v -0.3 0 -0.8
v -0.2 0 -0.8
v 0.2 0 -0.8
v 0.3 0 -0.8
v 0.4 0 -0.8
v 0.5 0 -0.8
v -0.5 0 -0.9
v -0.4 0 -0.9
v 0.4 0 -0.9
v 0.5 0 -0.9
v -0.5 0 -1.1
v -0.4 0 -1.1
v 0.4 0 -1.1
v 0.5 0 -1.1
v -0.5 0 -1.2
v -0.4 0 -1.2
v 0.4 0 -1.2
v 0.5 0 -1.2
v -0.5 0 -1.4
v -0.4 0 -1.4
v 0.4 0 -1.4
v 0.5 0 -1.4
v -0.5 0 -1.5
v -0.4 0 -1.5
v 0.4 0 -1.5
v 0.5 0 -1.5
v -0.5 0 -1.6
v -0.4 0 -1.6
v 0.4 0 -1.6
v 0.5 0 -1.6
v -0.5 0 -1.7
v -0.4 0 -1.7
v 0.4 0 -1.7
v 0.5 0 -1.7
v -0.5 0 -1.8
v -0.4 0 -1.8
v -0.3 0 -1.8
v -0.2 0 -1.8
v -0.1 0 -1.8
v 0.1 0 -1.8
v 0.2 0 -1.8
v 0.3 0 -1.8
v 0.4 0 -1.8
v 0.5 0 -1.8
v -0.4 0 -1.9
v -0.3 0 -1.9
v -0.2 0 -1.9
v -0.1 0 -1.9
v 0.1 0 -1.9
v 0.2 0 -1.9
v 0.3 0 -1.9
v 0.4 0 -1.9
v -0.1 0.1 0.4
v 0.1 0.1 0.4
v -0.1 0.1 0.3
v 0.1 0.1 0.3
v -0.1 0.1 0.2
v 0.1 0.1 0.2
v -0.1 0.1 0.1
v 0.1 0.1 0.1
v -0.1 0.1 -0.1
v 0.1 0.1 -0.1
v -0.1 0.1 -0.3
v 0.1 0.1 -0.3
v -0.1 0.1 -0.4
v 0.1 0.1 -0.4
v -0.1 0.1 -0.6
v 0.1 0.1 -0.6
v -0.1 0.3 0.4
v 0.1 0.3 0.4
v -0.1 0.3 0.2
v 0.1 0.3 0.2
v -0.1 0.3 0.1
v 0.1 0.3 0.1
v -0.1 0.3 -0.2
v 0.1 0.3 -0.2
v -0.1 0.3 -0.3
v 0.1 0.3 -0.3
v -0.1 0.3 -0.6
v 0.1 0.3 -0.6
v -0.2 0.4 -0.6
v -0.1 0.4 -0.6
v 0.1 0.4 -0.6
v 0.2 0.4 -0.6
v -0.4 0.4 -0.7
v -0.3 0.4 -0.7
v -0.2 0.4 -0.7
v -0.1 0.4 -0.7
v 0.1 0.4 -0.7
v 0.2 0.4 -0.7
v 0.3 0.4 -0.7
v 0.4 0.4 -0.7
v -0.5 0.4 -0.8
v -0.4 0.4 -0.8
v -0.3 0.4 -0.8
v -0.2 0.4 -0.8
v 0.2 0.4 -0.8
v 0.3 0.4 -0.8
v 0.4 0.4 -0.8
v 0.5 0.4 -0.8
v -0.5 0.4 -0.9
v -0.4 0.4 -0.9
v -0.3 0.4 -0.9
v -0.1 0.4 -0.9
v 0.1 0.4 -0.9
v 0.3 0.4 -0.9
v 0.4 0.4 -0.9
v 0.5 0.4 -0.9
v -0.5 0.4 -1
v -0.4 0.4 -1
v -0.2 0.4 -1
v -0.1 0.4 -1
v 0.1 0.4 -1
v 0.2 0.4 -1
v 0.4 0.4 -1
v 0.5 0.4 -1
v -0.5 0.4 -1.1
v -0.4 0.4 -1.1
v -0.3 0.4 -1.1
v -0.2 0.4 -1.1
v 0.2 0.4 -1.1
v 0.3 0.4 -1.1
v 0.4 0.4 -1.1
v 0.5 0.4 -1.1
v -0.5 0.4 -1.2
v -0.4 0.4 -1.2
v -0.3 0.4 -1.2
v -0.2 0.4 -1.2
v -0.1 0.4 -1.2
v 0.1 0.4 -1.2
v 0.2 0.4 -1.2
v 0.3 0.4 -1.2
v 0.4 0.4 -1.2
v 0.5 0.4 -1.2
v -0.5 0.4 -1.4
v -0.4 0.4 -1.4
v 0.4 0.4 -1.4
v 0.5 0.4 -1.4
v -0.5 0.4 -1.6
v -0.4 0.4 -1.6
v 0.4 0.4 -1.6
v 0.5 0.4 -1.6
v -0.5 0.4 -1.7
v -0.4 0.4 -1.7
v -0.3 0.4 -1.7
v 0.3 0.4 -1.7
v 0.4 0.4 -1.7
v 0.5 0.4 -1.7
v -0.5 0.4 -1.8
v -0.4 0.4 -1.8
v -0.3 0.4 -1.8
v -0.2 0.4 -1.8
v 0.2 0.4 -1.8
v 0.3 0.4 -1.8
v 0.4 0.4 -1.8
v 0.5 0.4 -1.8
v -0.4 0.4 -1.9
v 0.4 0.4 -1.9
v -0.3 0.5 -1.2
v -0.2 0.5 -1.2
v -0.1 0.5 -1.2
v 0.1 0.5 -1.2
v 0.2 0.5 -1.2
v 0.3 0.5 -1.2
v -0.2 0.5 -1.3
v -0.1 0.5 -1.3
v 0.1 0.5 -1.3
v 0.2 0.5 -1.3
v -0.3 0.5 -1.7
v -0.2 0.5 -1.7
v 0.2 0.5 -1.7
v 0.3 0.5 -1.7
v -0.3 0.5 -1.8
v -0.2 0.5 -1.8
v 0.2 0.5 -1.8
v 0.3 0.5 -1.8
v -0.2 0.6 -1.3
v 0.2 0.6 -1.3
v -0.2 0.6 -1.7
v 0.2 0.6 -1.7

# faces
f 10/4/1 2/4/1 1/4/1
f 11/2/1 3/2/1 2/2/1
f 11/4/1 2/4/1 10/4/1
f 12/2/1 3/2/1 11/2/1
f 13/4/1 4/4/1 3/4/1
f 13/2/1 3/2/1 12/2/1
f 14/2/1 5/2/1 4/2/1
f 14/4/1 4/4/1 13/4/1
f 15/2/1 5/2/1 14/2/1
f 16/5/1 6/5/1 5/5/1
f 16/2/1 5/2/1 15/2/1
f 17/4/1 7/4/1 6/4/1
f 17/5/1 6/5/1 16/5/1
f 18/2/1 8/2/1 7/2/1
f 18/4/1 7/4/1 17/4/1
f 19/2/1 12/2/1 11/2/1
f 19/2/1 11/2/1 10/2/1
f 20/2/1 12/2/1 19/2/1
f 21/4/1 13/4/1 12/4/1
f 21/2/1 12/2/1 20/2/1
f 22/2/1 14/2/1 13/2/1
f 22/4/1 13/4/1 21/4/1
f 23/5/1 15/5/1 14/5/1
f 23/2/1 14/2/1 22/2/1
f 24/2/1 16/2/1 15/2/1
f 24/5/1 15/5/1 23/5/1
f 25/4/1 17/4/1 16/4/1
f 25/2/1 16/2/1 24/2/1
f 26/2/1 18/2/1 17/2/1
f 26/4/1 17/4/1 25/4/1
f 27/2/1 8/2/1 18/2/1
f 27/2/1 18/2/1 26/2/1
f 28/4/1 9/4/1 8/4/1
f 28/2/1 8/2/1 27/2/1
f 29/4/1 9/4/1 28/4/1
f 30/4/1 20/4/1 19/4/1
f 31/2/1 26/2/1 25/2/1
f 31/4/1 20/4/1 30/4/1
f 31/2/1 22/2/1 21/2/1
f 31/2/1 23/2/1 22/2/1
f 31/2/1 24/2/1 23/2/1
f 31/2/1 25/2/1 24/2/1
f 31/2/1 21/2/1 20/2/1
f 32/2/1 26/2/1 31/2/1
f 33/2/1 26/2/1 32/2/1
f 34/2/1 26/2/1 33/2/1
f 35/2/1 26/2/1 34/2/1
f 36/4/1 27/4/1 26/4/1
f 36/2/1 26/2/1 35/2/1
f 37/2/1 29/2/1 28/2/1
f 37/4/1 27/4/1 36/4/1
f 37/2/1 28/2/1 27/2/1
f 38/2/1 29/2/1 37/2/1
f 39/2/1 29/2/1 38/2/1
f 40/1/1 31/1/1 30/1/1
f 41/2/1 32/2/1 31/2/1
f 41/1/1 31/1/1 40/1/1
f 42/1/1 33/1/1 32/1/1
f 42/2/1 32/2/1 41/2/1
f 43/5/1 34/5/1 33/5/1
f 43/1/1 33/1/1 42/1/1
f 44/2/1 35/2/1 34/2/1
f 44/5/1 34/5/1 43/5/1
f 45/1/1 36/1/1 35/1/1
f 45/2/1 35/2/1 44/2/1
f 45/1/1 37/1/1 36/1/1
f 46/5/1 38/5/1 37/5/1
f 46/1/1 37/1/1 45/1/1
f 47/1/1 39/1/1 38/1/1
f 47/5/1 38/5/1 46/5/1
f 48/1/1 39/1/1 47/1/1
f 53/4/1 50/4/1 49/4/1
f 54/1/1 52/1/1 51/1/1
f 55/1/1 52/1/1 54/1/1
f 56/4/1 53/4/1 49/4/1
f 57/4/1 53/4/1 56/4/1
f 58/2/1 55/2/1 54/2/1
f 59/2/1 55/2/1 58/2/1
f 60/5/1 57/5/1 56/5/1
f 61/5/1 57/5/1 60/5/1
f 62/4/1 59/4/1 58/4/1
f 63/4/1 59/4/1 62/4/1
f 64/1/1 61/1/1 60/1/1
f 65/1/1 61/1/1 64/1/1
f 66/1/1 63/1/1 62/1/1
f 67/1/1 63/1/1 66/1/1
f 71/2/1 69/2/1 68/2/1
f 72/4/1 70/4/1 69/4/1
f 72/2/1 69/2/1 71/2/1
f 73/4/1 70/4/1 72/4/1
f 76/2/1 75/2/1 74/2/1
f 77/2/1 76/2/1 74/2/1
f 78/2/1 76/2/1 77/2/1
f 79/4/1 78/4/1 77/4/1
f 80/4/1 78/4/1 79/4/1
f 83/2/1 82/2/1 81/2/1
f 84/2/1 82/2/1 83/2/1
f 93/2/1 86/2/1 85/2/1
f 93/3/1 87/3/1 86/3/1
f 94/2/1 88/2/1 87/2/1
f 94/3/1 87/3/1 93/3/1
f 95/3/1 89/3/1 88/3/1
f 95/2/1 88/2/1 94/2/1
f 96/2/1 90/2/1 89/2/1
f 96/3/1 89/3/1 95/3/1
f 97/2/1 90/2/1 96/2/1
f 98/1/1 91/1/1 90/1/1
f 98/2/1 90/2/1 97/2/1
f 99/2/1 92/2/1 91/2/1
f 99/1/1 91/1/1 98/1/1
f 100/2/1 92/2/1 99/2/1
f 101/2/1 93/2/1 85/2/1
f 101/2/1 94/2/1 93/2/1
f 102/3/1 95/3/1 94/3/1
f 102/2/1 94/2/1 101/2/1
f 103/2/1 97/2/1 96/2/1
f 103/3/1 95/3/1 102/3/1
f 103/2/1 96/2/1 95/2/1
f 104/3/1 98/3/1 97/3/1
f 104/2/1 97/2/1 103/2/1
f 105/2/1 100/2/1 99/2/1
f 105/3/1 98/3/1 104/3/1
f 105/2/1 99/2/1 98/2/1
f 106/2/1 100/2/1 105/2/1
f 107/2/2 108/2/2 115/2/2
f 108/3/2 109/3/2 115/3/2
f 109/2/2 110/2/2 116/2/2
f 115/3/2 109/3/2 116/3/2
f 110/3/2 111/3/2 117/3/2
f 116/2/2 110/2/2 117/2/2
f 111/2/2 112/2/2 118/2/2
f 117/3/2 111/3/2 118/3/2
f 118/2/2 112/2/2 119/2/2
f 112/1/2 113/1/2 120/1/2
f 119/2/2 112/2/2 120/2/2
f 113/2/2 114/2/2 121/2/2
f 120/1/2 113/1/2 121/1/2
f 121/2/2 114/2/2 122/2/2
f 107/2/2 115/2/2 123/2/2
f 115/2/2 116/2/2 123/2/2
f 116/3/2 117/3/2 124/3/2
f 123/2/2 116/2/2 124/2/2
f 118/2/2 119/2/2 125/2/2
f 124/3/2 117/3/2 125/3/2
f 117/2/2 118/2/2 125/2/2
f 119/3/2 120/3/2 126/3/2
f 125/2/2 119/2/2 126/2/2
f 121/2/2 122/2/2 127/2/2
f 126/3/2 120/3/2 127/3/2
f 120/2/2 121/2/2 127/2/2
f 127/2/2 122/2/2 128/2/2
f 129/2/2 130/2/2 131/2/2
f 129/2/2 131/2/2 132/2/2
f 132/2/2 131/2/2 133/2/2
f 132/4/2 133/4/2 134/4/2
f 134/4/2 133/4/2 135/4/2
f 136/2/2 137/2/2 138/2/2
f 138/2/2 137/2/2 139/2/2
f 140/2/2 141/2/2 143/2/2
f 141/4/2 142/4/2 144/4/2
f 143/2/2 141/2/2 144/2/2
f 144/4/2 142/4/2 145/4/2
f 146/4/2 147/4/2 150/4/2
f 148/1/2 149/1/2 151/1/2
f 151/1/2 149/1/2 152/1/2
f 146/4/2 150/4/2 153/4/2
f 153/4/2 150/4/2 154/4/2
f 151/2/2 152/2/2 155/2/2
f 155/2/2 152/2/2 156/2/2
f 153/5/2 154/5/2 157/5/2
f 157/5/2 154/5/2 158/5/2
f 155/4/2 156/4/2 159/4/2
f 159/4/2 156/4/2 160/4/2
f 157/1/2 158/1/2 161/1/2
f 161/1/2 158/1/2 162/1/2
f 159/1/2 160/1/2 163/1/2
f 163/1/2 160/1/2 164/1/2
f 165/4/2 166/4/2 174/4/2
f 166/2/2 167/2/2 175/2/2
f 174/4/2 166/4/2 175/4/2
f 175/2/2 167/2/2 176/2/2
f 167/4/2 168/4/2 177/4/2
f 176/2/2 167/2/2 177/2/2
f 168/2/2 169/2/2 178/2/2
f 177/4/2 168/4/2 178/4/2
f 178/2/2 169/2/2 179/2/2
f 169/5/2 170/5/2 180/5/2
f 179/2/2 169/2/2 180/2/2
f 170/4/2 171/4/2 181/4/2
f 180/5/2 170/5/2 181/5/2
f 171/2/2 172/2/2 182/2/2
f 181/4/2 171/4/2 182/4/2
f 175/2/2 176/2/2 183/2/2
f 174/2/2 175/2/2 183/2/2
f 183/2/2 176/2/2 184/2/2
f 176/4/2 177/4/2 185/4/2
f 184/2/2 176/2/2 185/2/2
f 177/2/2 178/2/2 186/2/2
f 185/4/2 177/4/2 186/4/2
f 178/5/2 179/5/2 187/5/2
f 186/2/2 178/2/2 187/2/2
f 179/2/2 180/2/2 188/2/2
f 187/5/2 179/5/2 188/5/2
f 180/4/2 181/4/2 189/4/2
f 188/2/2 180/2/2 189/2/2
f 181/2/2 182/2/2 190/2/2
f 189/4/2 181/4/2 190/4/2
f 182/2/2 172/2/2 191/2/2
f 190/2/2 182/2/2 191/2/2
f 172/4/2 173/4/2 192/4/2
f 191/2/2 172/2/2 192/2/2
f 192/4/2 173/4/2 193/4/2
f 183/4/2 184/4/2 194/4/2
f 189/2/2 190/2/2 195/2/2
f 194/4/2 184/4/2 195/4/2
f 185/2/2 186/2/2 195/2/2
f 186/2/2 187/2/2 195/2/2
f 187/2/2 188/2/2 195/2/2
f 188/2/2 189/2/2 195/2/2
f 184/2/2 185/2/2 195/2/2
f 195/2/2 190/2/2 196/2/2
f 196/2/2 190/2/2 197/2/2
f 197/2/2 190/2/2 198/2/2
f 198/2/2 190/2/2 199/2/2
f 190/4/2 191/4/2 200/4/2
f 199/2/2 190/2/2 200/2/2
f 192/2/2 193/2/2 201/2/2
f 200/4/2 191/4/2 201/4/2
f 191/2/2 192/2/2 201/2/2
f 201/2/2 193/2/2 202/2/2
f 202/2/2 193/2/2 203/2/2
f 194/1/2 195/1/2 204/1/2
f 195/2/2 196/2/2 205/2/2
f 204/1/2 195/1/2 205/1/2
f 196/1/2 197/1/2 206/1/2
f 205/2/2 196/2/2 206/2/2
f 197/5/2 198/5/2 207/5/2
f 206/1/2 197/1/2 207/1/2
f 198/2/2 199/2/2 208/2/2
f 207/5/2 198/5/2 208/5/2
f 199/1/2 200/1/2 209/1/2
f 208/2/2 199/2/2 209/2/2
f 200/1/2 201/1/2 209/1/2
f 201/5/2 202/5/2 210/5/2
f 209/1/2 201/1/2 210/1/2
f 202/1/2 203/1/2 211/1/2
f 210/5/2 202/5/2 211/5/2
f 211/1/2 203/1/2 212/1/2
f 215/2/3 214/2/3 213/2/3
f 216/2/3 214/2/3 215/2/3
f 220/2/3 218/2/3 217/2/3
f 221/4/3 219/4/3 218/4/3
f 221/2/3 218/2/3 220/2/3
f 222/4/3 219/4/3 221/4/3
f 223/4/3 219/4/3 222/4/3
f 224/2/3 220/2/3 217/2/3
f 226/2/3 223/2/3 222/2/3
f 227/2/3 223/2/3 226/2/3
f 228/2/3 225/2/3 224/2/3
f 228/2/3 224/2/3 217/2/3
f 229/4/3 227/4/3 226/4/3
f 229/2/3 225/2/3 228/2/3
f 229/4/3 226/4/3 225/4/3
f 230/4/3 227/4/3 229/4/3
f 235/4/3 232/4/3 231/4/3
f 236/4/3 232/4/3 235/4/3
f 237/5/3 233/5/3 232/5/3
f 237/4/3 232/4/3 236/4/3
f 238/1/3 234/1/3 233/1/3
f 238/5/3 233/5/3 237/5/3
f 239/1/3 234/1/3 238/1/3
f 240/5/3 236/5/3 235/5/3
f 241/4/3 237/4/3 236/4/3
f 241/5/3 236/5/3 240/5/3
f 242/2/3 238/2/3 237/2/3
f 242/4/3 237/4/3 241/4/3
f 242/2/3 239/2/3 238/2/3
f 243/2/3 239/2/3 242/2/3
f 248/5/3 245/5/3 244/5/3
f 249/4/3 246/4/3 245/4/3
f 249/5/3 245/5/3 248/5/3
f 250/2/3 247/2/3 246/2/3
f 250/4/3 246/4/3 249/4/3
f 251/2/3 247/2/3 250/2/3
f 252/2/3 247/2/3 251/2/3
f 253/4/3 249/4/3 248/4/3
f 253/4/3 250/4/3 249/4/3
f 254/5/3 251/5/3 250/5/3
f 254/4/3 250/4/3 253/4/3
f 255/1/3 252/1/3 251/1/3
f 255/5/3 251/5/3 254/5/3
f 256/1/3 252/1/3 255/1/3
f 262/4/3 258/4/3 257/4/3
f 263/2/3 259/2/3 258/2/3
f 263/4/3 258/4/3 262/4/3
f 264/4/3 260/4/3 259/4/3
f 264/2/3 259/2/3 263/2/3
f 265/1/3 261/1/3 260/1/3
f 265/4/3 260/4/3 264/4/3
f 266/1/3 261/1/3 265/1/3
f 272/4/3 268/4/3 267/4/3
f 273/2/3 269/2/3 268/2/3
f 273/4/3 268/4/3 272/4/3
f 274/4/3 270/4/3 269/4/3
f 274/2/3 269/2/3 273/2/3
f 275/1/3 271/1/3 270/1/3
f 275/4/3 270/4/3 274/4/3
f 276/1/3 271/1/3 275/1/3
f 279/2/3 278/2/3 277/2/3
f 280/2/3 278/2/3 279/2/3
f 281/4/3 280/4/3 279/4/3
f 282/4/3 280/4/3 281/4/3
f 283/2/3 282/2/3 281/2/3
f 284/2/3 282/2/3 283/2/3
f 285/4/3 284/4/3 283/4/3
f 286/4/3 284/4/3 285/4/3
f 287/2/3 286/2/3 285/2/3
f 288/2/3 286/2/3 287/2/3
f 291/2/3 290/2/3 289/2/3
f 292/2/3 290/2/3 291/2/3
f 293/2/3 290/2/3 292/2/3
f 294/2/3 290/2/3 293/2/3
f 295/2/4 296/2/4 297/2/4
f 297/2/4 296/2/4 298/2/4
f 299/4/4 300/4/4 303/4/4
f 303/4/4 300/4/4 304/4/4
f 300/2/4 301/2/4 305/2/4
f 304/4/4 300/4/4 305/4/4
f 301/1/4 302/1/4 306/1/4
f 305/2/4 301/2/4 306/2/4
f 306/1/4 302/1/4 307/1/4
f 308/4/4 309/4/4 310/4/4
f 310/4/4 309/4/4 311/4/4
f 310/2/4 311/2/4 312/2/4
f 312/2/4 311/2/4 313/2/4
f 312/4/4 313/4/4 314/4/4
f 314/4/4 313/4/4 315/4/4
f 316/4/4 317/4/4 321/4/4
f 317/4/4 318/4/4 321/4/4
f 318/2/4 319/2/4 322/2/4
f 321/4/4 318/4/4 322/4/4
f 319/1/4 320/1/4 323/1/4
f 322/2/4 319/2/4 323/2/4
f 323/1/4 320/1/4 324/1/4
f 325/1/4 326/1/4 330/1/4
f 326/2/4 327/2/4 331/2/4
f 330/1/4 326/1/4 331/1/4
f 327/4/4 328/4/4 332/4/4
f 331/2/4 327/2/4 332/2/4
f 330/2/4 331/2/4 333/2/4
f 331/4/4 332/4/4 334/4/4
f 333/2/4 331/2/4 334/2/4
f 332/4/4 328/4/4 335/4/4
f 334/4/4 332/4/4 335/4/4
f 328/1/4 329/1/4 336/1/4
f 335/4/4 328/4/4 336/4/4
f 333/4/4 334/4/4 337/4/4
f 334/2/4 335/2/4 338/2/4
f 337/4/4 334/4/4 338/4/4
f 335/5/4 336/5/4 339/5/4
f 338/2/4 335/2/4 339/2/4
f 336/1/4 329/1/4 340/1/4
f 339/5/4 336/5/4 340/5/4
f 337/2/4 338/2/4 341/2/4
f 338/5/4 339/5/4 342/5/4
f 341/2/4 338/2/4 342/2/4
f 339/2/4 340/2/4 343/2/4
f 342/5/4 339/5/4 343/5/4
f 340/1/4 329/1/4 344/1/4
f 343/2/4 340/2/4 344/2/4
f 341/4/4 342/4/4 345/4/4
f 342/2/4 343/2/4 346/2/4
f 345/4/4 342/4/4 346/4/4
f 343/5/4 344/5/4 347/5/4
f 346/2/4 343/2/4 347/2/4
f 344/1/4 329/1/4 348/1/4
f 347/5/4 344/5/4 348/5/4
f 345/2/4 346/2/4 349/2/4
f 346/4/4 347/4/4 350/4/4
f 349/2/4 346/2/4 350/2/4
f 347/4/4 348/4/4 350/4/4
f 350/4/4 348/4/4 351/4/4
f 349/1/4 350/1/4 352/1/4
f 350/2/4 351/2/4 353/2/4
f 352/1/4 350/1/4 353/1/4
f 351/4/4 348/4/4 354/4/4
f 353/2/4 351/2/4 354/2/4
f 348/1/4 329/1/4 355/1/4
f 354/4/4 348/4/4 355/4/4
f 355/1/4 329/1/4 356/1/4
f 361/2/5 358/2/5 357/2/5
f 362/2/5 358/2/5 361/2/5
f 366/4/5 360/4/5 359/4/5
f 367/5/5 361/5/5 360/5/5
f 367/4/5 360/4/5 366/4/5
f 368/2/5 362/2/5 361/2/5
f 368/5/5 361/5/5 367/5/5
f 369/5/5 363/5/5 362/5/5
f 369/2/5 362/2/5 368/2/5
f 370/4/5 364/4/5 363/4/5
f 370/5/5 363/5/5 369/5/5
f 371/4/5 364/4/5 370/4/5
f 373/4/5 366/4/5 365/4/5
f 374/2/5 369/2/5 368/2/5
f 374/4/5 366/4/5 373/4/5
f 374/2/5 367/2/5 366/2/5
f 374/2/5 371/2/5 370/2/5
f 374/2/5 370/2/5 369/2/5
f 374/2/5 368/2/5 367/2/5
f 375/4/5 372/4/5 371/4/5
f 375/2/5 371/2/5 374/2/5
f 376/4/5 372/4/5 375/4/5
f 377/2/5 374/2/5 373/2/5
f 377/2/5 375/2/5 374/2/5
f 377/2/5 376/2/5 375/2/5
f 378/2/5 376/2/5 377/2/5
f 379/2/5 376/2/5 378/2/5
f 380/2/5 376/2/5 379/2/5
f 381/4/5 378/4/5 377/4/5
f 382/2/5 379/2/5 378/2/5
f 382/4/5 378/4/5 381/4/5
f 383/4/5 380/4/5 379/4/5
f 383/2/5 379/2/5 382/2/5
f 384/4/5 380/4/5 383/4/5
f 385/2/5 382/2/5 381/2/5
f 385/2/5 383/2/5 382/2/5
f 385/2/5 384/2/5 383/2/5
f 386/2/5 384/2/5 385/2/5
f 387/2/5 384/2/5 386/2/5
f 388/2/5 384/2/5 387/2/5
f 389/5/5 386/5/5 385/5/5
f 390/2/5 387/2/5 386/2/5
f 390/5/5 386/5/5 389/5/5
f 391/5/5 388/5/5 387/5/5
f 391/2/5 387/2/5 390/2/5
f 392/5/5 388/5/5 391/5/5
f 393/4/5 390/4/5 389/4/5
f 394/2/5 391/2/5 390/2/5
f 394/4/5 390/4/5 393/4/5
f 395/4/5 392/4/5 391/4/5
f 395/2/5 391/2/5 394/2/5
f 396/4/5 392/4/5 395/4/5
f 397/2/5 394/2/5 393/2/5
f 397/2/5 395/2/5 394/2/5
f 397/2/5 396/2/5 395/2/5
f 398/2/5 396/2/5 397/2/5
f 399/2/5 396/2/5 398/2/5
f 400/2/5 396/2/5 399/2/5
f 401/4/5 398/4/5 397/4/5
f 402/2/5 399/2/5 398/2/5
f 402/4/5 398/4/5 401/4/5
f 403/2/5 399/2/5 402/2/5
f 404/2/5 399/2/5 403/2/5
f 405/2/5 399/2/5 404/2/5
f 406/2/5 399/2/5 405/2/5
f 407/2/5 399/2/5 406/2/5
f 408/2/5 399/2/5 407/2/5
f 409/4/5 400/4/5 399/4/5
f 409/2/5 399/2/5 408/2/5
f 410/4/5 400/4/5 409/4/5
f 411/1/5 403/1/5 402/1/5
f 412/2/5 404/2/5 403/2/5
f 412/1/5 403/1/5 411/1/5
f 413/4/5 405/4/5 404/4/5
f 413/2/5 404/2/5 412/2/5
f 414/2/5 406/2/5 405/2/5
f 414/4/5 405/4/5 413/4/5
f 415/4/5 407/4/5 406/4/5
f 415/2/5 406/2/5 414/2/5
f 416/2/5 408/2/5 407/2/5
f 416/4/5 407/4/5 415/4/5
f 417/1/5 409/1/5 408/1/5
f 417/2/5 408/2/5 416/2/5
f 418/1/5 409/1/5 417/1/5
f 421/2/5 420/2/5 419/2/5
f 422/2/5 420/2/5 421/2/5
f 423/3/5 422/3/5 421/3/5
f 424/3/5 422/3/5 423/3/5
f 425/2/5 424/2/5 423/2/5
f 426/2/5 424/2/5 425/2/5
f 427/3/5 426/3/5 425/3/5
f 428/3/5 426/3/5 427/3/5
f 429/2/5 428/2/5 427/2/5
f 430/2/5 428/2/5 429/2/5
f 431/1/5 430/1/5 429/1/5
f 432/1/5 430/1/5 431/1/5
f 433/2/5 432/2/5 431/2/5
f 434/2/5 432/2/5 433/2/5
f 435/2/6 436/2/6 437/2/6
f 437/2/6 436/2/6 438/2/6
f 437/3/6 438/3/6 439/3/6
f 439/3/6 438/3/6 440/3/6
f 439/2/6 440/2/6 441/2/6
f 441/2/6 440/2/6 442/2/6
f 441/3/6 442/3/6 443/3/6
f 443/3/6 442/3/6 444/3/6
f 443/2/6 444/2/6 445/2/6
f 445/2/6 444/2/6 446/2/6
f 447/4/6 448/4/6 453/4/6
f 448/2/6 449/2/6 454/2/6
f 453/4/6 448/4/6 454/4/6
f 449/4/6 450/4/6 455/4/6
f 454/2/6 449/2/6 455/2/6
f 455/4/6 450/4/6 456/4/6
f 451/1/6 452/1/6 460/1/6
f 452/2/6 453/2/6 461/2/6
f 460/1/6 452/1/6 461/1/6
f 453/1/6 454/1/6 462/1/6
f 461/2/6 453/2/6 462/2/6
f 454/1/6 455/1/6 462/1/6
f 455/1/6 456/1/6 462/1/6
f 456/2/6 457/2/6 463/2/6
f 462/1/6 456/1/6 463/1/6
f 457/1/6 458/1/6 464/1/6
f 463/2/6 457/2/6 464/2/6
f 464/1/6 458/1/6 465/1/6
f 462/1/6 463/1/6 467/1/6
f 465/1/6 466/1/6 467/1/6
f 464/1/6 465/1/6 467/1/6
f 463/1/6 464/1/6 467/1/6
f 461/1/6 462/1/6 467/1/6
f 459/1/6 460/1/6 467/1/6
f 460/1/6 461/1/6 467/1/6
f 467/1/6 466/1/6 468/1/6
f 468/1/6 466/1/6 469/1/6
f 469/1/6 466/1/6 470/1/6
f 470/1/6 466/1/6 471/1/6
f 471/1/6 466/1/6 472/1/6
f 472/1/6 466/1/6 473/1/6
f 473/1/6 466/1/6 474/1/6
f 467/2/6 468/2/6 475/2/6
f 468/1/6 469/1/6 476/1/6
f 475/2/6 468/2/6 476/2/6
f 469/2/6 470/2/6 477/2/6
f 470/1/6 471/1/6 478/1/6
f 477/2/6 470/2/6 478/2/6
f 471/2/6 472/2/6 479/2/6
f 478/1/6 471/1/6 479/1/6
f 479/2/6 472/2/6 480/2/6
f 472/1/6 473/1/6 481/1/6
f 473/2/6 474/2/6 481/2/6
f 481/2/6 474/2/6 482/2/6
f 475/1/6 476/1/6 483/1/6
f 476/1/6 469/1/6 484/1/6
f 483/1/6 476/1/6 484/1/6
f 469/2/6 477/2/6 485/2/6
f 484/1/6 469/1/6 485/1/6
f 477/1/6 478/1/6 486/1/6
f 485/2/6 477/2/6 486/2/6
f 479/1/6 480/1/6 486/1/6
f 478/1/6 479/1/6 486/1/6
f 480/2/6 472/2/6 487/2/6
f 486/1/6 480/1/6 487/1/6
f 481/1/6 482/1/6 488/1/6
f 487/2/6 472/2/6 488/2/6
f 472/1/6 481/1/6 488/1/6
f 488/1/6 482/1/6 489/1/6
f 489/1/6 482/1/6 490/1/6
f 483/5/6 484/5/6 491/5/6
f 484/1/6 485/1/6 492/1/6
f 491/5/6 484/5/6 492/5/6
f 485/1/6 486/1/6 492/1/6
f 486/1/6 487/1/6 492/1/6
f 488/1/6 489/1/6 492/1/6
f 487/1/6 488/1/6 492/1/6
f 492/1/6 489/1/6 493/1/6
f 493/1/6 489/1/6 494/1/6
f 494/1/6 489/1/6 495/1/6
f 495/1/6 489/1/6 496/1/6
f 496/1/6 489/1/6 497/1/6
f 497/1/6 489/1/6 498/1/6
f 489/5/6 490/5/6 499/5/6
f 498/1/6 489/1/6 499/1/6
f 499/5/6 490/5/6 500/5/6
f 491/2/6 492/2/6 501/2/6
f 492/1/6 493/1/6 502/1/6
f 501/2/6 492/2/6 502/2/6
f 499/2/6 500/2/6 503/2/6
f 498/1/6 499/1/6 503/1/6
f 503/2/6 500/2/6 504/2/6
f 501/1/6 502/1/6 505/1/6
f 502/1/6 493/1/6 506/1/6
f 505/1/6 502/1/6 506/1/6
f 498/1/6 503/1/6 507/1/6
f 503/1/6 504/1/6 507/1/6
f 507/1/6 504/1/6 508/1/6
f 505/5/6 506/5/6 509/5/6
f 506/1/6 493/1/6 510/1/6
f 509/5/6 506/5/6 510/5/6
f 510/1/6 493/1/6 511/1/6
f 498/1/6 507/1/6 512/1/6
f 507/5/6 508/5/6 513/5/6
f 512/1/6 507/1/6 513/1/6
f 513/5/6 508/5/6 514/5/6
f 510/1/6 511/1/6 515/1/6
f 509/1/6 510/1/6 515/1/6
f 515/1/6 511/1/6 516/1/6
f 516/1/6 511/1/6 517/1/6
f 513/1/6 514/1/6 520/1/6
f 512/1/6 513/1/6 520/1/6
f 520/1/6 514/1/6 521/1/6
f 521/1/6 514/1/6 522/1/6
f 518/1/6 519/1/6 523/1/6
f 517/1/6 518/1/6 523/1/6
f 520/1/6 521/1/6 523/1/6
f 519/1/6 520/1/6 523/1/6
f 516/1/6 517/1/6 523/1/6
f 523/1/6 521/1/6 524/1/6
f 525/2/6 526/2/6 531/2/6
f 526/4/6 527/4/6 531/4/6
f 527/2/6 528/2/6 532/2/6
f 531/4/6 527/4/6 532/4/6
f 528/4/6 529/4/6 533/4/6
f 532/2/6 528/2/6 533/2/6
f 529/2/6 530/2/6 534/2/6
f 533/4/6 529/4/6 534/4/6
f 525/2/6 531/2/6 535/2/6
f 535/2/6 531/2/6 536/2/6
f 534/2/6 530/2/6 537/2/6
f 537/2/6 530/2/6 538/2/6
f 535/4/6 536/4/6 539/4/6
f 536/2/6 537/2/6 540/2/6
f 539/4/6 536/4/6 540/4/6
f 537/4/6 538/4/6 541/4/6
f 540/2/6 537/2/6 541/2/6
f 541/4/6 538/4/6 542/4/6
f 543/2/6 544/2/6 545/2/6
f 545/2/6 544/2/6 546/2/6
