# MagicaVoxel @ Ephtracy

# group
o 

# material
mtllib levtower.mtl
usemtl palette

# normals
vn -1 0 0
vn 1 0 0
vn 0 0 1
vn 0 0 -1
vn 0 -1 0
vn 0 1 0

# texcoords
vt 0.0683594 0.5
vt 0.232422 0.5
vt 0.787109 0.5
vt 0.978516 0.5
vt 0.986328 0.5

# verts
v -1.3 0.3 -1.9
v -1.3 0.3 -2
v -1.3 0.3 -2.1
v -1.3 0.3 -2.2
v -1.3 0.3 -2.3
v -1.3 0.3 -2.4
v -1.3 0.3 -2.5
v -1.3 0.3 -2.6
v -1.3 0.3 -2.7
v -1.3 0.3 -2.8
v -1.3 0.3 -2.9
v -1.3 0.3 -3
v -1.3 0.6 -2
v -1.3 0.6 -2.1
v -1.3 0.6 -2.2
v -1.3 0.6 -2.3
v -1.3 0.6 -2.4
v -1.3 0.6 -2.5
v -1.3 0.6 -2.6
v -1.3 0.6 -2.7
v -1.3 0.6 -2.8
v -1.3 0.6 -2.9
v -1.3 0.6 -3
v -1.3 0.6 -3.2
v -1.3 0.7 -1.9
v -1.3 0.7 -3.2
v -1.2 0.3 -3
v -1.2 0.3 -3.2
v -1.2 0.4 -3
v -1.2 0.4 -3.1
v -1.2 0.6 -3.1
v -1.2 0.6 -3.2
v -1.1 0 -2.2
v -1.1 0 -2.5
v -1.1 0.1 -2.5
v -1.1 0.1 -2.6
v -1.1 0.3 -2.2
v -1.1 0.3 -2.3
v -1.1 0.3 -2.4
v -1.1 0.3 -2.5
v -1.1 0.3 -2.6
v -1.1 0.4 -1.9
v -1.1 0.4 -2
v -1.1 0.4 -2.2
v -1.1 0.4 -2.3
v -1.1 0.4 -2.4
v -1.1 0.4 -2.5
v -1.1 0.4 -2.6
v -1.1 0.5 -2.2
v -1.1 0.5 -2.6
v -1.1 0.6 -1.9
v -1.1 0.6 -2
v -1 0 -1.7
v -1 0 -1.8
v -1 0 -2.2
v -1 0.1 -1.7
v -1 0.1 -1.8
v -1 0.1 -1.9
v -1 0.1 -2
v -1 0.1 -2.1
v -1 0.1 -2.2
v -1 0.2 -1.7
v -1 0.2 -1.8
v -1 0.2 -1.9
v -1 0.2 -2
v -1 0.2 -2.1
v -1 0.2 -2.2
v -1 0.2 -2.6
v -1 0.2 -2.8
v -1 0.3 -1.7
v -1 0.3 -1.8
v -1 0.3 -1.9
v -1 0.3 -2
v -1 0.3 -2.1
v -1 0.3 -2.2
v -1 0.3 -2.7
v -1 0.3 -2.8
v -1 0.3 -2.9
v -1 0.3 -3
v -1 0.3 -3.2
v -1 0.4 -1.7
v -1 0.4 -1.8
v -1 0.4 -2.1
v -1 0.4 -2.2
v -1 0.4 -2.7
v -1 0.4 -2.8
v -1 0.4 -2.9
v -1 0.4 -3
v -1 0.4 -3.1
v -1 0.5 -1.7
v -1 0.5 -1.8
v -1 0.5 -1.9
v -1 0.5 -2
v -1 0.5 -2.1
v -1 0.5 -2.2
v -1 0.5 -2.3
v -1 0.5 -2.4
v -1 0.5 -2.5
v -1 0.5 -2.6
v -1 0.5 -2.8
v -1 0.5 -2.9
v -1 0.6 -2.1
v -1 0.6 -2.2
v -1 0.6 -2.3
v -1 0.6 -2.5
v -1 0.6 -2.6
v -1 0.6 -3.1
v -1 0.6 -3.2
v -1 0.7 -2.3
v -1 0.7 -2.4
v -1 0.7 -2.5
v -1 0.7 -2.6
v -1 0.7 -2.8
v -1 0.7 -2.9
v -1 0.8 -2.2
v -1 0.8 -2.3
v -1 0.8 -2.5
v -1 0.8 -2.6
v -1 0.9 -2.1
v -1 0.9 -2.2
v -1 0.9 -2.5
v -1 0.9 -2.8
v -1 1 -2.2
v -1 1 -2.5
v -0.9 0 -1.3
v -0.9 0 -1.5
v -0.9 0 -1.6
v -0.9 0 -1.7
v -0.9 0.1 -1.4
v -0.9 0.1 -1.5
v -0.9 0.1 -1.6
v -0.9 0.1 -1.7
v -0.9 0.2 -1.3
v -0.9 0.2 -1.4
v -0.9 0.2 -1.5
v -0.9 0.2 -1.7
v -0.9 0.3 -1.3
v -0.9 0.3 -1.4
v -0.9 0.3 -1.6
v -0.9 0.3 -1.7
v -0.9 0.4 -1.4
v -0.9 0.4 -1.5
v -0.9 0.4 -1.6
v -0.9 0.4 -1.7
v -0.9 0.4 -2.8
v -0.9 0.4 -2.9
v -0.9 0.5 -1.3
v -0.9 0.5 -1.4
v -0.9 0.5 -1.5
v -0.9 0.5 -1.6
v -0.9 0.5 -1.7
v -0.9 0.5 -1.8
v -0.9 0.5 -2
v -0.9 0.5 -2.1
v -0.9 0.5 -2.8
v -0.9 0.5 -2.9
v -0.9 0.5 -3
v -0.9 0.6 -1.6
v -0.9 0.6 -1.7
v -0.9 0.6 -1.9
v -0.9 0.6 -2
v -0.9 0.6 -2.1
v -0.9 0.7 -1.6
v -0.9 0.7 -1.7
v -0.9 0.7 -1.9
v -0.9 0.7 -2
v -0.9 0.7 -2.8
v -0.9 0.7 -2.9
v -0.9 0.7 -3
v -0.9 0.8 -1.6
v -0.9 0.8 -1.7
v -0.9 0.8 -1.8
v -0.9 0.8 -2.8
v -0.9 0.8 -2.9
v -0.9 0.9 -1.7
v -0.9 0.9 -2.1
v -0.8 0 -0.7
v -0.8 0 -1.3
v -0.8 0.2 -0.7
v -0.8 0.2 -0.8
v -0.8 0.2 -1.1
v -0.8 0.2 -1.2
v -0.8 0.2 -1.3
v -0.8 0.3 -1.1
v -0.8 0.3 -1.2
v -0.8 0.3 -1.3
v -0.8 0.3 -2.8
v -0.8 0.3 -3.2
v -0.8 0.4 -0.8
v -0.8 0.4 -0.9
v -0.8 0.4 -1.2
v -0.8 0.4 -1.3
v -0.8 0.4 -2.8
v -0.8 0.4 -2.9
v -0.8 0.4 -3.1
v -0.8 0.5 -1.2
v -0.8 0.5 -1.3
v -0.8 0.5 -1.4
v -0.8 0.5 -1.5
v -0.8 0.5 -1.6
v -0.8 0.6 -0.9
v -0.8 0.6 -1
v -0.8 0.6 -1.3
v -0.8 0.6 -1.5
v -0.8 0.6 -1.6
v -0.8 0.6 -3.1
v -0.8 0.6 -3.2
v -0.8 0.7 -1.5
v -0.8 0.7 -1.6
v -0.8 0.8 -1
v -0.8 0.8 -1.6
v -0.7 0.8 -1.3
v -0.7 0.8 -1.4
v -0.7 0.9 -1.2
v -0.7 0.9 -1.3
v -0.7 0.9 -1.4
v -0.7 0.9 -1.5
v -0.7 1 -1.2
v -0.7 1 -1.3
v -0.7 1 -1.4
v -0.7 1 -1.5
v -0.7 1.1 -1.3
v -0.7 1.1 -1.4
v -0.6 0.3 -2.8
v -0.6 0.3 -3.2
v -0.6 0.4 -2.8
v -0.6 0.4 -2.9
v -0.6 0.4 -3.1
v -0.6 0.6 -3.1
v -0.6 0.6 -3.2
v -0.6 0.8 -1.2
v -0.6 0.8 -1.3
v -0.6 0.8 -1.4
v -0.6 0.8 -1.5
v -0.6 0.9 -1.2
v -0.6 0.9 -1.3
v -0.6 0.9 -1.4
v -0.6 0.9 -1.5
v -0.6 1 -1.2
v -0.6 1 -1.3
v -0.6 1 -1.4
v -0.6 1 -1.5
v -0.6 1.1 -1.2
v -0.6 1.1 -1.3
v -0.6 1.1 -1.4
v -0.6 1.1 -1.5
v -0.5 0.9 -1.2
v -0.5 0.9 -1.3
v -0.5 1 -1.2
v -0.5 1 -1.3
v -0.4 0.1 -0.0999999
v -0.4 0.1 -0.7
v -0.4 0.2 -0.7
v -0.4 0.2 -0.8
v -0.4 0.3 -2.8
v -0.4 0.3 -3.2
v -0.4 0.4 -0.8
v -0.4 0.4 -0.9
v -0.4 0.4 -2.8
v -0.4 0.4 -2.9
v -0.4 0.4 -3.1
v -0.4 0.6 -0.9
v -0.4 0.6 -1
v -0.4 0.6 -3.1
v -0.4 0.6 -3.2
v -0.4 0.7 -0.0999999
v -0.4 0.7 -1
v -0.3 0 -0.0999999
v -0.3 0 -1.1
v -0.3 0.1 0.2
v -0.3 0.1 -0.0999999
v -0.3 0.1 -1.1
v -0.3 0.7 0.2
v -0.3 0.7 -0.0999999
v -0.3 0.7 -1.2
v -0.3 0.8 -0.0999999
v -0.3 0.8 -1.2
v -0.2 0.2 3.9
v -0.2 0.2 3.8
v -0.2 0.2 3.7
v -0.2 0.2 3.6
v -0.2 0.2 3.5
v -0.2 0.2 3.4
v -0.2 0.2 3.2
v -0.2 0.2 3.1
v -0.2 0.2 0.2
v -0.2 0.3 3.8
v -0.2 0.3 3.7
v -0.2 0.3 3.6
v -0.2 0.3 3.5
v -0.2 0.3 3.4
v -0.2 0.3 3.2
v -0.2 0.3 3.1
v -0.2 0.3 -2.8
v -0.2 0.3 -3.2
v -0.2 0.4 3.8
v -0.2 0.4 3.7
v -0.2 0.4 3.6
v -0.2 0.4 3.5
v -0.2 0.4 3.4
v -0.2 0.4 3.3
v -0.2 0.4 3.2
v -0.2 0.4 3
v -0.2 0.4 -2.8
v -0.2 0.4 -2.9
v -0.2 0.4 -3.1
v -0.2 0.5 3.8
v -0.2 0.5 3.7
v -0.2 0.5 3.6
v -0.2 0.5 3.4
v -0.2 0.5 3.3
v -0.2 0.5 3.2
v -0.2 0.5 3
v -0.2 0.5 2.9
v -0.2 0.6 3.9
v -0.2 0.6 3.8
v -0.2 0.6 3.7
v -0.2 0.6 3.5
v -0.2 0.6 3.4
v -0.2 0.6 3.3
v -0.2 0.6 3.2
v -0.2 0.6 3
v -0.2 0.6 2.9
v -0.2 0.6 0.2
v -0.2 0.6 -3.1
v -0.2 0.6 -3.2
v 0.1 0.3 3.9
v 0.1 0.3 3.8
v 0.1 0.3 3.5
v 0.1 0.3 -2.8
v 0.1 0.3 -3.2
v 0.1 0.4 3.8
v 0.1 0.4 3.7
v 0.1 0.4 3.6
v 0.1 0.4 3.5
v 0.1 0.4 -2.8
v 0.1 0.4 -2.9
v 0.1 0.4 -3.1
v 0.1 0.5 3.9
v 0.1 0.5 3.8
v 0.1 0.5 3.7
v 0.1 0.5 3.6
v 0.1 0.5 3.5
v 0.1 0.6 -3.1
v 0.1 0.6 -3.2
v 0.3 0.3 -2.8
v 0.3 0.3 -3.2
v 0.3 0.4 -2.8
v 0.3 0.4 -2.9
v 0.3 0.4 -3.1
v 0.3 0.6 -3.1
v 0.3 0.6 -3.2
v 0.4 0 -0.7
v 0.4 0 -1.1
v 0.4 0.1 -0.7
v 0.4 0.1 -1.1
v 0.4 0.7 -1
v 0.4 0.7 -1.2
v 0.4 0.8 -1
v 0.4 0.8 -1.2
v 0.5 0.3 -2.8
v 0.5 0.3 -3.2
v 0.5 0.4 -2.8
v 0.5 0.4 -2.9
v 0.5 0.4 -3.1
v 0.5 0.6 -3.1
v 0.5 0.6 -3.2
v 0.7 0.3 -2.8
v 0.7 0.3 -3.2
v 0.7 0.4 -2.8
v 0.7 0.4 -2.9
v 0.7 0.4 -3.1
v 0.7 0.6 -3.1
v 0.7 0.6 -3.2
v 0.9 0.3 -2.8
v 0.9 0.3 -3.2
v 0.9 0.4 -2.8
v 0.9 0.4 -2.9
v 0.9 0.4 -3.1
v 0.9 0.6 -3.1
v 0.9 0.6 -3.2
v 1 0.5 -1.9
v 1 0.5 -2
v 1 0.6 -1.9
v 1 0.6 -2
v 1.1 0.3 -3
v 1.1 0.3 -3.2
v 1.1 0.4 -3
v 1.1 0.4 -3.1
v 1.1 0.6 -3.1
v 1.1 0.6 -3.2
v 1.2 0.4 -1.9
v 1.2 0.4 -2
v 1.2 0.4 -2.1
v 1.2 0.4 -2.2
v 1.2 0.4 -2.3
v 1.2 0.4 -2.4
v 1.2 0.4 -2.5
v 1.2 0.4 -2.6
v 1.2 0.4 -2.7
v 1.2 0.4 -2.8
v 1.2 0.4 -2.9
v 1.2 0.4 -3
v 1.2 0.6 -1.9
v 1.2 0.6 -2
v 1.2 0.6 -2.1
v 1.2 0.6 -2.2
v 1.2 0.6 -2.3
v 1.2 0.6 -2.4
v 1.2 0.6 -2.5
v 1.2 0.6 -2.6
v 1.2 0.6 -2.7
v 1.2 0.6 -2.8
v 1.2 0.6 -2.9
v 1.2 0.6 -3
v 1.2 0.6 -3.1
v 1.2 0.7 -2
v 1.2 0.7 -3.1
v -1.2 0.4 -1.9
v -1.2 0.4 -2
v -1.2 0.4 -2.1
v -1.2 0.4 -2.2
v -1.2 0.4 -2.3
v -1.2 0.4 -2.4
v -1.2 0.4 -2.5
v -1.2 0.4 -2.6
v -1.2 0.4 -2.7
v -1.2 0.4 -2.8
v -1.2 0.4 -2.9
v -1.2 0.4 -3
v -1.2 0.6 -1.9
v -1.2 0.6 -2
v -1.2 0.6 -2.1
v -1.2 0.6 -2.2
v -1.2 0.6 -2.3
v -1.2 0.6 -2.4
v -1.2 0.6 -2.5
v -1.2 0.6 -2.6
v -1.2 0.6 -2.7
v -1.2 0.6 -2.8
v -1.2 0.6 -2.9
v -1.2 0.6 -3
v -1.2 0.6 -3.1
v -1.2 0.7 -2
v -1.2 0.7 -3.1
v -1.1 0.3 -3
v -1.1 0.3 -3.2
v -1.1 0.4 -3
v -1.1 0.4 -3.1
v -1.1 0.6 -3.1
v -1.1 0.6 -3.2
v -1 0.5 -1.9
v -1 0.5 -2
v -1 0.6 -1.9
v -1 0.6 -2
v -0.9 0.3 -2.8
v -0.9 0.3 -3.2
v -0.9 0.4 -2.8
v -0.9 0.4 -2.9
v -0.9 0.4 -3.1
v -0.9 0.6 -3.1
v -0.9 0.6 -3.2
v -0.7 0.3 -2.8
v -0.7 0.3 -3.2
v -0.7 0.4 -2.8
v -0.7 0.4 -2.9
v -0.7 0.4 -3.1
v -0.7 0.6 -3.1
v -0.7 0.6 -3.2
v -0.6 0.9 -1.2
v -0.6 0.9 -1.3
v -0.6 1 -1.2
v -0.6 1 -1.3
v -0.5 0.3 -2.8
v -0.5 0.3 -3.2
v -0.5 0.4 -2.8
v -0.5 0.4 -2.9
v -0.5 0.4 -3.1
v -0.5 0.6 -3.1
v -0.5 0.6 -3.2
v -0.5 0.8 -1.2
v -0.5 0.8 -1.3
v -0.5 0.8 -1.4
v -0.5 0.8 -1.5
v -0.5 0.9 -1.2
v -0.5 0.9 -1.3
v -0.5 0.9 -1.4
v -0.5 0.9 -1.5
v -0.5 1 -1.2
v -0.5 1 -1.3
v -0.5 1 -1.4
v -0.5 1 -1.5
v -0.5 1.1 -1.2
v -0.5 1.1 -1.3
v -0.5 1.1 -1.4
v -0.5 1.1 -1.5
v -0.4 0 -0.7
v -0.4 0 -1.1
v -0.4 0.1 -0.7
v -0.4 0.1 -1.1
v -0.4 0.7 -1
v -0.4 0.7 -1.2
v -0.4 0.8 -1
v -0.4 0.8 -1.2
v -0.4 0.8 -1.3
v -0.4 0.8 -1.4
v -0.4 0.9 -1.2
v -0.4 0.9 -1.3
v -0.4 0.9 -1.4
v -0.4 0.9 -1.5
v -0.4 1 -1.2
v -0.4 1 -1.3
v -0.4 1 -1.4
v -0.4 1 -1.5
v -0.4 1.1 -1.3
v -0.4 1.1 -1.4
v -0.3 0.3 -2.8
v -0.3 0.3 -3.2
v -0.3 0.4 -2.8
v -0.3 0.4 -2.9
v -0.3 0.4 -3.1
v -0.3 0.6 -3.1
v -0.3 0.6 -3.2
v -0.0999999 0.3 3.9
v -0.0999999 0.3 3.8
v -0.0999999 0.3 3.5
v -0.0999999 0.3 -2.8
v -0.0999999 0.3 -3.2
v -0.0999999 0.4 3.8
v -0.0999999 0.4 3.7
v -0.0999999 0.4 3.6
v -0.0999999 0.4 3.5
v -0.0999999 0.4 -2.8
v -0.0999999 0.4 -2.9
v -0.0999999 0.4 -3.1
v -0.0999999 0.5 3.9
v -0.0999999 0.5 3.8
v -0.0999999 0.5 3.7
v -0.0999999 0.5 3.6
v -0.0999999 0.5 3.5
v -0.0999999 0.6 -3.1
v -0.0999999 0.6 -3.2
v 0.2 0.2 3.9
v 0.2 0.2 3.8
v 0.2 0.2 3.7
v 0.2 0.2 3.6
v 0.2 0.2 3.5
v 0.2 0.2 3.4
v 0.2 0.2 3.2
v 0.2 0.2 3.1
v 0.2 0.2 0.2
v 0.2 0.3 3.8
v 0.2 0.3 3.7
v 0.2 0.3 3.6
v 0.2 0.3 3.5
v 0.2 0.3 3.4
v 0.2 0.3 3.2
v 0.2 0.3 3.1
v 0.2 0.3 -2.8
v 0.2 0.3 -3.2
v 0.2 0.4 3.8
v 0.2 0.4 3.7
v 0.2 0.4 3.6
v 0.2 0.4 3.5
v 0.2 0.4 3.4
v 0.2 0.4 3.3
v 0.2 0.4 3.2
v 0.2 0.4 3
v 0.2 0.4 -2.8
v 0.2 0.4 -2.9
v 0.2 0.4 -3.1
v 0.2 0.5 3.8
v 0.2 0.5 3.7
v 0.2 0.5 3.6
v 0.2 0.5 3.4
v 0.2 0.5 3.3
v 0.2 0.5 3.2
v 0.2 0.5 3
v 0.2 0.5 2.9
v 0.2 0.6 3.9
v 0.2 0.6 3.8
v 0.2 0.6 3.7
v 0.2 0.6 3.5
v 0.2 0.6 3.4
v 0.2 0.6 3.3
v 0.2 0.6 3.2
v 0.2 0.6 3
v 0.2 0.6 2.9
v 0.2 0.6 0.2
v 0.2 0.6 -3.1
v 0.2 0.6 -3.2
v 0.3 0 -0.0999999
v 0.3 0 -1.1
v 0.3 0.1 0.2
v 0.3 0.1 -0.0999999
v 0.3 0.1 -1.1
v 0.3 0.7 0.2
v 0.3 0.7 -0.0999999
v 0.3 0.7 -1.2
v 0.3 0.8 -0.0999999
v 0.3 0.8 -1.2
v 0.4 0.1 -0.0999999
v 0.4 0.1 -0.7
v 0.4 0.2 -0.7
v 0.4 0.2 -0.8
v 0.4 0.3 -2.8
v 0.4 0.3 -3.2
v 0.4 0.4 -0.8
v 0.4 0.4 -0.9
v 0.4 0.4 -2.8
v 0.4 0.4 -2.9
v 0.4 0.4 -3.1
v 0.4 0.6 -0.9
v 0.4 0.6 -1
v 0.4 0.6 -3.1
v 0.4 0.6 -3.2
v 0.4 0.7 -0.0999999
v 0.4 0.7 -1
v 0.6 0.3 -2.8
v 0.6 0.3 -3.2
v 0.6 0.4 -2.8
v 0.6 0.4 -2.9
v 0.6 0.4 -3.1
v 0.6 0.6 -3.1
v 0.6 0.6 -3.2
v 0.8 0 -0.7
v 0.8 0 -1.3
v 0.8 0.2 -0.7
v 0.8 0.2 -0.8
v 0.8 0.2 -1.1
v 0.8 0.2 -1.2
v 0.8 0.2 -1.3
v 0.8 0.3 -1.1
v 0.8 0.3 -1.2
v 0.8 0.3 -1.3
v 0.8 0.3 -2.8
v 0.8 0.3 -3.2
v 0.8 0.4 -0.8
v 0.8 0.4 -0.9
v 0.8 0.4 -1.2
v 0.8 0.4 -1.3
v 0.8 0.4 -2.8
v 0.8 0.4 -2.9
v 0.8 0.4 -3.1
v 0.8 0.5 -1.2
v 0.8 0.5 -1.3
v 0.8 0.5 -1.4
v 0.8 0.5 -1.5
v 0.8 0.5 -1.6
v 0.8 0.6 -0.9
v 0.8 0.6 -1
v 0.8 0.6 -1.3
v 0.8 0.6 -1.5
v 0.8 0.6 -1.6
v 0.8 0.6 -3.1
v 0.8 0.6 -3.2
v 0.8 0.7 -1.5
v 0.8 0.7 -1.6
v 0.8 0.8 -1
v 0.8 0.8 -1.6
v 0.9 0 -1.3
v 0.9 0 -1.5
v 0.9 0 -1.6
v 0.9 0 -1.7
v 0.9 0.1 -1.4
v 0.9 0.1 -1.5
v 0.9 0.1 -1.6
v 0.9 0.1 -1.7
v 0.9 0.2 -1.3
v 0.9 0.2 -1.4
v 0.9 0.2 -1.5
v 0.9 0.2 -1.7
v 0.9 0.3 -1.3
v 0.9 0.3 -1.4
v 0.9 0.3 -1.6
v 0.9 0.3 -1.7
v 0.9 0.4 -1.4
v 0.9 0.4 -1.5
v 0.9 0.4 -1.6
v 0.9 0.4 -1.7
v 0.9 0.4 -2.8
v 0.9 0.4 -2.9
v 0.9 0.5 -1.3
v 0.9 0.5 -1.4
v 0.9 0.5 -1.5
v 0.9 0.5 -1.6
v 0.9 0.5 -1.7
v 0.9 0.5 -1.8
v 0.9 0.5 -2
v 0.9 0.5 -2.1
v 0.9 0.5 -2.8
v 0.9 0.5 -2.9
v 0.9 0.5 -3
v 0.9 0.6 -1.6
v 0.9 0.6 -1.7
v 0.9 0.6 -1.9
v 0.9 0.6 -2
v 0.9 0.6 -2.1
v 0.9 0.7 -1.6
v 0.9 0.7 -1.7
v 0.9 0.7 -1.9
v 0.9 0.7 -2
v 0.9 0.7 -2.8
v 0.9 0.7 -2.9
v 0.9 0.7 -3
v 0.9 0.8 -1.6
v 0.9 0.8 -1.7
v 0.9 0.8 -1.8
v 0.9 0.8 -2.8
v 0.9 0.8 -2.9
v 0.9 0.9 -1.7
v 0.9 0.9 -2.1
v 1 0 -1.7
v 1 0 -1.8
v 1 0 -2.2
v 1 0.1 -1.7
v 1 0.1 -1.8
v 1 0.1 -1.9
v 1 0.1 -2
v 1 0.1 -2.1
v 1 0.1 -2.2
v 1 0.2 -1.7
v 1 0.2 -1.8
v 1 0.2 -1.9
v 1 0.2 -2
v 1 0.2 -2.1
v 1 0.2 -2.2
v 1 0.2 -2.6
v 1 0.2 -2.8
v 1 0.3 -1.7
v 1 0.3 -1.8
v 1 0.3 -1.9
v 1 0.3 -2
v 1 0.3 -2.1
v 1 0.3 -2.2
v 1 0.3 -2.7
v 1 0.3 -2.8
v 1 0.3 -2.9
v 1 0.3 -3
v 1 0.3 -3.2
v 1 0.4 -1.7
v 1 0.4 -1.8
v 1 0.4 -2.1
v 1 0.4 -2.2
v 1 0.4 -2.7
v 1 0.4 -2.8
v 1 0.4 -2.9
v 1 0.4 -3
v 1 0.4 -3.1
v 1 0.5 -1.7
v 1 0.5 -1.8
v 1 0.5 -1.9
v 1 0.5 -2
v 1 0.5 -2.1
v 1 0.5 -2.2
v 1 0.5 -2.3
v 1 0.5 -2.4
v 1 0.5 -2.5
v 1 0.5 -2.6
v 1 0.5 -2.8
v 1 0.5 -2.9
v 1 0.6 -2.1
v 1 0.6 -2.2
v 1 0.6 -2.3
v 1 0.6 -2.5
v 1 0.6 -2.6
v 1 0.6 -3.1
v 1 0.6 -3.2
v 1 0.7 -2.3
v 1 0.7 -2.4
v 1 0.7 -2.5
v 1 0.7 -2.6
v 1 0.7 -2.8
v 1 0.7 -2.9
v 1 0.8 -2.2
v 1 0.8 -2.3
v 1 0.8 -2.5
v 1 0.8 -2.6
v 1 0.9 -2.1
v 1 0.9 -2.2
v 1 0.9 -2.5
v 1 0.9 -2.8
v 1 1 -2.2
v 1 1 -2.5
v 1.1 0 -2.2
v 1.1 0 -2.5
v 1.1 0.1 -2.5
v 1.1 0.1 -2.6
v 1.1 0.3 -2.2
v 1.1 0.3 -2.3
v 1.1 0.3 -2.4
v 1.1 0.3 -2.5
v 1.1 0.3 -2.6
v 1.1 0.4 -1.9
v 1.1 0.4 -2
v 1.1 0.4 -2.2
v 1.1 0.4 -2.3
v 1.1 0.4 -2.4
v 1.1 0.4 -2.5
v 1.1 0.4 -2.6
v 1.1 0.5 -2.2
v 1.1 0.5 -2.6
v 1.1 0.6 -1.9
v 1.1 0.6 -2
v 1.2 0.3 -3
v 1.2 0.3 -3.2
v 1.2 0.4 -3
v 1.2 0.4 -3.1
v 1.2 0.6 -3.1
v 1.2 0.6 -3.2
v 1.3 0.3 -1.9
v 1.3 0.3 -2
v 1.3 0.3 -2.1
v 1.3 0.3 -2.2
v 1.3 0.3 -2.3
v 1.3 0.3 -2.4
v 1.3 0.3 -2.5
v 1.3 0.3 -2.6
v 1.3 0.3 -2.7
v 1.3 0.3 -2.8
v 1.3 0.3 -2.9
v 1.3 0.3 -3
v 1.3 0.6 -2
v 1.3 0.6 -2.1
v 1.3 0.6 -2.2
v 1.3 0.6 -2.3
v 1.3 0.6 -2.4
v 1.3 0.6 -2.5
v 1.3 0.6 -2.6
v 1.3 0.6 -2.7
v 1.3 0.6 -2.8
v 1.3 0.6 -2.9
v 1.3 0.6 -3
v 1.3 0.6 -3.2
v 1.3 0.7 -1.9
v 1.3 0.7 -3.2
v -0.2 0.2 3.9
v -0.2 0.6 3.9
v -0.0999999 0.3 3.9
v -0.0999999 0.5 3.9
v 0.1 0.3 3.9
v 0.1 0.5 3.9
v 0.2 0.2 3.9
v 0.2 0.6 3.9
v -0.0999999 0.3 3.5
v -0.0999999 0.4 3.5
v -0.0999999 0.5 3.5
v 0.1 0.3 3.5
v 0.1 0.4 3.5
v 0.1 0.5 3.5
v -0.3 0.1 0.2
v -0.3 0.7 0.2
v -0.2 0.2 0.2
v -0.2 0.6 0.2
v 0.2 0.2 0.2
v 0.2 0.6 0.2
v 0.3 0.1 0.2
v 0.3 0.7 0.2
v -0.4 0.1 -0.0999999
v -0.4 0.7 -0.0999999
v -0.3 0 -0.0999999
v -0.3 0.1 -0.0999999
v -0.3 0.7 -0.0999999
v -0.3 0.8 -0.0999999
v 0.3 0 -0.0999999
v 0.3 0.1 -0.0999999
v 0.3 0.7 -0.0999999
v 0.3 0.8 -0.0999999
v 0.4 0.1 -0.0999999
v 0.4 0.7 -0.0999999
v -0.8 0 -0.7
v -0.8 0.2 -0.7
v -0.4 0 -0.7
v -0.4 0.1 -0.7
v -0.4 0.2 -0.7
v 0.4 0 -0.7
v 0.4 0.1 -0.7
v 0.4 0.2 -0.7
v 0.8 0 -0.7
v 0.8 0.2 -0.7
v -0.8 0.2 -0.8
v -0.8 0.4 -0.8
v -0.4 0.2 -0.8
v -0.4 0.4 -0.8
v 0.4 0.2 -0.8
v 0.4 0.4 -0.8
v 0.8 0.2 -0.8
v 0.8 0.4 -0.8
v -0.8 0.4 -0.9
v -0.8 0.6 -0.9
v -0.4 0.4 -0.9
v -0.4 0.6 -0.9
v 0.4 0.4 -0.9
v 0.4 0.6 -0.9
v 0.8 0.4 -0.9
v 0.8 0.6 -0.9
v -0.8 0.6 -1
v -0.8 0.8 -1
v -0.4 0.6 -1
v -0.4 0.7 -1
v -0.4 0.8 -1
v 0.4 0.6 -1
v 0.4 0.7 -1
v 0.4 0.8 -1
v 0.8 0.6 -1
v 0.8 0.8 -1
v -0.4 0 -1.1
v -0.4 0.1 -1.1
v -0.3 0 -1.1
v -0.3 0.1 -1.1
v 0.3 0 -1.1
v 0.3 0.1 -1.1
v 0.4 0 -1.1
v 0.4 0.1 -1.1
v -0.7 0.9 -1.2
v -0.7 1 -1.2
v -0.6 0.8 -1.2
v -0.6 0.9 -1.2
v -0.6 1 -1.2
v -0.6 1.1 -1.2
v -0.5 0.8 -1.2
v -0.5 0.9 -1.2
v -0.5 1 -1.2
v -0.5 1.1 -1.2
v -0.4 0.7 -1.2
v -0.4 0.8 -1.2
v -0.4 0.9 -1.2
v -0.4 1 -1.2
v -0.3 0.7 -1.2
v -0.3 0.8 -1.2
v 0.3 0.7 -1.2
v 0.3 0.8 -1.2
v 0.4 0.7 -1.2
v 0.4 0.8 -1.2
v -0.9 0 -1.3
v -0.9 0.2 -1.3
v -0.9 0.3 -1.3
v -0.9 0.5 -1.3
v -0.8 0 -1.3
v -0.8 0.2 -1.3
v -0.8 0.3 -1.3
v -0.8 0.4 -1.3
v -0.8 0.5 -1.3
v -0.7 0.8 -1.3
v -0.7 0.9 -1.3
v -0.7 1 -1.3
v -0.7 1.1 -1.3
v -0.6 0.8 -1.3
v -0.6 0.9 -1.3
v -0.6 1 -1.3
v -0.6 1.1 -1.3
v -0.5 0.8 -1.3
v -0.5 0.9 -1.3
v -0.5 1 -1.3
v -0.5 1.1 -1.3
v -0.4 0.8 -1.3
v -0.4 0.9 -1.3
v -0.4 1 -1.3
v -0.4 1.1 -1.3
v 0.8 0 -1.3
v 0.8 0.2 -1.3
v 0.8 0.3 -1.3
v 0.8 0.4 -1.3
v 0.8 0.5 -1.3
v 0.9 0 -1.3
v 0.9 0.2 -1.3
v 0.9 0.3 -1.3
v 0.9 0.5 -1.3
v -0.9 0.5 -1.6
v -0.9 0.6 -1.6
v -0.9 0.7 -1.6
v -0.9 0.8 -1.6
v -0.8 0.5 -1.6
v -0.8 0.6 -1.6
v -0.8 0.7 -1.6
v -0.8 0.8 -1.6
v 0.8 0.5 -1.6
v 0.8 0.6 -1.6
v 0.8 0.7 -1.6
v 0.8 0.8 -1.6
v 0.9 0.5 -1.6
v 0.9 0.6 -1.6
v 0.9 0.7 -1.6
v 0.9 0.8 -1.6
v -1 0 -1.7
v -1 0.1 -1.7
v -1 0.2 -1.7
v -1 0.3 -1.7
v -1 0.4 -1.7
v -1 0.5 -1.7
v -0.9 0 -1.7
v -0.9 0.1 -1.7
v -0.9 0.2 -1.7
v -0.9 0.3 -1.7
v -0.9 0.4 -1.7
v -0.9 0.5 -1.7
v -0.9 0.8 -1.7
v -0.9 0.9 -1.7
v 0.9 0 -1.7
v 0.9 0.1 -1.7
v 0.9 0.2 -1.7
v 0.9 0.3 -1.7
v 0.9 0.4 -1.7
v 0.9 0.5 -1.7
v 0.9 0.8 -1.7
v 0.9 0.9 -1.7
v 1 0 -1.7
v 1 0.1 -1.7
v 1 0.2 -1.7
v 1 0.3 -1.7
v 1 0.4 -1.7
v 1 0.5 -1.7
v -1.3 0.3 -1.9
v -1.3 0.7 -1.9
v -1.2 0.4 -1.9
v -1.2 0.6 -1.9
v -1.1 0.4 -1.9
v -1.1 0.6 -1.9
v -1 0.3 -1.9
v -1 0.5 -1.9
v -1 0.6 -1.9
v -0.9 0.6 -1.9
v -0.9 0.7 -1.9
v 0.9 0.6 -1.9
v 0.9 0.7 -1.9
v 1 0.3 -1.9
v 1 0.5 -1.9
v 1 0.6 -1.9
v 1.1 0.4 -1.9
v 1.1 0.6 -1.9
v 1.2 0.4 -1.9
v 1.2 0.6 -1.9
v 1.3 0.3 -1.9
v 1.3 0.7 -1.9
v -1.3 0.3 -2.1
v -1.3 0.6 -2.1
v -1.2 0.4 -2.1
v -1.2 0.6 -2.1
v -1 0.3 -2.1
v -1 0.4 -2.1
v -1 0.5 -2.1
v -1 0.6 -2.1
v -1 0.9 -2.1
v -0.9 0.5 -2.1
v -0.9 0.6 -2.1
v -0.9 0.9 -2.1
v 0.9 0.5 -2.1
v 0.9 0.6 -2.1
v 0.9 0.9 -2.1
v 1 0.3 -2.1
v 1 0.4 -2.1
v 1 0.5 -2.1
v 1 0.6 -2.1
v 1 0.9 -2.1
v 1.2 0.4 -2.1
v 1.2 0.6 -2.1
v 1.3 0.3 -2.1
v 1.3 0.6 -2.1
v -1.1 0 -2.2
v -1.1 0.3 -2.2
v -1.1 0.4 -2.2
v -1.1 0.5 -2.2
v -1 0 -2.2
v -1 0.1 -2.2
v -1 0.2 -2.2
v -1 0.3 -2.2
v -1 0.4 -2.2
v -1 0.5 -2.2
v -1 0.9 -2.2
v -1 1 -2.2
v 1 0 -2.2
v 1 0.1 -2.2
v 1 0.2 -2.2
v 1 0.3 -2.2
v 1 0.4 -2.2
v 1 0.5 -2.2
v 1 0.9 -2.2
v 1 1 -2.2
v 1.1 0 -2.2
v 1.1 0.3 -2.2
v 1.1 0.4 -2.2
v 1.1 0.5 -2.2
v -1.3 0.3 -2.3
v -1.3 0.6 -2.3
v -1.2 0.4 -2.3
v -1.2 0.6 -2.3
v -1.1 0.3 -2.3
v -1.1 0.4 -2.3
v 1.1 0.3 -2.3
v 1.1 0.4 -2.3
v 1.2 0.4 -2.3
v 1.2 0.6 -2.3
v 1.3 0.3 -2.3
v 1.3 0.6 -2.3
v -1.3 0.3 -2.5
v -1.3 0.6 -2.5
v -1.2 0.4 -2.5
v -1.2 0.6 -2.5
v -1.1 0.3 -2.5
v -1.1 0.4 -2.5
v 1.1 0.3 -2.5
v 1.1 0.4 -2.5
v 1.2 0.4 -2.5
v 1.2 0.6 -2.5
v 1.3 0.3 -2.5
v 1.3 0.6 -2.5
v -1.3 0.3 -2.7
v -1.3 0.6 -2.7
v -1.2 0.4 -2.7
v -1.2 0.6 -2.7
v -1 0.3 -2.7
v -1 0.4 -2.7
v 1 0.3 -2.7
v 1 0.4 -2.7
v 1.2 0.4 -2.7
v 1.2 0.6 -2.7
v 1.3 0.3 -2.7
v 1.3 0.6 -2.7
v -1.3 0.3 -2.9
v -1.3 0.6 -2.9
v -1.2 0.4 -2.9
v -1.2 0.6 -2.9
v -1 0.3 -2.9
v -1 0.4 -2.9
v 1 0.3 -2.9
v 1 0.4 -2.9
v 1.2 0.4 -2.9
v 1.2 0.6 -2.9
v 1.3 0.3 -2.9
v 1.3 0.6 -2.9
v -1.2 0.4 -3.1
v -1.2 0.6 -3.1
v -1.2 0.7 -3.1
v -1.1 0.4 -3.1
v -1.1 0.6 -3.1
v -1 0.4 -3.1
v -1 0.6 -3.1
v -0.9 0.4 -3.1
v -0.9 0.6 -3.1
v -0.8 0.4 -3.1
v -0.8 0.6 -3.1
v -0.7 0.4 -3.1
v -0.7 0.6 -3.1
v -0.6 0.4 -3.1
v -0.6 0.6 -3.1
v -0.5 0.4 -3.1
v -0.5 0.6 -3.1
v -0.4 0.4 -3.1
v -0.4 0.6 -3.1
v -0.3 0.4 -3.1
v -0.3 0.6 -3.1
v -0.2 0.4 -3.1
v -0.2 0.6 -3.1
v -0.0999999 0.4 -3.1
v -0.0999999 0.6 -3.1
v 0.1 0.4 -3.1
v 0.1 0.6 -3.1
v 0.2 0.4 -3.1
v 0.2 0.6 -3.1
v 0.3 0.4 -3.1
v 0.3 0.6 -3.1
v 0.4 0.4 -3.1
v 0.4 0.6 -3.1
v 0.5 0.4 -3.1
v 0.5 0.6 -3.1
v 0.6 0.4 -3.1
v 0.6 0.6 -3.1
v 0.7 0.4 -3.1
v 0.7 0.6 -3.1
v 0.8 0.4 -3.1
v 0.8 0.6 -3.1
v 0.9 0.4 -3.1
v 0.9 0.6 -3.1
v 1 0.4 -3.1
v 1 0.6 -3.1
v 1.1 0.4 -3.1
v 1.1 0.6 -3.1
v 1.2 0.4 -3.1
v 1.2 0.6 -3.1
v 1.2 0.7 -3.1
v -0.7 0.8 -1.4
v -0.7 0.9 -1.4
v -0.7 1 -1.4
v -0.7 1.1 -1.4
v -0.6 0.8 -1.4
v -0.6 0.9 -1.4
v -0.6 1 -1.4
v -0.6 1.1 -1.4
v -0.5 0.8 -1.4
v -0.5 0.9 -1.4
v -0.5 1 -1.4
v -0.5 1.1 -1.4
v -0.4 0.8 -1.4
v -0.4 0.9 -1.4
v -0.4 1 -1.4
v -0.4 1.1 -1.4
v -0.7 0.9 -1.5
v -0.7 1 -1.5
v -0.6 0.8 -1.5
v -0.6 0.9 -1.5
v -0.6 1 -1.5
v -0.6 1.1 -1.5
v -0.5 0.8 -1.5
v -0.5 0.9 -1.5
v -0.5 1 -1.5
v -0.5 1.1 -1.5
v -0.4 0.9 -1.5
v -0.4 1 -1.5
v -1.3 0.3 -2
v -1.3 0.6 -2
v -1.2 0.4 -2
v -1.2 0.6 -2
v -1.2 0.7 -2
v -1.1 0.4 -2
v -1.1 0.6 -2
v -1 0.3 -2
v -1 0.5 -2
v -1 0.6 -2
v -0.9 0.6 -2
v -0.9 0.7 -2
v 0.9 0.6 -2
v 0.9 0.7 -2
v 1 0.3 -2
v 1 0.5 -2
v 1 0.6 -2
v 1.1 0.4 -2
v 1.1 0.6 -2
v 1.2 0.4 -2
v 1.2 0.6 -2
v 1.2 0.7 -2
v 1.3 0.3 -2
v 1.3 0.6 -2
v -1.3 0.3 -2.2
v -1.3 0.6 -2.2
v -1.2 0.4 -2.2
v -1.2 0.6 -2.2
v -1.1 0.3 -2.2
v -1.1 0.4 -2.2
v 1.1 0.3 -2.2
v 1.1 0.4 -2.2
v 1.2 0.4 -2.2
v 1.2 0.6 -2.2
v 1.3 0.3 -2.2
v 1.3 0.6 -2.2
v -1.3 0.3 -2.4
v -1.3 0.6 -2.4
v -1.2 0.4 -2.4
v -1.2 0.6 -2.4
v -1.1 0.3 -2.4
v -1.1 0.4 -2.4
v 1.1 0.3 -2.4
v 1.1 0.4 -2.4
v 1.2 0.4 -2.4
v 1.2 0.6 -2.4
v 1.3 0.3 -2.4
v 1.3 0.6 -2.4
v -1.1 0 -2.5
v -1.1 0.1 -2.5
v -1 0.9 -2.5
v -1 1 -2.5
v 1 0.9 -2.5
v 1 1 -2.5
v 1.1 0 -2.5
v 1.1 0.1 -2.5
v -1.3 0.3 -2.6
v -1.3 0.6 -2.6
v -1.2 0.4 -2.6
v -1.2 0.6 -2.6
v -1.1 0.1 -2.6
v -1.1 0.3 -2.6
v -1.1 0.4 -2.6
v -1.1 0.5 -2.6
v -1 0.2 -2.6
v -1 0.5 -2.6
v 1 0.2 -2.6
v 1 0.5 -2.6
v 1.1 0.1 -2.6
v 1.1 0.3 -2.6
v 1.1 0.4 -2.6
v 1.1 0.5 -2.6
v 1.2 0.4 -2.6
v 1.2 0.6 -2.6
v 1.3 0.3 -2.6
v 1.3 0.6 -2.6
v -1.3 0.3 -2.8
v -1.3 0.6 -2.8
v -1.2 0.4 -2.8
v -1.2 0.6 -2.8
v -1 0.2 -2.8
v -1 0.3 -2.8
v -1 0.4 -2.8
v -1 0.5 -2.8
v -1 0.7 -2.8
v -1 0.9 -2.8
v -0.9 0.3 -2.8
v -0.9 0.4 -2.8
v -0.9 0.5 -2.8
v -0.9 0.7 -2.8
v -0.9 0.8 -2.8
v -0.8 0.3 -2.8
v -0.8 0.4 -2.8
v -0.8 0.8 -2.8
v -0.8 0.9 -2.8
v -0.7 0.3 -2.8
v -0.7 0.4 -2.8
v -0.7 0.8 -2.8
v -0.7 0.9 -2.8
v -0.6 0.3 -2.8
v -0.6 0.4 -2.8
v -0.6 0.8 -2.8
v -0.6 0.9 -2.8
v -0.5 0.3 -2.8
v -0.5 0.4 -2.8
v -0.4 0.3 -2.8
v -0.4 0.4 -2.8
v -0.4 0.8 -2.8
v -0.4 0.9 -2.8
v -0.3 0.3 -2.8
v -0.3 0.4 -2.8
v -0.3 0.8 -2.8
v -0.3 0.9 -2.8
v -0.2 0.3 -2.8
v -0.2 0.4 -2.8
v -0.2 0.8 -2.8
v -0.2 0.9 -2.8
v -0.0999999 0.3 -2.8
v -0.0999999 0.4 -2.8
v 0.1 0.3 -2.8
v 0.1 0.4 -2.8
v 0.2 0.3 -2.8
v 0.2 0.4 -2.8
v 0.2 0.8 -2.8
v 0.2 0.9 -2.8
v 0.3 0.3 -2.8
v 0.3 0.4 -2.8
v 0.3 0.8 -2.8
v 0.3 0.9 -2.8
v 0.4 0.3 -2.8
v 0.4 0.4 -2.8
v 0.4 0.8 -2.8
v 0.4 0.9 -2.8
v 0.5 0.3 -2.8
v 0.5 0.4 -2.8
v 0.6 0.3 -2.8
v 0.6 0.4 -2.8
v 0.6 0.8 -2.8
v 0.6 0.9 -2.8
v 0.7 0.3 -2.8
v 0.7 0.4 -2.8
v 0.7 0.8 -2.8
v 0.7 0.9 -2.8
v 0.8 0.3 -2.8
v 0.8 0.4 -2.8
v 0.8 0.8 -2.8
v 0.8 0.9 -2.8
v 0.9 0.3 -2.8
v 0.9 0.4 -2.8
v 0.9 0.5 -2.8
v 0.9 0.7 -2.8
v 0.9 0.8 -2.8
v 1 0.2 -2.8
v 1 0.3 -2.8
v 1 0.4 -2.8
v 1 0.5 -2.8
v 1 0.7 -2.8
v 1 0.9 -2.8
v 1.2 0.4 -2.8
v 1.2 0.6 -2.8
v 1.3 0.3 -2.8
v 1.3 0.6 -2.8
v -1 0.5 -2.9
v -1 0.7 -2.9
v -0.9 0.4 -2.9
v -0.9 0.5 -2.9
v -0.9 0.7 -2.9
v -0.9 0.8 -2.9
v -0.8 0.4 -2.9
v -0.8 0.7 -2.9
v -0.8 0.8 -2.9
v -0.7 0.4 -2.9
v -0.7 0.7 -2.9
v -0.7 0.8 -2.9
v -0.6 0.4 -2.9
v -0.6 0.7 -2.9
v -0.6 0.8 -2.9
v -0.5 0.4 -2.9
v -0.5 0.7 -2.9
v -0.4 0.4 -2.9
v -0.4 0.7 -2.9
v -0.4 0.8 -2.9
v -0.3 0.4 -2.9
v -0.3 0.7 -2.9
v -0.3 0.8 -2.9
v -0.2 0.4 -2.9
v -0.2 0.7 -2.9
v -0.2 0.8 -2.9
v -0.0999999 0.4 -2.9
v 0.1 0.4 -2.9
v 0.2 0.4 -2.9
v 0.2 0.7 -2.9
v 0.2 0.8 -2.9
v 0.3 0.4 -2.9
v 0.3 0.7 -2.9
v 0.3 0.8 -2.9
v 0.4 0.4 -2.9
v 0.4 0.7 -2.9
v 0.4 0.8 -2.9
v 0.5 0.4 -2.9
v 0.5 0.7 -2.9
v 0.6 0.4 -2.9
v 0.6 0.7 -2.9
v 0.6 0.8 -2.9
v 0.7 0.4 -2.9
v 0.7 0.7 -2.9
v 0.7 0.8 -2.9
v 0.8 0.4 -2.9
v 0.8 0.7 -2.9
v 0.8 0.8 -2.9
v 0.9 0.4 -2.9
v 0.9 0.5 -2.9
v 0.9 0.7 -2.9
v 0.9 0.8 -2.9
v 1 0.5 -2.9
v 1 0.7 -2.9
v -1.3 0.3 -3
v -1.3 0.6 -3
v -1.2 0.3 -3
v -1.2 0.4 -3
v -1.2 0.6 -3
v -1.1 0.3 -3
v -1.1 0.4 -3
v -1 0.3 -3
v -1 0.4 -3
v -0.9 0.5 -3
v -0.9 0.7 -3
v -0.7 0.6 -3
v -0.7 0.7 -3
v -0.6 0.6 -3
v -0.6 0.7 -3
v -0.5 0.6 -3
v -0.5 0.7 -3
v -0.4 0.6 -3
v -0.4 0.7 -3
v -0.3 0.6 -3
v -0.3 0.7 -3
v -0.2 0.6 -3
v -0.2 0.7 -3
v 0.2 0.6 -3
v 0.2 0.7 -3
v 0.3 0.6 -3
v 0.3 0.7 -3
v 0.4 0.6 -3
v 0.4 0.7 -3
v 0.5 0.6 -3
v 0.5 0.7 -3
v 0.6 0.6 -3
v 0.6 0.7 -3
v 0.7 0.6 -3
v 0.7 0.7 -3
v 0.9 0.5 -3
v 0.9 0.7 -3
v 1 0.3 -3
v 1 0.4 -3
v 1.1 0.3 -3
v 1.1 0.4 -3
v 1.2 0.3 -3
v 1.2 0.4 -3
v 1.2 0.6 -3
v 1.3 0.3 -3
v 1.3 0.6 -3
v -1.3 0.6 -3.2
v -1.3 0.7 -3.2
v -1.2 0.3 -3.2
v -1.2 0.6 -3.2
v -1.1 0.3 -3.2
v -1.1 0.6 -3.2
v -1 0.3 -3.2
v -1 0.6 -3.2
v -0.9 0.3 -3.2
v -0.9 0.6 -3.2
v -0.8 0.3 -3.2
v -0.8 0.6 -3.2
v -0.7 0.3 -3.2
v -0.7 0.6 -3.2
v -0.6 0.3 -3.2
v -0.6 0.6 -3.2
v -0.5 0.3 -3.2
v -0.5 0.6 -3.2
v -0.4 0.3 -3.2
v -0.4 0.6 -3.2
v -0.3 0.3 -3.2
v -0.3 0.6 -3.2
v -0.2 0.3 -3.2
v -0.2 0.6 -3.2
v -0.0999999 0.3 -3.2
v -0.0999999 0.6 -3.2
v 0.1 0.3 -3.2
v 0.1 0.6 -3.2
v 0.2 0.3 -3.2
v 0.2 0.6 -3.2
v 0.3 0.3 -3.2
v 0.3 0.6 -3.2
v 0.4 0.3 -3.2
v 0.4 0.6 -3.2
v 0.5 0.3 -3.2
v 0.5 0.6 -3.2
v 0.6 0.3 -3.2
v 0.6 0.6 -3.2
v 0.7 0.3 -3.2
v 0.7 0.6 -3.2
v 0.8 0.3 -3.2
v 0.8 0.6 -3.2
v 0.9 0.3 -3.2
v 0.9 0.6 -3.2
v 1 0.3 -3.2
v 1 0.6 -3.2
v 1.1 0.3 -3.2
v 1.1 0.6 -3.2
v 1.2 0.3 -3.2
v 1.2 0.6 -3.2
v 1.3 0.6 -3.2
v 1.3 0.7 -3.2
v -0.3 0 -0.0999999
v 0.3 0 -0.0999999
v -0.8 0 -0.7
v -0.4 0 -0.7
v 0.4 0 -0.7
v 0.8 0 -0.7
v -0.4 0 -1.1
v -0.3 0 -1.1
v 0.3 0 -1.1
v 0.4 0 -1.1
v -0.9 0 -1.3
v -0.8 0 -1.3
v 0.8 0 -1.3
v 0.9 0 -1.3
v -0.9 0 -1.5
v -0.8 0 -1.5
v 0.8 0 -1.5
v 0.9 0 -1.5
v -0.9 0 -1.6
v -0.8 0 -1.6
v 0.8 0 -1.6
v 0.9 0 -1.6
v -1 0 -1.7
v -0.9 0 -1.7
v 0.9 0 -1.7
v 1 0 -1.7
v -1 0 -1.8
v -0.9 0 -1.8
v 0.9 0 -1.8
v 1 0 -1.8
v -1.1 0 -2.2
v -1 0 -2.2
v 1 0 -2.2
v 1.1 0 -2.2
v -1.1 0 -2.5
v 1.1 0 -2.5
v -0.3 0.1 0.2
v 0.3 0.1 0.2
v -0.4 0.1 -0.0999999
v -0.3 0.1 -0.0999999
v 0.3 0.1 -0.0999999
v 0.4 0.1 -0.0999999
v -0.4 0.1 -0.7
v 0.4 0.1 -0.7
v -0.4 0.1 -1.1
v -0.3 0.1 -1.1
v 0.3 0.1 -1.1
v 0.4 0.1 -1.1
v -1.1 0.1 -2.5
v 1.1 0.1 -2.5
v -1.1 0.1 -2.6
v 1.1 0.1 -2.6
v -0.2 0.2 3.9
v 0.2 0.2 3.9
v -0.2 0.2 3.8
v 0.2 0.2 3.8
v -0.2 0.2 3.7
v -0.0999999 0.2 3.7
v 0.1 0.2 3.7
v 0.2 0.2 3.7
v -0.2 0.2 3.6
v -0.0999999 0.2 3.6
v 0.1 0.2 3.6
v 0.2 0.2 3.6
v -0.2 0.2 3.5
v -0.0999999 0.2 3.5
v 0.1 0.2 3.5
v 0.2 0.2 3.5
v -0.2 0.2 3.4
v -0.0999999 0.2 3.4
v 0.1 0.2 3.4
v 0.2 0.2 3.4
v -0.2 0.2 3.2
v -0.0999999 0.2 3.2
v 0.1 0.2 3.2
v 0.2 0.2 3.2
v -0.2 0.2 3.1
v -0.0999999 0.2 3.1
v 0.1 0.2 3.1
v 0.2 0.2 3.1
v -0.2 0.2 0.2
v 0.2 0.2 0.2
v -1 0.2 -2.6
v 1 0.2 -2.6
v -1 0.2 -2.8
v 1 0.2 -2.8
v -1.3 0.3 -1.9
v -1 0.3 -1.9
v 1 0.3 -1.9
v 1.3 0.3 -1.9
v -1.3 0.3 -2
v -1 0.3 -2
v 1 0.3 -2
v 1.3 0.3 -2
v -1.3 0.3 -2.1
v -1 0.3 -2.1
v 1 0.3 -2.1
v 1.3 0.3 -2.1
v -1.3 0.3 -2.2
v -1.1 0.3 -2.2
v -1 0.3 -2.2
v 1 0.3 -2.2
v 1.1 0.3 -2.2
v 1.3 0.3 -2.2
v -1.3 0.3 -2.3
v -1.1 0.3 -2.3
v 1.1 0.3 -2.3
v 1.3 0.3 -2.3
v -1.3 0.3 -2.4
v -1.1 0.3 -2.4
v 1.1 0.3 -2.4
v 1.3 0.3 -2.4
v -1.3 0.3 -2.5
v -1.1 0.3 -2.5
v 1.1 0.3 -2.5
v 1.3 0.3 -2.5
v -1.3 0.3 -2.6
v -1.1 0.3 -2.6
v 1.1 0.3 -2.6
v 1.3 0.3 -2.6
v -1.3 0.3 -2.7
v -1 0.3 -2.7
v 1 0.3 -2.7
v 1.3 0.3 -2.7
v -1.3 0.3 -2.8
v -1 0.3 -2.8
v -0.9 0.3 -2.8
v -0.8 0.3 -2.8
v -0.7 0.3 -2.8
v -0.6 0.3 -2.8
v -0.5 0.3 -2.8
v -0.4 0.3 -2.8
v -0.3 0.3 -2.8
v -0.2 0.3 -2.8
v -0.0999999 0.3 -2.8
v 0.1 0.3 -2.8
v 0.2 0.3 -2.8
v 0.3 0.3 -2.8
v 0.4 0.3 -2.8
v 0.5 0.3 -2.8
v 0.6 0.3 -2.8
v 0.7 0.3 -2.8
v 0.8 0.3 -2.8
v 0.9 0.3 -2.8
v 1 0.3 -2.8
v 1.3 0.3 -2.8
v -1.3 0.3 -2.9
v -1 0.3 -2.9
v 1 0.3 -2.9
v 1.3 0.3 -2.9
v -1.3 0.3 -3
v -1.2 0.3 -3
v -1.1 0.3 -3
v -1 0.3 -3
v 1 0.3 -3
v 1.1 0.3 -3
v 1.2 0.3 -3
v 1.3 0.3 -3
v -1.2 0.3 -3.2
v -1.1 0.3 -3.2
v -1 0.3 -3.2
v -0.9 0.3 -3.2
v -0.8 0.3 -3.2
v -0.7 0.3 -3.2
v -0.6 0.3 -3.2
v -0.5 0.3 -3.2
v -0.4 0.3 -3.2
v -0.3 0.3 -3.2
v -0.2 0.3 -3.2
v -0.0999999 0.3 -3.2
v 0.1 0.3 -3.2
v 0.2 0.3 -3.2
v 0.3 0.3 -3.2
v 0.4 0.3 -3.2
v 0.5 0.3 -3.2
v 0.6 0.3 -3.2
v 0.7 0.3 -3.2
v 0.8 0.3 -3.2
v 0.9 0.3 -3.2
v 1 0.3 -3.2
v 1.1 0.3 -3.2
v 1.2 0.3 -3.2
v -0.9 0.4 -2.8
v -0.8 0.4 -2.8
v -0.7 0.4 -2.8
v -0.6 0.4 -2.8
v -0.5 0.4 -2.8
v -0.4 0.4 -2.8
v -0.3 0.4 -2.8
v -0.2 0.4 -2.8
v -0.0999999 0.4 -2.8
v 0.1 0.4 -2.8
v 0.2 0.4 -2.8
v 0.3 0.4 -2.8
v 0.4 0.4 -2.8
v 0.5 0.4 -2.8
v 0.6 0.4 -2.8
v 0.7 0.4 -2.8
v 0.8 0.4 -2.8
v 0.9 0.4 -2.8
v -0.9 0.4 -2.9
v -0.8 0.4 -2.9
v -0.7 0.4 -2.9
v -0.6 0.4 -2.9
v -0.5 0.4 -2.9
v -0.4 0.4 -2.9
v -0.3 0.4 -2.9
v -0.2 0.4 -2.9
v -0.0999999 0.4 -2.9
v 0.1 0.4 -2.9
v 0.2 0.4 -2.9
v 0.3 0.4 -2.9
v 0.4 0.4 -2.9
v 0.5 0.4 -2.9
v 0.6 0.4 -2.9
v 0.7 0.4 -2.9
v 0.8 0.4 -2.9
v 0.9 0.4 -2.9
v -0.0999999 0.5 3.9
v 0.1 0.5 3.9
v -0.0999999 0.5 3.8
v 0.1 0.5 3.8
v -0.0999999 0.5 3.7
v 0.1 0.5 3.7
v -0.0999999 0.5 3.6
v 0.1 0.5 3.6
v -0.0999999 0.5 3.5
v 0.1 0.5 3.5
v -1 0.5 -2.8
v -0.9 0.5 -2.8
v 0.9 0.5 -2.8
v 1 0.5 -2.8
v -1 0.5 -2.9
v -0.9 0.5 -2.9
v 0.9 0.5 -2.9
v 1 0.5 -2.9
v -0.9 0.5 -3
v 0.9 0.5 -3
v -1.2 0.6 -1.9
v -1.1 0.6 -1.9
v -1 0.6 -1.9
v -0.9 0.6 -1.9
v 0.9 0.6 -1.9
v 1 0.6 -1.9
v 1.1 0.6 -1.9
v 1.2 0.6 -1.9
v -1.3 0.6 -2
v -1.2 0.6 -2
v -1.1 0.6 -2
v -1 0.6 -2
v -0.9 0.6 -2
v 0.9 0.6 -2
v 1 0.6 -2
v 1.1 0.6 -2
v 1.2 0.6 -2
v 1.3 0.6 -2
v -1.3 0.6 -2.1
v -1.2 0.6 -2.1
v 1.2 0.6 -2.1
v 1.3 0.6 -2.1
v -1.3 0.6 -2.2
v -1.2 0.6 -2.2
v 1.2 0.6 -2.2
v 1.3 0.6 -2.2
v -1.3 0.6 -2.3
v -1.2 0.6 -2.3
v 1.2 0.6 -2.3
v 1.3 0.6 -2.3
v -1.3 0.6 -2.4
v -1.2 0.6 -2.4
v 1.2 0.6 -2.4
v 1.3 0.6 -2.4
v -1.3 0.6 -2.5
v -1.2 0.6 -2.5
v 1.2 0.6 -2.5
v 1.3 0.6 -2.5
v -1.3 0.6 -2.6
v -1.2 0.6 -2.6
v 1.2 0.6 -2.6
v 1.3 0.6 -2.6
v -1.3 0.6 -2.7
v -1.2 0.6 -2.7
v 1.2 0.6 -2.7
v 1.3 0.6 -2.7
v -1.3 0.6 -2.8
v -1.2 0.6 -2.8
v 1.2 0.6 -2.8
v 1.3 0.6 -2.8
v -1.3 0.6 -2.9
v -1.2 0.6 -2.9
v 1.2 0.6 -2.9
v 1.3 0.6 -2.9
v -1.3 0.6 -3
v -1.2 0.6 -3
v 1.2 0.6 -3
v 1.3 0.6 -3
v -1.2 0.6 -3.1
v -1.1 0.6 -3.1
v -1 0.6 -3.1
v -0.9 0.6 -3.1
v -0.8 0.6 -3.1
v -0.7 0.6 -3.1
v -0.6 0.6 -3.1
v -0.5 0.6 -3.1
v -0.4 0.6 -3.1
v -0.3 0.6 -3.1
v -0.2 0.6 -3.1
v -0.0999999 0.6 -3.1
v 0.1 0.6 -3.1
v 0.2 0.6 -3.1
v 0.3 0.6 -3.1
v 0.4 0.6 -3.1
v 0.5 0.6 -3.1
v 0.6 0.6 -3.1
v 0.7 0.6 -3.1
v 0.8 0.6 -3.1
v 0.9 0.6 -3.1
v 1 0.6 -3.1
v 1.1 0.6 -3.1
v 1.2 0.6 -3.1
v -1.3 0.6 -3.2
v -1.2 0.6 -3.2
v -1.1 0.6 -3.2
v -1 0.6 -3.2
v -0.9 0.6 -3.2
v -0.8 0.6 -3.2
v -0.7 0.6 -3.2
v -0.6 0.6 -3.2
v -0.5 0.6 -3.2
v -0.4 0.6 -3.2
v -0.3 0.6 -3.2
v -0.2 0.6 -3.2
v -0.0999999 0.6 -3.2
v 0.1 0.6 -3.2
v 0.2 0.6 -3.2
v 0.3 0.6 -3.2
v 0.4 0.6 -3.2
v 0.5 0.6 -3.2
v 0.6 0.6 -3.2
v 0.7 0.6 -3.2
v 0.8 0.6 -3.2
v 0.9 0.6 -3.2
v 1 0.6 -3.2
v 1.1 0.6 -3.2
v 1.2 0.6 -3.2
v 1.3 0.6 -3.2
v -0.7 0.9 -1.2
v -0.6 0.9 -1.2
v -0.5 0.9 -1.2
v -0.4 0.9 -1.2
v -0.7 0.9 -1.3
v -0.6 0.9 -1.3
v -0.5 0.9 -1.3
v -0.4 0.9 -1.3
v -0.7 0.9 -1.4
v -0.6 0.9 -1.4
v -0.5 0.9 -1.4
v -0.4 0.9 -1.4
v -0.7 0.9 -1.5
v -0.6 0.9 -1.5
v -0.5 0.9 -1.5
v -0.4 0.9 -1.5
v -0.6 1 -1.2
v -0.5 1 -1.2
v -0.6 1 -1.3
v -0.5 1 -1.3
v -0.8 0.2 -0.7
v -0.4 0.2 -0.7
v 0.4 0.2 -0.7
v 0.8 0.2 -0.7
v -0.8 0.2 -0.8
v -0.4 0.2 -0.8
v 0.4 0.2 -0.8
v 0.8 0.2 -0.8
v -0.0999999 0.3 3.9
v 0.1 0.3 3.9
v -0.0999999 0.3 3.8
v 0.1 0.3 3.8
v -0.0999999 0.3 3.5
v 0.1 0.3 3.5
v -0.8 0.4 -0.8
v -0.4 0.4 -0.8
v 0.4 0.4 -0.8
v 0.8 0.4 -0.8
v -0.8 0.4 -0.9
v -0.4 0.4 -0.9
v 0.4 0.4 -0.9
v 0.8 0.4 -0.9
v -1.2 0.4 -1.9
v -1.1 0.4 -1.9
v 1.1 0.4 -1.9
v 1.2 0.4 -1.9
v -1.2 0.4 -2
v -1.1 0.4 -2
v 1.1 0.4 -2
v 1.2 0.4 -2
v -1.2 0.4 -2.1
v -1 0.4 -2.1
v 1 0.4 -2.1
v 1.2 0.4 -2.1
v -1.2 0.4 -2.2
v -1.1 0.4 -2.2
v -1 0.4 -2.2
v 1 0.4 -2.2
v 1.1 0.4 -2.2
v 1.2 0.4 -2.2
v -1.2 0.4 -2.3
v -1.1 0.4 -2.3
v 1.1 0.4 -2.3
v 1.2 0.4 -2.3
v -1.2 0.4 -2.4
v -1.1 0.4 -2.4
v 1.1 0.4 -2.4
v 1.2 0.4 -2.4
v -1.2 0.4 -2.5
v -1.1 0.4 -2.5
v 1.1 0.4 -2.5
v 1.2 0.4 -2.5
v -1.2 0.4 -2.6
v -1.1 0.4 -2.6
v 1.1 0.4 -2.6
v 1.2 0.4 -2.6
v -1.2 0.4 -2.7
v -1 0.4 -2.7
v 1 0.4 -2.7
v 1.2 0.4 -2.7
v -1.2 0.4 -2.8
v -1 0.4 -2.8
v -0.9 0.4 -2.8
v 0.9 0.4 -2.8
v 1 0.4 -2.8
v 1.2 0.4 -2.8
v -1.2 0.4 -2.9
v -1 0.4 -2.9
v -0.9 0.4 -2.9
v -0.8 0.4 -2.9
v -0.7 0.4 -2.9
v -0.6 0.4 -2.9
v -0.5 0.4 -2.9
v -0.4 0.4 -2.9
v -0.3 0.4 -2.9
v -0.2 0.4 -2.9
v -0.0999999 0.4 -2.9
v 0.1 0.4 -2.9
v 0.2 0.4 -2.9
v 0.3 0.4 -2.9
v 0.4 0.4 -2.9
v 0.5 0.4 -2.9
v 0.6 0.4 -2.9
v 0.7 0.4 -2.9
v 0.8 0.4 -2.9
v 0.9 0.4 -2.9
v 1 0.4 -2.9
v 1.2 0.4 -2.9
v -1.2 0.4 -3
v -1.1 0.4 -3
v -1 0.4 -3
v 1 0.4 -3
v 1.1 0.4 -3
v 1.2 0.4 -3
v -1.2 0.4 -3.1
v -1.1 0.4 -3.1
v -1 0.4 -3.1
v -0.9 0.4 -3.1
v -0.8 0.4 -3.1
v -0.7 0.4 -3.1
v -0.6 0.4 -3.1
v -0.5 0.4 -3.1
v -0.4 0.4 -3.1
v -0.3 0.4 -3.1
v -0.2 0.4 -3.1
v -0.0999999 0.4 -3.1
v 0.1 0.4 -3.1
v 0.2 0.4 -3.1
v 0.3 0.4 -3.1
v 0.4 0.4 -3.1
v 0.5 0.4 -3.1
v 0.6 0.4 -3.1
v 0.7 0.4 -3.1
v 0.8 0.4 -3.1
v 0.9 0.4 -3.1
v 1 0.4 -3.1
v 1.1 0.4 -3.1
v 1.2 0.4 -3.1
v -0.9 0.5 -1.3
v -0.8 0.5 -1.3
v 0.8 0.5 -1.3
v 0.9 0.5 -1.3
v -0.9 0.5 -1.4
v -0.8 0.5 -1.4
v 0.8 0.5 -1.4
v 0.9 0.5 -1.4
v -0.9 0.5 -1.5
v -0.8 0.5 -1.5
v 0.8 0.5 -1.5
v 0.9 0.5 -1.5
v -0.9 0.5 -1.6
v -0.8 0.5 -1.6
v 0.8 0.5 -1.6
v 0.9 0.5 -1.6
v -1 0.5 -1.7
v -0.9 0.5 -1.7
v 0.9 0.5 -1.7
v 1 0.5 -1.7
v -1 0.5 -1.8
v -0.9 0.5 -1.8
v 0.9 0.5 -1.8
v 1 0.5 -1.8
v -1 0.5 -1.9
v 1 0.5 -1.9
v -1 0.5 -2
v -0.9 0.5 -2
v 0.9 0.5 -2
v 1 0.5 -2
v -1 0.5 -2.1
v -0.9 0.5 -2.1
v 0.9 0.5 -2.1
v 1 0.5 -2.1
v -1.1 0.5 -2.2
v -1 0.5 -2.2
v 1 0.5 -2.2
v 1.1 0.5 -2.2
v -1 0.5 -2.3
v 1 0.5 -2.3
v -1 0.5 -2.4
v 1 0.5 -2.4
v -1 0.5 -2.5
v 1 0.5 -2.5
v -1.1 0.5 -2.6
v -1 0.5 -2.6
v 1 0.5 -2.6
v 1.1 0.5 -2.6
v -0.2 0.6 3.9
v 0.2 0.6 3.9
v -0.2 0.6 3.8
v -0.0999999 0.6 3.8
v 0.1 0.6 3.8
v 0.2 0.6 3.8
v -0.2 0.6 3.7
v -0.0999999 0.6 3.7
v 0.1 0.6 3.7
v 0.2 0.6 3.7
v -0.0999999 0.6 3.6
v 0.1 0.6 3.6
v -0.2 0.6 3.5
v -0.0999999 0.6 3.5
v 0.1 0.6 3.5
v 0.2 0.6 3.5
v -0.2 0.6 3.4
v 0.2 0.6 3.4
v -0.2 0.6 3.3
v -0.0999999 0.6 3.3
v 0.1 0.6 3.3
v 0.2 0.6 3.3
v -0.2 0.6 3.2
v -0.0999999 0.6 3.2
v 0.1 0.6 3.2
v 0.2 0.6 3.2
v -0.2 0.6 3
v -0.0999999 0.6 3
v 0.1 0.6 3
v 0.2 0.6 3
v -0.2 0.6 2.9
v -0.0999999 0.6 2.9
v 0.1 0.6 2.9
v 0.2 0.6 2.9
v -0.2 0.6 0.2
v 0.2 0.6 0.2
v -0.8 0.6 -0.9
v -0.4 0.6 -0.9
v 0.4 0.6 -0.9
v 0.8 0.6 -0.9
v -0.8 0.6 -1
v -0.4 0.6 -1
v 0.4 0.6 -1
v 0.8 0.6 -1
v -0.3 0.7 0.2
v 0.3 0.7 0.2
v -0.4 0.7 -0.0999999
v -0.3 0.7 -0.0999999
v 0.3 0.7 -0.0999999
v 0.4 0.7 -0.0999999
v -0.4 0.7 -1
v 0.4 0.7 -1
v -0.4 0.7 -1.2
v -0.3 0.7 -1.2
v 0.3 0.7 -1.2
v 0.4 0.7 -1.2
v -1.3 0.7 -1.9
v -0.9 0.7 -1.9
v 0.9 0.7 -1.9
v 1.3 0.7 -1.9
v -1.2 0.7 -2
v -0.9 0.7 -2
v 0.9 0.7 -2
v 1.2 0.7 -2
v -1 0.7 -2.8
v -0.9 0.7 -2.8
v 0.9 0.7 -2.8
v 1 0.7 -2.8
v -1 0.7 -2.9
v -0.9 0.7 -2.9
v -0.8 0.7 -2.9
v -0.7 0.7 -2.9
v -0.6 0.7 -2.9
v -0.5 0.7 -2.9
v -0.4 0.7 -2.9
v -0.3 0.7 -2.9
v -0.2 0.7 -2.9
v 0.2 0.7 -2.9
v 0.3 0.7 -2.9
v 0.4 0.7 -2.9
v 0.5 0.7 -2.9
v 0.6 0.7 -2.9
v 0.7 0.7 -2.9
v 0.8 0.7 -2.9
v 0.9 0.7 -2.9
v 1 0.7 -2.9
v -0.9 0.7 -3
v -0.7 0.7 -3
v -0.6 0.7 -3
v -0.5 0.7 -3
v -0.4 0.7 -3
v -0.3 0.7 -3
v -0.2 0.7 -3
v 0.2 0.7 -3
v 0.3 0.7 -3
v 0.4 0.7 -3
v 0.5 0.7 -3
v 0.6 0.7 -3
v 0.7 0.7 -3
v 0.9 0.7 -3
v -1.2 0.7 -3.1
v 1.2 0.7 -3.1
v -1.3 0.7 -3.2
v 1.3 0.7 -3.2
v -0.3 0.8 -0.0999999
v 0.3 0.8 -0.0999999
v -0.8 0.8 -1
v -0.4 0.8 -1
v 0.4 0.8 -1
v 0.8 0.8 -1
v -0.6 0.8 -1.2
v -0.5 0.8 -1.2
v -0.4 0.8 -1.2
v -0.3 0.8 -1.2
v 0.3 0.8 -1.2
v 0.4 0.8 -1.2
v -0.7 0.8 -1.3
v -0.6 0.8 -1.3
v -0.5 0.8 -1.3
v -0.4 0.8 -1.3
v -0.7 0.8 -1.4
v -0.6 0.8 -1.4
v -0.5 0.8 -1.4
v -0.4 0.8 -1.4
v -0.6 0.8 -1.5
v -0.5 0.8 -1.5
v -0.9 0.8 -1.6
v -0.8 0.8 -1.6
v 0.8 0.8 -1.6
v 0.9 0.8 -1.6
v -0.9 0.8 -1.7
v 0.9 0.8 -1.7
v -0.9 0.8 -2.8
v -0.8 0.8 -2.8
v -0.7 0.8 -2.8
v -0.6 0.8 -2.8
v -0.4 0.8 -2.8
v -0.3 0.8 -2.8
v -0.2 0.8 -2.8
v 0.2 0.8 -2.8
v 0.3 0.8 -2.8
v 0.4 0.8 -2.8
v 0.6 0.8 -2.8
v 0.7 0.8 -2.8
v 0.8 0.8 -2.8
v 0.9 0.8 -2.8
v -0.9 0.8 -2.9
v -0.8 0.8 -2.9
v -0.7 0.8 -2.9
v -0.6 0.8 -2.9
v -0.4 0.8 -2.9
v -0.3 0.8 -2.9
v -0.2 0.8 -2.9
v 0.2 0.8 -2.9
v 0.3 0.8 -2.9
v 0.4 0.8 -2.9
v 0.6 0.8 -2.9
v 0.7 0.8 -2.9
v 0.8 0.8 -2.9
v 0.9 0.8 -2.9
v -0.6 0.9 -1.2
v -0.5 0.9 -1.2
v -0.6 0.9 -1.3
v -0.5 0.9 -1.3
v -0.9 0.9 -1.7
v 0.9 0.9 -1.7
v -1 0.9 -2.1
v -0.9 0.9 -2.1
v 0.9 0.9 -2.1
v 1 0.9 -2.1
v -1 0.9 -2.2
v 1 0.9 -2.2
v -1 0.9 -2.5
v 1 0.9 -2.5
v -0.8 0.9 -2.7
v -0.7 0.9 -2.7
v -0.6 0.9 -2.7
v -0.4 0.9 -2.7
v -0.3 0.9 -2.7
v -0.2 0.9 -2.7
v 0.2 0.9 -2.7
v 0.3 0.9 -2.7
v 0.4 0.9 -2.7
v 0.6 0.9 -2.7
v 0.7 0.9 -2.7
v 0.8 0.9 -2.7
v -1 0.9 -2.8
v -0.8 0.9 -2.8
v -0.7 0.9 -2.8
v -0.6 0.9 -2.8
v -0.4 0.9 -2.8
v -0.3 0.9 -2.8
v -0.2 0.9 -2.8
v 0.2 0.9 -2.8
v 0.3 0.9 -2.8
v 0.4 0.9 -2.8
v 0.6 0.9 -2.8
v 0.7 0.9 -2.8
v 0.8 0.9 -2.8
v 1 0.9 -2.8
v -0.7 1 -1.2
v -0.6 1 -1.2
v -0.5 1 -1.2
v -0.4 1 -1.2
v -0.7 1 -1.3
v -0.6 1 -1.3
v -0.5 1 -1.3
v -0.4 1 -1.3
v -0.7 1 -1.4
v -0.6 1 -1.4
v -0.5 1 -1.4
v -0.4 1 -1.4
v -0.7 1 -1.5
v -0.6 1 -1.5
v -0.5 1 -1.5
v -0.4 1 -1.5
v -1 1 -2.2
v 1 1 -2.2
v -1 1 -2.5
v 1 1 -2.5
v -0.6 1.1 -1.2
v -0.5 1.1 -1.2
v -0.7 1.1 -1.3
v -0.6 1.1 -1.3
v -0.5 1.1 -1.3
v -0.4 1.1 -1.3
v -0.7 1.1 -1.4
v -0.6 1.1 -1.4
v -0.5 1.1 -1.4
v -0.4 1.1 -1.4
v -0.6 1.1 -1.5
v -0.5 1.1 -1.5

# faces
f 13/4/1 2/4/1 1/4/1
f 14/4/1 4/4/1 3/4/1
f 15/4/1 4/4/1 14/4/1
f 16/4/1 6/4/1 5/4/1
f 17/4/1 6/4/1 16/4/1
f 18/4/1 8/4/1 7/4/1
f 19/4/1 8/4/1 18/4/1
f 20/4/1 10/4/1 9/4/1
f 21/4/1 10/4/1 20/4/1
f 22/4/1 12/4/1 11/4/1
f 23/4/1 12/4/1 22/4/1
f 25/4/1 21/4/1 20/4/1
f 25/4/1 24/4/1 23/4/1
f 25/4/1 23/4/1 22/4/1
f 25/4/1 22/4/1 21/4/1
f 25/4/1 13/4/1 1/4/1
f 25/4/1 20/4/1 19/4/1
f 25/4/1 15/4/1 14/4/1
f 25/4/1 18/4/1 17/4/1
f 25/4/1 17/4/1 16/4/1
f 25/4/1 16/4/1 15/4/1
f 25/4/1 19/4/1 18/4/1
f 25/4/1 14/4/1 13/4/1
f 26/4/1 24/4/1 25/4/1
f 29/4/1 28/4/1 27/4/1
f 30/4/1 28/4/1 29/4/1
f 31/4/1 28/4/1 30/4/1
f 32/4/1 28/4/1 31/4/1
f 35/5/1 34/5/1 33/5/1
f 37/5/1 35/5/1 33/5/1
f 37/5/1 36/5/1 35/5/1
f 38/5/1 36/5/1 37/5/1
f 39/5/1 36/5/1 38/5/1
f 40/5/1 36/5/1 39/5/1
f 41/5/1 36/5/1 40/5/1
f 44/5/1 38/5/1 37/5/1
f 45/5/1 38/5/1 44/5/1
f 46/5/1 40/5/1 39/5/1
f 47/5/1 40/5/1 46/5/1
f 49/5/1 45/5/1 44/5/1
f 49/5/1 48/5/1 47/5/1
f 49/5/1 47/5/1 46/5/1
f 49/5/1 46/5/1 45/5/1
f 50/5/1 48/5/1 49/5/1
f 51/4/1 43/4/1 42/4/1
f 52/4/1 43/4/1 51/4/1
f 56/1/1 54/1/1 53/1/1
f 57/5/1 55/5/1 54/5/1
f 57/1/1 54/1/1 56/1/1
f 58/5/1 55/5/1 57/5/1
f 59/5/1 55/5/1 58/5/1
f 60/5/1 55/5/1 59/5/1
f 61/5/1 55/5/1 60/5/1
f 62/5/1 57/5/1 56/5/1
f 62/5/1 58/5/1 57/5/1
f 63/5/1 58/5/1 62/5/1
f 64/1/1 59/1/1 58/1/1
f 64/5/1 58/5/1 63/5/1
f 65/5/1 60/5/1 59/5/1
f 65/1/1 59/1/1 64/1/1
f 66/1/1 61/1/1 60/1/1
f 66/5/1 60/5/1 65/5/1
f 67/1/1 61/1/1 66/1/1
f 70/1/1 63/1/1 62/1/1
f 71/5/1 67/5/1 66/5/1
f 71/1/1 63/1/1 70/1/1
f 71/5/1 65/5/1 64/5/1
f 71/5/1 66/5/1 65/5/1
f 71/5/1 64/5/1 63/5/1
f 72/5/1 67/5/1 71/5/1
f 73/5/1 67/5/1 72/5/1
f 74/5/1 67/5/1 73/5/1
f 75/5/1 67/5/1 74/5/1
f 76/5/1 69/5/1 68/5/1
f 77/5/1 69/5/1 76/5/1
f 81/5/1 71/5/1 70/5/1
f 81/5/1 72/5/1 71/5/1
f 82/5/1 72/5/1 81/5/1
f 83/5/1 74/5/1 73/5/1
f 85/5/1 76/5/1 68/5/1
f 86/4/1 78/4/1 77/4/1
f 87/4/1 78/4/1 86/4/1
f 88/4/1 80/4/1 79/4/1
f 89/4/1 80/4/1 88/4/1
f 90/1/1 82/1/1 81/1/1
f 91/5/1 72/5/1 82/5/1
f 91/1/1 82/1/1 90/1/1
f 92/5/1 72/5/1 91/5/1
f 93/5/1 84/5/1 83/5/1
f 93/5/1 83/5/1 73/5/1
f 94/5/1 84/5/1 93/5/1
f 95/5/1 84/5/1 94/5/1
f 99/5/1 85/5/1 68/5/1
f 99/5/1 86/5/1 85/5/1
f 100/5/1 86/5/1 99/5/1
f 102/1/1 95/1/1 94/1/1
f 103/5/1 96/5/1 95/5/1
f 103/1/1 95/1/1 102/1/1
f 104/1/1 97/1/1 96/1/1
f 104/5/1 96/5/1 103/5/1
f 105/5/1 98/5/1 97/5/1
f 105/1/1 99/1/1 98/1/1
f 106/5/1 101/5/1 100/5/1
f 106/1/1 99/1/1 105/1/1
f 106/5/1 100/5/1 99/5/1
f 107/4/1 80/4/1 89/4/1
f 108/4/1 80/4/1 107/4/1
f 109/1/1 97/1/1 104/1/1
f 109/1/1 104/1/1 103/1/1
f 110/5/1 105/5/1 97/5/1
f 110/1/1 97/1/1 109/1/1
f 110/5/1 106/5/1 105/5/1
f 111/5/1 106/5/1 110/5/1
f 112/5/1 101/5/1 106/5/1
f 112/5/1 106/5/1 111/5/1
f 113/5/1 101/5/1 112/5/1
f 114/5/1 101/5/1 113/5/1
f 115/1/1 109/1/1 103/1/1
f 115/5/1 103/5/1 102/5/1
f 116/5/1 111/5/1 110/5/1
f 116/1/1 109/1/1 115/1/1
f 116/5/1 110/5/1 109/5/1
f 117/1/1 112/1/1 111/1/1
f 117/5/1 111/5/1 116/5/1
f 118/5/1 113/5/1 112/5/1
f 118/1/1 112/1/1 117/1/1
f 119/5/1 115/5/1 102/5/1
f 119/5/1 117/5/1 116/5/1
f 119/5/1 118/5/1 117/5/1
f 119/5/1 116/5/1 115/5/1
f 120/5/1 118/5/1 119/5/1
f 121/5/1 118/5/1 120/5/1
f 122/5/1 113/5/1 118/5/1
f 122/5/1 118/5/1 121/5/1
f 123/5/1 121/5/1 120/5/1
f 124/5/1 121/5/1 123/5/1
f 129/5/1 126/5/1 125/5/1
f 130/1/1 127/1/1 126/1/1
f 130/5/1 126/5/1 129/5/1
f 131/5/1 128/5/1 127/5/1
f 131/1/1 127/1/1 130/1/1
f 132/5/1 128/5/1 131/5/1
f 133/5/1 129/5/1 125/5/1
f 134/1/1 130/1/1 129/1/1
f 134/5/1 129/5/1 133/5/1
f 135/5/1 131/5/1 130/5/1
f 135/1/1 130/1/1 134/1/1
f 135/5/1 132/5/1 131/5/1
f 136/5/1 132/5/1 135/5/1
f 137/1/1 134/1/1 133/1/1
f 138/5/1 135/5/1 134/5/1
f 138/1/1 134/1/1 137/1/1
f 139/1/1 136/1/1 135/1/1
f 140/1/1 136/1/1 139/1/1
f 141/5/1 135/5/1 138/5/1
f 141/5/1 138/5/1 137/5/1
f 142/1/1 139/1/1 135/1/1
f 142/5/1 135/5/1 141/5/1
f 143/5/1 140/5/1 139/5/1
f 143/1/1 139/1/1 142/1/1
f 144/5/1 140/5/1 143/5/1
f 147/5/1 141/5/1 137/5/1
f 148/1/1 142/1/1 141/1/1
f 148/5/1 141/5/1 147/5/1
f 149/5/1 144/5/1 143/5/1
f 149/1/1 142/1/1 148/1/1
f 149/5/1 143/5/1 142/5/1
f 150/5/1 144/5/1 149/5/1
f 151/5/1 144/5/1 150/5/1
f 155/5/1 146/5/1 145/5/1
f 156/5/1 146/5/1 155/5/1
f 158/5/1 151/5/1 150/5/1
f 159/1/1 152/1/1 151/1/1
f 159/5/1 151/5/1 158/5/1
f 160/5/1 153/5/1 152/5/1
f 161/1/1 154/1/1 153/1/1
f 161/5/1 153/5/1 160/5/1
f 162/1/1 154/1/1 161/1/1
f 163/1/1 159/1/1 158/1/1
f 164/1/1 152/1/1 159/1/1
f 164/1/1 159/1/1 163/1/1
f 165/5/1 160/5/1 152/5/1
f 166/5/1 162/5/1 161/5/1
f 168/5/1 157/5/1 156/5/1
f 169/5/1 157/5/1 168/5/1
f 170/5/1 164/5/1 163/5/1
f 171/1/1 152/1/1 164/1/1
f 171/5/1 164/5/1 170/5/1
f 172/5/1 166/5/1 165/5/1
f 172/1/1 152/1/1 171/1/1
f 172/5/1 165/5/1 152/5/1
f 173/5/1 168/5/1 167/5/1
f 174/5/1 168/5/1 173/5/1
f 175/5/1 172/5/1 171/5/1
f 176/5/1 162/5/1 166/5/1
f 176/5/1 172/5/1 175/5/1
f 176/5/1 166/5/1 172/5/1
f 179/5/1 178/5/1 177/5/1
f 180/5/1 178/5/1 179/5/1
f 181/5/1 178/5/1 180/5/1
f 182/5/1 178/5/1 181/5/1
f 183/5/1 178/5/1 182/5/1
f 184/5/1 181/5/1 180/5/1
f 184/1/1 182/1/1 181/1/1
f 185/5/1 183/5/1 182/5/1
f 185/1/1 182/1/1 184/1/1
f 186/5/1 183/5/1 185/5/1
f 189/5/1 186/5/1 185/5/1
f 189/5/1 184/5/1 180/5/1
f 189/5/1 185/5/1 184/5/1
f 190/5/1 186/5/1 189/5/1
f 191/5/1 186/5/1 190/5/1
f 192/5/1 186/5/1 191/5/1
f 193/4/1 188/4/1 187/4/1
f 194/4/1 188/4/1 193/4/1
f 195/4/1 188/4/1 194/4/1
f 196/1/1 192/1/1 191/1/1
f 196/5/1 191/5/1 190/5/1
f 197/1/1 192/1/1 196/1/1
f 201/5/1 196/5/1 190/5/1
f 201/5/1 197/5/1 196/5/1
f 202/5/1 197/5/1 201/5/1
f 203/1/1 199/1/1 198/1/1
f 203/5/1 197/5/1 202/5/1
f 203/1/1 198/1/1 197/1/1
f 204/5/1 200/5/1 199/5/1
f 204/1/1 199/1/1 203/1/1
f 205/5/1 200/5/1 204/5/1
f 206/4/1 188/4/1 195/4/1
f 207/4/1 188/4/1 206/4/1
f 208/1/1 205/1/1 204/1/1
f 208/5/1 203/5/1 202/5/1
f 208/5/1 204/5/1 203/5/1
f 209/1/1 205/1/1 208/1/1
f 210/5/1 208/5/1 202/5/1
f 210/5/1 209/5/1 208/5/1
f 211/5/1 209/5/1 210/5/1
f 215/5/1 213/5/1 212/5/1
f 216/5/1 213/5/1 215/5/1
f 218/5/1 215/5/1 214/5/1
f 218/5/1 217/5/1 216/5/1
f 218/5/1 216/5/1 215/5/1
f 219/5/1 217/5/1 218/5/1
f 220/5/1 217/5/1 219/5/1
f 221/5/1 217/5/1 220/5/1
f 222/5/1 220/5/1 219/5/1
f 223/5/1 220/5/1 222/5/1
f 226/4/1 225/4/1 224/4/1
f 227/4/1 225/4/1 226/4/1
f 228/4/1 225/4/1 227/4/1
f 229/4/1 225/4/1 228/4/1
f 230/4/1 225/4/1 229/4/1
f 235/5/1 232/5/1 231/5/1
f 236/5/1 232/5/1 235/5/1
f 237/5/1 234/5/1 233/5/1
f 238/5/1 234/5/1 237/5/1
f 243/5/1 240/5/1 239/5/1
f 244/5/1 240/5/1 243/5/1
f 245/5/1 242/5/1 241/5/1
f 246/5/1 242/5/1 245/5/1
f 249/5/1 248/5/1 247/5/1
f 250/5/1 248/5/1 249/5/1
f 253/5/1 252/5/1 251/5/1
f 257/5/1 254/5/1 253/5/1
f 259/4/1 256/4/1 255/4/1
f 260/4/1 256/4/1 259/4/1
f 261/4/1 256/4/1 260/4/1
f 262/5/1 258/5/1 257/5/1
f 264/4/1 256/4/1 261/4/1
f 265/4/1 256/4/1 264/4/1
f 266/5/1 253/5/1 251/5/1
f 266/5/1 263/5/1 262/5/1
f 266/5/1 257/5/1 253/5/1
f 266/5/1 262/5/1 257/5/1
f 267/5/1 263/5/1 266/5/1
f 271/5/1 269/5/1 268/5/1
f 272/5/1 269/5/1 271/5/1
f 273/5/1 271/5/1 270/5/1
f 274/5/1 271/5/1 273/5/1
f 276/5/1 275/5/1 274/5/1
f 277/5/1 275/5/1 276/5/1
f 287/2/1 279/2/1 278/2/1
f 287/5/1 280/5/1 279/5/1
f 288/1/1 281/1/1 280/1/1
f 288/5/1 280/5/1 287/5/1
f 289/5/1 282/5/1 281/5/1
f 289/1/1 281/1/1 288/1/1
f 290/1/1 283/1/1 282/1/1
f 290/5/1 282/5/1 289/5/1
f 291/5/1 284/5/1 283/5/1
f 291/1/1 283/1/1 290/1/1
f 292/1/1 285/1/1 284/1/1
f 292/5/1 284/5/1 291/5/1
f 293/5/1 286/5/1 285/5/1
f 293/1/1 285/1/1 292/1/1
f 296/2/1 287/2/1 278/2/1
f 296/1/1 288/1/1 287/1/1
f 296/1/1 289/1/1 288/1/1
f 296/1/1 290/1/1 289/1/1
f 297/1/1 290/1/1 296/1/1
f 298/1/1 290/1/1 297/1/1
f 299/5/1 291/5/1 290/5/1
f 299/1/1 290/1/1 298/1/1
f 300/1/1 292/1/1 291/1/1
f 300/5/1 291/5/1 299/5/1
f 301/1/1 292/1/1 300/1/1
f 302/5/1 293/5/1 292/5/1
f 302/1/1 292/1/1 301/1/1
f 303/5/1 286/5/1 293/5/1
f 303/5/1 293/5/1 302/5/1
f 304/4/1 295/4/1 294/4/1
f 305/4/1 295/4/1 304/4/1
f 306/4/1 295/4/1 305/4/1
f 307/2/1 296/2/1 278/2/1
f 307/5/1 297/5/1 296/5/1
f 308/1/1 298/1/1 297/1/1
f 308/5/1 297/5/1 307/5/1
f 309/5/1 299/5/1 298/5/1
f 309/1/1 298/1/1 308/1/1
f 310/1/1 301/1/1 300/1/1
f 310/1/1 300/1/1 299/1/1
f 311/5/1 302/5/1 301/5/1
f 311/1/1 301/1/1 310/1/1
f 312/1/1 303/1/1 302/1/1
f 312/5/1 302/5/1 311/5/1
f 313/5/1 286/5/1 303/5/1
f 313/1/1 303/1/1 312/1/1
f 314/5/1 286/5/1 313/5/1
f 315/2/1 307/2/1 278/2/1
f 316/1/1 308/1/1 307/1/1
f 316/2/1 307/2/1 315/2/1
f 317/5/1 309/5/1 308/5/1
f 317/1/1 308/1/1 316/1/1
f 318/1/1 310/1/1 299/1/1
f 318/5/1 309/5/1 317/5/1
f 318/5/1 299/5/1 309/5/1
f 319/5/1 311/5/1 310/5/1
f 319/1/1 310/1/1 318/1/1
f 320/1/1 312/1/1 311/1/1
f 320/5/1 311/5/1 319/5/1
f 321/5/1 313/5/1 312/5/1
f 321/1/1 312/1/1 320/1/1
f 322/1/1 314/1/1 313/1/1
f 322/5/1 313/5/1 321/5/1
f 323/5/1 286/5/1 314/5/1
f 323/1/1 314/1/1 322/1/1
f 324/5/1 286/5/1 323/5/1
f 325/4/1 295/4/1 306/4/1
f 326/4/1 295/4/1 325/4/1
f 332/2/1 328/2/1 327/2/1
f 332/1/1 329/1/1 328/1/1
f 333/1/1 329/1/1 332/1/1
f 334/1/1 329/1/1 333/1/1
f 335/1/1 329/1/1 334/1/1
f 336/4/1 331/4/1 330/4/1
f 337/4/1 331/4/1 336/4/1
f 338/4/1 331/4/1 337/4/1
f 339/2/1 332/2/1 327/2/1
f 340/5/1 333/5/1 332/5/1
f 340/2/1 332/2/1 339/2/1
f 341/1/1 334/1/1 333/1/1
f 341/5/1 333/5/1 340/5/1
f 342/5/1 335/5/1 334/5/1
f 342/1/1 334/1/1 341/1/1
f 343/5/1 335/5/1 342/5/1
f 344/4/1 331/4/1 338/4/1
f 345/4/1 331/4/1 344/4/1
f 348/4/1 347/4/1 346/4/1
f 349/4/1 347/4/1 348/4/1
f 350/4/1 347/4/1 349/4/1
f 351/4/1 347/4/1 350/4/1
f 352/4/1 347/4/1 351/4/1
f 355/5/1 354/5/1 353/5/1
f 356/5/1 354/5/1 355/5/1
f 359/5/1 358/5/1 357/5/1
f 360/5/1 358/5/1 359/5/1
f 363/4/1 362/4/1 361/4/1
f 364/4/1 362/4/1 363/4/1
f 365/4/1 362/4/1 364/4/1
f 366/4/1 362/4/1 365/4/1
f 367/4/1 362/4/1 366/4/1
f 370/4/1 369/4/1 368/4/1
f 371/4/1 369/4/1 370/4/1
f 372/4/1 369/4/1 371/4/1
f 373/4/1 369/4/1 372/4/1
f 374/4/1 369/4/1 373/4/1
f 377/4/1 376/4/1 375/4/1
f 378/4/1 376/4/1 377/4/1
f 379/4/1 376/4/1 378/4/1
f 380/4/1 376/4/1 379/4/1
f 381/4/1 376/4/1 380/4/1
f 384/4/1 383/4/1 382/4/1
f 385/4/1 383/4/1 384/4/1
f 388/4/1 387/4/1 386/4/1
f 389/4/1 387/4/1 388/4/1
f 390/4/1 387/4/1 389/4/1
f 391/4/1 387/4/1 390/4/1
f 404/4/1 393/4/1 392/4/1
f 405/4/1 393/4/1 404/4/1
f 406/4/1 395/4/1 394/4/1
f 407/4/1 395/4/1 406/4/1
f 408/4/1 397/4/1 396/4/1
f 409/4/1 397/4/1 408/4/1
f 410/4/1 399/4/1 398/4/1
f 411/4/1 399/4/1 410/4/1
f 412/4/1 401/4/1 400/4/1
f 413/4/1 401/4/1 412/4/1
f 414/4/1 403/4/1 402/4/1
f 415/4/1 403/4/1 414/4/1
f 417/4/1 413/4/1 412/4/1
f 417/4/1 416/4/1 415/4/1
f 417/4/1 415/4/1 414/4/1
f 417/4/1 414/4/1 413/4/1
f 417/4/1 412/4/1 411/4/1
f 417/4/1 407/4/1 406/4/1
f 417/4/1 410/4/1 409/4/1
f 417/4/1 409/4/1 408/4/1
f 417/4/1 408/4/1 407/4/1
f 417/4/1 411/4/1 410/4/1
f 417/4/1 406/4/1 405/4/1
f 418/4/1 416/4/1 417/4/1
f 419/4/2 420/4/2 431/4/2
f 431/4/2 420/4/2 432/4/2
f 421/4/2 422/4/2 433/4/2
f 433/4/2 422/4/2 434/4/2
f 423/4/2 424/4/2 435/4/2
f 435/4/2 424/4/2 436/4/2
f 425/4/2 426/4/2 437/4/2
f 437/4/2 426/4/2 438/4/2
f 427/4/2 428/4/2 439/4/2
f 439/4/2 428/4/2 440/4/2
f 429/4/2 430/4/2 441/4/2
f 441/4/2 430/4/2 442/4/2
f 439/4/2 440/4/2 444/4/2
f 442/4/2 443/4/2 444/4/2
f 441/4/2 442/4/2 444/4/2
f 440/4/2 441/4/2 444/4/2
f 438/4/2 439/4/2 444/4/2
f 433/4/2 434/4/2 444/4/2
f 436/4/2 437/4/2 444/4/2
f 435/4/2 436/4/2 444/4/2
f 434/4/2 435/4/2 444/4/2
f 437/4/2 438/4/2 444/4/2
f 432/4/2 433/4/2 444/4/2
f 444/4/2 443/4/2 445/4/2
f 446/4/2 447/4/2 448/4/2
f 448/4/2 447/4/2 449/4/2
f 449/4/2 447/4/2 450/4/2
f 450/4/2 447/4/2 451/4/2
f 452/4/2 453/4/2 454/4/2
f 454/4/2 453/4/2 455/4/2
f 456/4/2 457/4/2 458/4/2
f 458/4/2 457/4/2 459/4/2
f 459/4/2 457/4/2 460/4/2
f 460/4/2 457/4/2 461/4/2
f 461/4/2 457/4/2 462/4/2
f 463/4/2 464/4/2 465/4/2
f 465/4/2 464/4/2 466/4/2
f 466/4/2 464/4/2 467/4/2
f 467/4/2 464/4/2 468/4/2
f 468/4/2 464/4/2 469/4/2
f 470/5/2 471/5/2 472/5/2
f 472/5/2 471/5/2 473/5/2
f 474/4/2 475/4/2 476/4/2
f 476/4/2 475/4/2 477/4/2
f 477/4/2 475/4/2 478/4/2
f 478/4/2 475/4/2 479/4/2
f 479/4/2 475/4/2 480/4/2
f 481/5/2 482/5/2 485/5/2
f 485/5/2 482/5/2 486/5/2
f 483/5/2 484/5/2 487/5/2
f 487/5/2 484/5/2 488/5/2
f 489/5/2 490/5/2 493/5/2
f 493/5/2 490/5/2 494/5/2
f 491/5/2 492/5/2 495/5/2
f 495/5/2 492/5/2 496/5/2
f 497/5/2 498/5/2 499/5/2
f 499/5/2 498/5/2 500/5/2
f 501/5/2 502/5/2 503/5/2
f 503/5/2 502/5/2 504/5/2
f 505/5/2 506/5/2 508/5/2
f 508/5/2 506/5/2 509/5/2
f 507/5/2 508/5/2 511/5/2
f 509/5/2 510/5/2 511/5/2
f 508/5/2 509/5/2 511/5/2
f 511/5/2 510/5/2 512/5/2
f 512/5/2 510/5/2 513/5/2
f 513/5/2 510/5/2 514/5/2
f 512/5/2 513/5/2 515/5/2
f 515/5/2 513/5/2 516/5/2
f 517/4/2 518/4/2 519/4/2
f 519/4/2 518/4/2 520/4/2
f 520/4/2 518/4/2 521/4/2
f 521/4/2 518/4/2 522/4/2
f 522/4/2 518/4/2 523/4/2
f 524/2/2 525/2/2 529/2/2
f 525/1/2 526/1/2 529/1/2
f 529/1/2 526/1/2 530/1/2
f 530/1/2 526/1/2 531/1/2
f 531/1/2 526/1/2 532/1/2
f 527/4/2 528/4/2 533/4/2
f 533/4/2 528/4/2 534/4/2
f 534/4/2 528/4/2 535/4/2
f 524/2/2 529/2/2 536/2/2
f 529/5/2 530/5/2 537/5/2
f 536/2/2 529/2/2 537/2/2
f 530/1/2 531/1/2 538/1/2
f 537/5/2 530/5/2 538/5/2
f 531/5/2 532/5/2 539/5/2
f 538/1/2 531/1/2 539/1/2
f 539/5/2 532/5/2 540/5/2
f 535/4/2 528/4/2 541/4/2
f 541/4/2 528/4/2 542/4/2
f 543/2/2 544/2/2 552/2/2
f 544/5/2 545/5/2 552/5/2
f 545/1/2 546/1/2 553/1/2
f 552/5/2 545/5/2 553/5/2
f 546/5/2 547/5/2 554/5/2
f 553/1/2 546/1/2 554/1/2
f 547/1/2 548/1/2 555/1/2
f 554/5/2 547/5/2 555/5/2
f 548/5/2 549/5/2 556/5/2
f 555/1/2 548/1/2 556/1/2
f 549/1/2 550/1/2 557/1/2
f 556/5/2 549/5/2 557/5/2
f 550/5/2 551/5/2 558/5/2
f 557/1/2 550/1/2 558/1/2
f 543/2/2 552/2/2 561/2/2
f 552/1/2 553/1/2 561/1/2
f 553/1/2 554/1/2 561/1/2
f 554/1/2 555/1/2 561/1/2
f 561/1/2 555/1/2 562/1/2
f 562/1/2 555/1/2 563/1/2
f 555/5/2 556/5/2 564/5/2
f 563/1/2 555/1/2 564/1/2
f 556/1/2 557/1/2 565/1/2
f 564/5/2 556/5/2 565/5/2
f 565/1/2 557/1/2 566/1/2
f 557/5/2 558/5/2 567/5/2
f 566/1/2 557/1/2 567/1/2
f 558/5/2 551/5/2 568/5/2
f 567/5/2 558/5/2 568/5/2
f 559/4/2 560/4/2 569/4/2
f 569/4/2 560/4/2 570/4/2
f 570/4/2 560/4/2 571/4/2
f 543/2/2 561/2/2 572/2/2
f 561/5/2 562/5/2 572/5/2
f 562/1/2 563/1/2 573/1/2
f 572/5/2 562/5/2 573/5/2
f 563/5/2 564/5/2 574/5/2
f 573/1/2 563/1/2 574/1/2
f 565/1/2 566/1/2 575/1/2
f 564/1/2 565/1/2 575/1/2
f 566/5/2 567/5/2 576/5/2
f 575/1/2 566/1/2 576/1/2
f 567/1/2 568/1/2 577/1/2
f 576/5/2 567/5/2 577/5/2
f 568/5/2 551/5/2 578/5/2
f 577/1/2 568/1/2 578/1/2
f 578/5/2 551/5/2 579/5/2
f 543/2/2 572/2/2 580/2/2
f 572/1/2 573/1/2 581/1/2
f 580/2/2 572/2/2 581/2/2
f 573/5/2 574/5/2 582/5/2
f 581/1/2 573/1/2 582/1/2
f 564/1/2 575/1/2 583/1/2
f 582/5/2 574/5/2 583/5/2
f 574/5/2 564/5/2 583/5/2
f 575/5/2 576/5/2 584/5/2
f 583/1/2 575/1/2 584/1/2
f 576/1/2 577/1/2 585/1/2
f 584/5/2 576/5/2 585/5/2
f 577/5/2 578/5/2 586/5/2
f 585/1/2 577/1/2 586/1/2
f 578/1/2 579/1/2 587/1/2
f 586/5/2 578/5/2 587/5/2
f 579/5/2 551/5/2 588/5/2
f 587/1/2 579/1/2 588/1/2
f 588/5/2 551/5/2 589/5/2
f 571/4/2 560/4/2 590/4/2
f 590/4/2 560/4/2 591/4/2
f 592/5/2 593/5/2 595/5/2
f 595/5/2 593/5/2 596/5/2
f 594/5/2 595/5/2 597/5/2
f 597/5/2 595/5/2 598/5/2
f 598/5/2 599/5/2 600/5/2
f 600/5/2 599/5/2 601/5/2
f 602/5/2 603/5/2 604/5/2
f 604/5/2 605/5/2 608/5/2
f 606/4/2 607/4/2 610/4/2
f 610/4/2 607/4/2 611/4/2
f 611/4/2 607/4/2 612/4/2
f 608/5/2 609/5/2 613/5/2
f 612/4/2 607/4/2 615/4/2
f 615/4/2 607/4/2 616/4/2
f 602/5/2 604/5/2 617/5/2
f 613/5/2 614/5/2 617/5/2
f 604/5/2 608/5/2 617/5/2
f 608/5/2 613/5/2 617/5/2
f 617/5/2 614/5/2 618/5/2
f 619/4/2 620/4/2 621/4/2
f 621/4/2 620/4/2 622/4/2
f 622/4/2 620/4/2 623/4/2
f 623/4/2 620/4/2 624/4/2
f 624/4/2 620/4/2 625/4/2
f 626/5/2 627/5/2 628/5/2
f 628/5/2 627/5/2 629/5/2
f 629/5/2 627/5/2 630/5/2
f 630/5/2 627/5/2 631/5/2
f 631/5/2 627/5/2 632/5/2
f 629/5/2 630/5/2 633/5/2
f 630/1/2 631/1/2 633/1/2
f 631/5/2 632/5/2 634/5/2
f 633/1/2 631/1/2 634/1/2
f 634/5/2 632/5/2 635/5/2
f 634/5/2 635/5/2 638/5/2
f 629/5/2 633/5/2 638/5/2
f 633/5/2 634/5/2 638/5/2
f 638/5/2 635/5/2 639/5/2
f 639/5/2 635/5/2 640/5/2
f 640/5/2 635/5/2 641/5/2
f 636/4/2 637/4/2 642/4/2
f 642/4/2 637/4/2 643/4/2
f 643/4/2 637/4/2 644/4/2
f 640/1/2 641/1/2 645/1/2
f 639/5/2 640/5/2 645/5/2
f 645/1/2 641/1/2 646/1/2
f 639/5/2 645/5/2 650/5/2
f 645/5/2 646/5/2 650/5/2
f 650/5/2 646/5/2 651/5/2
f 647/1/2 648/1/2 652/1/2
f 651/5/2 646/5/2 652/5/2
f 646/1/2 647/1/2 652/1/2
f 648/5/2 649/5/2 653/5/2
f 652/1/2 648/1/2 653/1/2
f 653/5/2 649/5/2 654/5/2
f 644/4/2 637/4/2 655/4/2
f 655/4/2 637/4/2 656/4/2
f 653/1/2 654/1/2 657/1/2
f 651/5/2 652/5/2 657/5/2
f 652/5/2 653/5/2 657/5/2
f 657/1/2 654/1/2 658/1/2
f 651/5/2 657/5/2 659/5/2
f 657/5/2 658/5/2 659/5/2
f 659/5/2 658/5/2 660/5/2
f 661/5/2 662/5/2 665/5/2
f 662/1/2 663/1/2 666/1/2
f 665/5/2 662/5/2 666/5/2
f 663/5/2 664/5/2 667/5/2
f 666/1/2 663/1/2 667/1/2
f 667/5/2 664/5/2 668/5/2
f 661/5/2 665/5/2 669/5/2
f 665/1/2 666/1/2 670/1/2
f 669/5/2 665/5/2 670/5/2
f 666/5/2 667/5/2 671/5/2
f 670/1/2 666/1/2 671/1/2
f 667/5/2 668/5/2 671/5/2
f 671/5/2 668/5/2 672/5/2
f 669/1/2 670/1/2 673/1/2
f 670/5/2 671/5/2 674/5/2
f 673/1/2 670/1/2 674/1/2
f 671/1/2 672/1/2 675/1/2
f 675/1/2 672/1/2 676/1/2
f 674/5/2 671/5/2 677/5/2
f 673/5/2 674/5/2 677/5/2
f 671/1/2 675/1/2 678/1/2
f 677/5/2 671/5/2 678/5/2
f 675/5/2 676/5/2 679/5/2
f 678/1/2 675/1/2 679/1/2
f 679/5/2 676/5/2 680/5/2
f 673/5/2 677/5/2 683/5/2
f 677/1/2 678/1/2 684/1/2
f 683/5/2 677/5/2 684/5/2
f 679/5/2 680/5/2 685/5/2
f 684/1/2 678/1/2 685/1/2
f 678/5/2 679/5/2 685/5/2
f 685/5/2 680/5/2 686/5/2
f 686/5/2 680/5/2 687/5/2
f 681/5/2 682/5/2 691/5/2
f 691/5/2 682/5/2 692/5/2
f 686/5/2 687/5/2 694/5/2
f 687/1/2 688/1/2 695/1/2
f 694/5/2 687/5/2 695/5/2
f 688/5/2 689/5/2 696/5/2
f 689/1/2 690/1/2 697/1/2
f 696/5/2 689/5/2 697/5/2
f 697/1/2 690/1/2 698/1/2
f 694/1/2 695/1/2 699/1/2
f 695/1/2 688/1/2 700/1/2
f 699/1/2 695/1/2 700/1/2
f 688/5/2 696/5/2 701/5/2
f 697/5/2 698/5/2 702/5/2
f 692/5/2 693/5/2 704/5/2
f 704/5/2 693/5/2 705/5/2
f 699/5/2 700/5/2 706/5/2
f 700/1/2 688/1/2 707/1/2
f 706/5/2 700/5/2 707/5/2
f 701/5/2 702/5/2 708/5/2
f 707/1/2 688/1/2 708/1/2
f 688/5/2 701/5/2 708/5/2
f 703/5/2 704/5/2 709/5/2
f 709/5/2 704/5/2 710/5/2
f 707/5/2 708/5/2 711/5/2
f 702/5/2 698/5/2 712/5/2
f 711/5/2 708/5/2 712/5/2
f 708/5/2 702/5/2 712/5/2
f 713/1/2 714/1/2 716/1/2
f 714/5/2 715/5/2 717/5/2
f 716/1/2 714/1/2 717/1/2
f 717/5/2 715/5/2 718/5/2
f 718/5/2 715/5/2 719/5/2
f 719/5/2 715/5/2 720/5/2
f 720/5/2 715/5/2 721/5/2
f 716/5/2 717/5/2 722/5/2
f 717/5/2 718/5/2 722/5/2
f 722/5/2 718/5/2 723/5/2
f 718/1/2 719/1/2 724/1/2
f 723/5/2 718/5/2 724/5/2
f 719/5/2 720/5/2 725/5/2
f 724/1/2 719/1/2 725/1/2
f 720/1/2 721/1/2 726/1/2
f 725/5/2 720/5/2 726/5/2
f 726/1/2 721/1/2 727/1/2
f 722/1/2 723/1/2 730/1/2
f 726/5/2 727/5/2 731/5/2
f 730/1/2 723/1/2 731/1/2
f 724/5/2 725/5/2 731/5/2
f 725/5/2 726/5/2 731/5/2
f 723/5/2 724/5/2 731/5/2
f 731/5/2 727/5/2 732/5/2
f 732/5/2 727/5/2 733/5/2
f 733/5/2 727/5/2 734/5/2
f 734/5/2 727/5/2 735/5/2
f 728/5/2 729/5/2 736/5/2
f 736/5/2 729/5/2 737/5/2
f 730/5/2 731/5/2 741/5/2
f 731/5/2 732/5/2 741/5/2
f 741/5/2 732/5/2 742/5/2
f 733/5/2 734/5/2 743/5/2
f 728/5/2 736/5/2 745/5/2
f 737/4/2 738/4/2 746/4/2
f 746/4/2 738/4/2 747/4/2
f 739/4/2 740/4/2 748/4/2
f 748/4/2 740/4/2 749/4/2
f 741/1/2 742/1/2 750/1/2
f 742/5/2 732/5/2 751/5/2
f 750/1/2 742/1/2 751/1/2
f 751/5/2 732/5/2 752/5/2
f 743/5/2 744/5/2 753/5/2
f 733/5/2 743/5/2 753/5/2
f 753/5/2 744/5/2 754/5/2
f 754/5/2 744/5/2 755/5/2
f 728/5/2 745/5/2 759/5/2
f 745/5/2 746/5/2 759/5/2
f 759/5/2 746/5/2 760/5/2
f 754/1/2 755/1/2 762/1/2
f 755/5/2 756/5/2 763/5/2
f 762/1/2 755/1/2 763/1/2
f 756/1/2 757/1/2 764/1/2
f 763/5/2 756/5/2 764/5/2
f 757/5/2 758/5/2 765/5/2
f 758/1/2 759/1/2 765/1/2
f 760/5/2 761/5/2 766/5/2
f 765/1/2 759/1/2 766/1/2
f 759/5/2 760/5/2 766/5/2
f 749/4/2 740/4/2 767/4/2
f 767/4/2 740/4/2 768/4/2
f 764/1/2 757/1/2 769/1/2
f 763/1/2 764/1/2 769/1/2
f 757/5/2 765/5/2 770/5/2
f 769/1/2 757/1/2 770/1/2
f 765/5/2 766/5/2 770/5/2
f 770/5/2 766/5/2 771/5/2
f 766/5/2 761/5/2 772/5/2
f 771/5/2 766/5/2 772/5/2
f 772/5/2 761/5/2 773/5/2
f 773/5/2 761/5/2 774/5/2
f 763/1/2 769/1/2 775/1/2
f 762/5/2 763/5/2 775/5/2
f 770/5/2 771/5/2 776/5/2
f 775/1/2 769/1/2 776/1/2
f 769/5/2 770/5/2 776/5/2
f 771/1/2 772/1/2 777/1/2
f 776/5/2 771/5/2 777/5/2
f 772/5/2 773/5/2 778/5/2
f 777/1/2 772/1/2 778/1/2
f 762/5/2 775/5/2 779/5/2
f 776/5/2 777/5/2 779/5/2
f 777/5/2 778/5/2 779/5/2
f 775/5/2 776/5/2 779/5/2
f 779/5/2 778/5/2 780/5/2
f 780/5/2 778/5/2 781/5/2
f 778/5/2 773/5/2 782/5/2
f 781/5/2 778/5/2 782/5/2
f 780/5/2 781/5/2 783/5/2
f 783/5/2 781/5/2 784/5/2
f 785/5/2 786/5/2 787/5/2
f 785/5/2 787/5/2 789/5/2
f 787/5/2 788/5/2 789/5/2
f 789/5/2 788/5/2 790/5/2
f 790/5/2 788/5/2 791/5/2
f 791/5/2 788/5/2 792/5/2
f 792/5/2 788/5/2 793/5/2
f 789/5/2 790/5/2 796/5/2
f 796/5/2 790/5/2 797/5/2
f 791/5/2 792/5/2 798/5/2
f 798/5/2 792/5/2 799/5/2
f 796/5/2 797/5/2 801/5/2
f 799/5/2 800/5/2 801/5/2
f 798/5/2 799/5/2 801/5/2
f 797/5/2 798/5/2 801/5/2
f 801/5/2 800/5/2 802/5/2
f 794/4/2 795/4/2 803/4/2
f 803/4/2 795/4/2 804/4/2
f 805/4/2 806/4/2 807/4/2
f 807/4/2 806/4/2 808/4/2
f 808/4/2 806/4/2 809/4/2
f 809/4/2 806/4/2 810/4/2
f 811/4/2 812/4/2 823/4/2
f 813/4/2 814/4/2 824/4/2
f 824/4/2 814/4/2 825/4/2
f 815/4/2 816/4/2 826/4/2
f 826/4/2 816/4/2 827/4/2
f 817/4/2 818/4/2 828/4/2
f 828/4/2 818/4/2 829/4/2
f 819/4/2 820/4/2 830/4/2
f 830/4/2 820/4/2 831/4/2
f 821/4/2 822/4/2 832/4/2
f 832/4/2 822/4/2 833/4/2
f 830/4/2 831/4/2 835/4/2
f 833/4/2 834/4/2 835/4/2
f 832/4/2 833/4/2 835/4/2
f 831/4/2 832/4/2 835/4/2
f 811/4/2 823/4/2 835/4/2
f 829/4/2 830/4/2 835/4/2
f 824/4/2 825/4/2 835/4/2
f 827/4/2 828/4/2 835/4/2
f 826/4/2 827/4/2 835/4/2
f 825/4/2 826/4/2 835/4/2
f 828/4/2 829/4/2 835/4/2
f 823/4/2 824/4/2 835/4/2
f 835/4/2 834/4/2 836/4/2
f 839/2/3 838/2/3 837/2/3
f 840/2/3 838/2/3 839/2/3
f 841/2/3 839/2/3 837/2/3
f 842/2/3 838/2/3 840/2/3
f 843/2/3 841/2/3 837/2/3
f 843/2/3 842/2/3 841/2/3
f 844/2/3 838/2/3 842/2/3
f 844/2/3 842/2/3 843/2/3
f 848/1/3 846/1/3 845/1/3
f 848/1/3 847/1/3 846/1/3
f 849/1/3 847/1/3 848/1/3
f 850/1/3 847/1/3 849/1/3
f 853/5/3 852/5/3 851/5/3
f 854/5/3 852/5/3 853/5/3
f 855/5/3 853/5/3 851/5/3
f 856/5/3 852/5/3 854/5/3
f 857/5/3 855/5/3 851/5/3
f 857/5/3 856/5/3 855/5/3
f 858/5/3 852/5/3 856/5/3
f 858/5/3 856/5/3 857/5/3
f 862/5/3 860/5/3 859/5/3
f 863/5/3 860/5/3 862/5/3
f 865/5/3 862/5/3 861/5/3
f 866/5/3 862/5/3 865/5/3
f 867/5/3 864/5/3 863/5/3
f 868/5/3 864/5/3 867/5/3
f 869/5/3 867/5/3 866/5/3
f 870/5/3 867/5/3 869/5/3
f 873/5/3 872/5/3 871/5/3
f 874/5/3 872/5/3 873/5/3
f 875/5/3 872/5/3 874/5/3
f 879/5/3 877/5/3 876/5/3
f 879/5/3 878/5/3 877/5/3
f 880/5/3 878/5/3 879/5/3
f 883/5/3 882/5/3 881/5/3
f 884/5/3 882/5/3 883/5/3
f 887/5/3 886/5/3 885/5/3
f 888/5/3 886/5/3 887/5/3
f 891/5/3 890/5/3 889/5/3
f 892/5/3 890/5/3 891/5/3
f 895/5/3 894/5/3 893/5/3
f 896/5/3 894/5/3 895/5/3
f 899/5/3 898/5/3 897/5/3
f 900/5/3 898/5/3 899/5/3
f 901/5/3 898/5/3 900/5/3
f 905/5/3 903/5/3 902/5/3
f 905/5/3 904/5/3 903/5/3
f 906/5/3 904/5/3 905/5/3
f 909/5/3 908/5/3 907/5/3
f 910/5/3 908/5/3 909/5/3
f 913/5/3 912/5/3 911/5/3
f 914/5/3 912/5/3 913/5/3
f 918/5/3 916/5/3 915/5/3
f 919/5/3 916/5/3 918/5/3
f 921/5/3 918/5/3 917/5/3
f 922/5/3 918/5/3 921/5/3
f 923/5/3 920/5/3 919/5/3
f 924/5/3 920/5/3 923/5/3
f 927/5/3 923/5/3 922/5/3
f 928/5/3 923/5/3 927/5/3
f 929/5/3 926/5/3 925/5/3
f 930/5/3 926/5/3 929/5/3
f 933/5/3 932/5/3 931/5/3
f 934/5/3 932/5/3 933/5/3
f 939/5/3 936/5/3 935/5/3
f 940/1/3 937/1/3 936/1/3
f 940/5/3 936/5/3 939/5/3
f 941/5/3 938/5/3 937/5/3
f 941/1/3 937/1/3 940/1/3
f 942/5/3 938/5/3 941/5/3
f 943/5/3 938/5/3 942/5/3
f 948/5/3 945/5/3 944/5/3
f 949/5/3 945/5/3 948/5/3
f 950/5/3 947/5/3 946/5/3
f 951/5/3 947/5/3 950/5/3
f 953/3/3 950/3/3 949/3/3
f 954/3/3 950/3/3 953/3/3
f 956/5/3 953/5/3 952/5/3
f 957/5/3 953/5/3 956/5/3
f 958/5/3 955/5/3 954/5/3
f 959/5/3 955/5/3 958/5/3
f 965/5/3 961/5/3 960/5/3
f 966/1/3 962/1/3 961/1/3
f 966/5/3 961/5/3 965/5/3
f 967/5/3 964/5/3 963/5/3
f 967/1/3 962/1/3 966/1/3
f 967/5/3 963/5/3 962/5/3
f 968/5/3 964/5/3 967/5/3
f 973/5/3 970/5/3 969/5/3
f 974/1/3 971/1/3 970/1/3
f 974/5/3 970/5/3 973/5/3
f 975/5/3 972/5/3 971/5/3
f 975/1/3 971/1/3 974/1/3
f 976/5/3 972/5/3 975/5/3
f 981/5/3 978/5/3 977/5/3
f 982/1/3 979/1/3 978/1/3
f 982/5/3 978/5/3 981/5/3
f 983/5/3 980/5/3 979/5/3
f 983/1/3 979/1/3 982/1/3
f 984/5/3 980/5/3 983/5/3
f 991/1/3 986/1/3 985/1/3
f 992/5/3 987/5/3 986/5/3
f 992/1/3 986/1/3 991/1/3
f 993/1/3 988/1/3 987/1/3
f 993/5/3 987/5/3 992/5/3
f 994/5/3 989/5/3 988/5/3
f 994/1/3 988/1/3 993/1/3
f 995/1/3 990/1/3 989/1/3
f 995/5/3 989/5/3 994/5/3
f 996/1/3 990/1/3 995/1/3
f 1005/5/3 998/5/3 997/5/3
f 1006/5/3 998/5/3 1005/5/3
f 1007/1/3 1000/1/3 999/1/3
f 1008/5/3 1001/5/3 1000/5/3
f 1008/1/3 1000/1/3 1007/1/3
f 1009/1/3 1002/1/3 1001/1/3
f 1009/5/3 1001/5/3 1008/5/3
f 1010/5/3 1003/5/3 1002/5/3
f 1010/1/3 1002/1/3 1009/1/3
f 1011/1/3 1004/1/3 1003/1/3
f 1011/5/3 1003/5/3 1010/5/3
f 1012/1/3 1004/1/3 1011/1/3
f 1015/4/3 1014/4/3 1013/4/3
f 1016/4/3 1014/4/3 1015/4/3
f 1017/4/3 1015/4/3 1013/4/3
f 1018/4/3 1014/4/3 1016/4/3
f 1019/4/3 1017/4/3 1013/4/3
f 1019/4/3 1018/4/3 1017/4/3
f 1020/4/3 1018/4/3 1019/4/3
f 1021/4/3 1014/4/3 1018/4/3
f 1021/4/3 1018/4/3 1020/4/3
f 1022/4/3 1014/4/3 1021/4/3
f 1023/4/3 1014/4/3 1022/4/3
f 1028/4/3 1025/4/3 1024/4/3
f 1029/4/3 1027/4/3 1026/4/3
f 1029/4/3 1028/4/3 1027/4/3
f 1030/4/3 1025/4/3 1028/4/3
f 1030/4/3 1028/4/3 1029/4/3
f 1031/4/3 1029/4/3 1026/4/3
f 1032/4/3 1025/4/3 1030/4/3
f 1033/4/3 1031/4/3 1026/4/3
f 1033/4/3 1032/4/3 1031/4/3
f 1034/4/3 1025/4/3 1032/4/3
f 1034/4/3 1032/4/3 1033/4/3
f 1037/4/3 1036/4/3 1035/4/3
f 1038/4/3 1036/4/3 1037/4/3
f 1039/4/3 1037/4/3 1035/4/3
f 1040/4/3 1037/4/3 1039/4/3
f 1044/1/3 1042/1/3 1041/1/3
f 1045/5/3 1043/5/3 1042/5/3
f 1045/1/3 1042/1/3 1044/1/3
f 1046/5/3 1043/5/3 1045/5/3
f 1052/1/3 1048/1/3 1047/1/3
f 1053/5/3 1049/5/3 1048/5/3
f 1053/1/3 1048/1/3 1052/1/3
f 1054/5/3 1049/5/3 1053/5/3
f 1055/4/3 1051/4/3 1050/4/3
f 1057/4/3 1055/4/3 1050/4/3
f 1057/4/3 1056/4/3 1055/4/3
f 1058/4/3 1056/4/3 1057/4/3
f 1063/5/3 1060/5/3 1059/5/3
f 1064/5/3 1060/5/3 1063/5/3
f 1065/5/3 1060/5/3 1064/5/3
f 1066/5/3 1060/5/3 1065/5/3
f 1067/5/3 1062/5/3 1061/5/3
f 1068/5/3 1062/5/3 1067/5/3
f 1077/5/3 1070/5/3 1069/5/3
f 1078/5/3 1070/5/3 1077/5/3
f 1079/5/3 1072/5/3 1071/5/3
f 1079/5/3 1073/5/3 1072/5/3
f 1079/5/3 1074/5/3 1073/5/3
f 1080/5/3 1074/5/3 1079/5/3
f 1081/5/3 1076/5/3 1075/5/3
f 1082/5/3 1076/5/3 1081/5/3
f 1085/4/3 1084/4/3 1083/4/3
f 1086/4/3 1084/4/3 1085/4/3
f 1087/4/3 1085/4/3 1083/4/3
f 1088/4/3 1085/4/3 1087/4/3
f 1091/4/3 1090/4/3 1089/4/3
f 1093/4/3 1091/4/3 1089/4/3
f 1093/4/3 1092/4/3 1091/4/3
f 1094/4/3 1092/4/3 1093/4/3
f 1097/4/3 1096/4/3 1095/4/3
f 1098/4/3 1096/4/3 1097/4/3
f 1099/4/3 1097/4/3 1095/4/3
f 1100/4/3 1097/4/3 1099/4/3
f 1103/4/3 1102/4/3 1101/4/3
f 1105/4/3 1103/4/3 1101/4/3
f 1105/4/3 1104/4/3 1103/4/3
f 1106/4/3 1104/4/3 1105/4/3
f 1109/4/3 1108/4/3 1107/4/3
f 1110/4/3 1108/4/3 1109/4/3
f 1111/4/3 1109/4/3 1107/4/3
f 1112/4/3 1109/4/3 1111/4/3
f 1115/4/3 1114/4/3 1113/4/3
f 1117/4/3 1115/4/3 1113/4/3
f 1117/4/3 1116/4/3 1115/4/3
f 1118/4/3 1116/4/3 1117/4/3
f 1121/4/3 1120/4/3 1119/4/3
f 1122/4/3 1120/4/3 1121/4/3
f 1123/4/3 1121/4/3 1119/4/3
f 1124/4/3 1121/4/3 1123/4/3
f 1127/4/3 1126/4/3 1125/4/3
f 1129/4/3 1127/4/3 1125/4/3
f 1129/4/3 1128/4/3 1127/4/3
f 1130/4/3 1128/4/3 1129/4/3
f 1134/4/3 1132/4/3 1131/4/3
f 1134/4/3 1133/4/3 1132/4/3
f 1135/4/3 1133/4/3 1134/4/3
f 1137/4/3 1133/4/3 1135/4/3
f 1138/4/3 1137/4/3 1136/4/3
f 1139/4/3 1133/4/3 1137/4/3
f 1139/4/3 1137/4/3 1138/4/3
f 1141/4/3 1133/4/3 1139/4/3
f 1142/4/3 1141/4/3 1140/4/3
f 1143/4/3 1133/4/3 1141/4/3
f 1143/4/3 1141/4/3 1142/4/3
f 1145/4/3 1133/4/3 1143/4/3
f 1146/4/3 1145/4/3 1144/4/3
f 1147/4/3 1133/4/3 1145/4/3
f 1147/4/3 1145/4/3 1146/4/3
f 1149/4/3 1133/4/3 1147/4/3
f 1150/4/3 1149/4/3 1148/4/3
f 1151/4/3 1133/4/3 1149/4/3
f 1151/4/3 1149/4/3 1150/4/3
f 1153/4/3 1133/4/3 1151/4/3
f 1154/4/3 1153/4/3 1152/4/3
f 1155/4/3 1133/4/3 1153/4/3
f 1155/4/3 1153/4/3 1154/4/3
f 1157/4/3 1133/4/3 1155/4/3
f 1158/4/3 1157/4/3 1156/4/3
f 1159/4/3 1133/4/3 1157/4/3
f 1159/4/3 1157/4/3 1158/4/3
f 1161/4/3 1133/4/3 1159/4/3
f 1162/4/3 1161/4/3 1160/4/3
f 1163/4/3 1133/4/3 1161/4/3
f 1163/4/3 1161/4/3 1162/4/3
f 1165/4/3 1133/4/3 1163/4/3
f 1166/4/3 1165/4/3 1164/4/3
f 1167/4/3 1133/4/3 1165/4/3
f 1167/4/3 1165/4/3 1166/4/3
f 1169/4/3 1133/4/3 1167/4/3
f 1170/4/3 1169/4/3 1168/4/3
f 1171/4/3 1133/4/3 1169/4/3
f 1171/4/3 1169/4/3 1170/4/3
f 1173/4/3 1133/4/3 1171/4/3
f 1174/4/3 1173/4/3 1172/4/3
f 1175/4/3 1133/4/3 1173/4/3
f 1175/4/3 1173/4/3 1174/4/3
f 1177/4/3 1133/4/3 1175/4/3
f 1178/4/3 1177/4/3 1176/4/3
f 1179/4/3 1133/4/3 1177/4/3
f 1179/4/3 1177/4/3 1178/4/3
f 1180/4/3 1133/4/3 1179/4/3
f 1181/5/4 1182/5/4 1185/5/4
f 1185/5/4 1182/5/4 1186/5/4
f 1183/5/4 1184/5/4 1187/5/4
f 1187/5/4 1184/5/4 1188/5/4
f 1189/5/4 1190/5/4 1193/5/4
f 1193/5/4 1190/5/4 1194/5/4
f 1191/5/4 1192/5/4 1195/5/4
f 1195/5/4 1192/5/4 1196/5/4
f 1197/5/4 1198/5/4 1200/5/4
f 1200/5/4 1198/5/4 1201/5/4
f 1199/5/4 1200/5/4 1203/5/4
f 1201/5/4 1202/5/4 1203/5/4
f 1200/5/4 1201/5/4 1203/5/4
f 1203/5/4 1202/5/4 1204/5/4
f 1204/5/4 1202/5/4 1205/5/4
f 1205/5/4 1202/5/4 1206/5/4
f 1204/5/4 1205/5/4 1207/5/4
f 1207/5/4 1205/5/4 1208/5/4
f 1209/4/4 1210/4/4 1211/4/4
f 1211/4/4 1210/4/4 1212/4/4
f 1209/4/4 1211/4/4 1214/4/4
f 1212/4/4 1213/4/4 1215/4/4
f 1209/4/4 1214/4/4 1216/4/4
f 1214/4/4 1215/4/4 1216/4/4
f 1216/4/4 1215/4/4 1217/4/4
f 1215/4/4 1213/4/4 1218/4/4
f 1217/4/4 1215/4/4 1218/4/4
f 1218/4/4 1213/4/4 1219/4/4
f 1219/4/4 1213/4/4 1220/4/4
f 1221/4/4 1222/4/4 1225/4/4
f 1223/4/4 1224/4/4 1226/4/4
f 1224/4/4 1225/4/4 1226/4/4
f 1225/4/4 1222/4/4 1227/4/4
f 1226/4/4 1225/4/4 1227/4/4
f 1223/4/4 1226/4/4 1228/4/4
f 1227/4/4 1222/4/4 1229/4/4
f 1229/4/4 1222/4/4 1230/4/4
f 1223/4/4 1228/4/4 1231/4/4
f 1228/4/4 1229/4/4 1231/4/4
f 1231/4/4 1229/4/4 1232/4/4
f 1233/4/4 1234/4/4 1235/4/4
f 1235/4/4 1234/4/4 1236/4/4
f 1233/4/4 1235/4/4 1237/4/4
f 1237/4/4 1235/4/4 1238/4/4
f 1239/4/4 1240/4/4 1241/4/4
f 1239/4/4 1241/4/4 1243/4/4
f 1241/4/4 1242/4/4 1243/4/4
f 1243/4/4 1242/4/4 1244/4/4
f 1245/4/4 1246/4/4 1247/4/4
f 1247/4/4 1246/4/4 1248/4/4
f 1245/4/4 1247/4/4 1249/4/4
f 1249/4/4 1247/4/4 1250/4/4
f 1251/4/4 1252/4/4 1253/4/4
f 1251/4/4 1253/4/4 1255/4/4
f 1253/4/4 1254/4/4 1255/4/4
f 1255/4/4 1254/4/4 1256/4/4
f 1259/5/4 1260/5/4 1261/5/4
f 1261/5/4 1260/5/4 1262/5/4
f 1257/5/4 1258/5/4 1263/5/4
f 1263/5/4 1258/5/4 1264/5/4
f 1265/4/4 1266/4/4 1267/4/4
f 1267/4/4 1266/4/4 1268/4/4
f 1265/4/4 1267/4/4 1270/4/4
f 1270/4/4 1267/4/4 1271/4/4
f 1269/5/4 1270/5/4 1273/5/4
f 1271/5/4 1272/5/4 1273/5/4
f 1270/5/4 1271/5/4 1273/5/4
f 1273/5/4 1272/5/4 1274/5/4
f 1269/5/4 1273/5/4 1275/5/4
f 1269/5/4 1275/5/4 1277/5/4
f 1275/5/4 1276/5/4 1277/5/4
f 1277/5/4 1276/5/4 1278/5/4
f 1278/5/4 1276/5/4 1279/5/4
f 1279/5/4 1276/5/4 1280/5/4
f 1278/4/4 1279/4/4 1281/4/4
f 1278/4/4 1281/4/4 1283/4/4
f 1281/4/4 1282/4/4 1283/4/4
f 1283/4/4 1282/4/4 1284/4/4
f 1285/4/4 1286/4/4 1287/4/4
f 1287/4/4 1286/4/4 1288/4/4
f 1285/4/4 1287/4/4 1290/4/4
f 1290/4/4 1287/4/4 1291/4/4
f 1289/5/4 1290/5/4 1295/5/4
f 1291/5/4 1292/5/4 1296/5/4
f 1296/5/4 1292/5/4 1297/5/4
f 1293/5/4 1294/5/4 1298/5/4
f 1298/5/4 1294/5/4 1299/5/4
f 1289/5/4 1295/5/4 1300/5/4
f 1295/5/4 1296/5/4 1300/5/4
f 1300/5/4 1296/5/4 1301/5/4
f 1299/5/4 1294/5/4 1302/5/4
f 1302/5/4 1294/5/4 1303/5/4
f 1289/5/4 1300/5/4 1304/5/4
f 1302/1/4 1303/1/4 1306/1/4
f 1306/1/4 1303/1/4 1307/1/4
f 1304/5/4 1305/5/4 1308/5/4
f 1289/5/4 1304/5/4 1308/5/4
f 1308/5/4 1305/5/4 1309/5/4
f 1306/5/4 1307/5/4 1310/5/4
f 1310/5/4 1307/5/4 1311/5/4
f 1289/5/4 1308/5/4 1312/5/4
f 1289/5/4 1312/5/4 1314/5/4
f 1312/5/4 1313/5/4 1314/5/4
f 1314/5/4 1313/5/4 1315/5/4
f 1310/1/4 1311/1/4 1316/1/4
f 1316/1/4 1311/1/4 1317/1/4
f 1289/5/4 1314/5/4 1318/5/4
f 1316/5/4 1317/5/4 1320/5/4
f 1320/5/4 1317/5/4 1321/5/4
f 1318/5/4 1319/5/4 1322/5/4
f 1289/5/4 1318/5/4 1322/5/4
f 1322/5/4 1319/5/4 1323/5/4
f 1320/1/4 1321/1/4 1324/1/4
f 1324/1/4 1321/1/4 1325/1/4
f 1289/5/4 1322/5/4 1326/5/4
f 1289/5/4 1326/5/4 1328/5/4
f 1326/5/4 1327/5/4 1328/5/4
f 1328/5/4 1327/5/4 1329/5/4
f 1289/5/4 1328/5/4 1330/5/4
f 1324/5/4 1325/5/4 1332/5/4
f 1332/5/4 1325/5/4 1333/5/4
f 1330/5/4 1331/5/4 1334/5/4
f 1289/5/4 1330/5/4 1334/5/4
f 1334/5/4 1331/5/4 1335/5/4
f 1332/1/4 1333/1/4 1336/1/4
f 1336/1/4 1333/1/4 1337/1/4
f 1289/5/4 1334/5/4 1338/5/4
f 1336/5/4 1337/5/4 1340/5/4
f 1340/5/4 1337/5/4 1341/5/4
f 1338/5/4 1339/5/4 1342/5/4
f 1289/5/4 1338/5/4 1342/5/4
f 1342/5/4 1339/5/4 1343/5/4
f 1289/5/4 1342/5/4 1344/5/4
f 1340/1/4 1341/1/4 1346/1/4
f 1346/1/4 1341/1/4 1347/1/4
f 1344/5/4 1345/5/4 1348/5/4
f 1289/5/4 1344/5/4 1348/5/4
f 1348/5/4 1345/5/4 1349/5/4
f 1346/5/4 1347/5/4 1350/5/4
f 1350/5/4 1347/5/4 1351/5/4
f 1289/5/4 1348/5/4 1352/5/4
f 1350/1/4 1351/1/4 1354/1/4
f 1354/1/4 1351/1/4 1355/1/4
f 1352/5/4 1353/5/4 1356/5/4
f 1289/5/4 1352/5/4 1356/5/4
f 1356/5/4 1353/5/4 1357/5/4
f 1354/5/4 1355/5/4 1360/5/4
f 1289/5/4 1356/5/4 1361/5/4
f 1361/5/4 1356/5/4 1362/5/4
f 1357/5/4 1358/5/4 1363/5/4
f 1363/5/4 1358/5/4 1364/5/4
f 1359/5/4 1360/5/4 1365/5/4
f 1360/5/4 1355/5/4 1366/5/4
f 1365/5/4 1360/5/4 1366/5/4
f 1362/4/4 1363/4/4 1367/4/4
f 1362/4/4 1367/4/4 1369/4/4
f 1367/4/4 1368/4/4 1369/4/4
f 1369/4/4 1368/4/4 1370/4/4
f 1371/5/4 1372/5/4 1374/5/4
f 1374/5/4 1372/5/4 1375/5/4
f 1373/5/4 1374/5/4 1377/5/4
f 1375/5/4 1376/5/4 1378/5/4
f 1378/5/4 1376/5/4 1379/5/4
f 1377/5/4 1374/5/4 1380/5/4
f 1378/1/4 1379/1/4 1381/1/4
f 1381/1/4 1379/1/4 1382/1/4
f 1380/5/4 1374/5/4 1383/5/4
f 1381/5/4 1382/5/4 1384/5/4
f 1384/5/4 1382/5/4 1385/5/4
f 1383/5/4 1374/5/4 1386/5/4
f 1384/1/4 1385/1/4 1387/1/4
f 1386/5/4 1374/5/4 1388/5/4
f 1387/1/4 1385/1/4 1389/1/4
f 1389/1/4 1385/1/4 1390/1/4
f 1388/5/4 1374/5/4 1391/5/4
f 1389/5/4 1390/5/4 1392/5/4
f 1392/5/4 1390/5/4 1393/5/4
f 1391/5/4 1374/5/4 1394/5/4
f 1392/1/4 1393/1/4 1395/1/4
f 1395/1/4 1393/1/4 1396/1/4
f 1394/5/4 1374/5/4 1397/5/4
f 1397/5/4 1374/5/4 1398/5/4
f 1398/5/4 1374/5/4 1399/5/4
f 1395/5/4 1396/5/4 1400/5/4
f 1400/5/4 1396/5/4 1401/5/4
f 1399/5/4 1374/5/4 1402/5/4
f 1400/1/4 1401/1/4 1403/1/4
f 1403/1/4 1401/1/4 1404/1/4
f 1402/5/4 1374/5/4 1405/5/4
f 1403/5/4 1404/5/4 1406/5/4
f 1406/5/4 1404/5/4 1407/5/4
f 1405/5/4 1374/5/4 1408/5/4
f 1406/1/4 1407/1/4 1409/1/4
f 1408/5/4 1374/5/4 1410/5/4
f 1409/1/4 1407/1/4 1411/1/4
f 1411/1/4 1407/1/4 1412/1/4
f 1410/5/4 1374/5/4 1413/5/4
f 1411/5/4 1412/5/4 1414/5/4
f 1414/5/4 1412/5/4 1415/5/4
f 1413/5/4 1374/5/4 1416/5/4
f 1414/1/4 1415/1/4 1417/1/4
f 1417/1/4 1415/1/4 1418/1/4
f 1416/5/4 1374/5/4 1419/5/4
f 1419/5/4 1374/5/4 1420/5/4
f 1417/5/4 1418/5/4 1421/5/4
f 1421/5/4 1418/5/4 1422/5/4
f 1420/5/4 1421/5/4 1423/5/4
f 1423/5/4 1421/5/4 1424/5/4
f 1425/4/4 1426/4/4 1427/4/4
f 1427/4/4 1426/4/4 1428/4/4
f 1428/4/4 1426/4/4 1429/4/4
f 1430/4/4 1431/4/4 1432/4/4
f 1432/4/4 1431/4/4 1433/4/4
f 1434/5/4 1435/5/4 1436/5/4
f 1436/5/4 1435/5/4 1437/5/4
f 1434/5/4 1436/5/4 1438/5/4
f 1436/1/4 1437/1/4 1438/1/4
f 1438/1/4 1437/1/4 1439/1/4
f 1434/5/4 1438/5/4 1440/5/4
f 1438/5/4 1439/5/4 1440/5/4
f 1440/5/4 1439/5/4 1441/5/4
f 1434/5/4 1440/5/4 1442/5/4
f 1440/1/4 1441/1/4 1442/1/4
f 1442/1/4 1441/1/4 1443/1/4
f 1434/5/4 1442/5/4 1444/5/4
f 1442/5/4 1443/5/4 1444/5/4
f 1444/5/4 1443/5/4 1445/5/4
f 1434/5/4 1444/5/4 1446/5/4
f 1444/1/4 1445/1/4 1446/1/4
f 1446/1/4 1445/1/4 1447/1/4
f 1434/5/4 1446/5/4 1448/5/4
f 1446/5/4 1447/5/4 1448/5/4
f 1448/5/4 1447/5/4 1449/5/4
f 1434/5/4 1448/5/4 1450/5/4
f 1448/1/4 1449/1/4 1450/1/4
f 1450/1/4 1449/1/4 1451/1/4
f 1434/5/4 1450/5/4 1452/5/4
f 1450/5/4 1451/5/4 1452/5/4
f 1452/5/4 1451/5/4 1453/5/4
f 1434/5/4 1452/5/4 1454/5/4
f 1452/1/4 1453/1/4 1454/1/4
f 1454/1/4 1453/1/4 1455/1/4
f 1434/5/4 1454/5/4 1456/5/4
f 1454/5/4 1455/5/4 1456/5/4
f 1456/5/4 1455/5/4 1457/5/4
f 1434/5/4 1456/5/4 1458/5/4
f 1456/1/4 1457/1/4 1458/1/4
f 1458/1/4 1457/1/4 1459/1/4
f 1434/5/4 1458/5/4 1460/5/4
f 1458/5/4 1459/5/4 1460/5/4
f 1460/5/4 1459/5/4 1461/5/4
f 1462/4/4 1463/4/4 1464/4/4
f 1464/4/4 1463/4/4 1465/4/4
f 1466/4/4 1467/4/4 1469/4/4
f 1467/4/4 1468/4/4 1469/4/4
f 1469/4/4 1468/4/4 1470/4/4
f 1471/4/4 1472/4/4 1474/4/4
f 1473/4/4 1474/4/4 1475/4/4
f 1474/4/4 1472/4/4 1476/4/4
f 1475/4/4 1474/4/4 1476/4/4
f 1476/4/4 1472/4/4 1478/4/4
f 1477/4/4 1478/4/4 1479/4/4
f 1478/4/4 1472/4/4 1480/4/4
f 1479/4/4 1478/4/4 1480/4/4
f 1480/4/4 1472/4/4 1482/4/4
f 1481/4/4 1482/4/4 1483/4/4
f 1482/4/4 1472/4/4 1484/4/4
f 1483/4/4 1482/4/4 1484/4/4
f 1484/4/4 1472/4/4 1486/4/4
f 1485/4/4 1486/4/4 1487/4/4
f 1486/4/4 1472/4/4 1488/4/4
f 1487/4/4 1486/4/4 1488/4/4
f 1488/4/4 1472/4/4 1490/4/4
f 1489/4/4 1490/4/4 1491/4/4
f 1490/4/4 1472/4/4 1492/4/4
f 1491/4/4 1490/4/4 1492/4/4
f 1492/4/4 1472/4/4 1494/4/4
f 1493/4/4 1494/4/4 1495/4/4
f 1494/4/4 1472/4/4 1496/4/4
f 1495/4/4 1494/4/4 1496/4/4
f 1496/4/4 1472/4/4 1498/4/4
f 1497/4/4 1498/4/4 1499/4/4
f 1498/4/4 1472/4/4 1500/4/4
f 1499/4/4 1498/4/4 1500/4/4
f 1500/4/4 1472/4/4 1502/4/4
f 1501/4/4 1502/4/4 1503/4/4
f 1502/4/4 1472/4/4 1504/4/4
f 1503/4/4 1502/4/4 1504/4/4
f 1504/4/4 1472/4/4 1506/4/4
f 1505/4/4 1506/4/4 1507/4/4
f 1506/4/4 1472/4/4 1508/4/4
f 1507/4/4 1506/4/4 1508/4/4
f 1508/4/4 1472/4/4 1510/4/4
f 1509/4/4 1510/4/4 1511/4/4
f 1510/4/4 1472/4/4 1512/4/4
f 1511/4/4 1510/4/4 1512/4/4
f 1512/4/4 1472/4/4 1514/4/4
f 1513/4/4 1514/4/4 1515/4/4
f 1514/4/4 1472/4/4 1516/4/4
f 1515/4/4 1514/4/4 1516/4/4
f 1516/4/4 1472/4/4 1518/4/4
f 1517/4/4 1518/4/4 1519/4/4
f 1518/4/4 1472/4/4 1520/4/4
f 1519/4/4 1518/4/4 1520/4/4
f 1520/4/4 1472/4/4 1521/4/4
f 1521/4/4 1472/4/4 1522/4/4
f 1529/5/5 1526/5/5 1525/5/5
f 1530/5/5 1524/5/5 1523/5/5
f 1531/5/5 1524/5/5 1530/5/5
f 1532/5/5 1528/5/5 1527/5/5
f 1534/5/5 1529/5/5 1525/5/5
f 1534/5/5 1532/5/5 1531/5/5
f 1534/5/5 1531/5/5 1530/5/5
f 1534/5/5 1530/5/5 1529/5/5
f 1535/5/5 1528/5/5 1532/5/5
f 1535/5/5 1532/5/5 1534/5/5
f 1537/5/5 1534/5/5 1533/5/5
f 1537/5/5 1536/5/5 1535/5/5
f 1537/5/5 1535/5/5 1534/5/5
f 1538/5/5 1536/5/5 1537/5/5
f 1539/5/5 1536/5/5 1538/5/5
f 1540/5/5 1536/5/5 1539/5/5
f 1541/1/5 1538/1/5 1537/1/5
f 1542/5/5 1539/5/5 1538/5/5
f 1542/1/5 1538/1/5 1541/1/5
f 1543/1/5 1540/1/5 1539/1/5
f 1543/5/5 1539/5/5 1542/5/5
f 1544/1/5 1540/1/5 1543/1/5
f 1546/5/5 1542/5/5 1541/5/5
f 1546/5/5 1543/5/5 1542/5/5
f 1546/5/5 1544/5/5 1543/5/5
f 1547/5/5 1544/5/5 1546/5/5
f 1549/1/5 1546/1/5 1545/1/5
f 1550/5/5 1547/5/5 1546/5/5
f 1550/1/5 1546/1/5 1549/1/5
f 1551/1/5 1548/1/5 1547/1/5
f 1551/5/5 1547/5/5 1550/5/5
f 1552/1/5 1548/1/5 1551/1/5
f 1554/5/5 1550/5/5 1549/5/5
f 1554/5/5 1551/5/5 1550/5/5
f 1554/5/5 1552/5/5 1551/5/5
f 1555/5/5 1552/5/5 1554/5/5
f 1557/5/5 1555/5/5 1554/5/5
f 1557/5/5 1556/5/5 1555/5/5
f 1557/5/5 1554/5/5 1553/5/5
f 1558/5/5 1556/5/5 1557/5/5
f 1562/5/5 1560/5/5 1559/5/5
f 1563/5/5 1560/5/5 1562/5/5
f 1565/5/5 1562/5/5 1561/5/5
f 1566/5/5 1564/5/5 1563/5/5
f 1567/5/5 1562/5/5 1565/5/5
f 1568/5/5 1562/5/5 1567/5/5
f 1569/5/5 1566/5/5 1563/5/5
f 1570/5/5 1566/5/5 1569/5/5
f 1573/5/5 1572/5/5 1571/5/5
f 1574/5/5 1572/5/5 1573/5/5
f 1577/2/5 1576/2/5 1575/2/5
f 1578/2/5 1576/2/5 1577/2/5
f 1579/5/5 1578/5/5 1577/5/5
f 1580/5/5 1578/5/5 1579/5/5
f 1581/5/5 1578/5/5 1580/5/5
f 1582/5/5 1578/5/5 1581/5/5
f 1583/1/5 1580/1/5 1579/1/5
f 1584/5/5 1581/5/5 1580/5/5
f 1584/1/5 1580/1/5 1583/1/5
f 1585/1/5 1582/1/5 1581/1/5
f 1585/5/5 1581/5/5 1584/5/5
f 1586/1/5 1582/1/5 1585/1/5
f 1587/5/5 1584/5/5 1583/5/5
f 1587/5/5 1585/5/5 1584/5/5
f 1587/5/5 1586/5/5 1585/5/5
f 1588/5/5 1586/5/5 1587/5/5
f 1589/5/5 1586/5/5 1588/5/5
f 1590/5/5 1586/5/5 1589/5/5
f 1591/1/5 1588/1/5 1587/1/5
f 1592/5/5 1589/5/5 1588/5/5
f 1592/1/5 1588/1/5 1591/1/5
f 1593/1/5 1590/1/5 1589/1/5
f 1593/5/5 1589/5/5 1592/5/5
f 1594/1/5 1590/1/5 1593/1/5
f 1595/5/5 1592/5/5 1591/5/5
f 1595/5/5 1593/5/5 1592/5/5
f 1595/5/5 1594/5/5 1593/5/5
f 1596/5/5 1594/5/5 1595/5/5
f 1597/5/5 1594/5/5 1596/5/5
f 1598/5/5 1594/5/5 1597/5/5
f 1599/1/5 1596/1/5 1595/1/5
f 1600/5/5 1597/5/5 1596/5/5
f 1600/1/5 1596/1/5 1599/1/5
f 1601/1/5 1598/1/5 1597/1/5
f 1601/5/5 1597/5/5 1600/5/5
f 1602/1/5 1598/1/5 1601/1/5
f 1603/5/5 1600/5/5 1599/5/5
f 1603/5/5 1601/5/5 1600/5/5
f 1603/5/5 1602/5/5 1601/5/5
f 1604/5/5 1602/5/5 1603/5/5
f 1607/5/5 1606/5/5 1605/5/5
f 1608/5/5 1606/5/5 1607/5/5
f 1613/4/5 1610/4/5 1609/4/5
f 1614/4/5 1610/4/5 1613/4/5
f 1615/4/5 1612/4/5 1611/4/5
f 1616/4/5 1612/4/5 1615/4/5
f 1621/4/5 1618/4/5 1617/4/5
f 1622/4/5 1618/4/5 1621/4/5
f 1623/4/5 1618/4/5 1622/4/5
f 1624/4/5 1620/4/5 1619/4/5
f 1625/4/5 1620/4/5 1624/4/5
f 1626/4/5 1620/4/5 1625/4/5
f 1631/4/5 1628/4/5 1627/4/5
f 1632/4/5 1628/4/5 1631/4/5
f 1633/4/5 1630/4/5 1629/4/5
f 1634/4/5 1630/4/5 1633/4/5
f 1639/4/5 1636/4/5 1635/4/5
f 1640/4/5 1636/4/5 1639/4/5
f 1641/4/5 1638/4/5 1637/4/5
f 1642/4/5 1638/4/5 1641/4/5
f 1647/4/5 1644/4/5 1643/4/5
f 1648/4/5 1644/4/5 1647/4/5
f 1667/4/5 1646/4/5 1645/4/5
f 1668/4/5 1646/4/5 1667/4/5
f 1670/4/5 1649/4/5 1648/4/5
f 1671/4/5 1667/4/5 1666/4/5
f 1673/4/5 1670/4/5 1669/4/5
f 1674/4/5 1670/4/5 1673/4/5
f 1675/4/5 1670/4/5 1674/4/5
f 1676/4/5 1649/4/5 1670/4/5
f 1676/4/5 1670/4/5 1675/4/5
f 1677/4/5 1672/4/5 1671/4/5
f 1677/4/5 1671/4/5 1666/4/5
f 1678/4/5 1672/4/5 1677/4/5
f 1679/4/5 1672/4/5 1678/4/5
f 1680/4/5 1672/4/5 1679/4/5
f 1681/4/5 1675/4/5 1674/4/5
f 1682/4/5 1675/4/5 1681/4/5
f 1683/4/5 1649/4/5 1676/4/5
f 1684/4/5 1649/4/5 1683/4/5
f 1685/4/5 1651/4/5 1650/4/5
f 1686/4/5 1651/4/5 1685/4/5
f 1687/4/5 1653/4/5 1652/4/5
f 1688/4/5 1653/4/5 1687/4/5
f 1689/4/5 1655/4/5 1654/4/5
f 1690/4/5 1655/4/5 1689/4/5
f 1691/4/5 1657/4/5 1656/4/5
f 1692/4/5 1657/4/5 1691/4/5
f 1693/4/5 1659/4/5 1658/4/5
f 1694/4/5 1659/4/5 1693/4/5
f 1695/4/5 1661/4/5 1660/4/5
f 1696/4/5 1661/4/5 1695/4/5
f 1697/4/5 1663/4/5 1662/4/5
f 1698/4/5 1663/4/5 1697/4/5
f 1699/4/5 1665/4/5 1664/4/5
f 1700/4/5 1665/4/5 1699/4/5
f 1701/4/5 1677/4/5 1666/4/5
f 1702/4/5 1677/4/5 1701/4/5
f 1703/4/5 1679/4/5 1678/4/5
f 1704/4/5 1679/4/5 1703/4/5
f 1723/5/5 1706/5/5 1705/5/5
f 1724/5/5 1706/5/5 1723/5/5
f 1725/5/5 1708/5/5 1707/5/5
f 1726/5/5 1708/5/5 1725/5/5
f 1727/5/5 1710/5/5 1709/5/5
f 1728/5/5 1710/5/5 1727/5/5
f 1729/5/5 1712/5/5 1711/5/5
f 1730/5/5 1712/5/5 1729/5/5
f 1731/5/5 1714/5/5 1713/5/5
f 1732/5/5 1714/5/5 1731/5/5
f 1733/5/5 1716/5/5 1715/5/5
f 1734/5/5 1716/5/5 1733/5/5
f 1735/5/5 1718/5/5 1717/5/5
f 1736/5/5 1718/5/5 1735/5/5
f 1737/5/5 1720/5/5 1719/5/5
f 1738/5/5 1720/5/5 1737/5/5
f 1739/5/5 1722/5/5 1721/5/5
f 1740/5/5 1722/5/5 1739/5/5
f 1743/2/5 1742/2/5 1741/2/5
f 1744/2/5 1742/2/5 1743/2/5
f 1745/5/5 1744/5/5 1743/5/5
f 1746/5/5 1744/5/5 1745/5/5
f 1747/5/5 1746/5/5 1745/5/5
f 1748/5/5 1746/5/5 1747/5/5
f 1749/1/5 1748/1/5 1747/1/5
f 1750/1/5 1748/1/5 1749/1/5
f 1755/5/5 1752/5/5 1751/5/5
f 1756/5/5 1752/5/5 1755/5/5
f 1757/5/5 1754/5/5 1753/5/5
f 1758/5/5 1754/5/5 1757/5/5
f 1759/5/5 1757/5/5 1756/5/5
f 1760/5/5 1757/5/5 1759/5/5
f 1770/4/5 1762/4/5 1761/4/5
f 1771/4/5 1762/4/5 1770/4/5
f 1772/4/5 1764/4/5 1763/4/5
f 1773/4/5 1764/4/5 1772/4/5
f 1774/4/5 1766/4/5 1765/4/5
f 1775/4/5 1766/4/5 1774/4/5
f 1776/4/5 1768/4/5 1767/4/5
f 1777/4/5 1768/4/5 1776/4/5
f 1779/4/5 1770/4/5 1769/4/5
f 1780/4/5 1770/4/5 1779/4/5
f 1781/4/5 1778/4/5 1777/4/5
f 1782/4/5 1778/4/5 1781/4/5
f 1787/4/5 1784/4/5 1783/4/5
f 1788/4/5 1784/4/5 1787/4/5
f 1789/4/5 1786/4/5 1785/4/5
f 1790/4/5 1786/4/5 1789/4/5
f 1795/4/5 1792/4/5 1791/4/5
f 1796/4/5 1792/4/5 1795/4/5
f 1797/4/5 1794/4/5 1793/4/5
f 1798/4/5 1794/4/5 1797/4/5
f 1803/4/5 1800/4/5 1799/4/5
f 1804/4/5 1800/4/5 1803/4/5
f 1805/4/5 1802/4/5 1801/4/5
f 1806/4/5 1802/4/5 1805/4/5
f 1811/4/5 1808/4/5 1807/4/5
f 1812/4/5 1808/4/5 1811/4/5
f 1813/4/5 1810/4/5 1809/4/5
f 1814/4/5 1810/4/5 1813/4/5
f 1819/4/5 1816/4/5 1815/4/5
f 1842/4/5 1818/4/5 1817/4/5
f 1843/4/5 1819/4/5 1815/4/5
f 1844/4/5 1819/4/5 1843/4/5
f 1845/4/5 1821/4/5 1820/4/5
f 1846/4/5 1821/4/5 1845/4/5
f 1847/4/5 1823/4/5 1822/4/5
f 1848/4/5 1823/4/5 1847/4/5
f 1849/4/5 1825/4/5 1824/4/5
f 1850/4/5 1825/4/5 1849/4/5
f 1851/4/5 1827/4/5 1826/4/5
f 1852/4/5 1827/4/5 1851/4/5
f 1853/4/5 1829/4/5 1828/4/5
f 1854/4/5 1829/4/5 1853/4/5
f 1855/4/5 1831/4/5 1830/4/5
f 1856/4/5 1831/4/5 1855/4/5
f 1857/4/5 1833/4/5 1832/4/5
f 1858/4/5 1833/4/5 1857/4/5
f 1859/4/5 1835/4/5 1834/4/5
f 1860/4/5 1835/4/5 1859/4/5
f 1861/4/5 1837/4/5 1836/4/5
f 1862/4/5 1837/4/5 1861/4/5
f 1863/4/5 1839/4/5 1838/4/5
f 1864/4/5 1839/4/5 1863/4/5
f 1865/4/5 1841/4/5 1840/4/5
f 1866/4/5 1841/4/5 1865/4/5
f 1867/4/5 1818/4/5 1842/4/5
f 1868/4/5 1818/4/5 1867/4/5
f 1873/5/5 1870/5/5 1869/5/5
f 1874/5/5 1870/5/5 1873/5/5
f 1875/5/5 1872/5/5 1871/5/5
f 1876/5/5 1872/5/5 1875/5/5
f 1881/5/5 1878/5/5 1877/5/5
f 1882/5/5 1878/5/5 1881/5/5
f 1883/5/5 1880/5/5 1879/5/5
f 1884/5/5 1880/5/5 1883/5/5
f 1887/5/5 1886/5/5 1885/5/5
f 1888/5/5 1886/5/5 1887/5/5
f 1889/5/6 1890/5/6 1893/5/6
f 1893/5/6 1890/5/6 1894/5/6
f 1891/5/6 1892/5/6 1895/5/6
f 1895/5/6 1892/5/6 1896/5/6
f 1897/2/6 1898/2/6 1899/2/6
f 1899/2/6 1898/2/6 1900/2/6
f 1899/5/6 1900/5/6 1901/5/6
f 1901/5/6 1900/5/6 1902/5/6
f 1903/5/6 1904/5/6 1907/5/6
f 1907/5/6 1904/5/6 1908/5/6
f 1905/5/6 1906/5/6 1909/5/6
f 1909/5/6 1906/5/6 1910/5/6
f 1911/4/6 1912/4/6 1915/4/6
f 1915/4/6 1912/4/6 1916/4/6
f 1913/4/6 1914/4/6 1917/4/6
f 1917/4/6 1914/4/6 1918/4/6
f 1919/4/6 1920/4/6 1923/4/6
f 1923/4/6 1920/4/6 1924/4/6
f 1924/4/6 1920/4/6 1925/4/6
f 1921/4/6 1922/4/6 1926/4/6
f 1926/4/6 1922/4/6 1927/4/6
f 1927/4/6 1922/4/6 1928/4/6
f 1929/4/6 1930/4/6 1933/4/6
f 1933/4/6 1930/4/6 1934/4/6
f 1931/4/6 1932/4/6 1935/4/6
f 1935/4/6 1932/4/6 1936/4/6
f 1937/4/6 1938/4/6 1941/4/6
f 1941/4/6 1938/4/6 1942/4/6
f 1939/4/6 1940/4/6 1943/4/6
f 1943/4/6 1940/4/6 1944/4/6
f 1945/4/6 1946/4/6 1949/4/6
f 1949/4/6 1946/4/6 1950/4/6
f 1947/4/6 1948/4/6 1953/4/6
f 1953/4/6 1948/4/6 1954/4/6
f 1950/4/6 1951/4/6 1956/4/6
f 1956/4/6 1951/4/6 1957/4/6
f 1952/4/6 1953/4/6 1974/4/6
f 1974/4/6 1953/4/6 1975/4/6
f 1955/4/6 1956/4/6 1977/4/6
f 1956/4/6 1957/4/6 1977/4/6
f 1977/4/6 1957/4/6 1978/4/6
f 1978/4/6 1957/4/6 1979/4/6
f 1975/4/6 1976/4/6 1980/4/6
f 1974/4/6 1975/4/6 1980/4/6
f 1980/4/6 1976/4/6 1981/4/6
f 1981/4/6 1976/4/6 1982/4/6
f 1977/4/6 1978/4/6 1983/4/6
f 1983/4/6 1978/4/6 1984/4/6
f 1979/4/6 1957/4/6 1985/4/6
f 1985/4/6 1957/4/6 1986/4/6
f 1958/4/6 1959/4/6 1987/4/6
f 1987/4/6 1959/4/6 1988/4/6
f 1960/4/6 1961/4/6 1989/4/6
f 1989/4/6 1961/4/6 1990/4/6
f 1962/4/6 1963/4/6 1991/4/6
f 1991/4/6 1963/4/6 1992/4/6
f 1964/4/6 1965/4/6 1993/4/6
f 1993/4/6 1965/4/6 1994/4/6
f 1966/4/6 1967/4/6 1995/4/6
f 1995/4/6 1967/4/6 1996/4/6
f 1968/4/6 1969/4/6 1997/4/6
f 1997/4/6 1969/4/6 1998/4/6
f 1970/4/6 1971/4/6 1999/4/6
f 1999/4/6 1971/4/6 2000/4/6
f 1972/4/6 1973/4/6 2001/4/6
f 2001/4/6 1973/4/6 2002/4/6
f 1974/4/6 1980/4/6 2003/4/6
f 2003/4/6 1980/4/6 2004/4/6
f 1981/4/6 1982/4/6 2005/4/6
f 2005/4/6 1982/4/6 2006/4/6
f 2007/5/6 2008/5/6 2011/5/6
f 2011/5/6 2008/5/6 2012/5/6
f 2009/5/6 2010/5/6 2013/5/6
f 2013/5/6 2010/5/6 2014/5/6
f 2011/1/6 2012/1/6 2015/1/6
f 2015/1/6 2012/1/6 2016/1/6
f 2013/1/6 2014/1/6 2017/1/6
f 2017/1/6 2014/1/6 2018/1/6
f 2015/5/6 2016/5/6 2019/5/6
f 2019/5/6 2016/5/6 2020/5/6
f 2017/5/6 2018/5/6 2021/5/6
f 2021/5/6 2018/5/6 2022/5/6
f 2023/1/6 2024/1/6 2027/1/6
f 2027/1/6 2024/1/6 2028/1/6
f 2025/1/6 2026/1/6 2029/1/6
f 2029/1/6 2026/1/6 2030/1/6
f 2027/5/6 2028/5/6 2031/5/6
f 2029/5/6 2030/5/6 2032/5/6
f 2031/5/6 2028/5/6 2033/5/6
f 2033/5/6 2028/5/6 2034/5/6
f 2029/5/6 2032/5/6 2035/5/6
f 2035/5/6 2032/5/6 2036/5/6
f 2033/5/6 2034/5/6 2037/5/6
f 2037/5/6 2034/5/6 2038/5/6
f 2035/5/6 2036/5/6 2039/5/6
f 2039/5/6 2036/5/6 2040/5/6
f 2041/5/6 2042/5/6 2045/5/6
f 2043/5/6 2044/5/6 2046/5/6
f 2041/5/6 2045/5/6 2047/5/6
f 2046/5/6 2044/5/6 2048/5/6
f 2041/5/6 2047/5/6 2049/5/6
f 2048/5/6 2044/5/6 2050/5/6
f 2041/5/6 2049/5/6 2051/5/6
f 2051/5/6 2049/5/6 2052/5/6
f 2050/5/6 2044/5/6 2053/5/6
f 2053/5/6 2044/5/6 2054/5/6
f 2055/2/6 2056/2/6 2057/2/6
f 2057/2/6 2056/2/6 2058/2/6
f 2058/2/6 2056/2/6 2059/2/6
f 2059/2/6 2056/2/6 2060/2/6
f 2057/1/6 2058/1/6 2061/1/6
f 2058/5/6 2059/5/6 2062/5/6
f 2061/1/6 2058/1/6 2062/1/6
f 2059/1/6 2060/1/6 2063/1/6
f 2062/5/6 2059/5/6 2063/5/6
f 2063/1/6 2060/1/6 2064/1/6
f 2061/5/6 2062/5/6 2065/5/6
f 2062/5/6 2063/5/6 2065/5/6
f 2063/5/6 2064/5/6 2065/5/6
f 2065/5/6 2064/5/6 2066/5/6
f 2061/5/6 2065/5/6 2067/5/6
f 2065/1/6 2066/1/6 2068/1/6
f 2067/5/6 2065/5/6 2068/5/6
f 2066/5/6 2064/5/6 2069/5/6
f 2068/1/6 2066/1/6 2069/1/6
f 2069/5/6 2064/5/6 2070/5/6
f 2067/1/6 2068/1/6 2071/1/6
f 2068/1/6 2069/1/6 2071/1/6
f 2069/1/6 2070/1/6 2071/1/6
f 2071/1/6 2070/1/6 2072/1/6
f 2071/5/6 2072/5/6 2073/5/6
f 2073/5/6 2072/5/6 2074/5/6
f 2074/5/6 2072/5/6 2075/5/6
f 2075/5/6 2072/5/6 2076/5/6
f 2073/1/6 2074/1/6 2077/1/6
f 2074/5/6 2075/5/6 2078/5/6
f 2077/1/6 2074/1/6 2078/1/6
f 2075/1/6 2076/1/6 2079/1/6
f 2078/5/6 2075/5/6 2079/5/6
f 2079/1/6 2076/1/6 2080/1/6
f 2077/5/6 2078/5/6 2081/5/6
f 2078/5/6 2079/5/6 2081/5/6
f 2079/5/6 2080/5/6 2081/5/6
f 2081/5/6 2080/5/6 2082/5/6
f 2082/5/6 2080/5/6 2083/5/6
f 2083/5/6 2080/5/6 2084/5/6
f 2081/1/6 2082/1/6 2085/1/6
f 2082/5/6 2083/5/6 2086/5/6
f 2085/1/6 2082/1/6 2086/1/6
f 2083/1/6 2084/1/6 2087/1/6
f 2086/5/6 2083/5/6 2087/5/6
f 2087/1/6 2084/1/6 2088/1/6
f 2085/5/6 2086/5/6 2089/5/6
f 2086/5/6 2087/5/6 2089/5/6
f 2087/5/6 2088/5/6 2089/5/6
f 2089/5/6 2088/5/6 2090/5/6
f 2091/5/6 2092/5/6 2095/5/6
f 2095/5/6 2092/5/6 2096/5/6
f 2093/5/6 2094/5/6 2097/5/6
f 2097/5/6 2094/5/6 2098/5/6
f 2099/5/6 2100/5/6 2102/5/6
f 2102/5/6 2100/5/6 2103/5/6
f 2101/5/6 2102/5/6 2105/5/6
f 2103/5/6 2104/5/6 2106/5/6
f 2105/5/6 2102/5/6 2107/5/6
f 2107/5/6 2102/5/6 2108/5/6
f 2103/5/6 2106/5/6 2109/5/6
f 2109/5/6 2106/5/6 2110/5/6
f 2111/4/6 2112/4/6 2115/4/6
f 2115/4/6 2112/4/6 2116/4/6
f 2113/4/6 2114/4/6 2117/4/6
f 2117/4/6 2114/4/6 2118/4/6
f 2119/5/6 2120/5/6 2123/5/6
f 2123/5/6 2120/5/6 2124/5/6
f 2121/5/6 2122/5/6 2139/5/6
f 2139/5/6 2122/5/6 2140/5/6
f 2124/5/6 2125/5/6 2141/5/6
f 2125/5/6 2126/5/6 2141/5/6
f 2126/1/6 2127/1/6 2142/1/6
f 2141/5/6 2126/5/6 2142/5/6
f 2127/5/6 2128/5/6 2143/5/6
f 2142/1/6 2127/1/6 2143/1/6
f 2128/1/6 2129/1/6 2144/1/6
f 2143/5/6 2128/5/6 2144/5/6
f 2129/5/6 2130/5/6 2145/5/6
f 2144/1/6 2129/1/6 2145/1/6
f 2130/1/6 2131/1/6 2146/1/6
f 2145/5/6 2130/5/6 2146/5/6
f 2131/5/6 2132/5/6 2147/5/6
f 2146/1/6 2131/1/6 2147/1/6
f 2132/1/6 2133/1/6 2148/1/6
f 2147/5/6 2132/5/6 2148/5/6
f 2133/5/6 2134/5/6 2149/5/6
f 2148/1/6 2133/1/6 2149/1/6
f 2134/1/6 2135/1/6 2150/1/6
f 2149/5/6 2134/5/6 2150/5/6
f 2135/5/6 2136/5/6 2151/5/6
f 2150/1/6 2135/1/6 2151/1/6
f 2136/1/6 2137/1/6 2152/1/6
f 2151/5/6 2136/5/6 2152/5/6
f 2137/5/6 2138/5/6 2153/5/6
f 2152/1/6 2137/1/6 2153/1/6
f 2138/5/6 2139/5/6 2153/5/6
f 2153/5/6 2139/5/6 2154/5/6
f 2111/4/6 2115/4/6 2155/4/6
f 2118/4/6 2114/4/6 2156/4/6
f 2111/4/6 2155/4/6 2157/4/6
f 2155/4/6 2156/4/6 2157/4/6
f 2156/4/6 2114/4/6 2158/4/6
f 2157/4/6 2156/4/6 2158/4/6
f 2161/5/6 2162/5/6 2165/5/6
f 2165/5/6 2162/5/6 2166/5/6
f 2166/5/6 2162/5/6 2167/5/6
f 2159/5/6 2160/5/6 2168/5/6
f 2168/5/6 2160/5/6 2169/5/6
f 2163/5/6 2164/5/6 2170/5/6
f 2161/5/6 2165/5/6 2171/5/6
f 2171/5/6 2165/5/6 2172/5/6
f 2166/5/6 2167/5/6 2173/5/6
f 2168/5/6 2169/5/6 2173/5/6
f 2169/5/6 2170/5/6 2173/5/6
f 2167/5/6 2168/5/6 2173/5/6
f 2173/5/6 2170/5/6 2174/5/6
f 2161/5/6 2171/5/6 2175/5/6
f 2174/5/6 2170/5/6 2178/5/6
f 2175/5/6 2176/5/6 2179/5/6
f 2177/5/6 2178/5/6 2180/5/6
f 2175/5/6 2179/5/6 2182/5/6
f 2179/5/6 2180/5/6 2182/5/6
f 2161/5/6 2175/5/6 2182/5/6
f 2180/5/6 2178/5/6 2183/5/6
f 2170/5/6 2164/5/6 2183/5/6
f 2182/5/6 2180/5/6 2183/5/6
f 2178/5/6 2170/5/6 2183/5/6
f 2181/5/6 2182/5/6 2185/5/6
f 2183/5/6 2184/5/6 2185/5/6
f 2182/5/6 2183/5/6 2185/5/6
f 2185/5/6 2184/5/6 2186/5/6
f 2187/5/6 2188/5/6 2201/5/6
f 2188/1/6 2189/1/6 2202/1/6
f 2201/5/6 2188/5/6 2202/5/6
f 2189/5/6 2190/5/6 2203/5/6
f 2202/1/6 2189/1/6 2203/1/6
f 2190/1/6 2191/1/6 2204/1/6
f 2203/5/6 2190/5/6 2204/5/6
f 2191/5/6 2192/5/6 2205/5/6
f 2204/1/6 2191/1/6 2205/1/6
f 2192/1/6 2193/1/6 2206/1/6
f 2205/5/6 2192/5/6 2206/5/6
f 2193/5/6 2194/5/6 2207/5/6
f 2206/1/6 2193/1/6 2207/1/6
f 2194/1/6 2195/1/6 2208/1/6
f 2207/5/6 2194/5/6 2208/5/6
f 2195/5/6 2196/5/6 2209/5/6
f 2208/1/6 2195/1/6 2209/1/6
f 2196/1/6 2197/1/6 2210/1/6
f 2209/5/6 2196/5/6 2210/5/6
f 2197/5/6 2198/5/6 2211/5/6
f 2210/1/6 2197/1/6 2211/1/6
f 2198/1/6 2199/1/6 2212/1/6
f 2211/5/6 2198/5/6 2212/5/6
f 2199/5/6 2200/5/6 2213/5/6
f 2212/1/6 2199/1/6 2213/1/6
f 2213/5/6 2200/5/6 2214/5/6
f 2215/5/6 2216/5/6 2217/5/6
f 2217/5/6 2216/5/6 2218/5/6
f 2219/5/6 2220/5/6 2222/5/6
f 2222/5/6 2220/5/6 2223/5/6
f 2221/5/6 2222/5/6 2225/5/6
f 2223/5/6 2224/5/6 2225/5/6
f 2222/5/6 2223/5/6 2225/5/6
f 2225/5/6 2224/5/6 2226/5/6
f 2227/5/6 2228/5/6 2229/5/6
f 2229/5/6 2228/5/6 2230/5/6
f 2230/5/6 2228/5/6 2231/5/6
f 2231/5/6 2228/5/6 2232/5/6
f 2232/5/6 2228/5/6 2233/5/6
f 2233/5/6 2228/5/6 2234/5/6
f 2234/5/6 2228/5/6 2235/5/6
f 2235/5/6 2228/5/6 2236/5/6
f 2236/5/6 2228/5/6 2237/5/6
f 2237/5/6 2228/5/6 2238/5/6
f 2238/5/6 2228/5/6 2239/5/6
f 2239/5/6 2228/5/6 2240/5/6
f 2227/5/6 2229/5/6 2241/5/6
f 2229/1/6 2230/1/6 2242/1/6
f 2241/5/6 2229/5/6 2242/5/6
f 2230/5/6 2231/5/6 2243/5/6
f 2242/1/6 2230/1/6 2243/1/6
f 2231/1/6 2232/1/6 2244/1/6
f 2243/5/6 2231/5/6 2244/5/6
f 2232/5/6 2233/5/6 2245/5/6
f 2244/1/6 2232/1/6 2245/1/6
f 2233/1/6 2234/1/6 2246/1/6
f 2245/5/6 2233/5/6 2246/5/6
f 2234/5/6 2235/5/6 2247/5/6
f 2246/1/6 2234/1/6 2247/1/6
f 2235/1/6 2236/1/6 2248/1/6
f 2247/5/6 2235/5/6 2248/5/6
f 2236/5/6 2237/5/6 2249/5/6
f 2248/1/6 2236/1/6 2249/1/6
f 2237/1/6 2238/1/6 2250/1/6
f 2249/5/6 2237/5/6 2250/5/6
f 2238/5/6 2239/5/6 2251/5/6
f 2250/1/6 2238/1/6 2251/1/6
f 2239/1/6 2240/1/6 2252/1/6
f 2251/5/6 2239/5/6 2252/5/6
f 2240/5/6 2228/5/6 2253/5/6
f 2252/1/6 2240/1/6 2253/1/6
f 2253/5/6 2228/5/6 2254/5/6
f 2255/5/6 2256/5/6 2259/5/6
f 2259/5/6 2256/5/6 2260/5/6
f 2257/5/6 2258/5/6 2261/5/6
f 2261/5/6 2258/5/6 2262/5/6
f 2263/5/6 2264/5/6 2267/5/6
f 2267/5/6 2264/5/6 2268/5/6
f 2265/5/6 2266/5/6 2269/5/6
f 2269/5/6 2266/5/6 2270/5/6
f 2271/5/6 2272/5/6 2273/5/6
f 2273/5/6 2272/5/6 2274/5/6
f 2275/5/6 2276/5/6 2278/5/6
f 2278/5/6 2276/5/6 2279/5/6
f 2277/5/6 2278/5/6 2281/5/6
f 2279/5/6 2280/5/6 2281/5/6
f 2278/5/6 2279/5/6 2281/5/6
f 2281/5/6 2280/5/6 2282/5/6
f 2282/5/6 2280/5/6 2283/5/6
f 2283/5/6 2280/5/6 2284/5/6
f 2282/5/6 2283/5/6 2285/5/6
f 2285/5/6 2283/5/6 2286/5/6
