# MagicaVoxel @ Ephtracy

# group
o 

# material
mtllib shelllev.mtl
usemtl palette

# normals
vn -1 0 0
vn 1 0 0
vn 0 0 1
vn 0 0 -1
vn 0 -1 0
vn 0 1 0

# texcoords
vt 0.0683594 0.5
vt 0.232422 0.5
vt 0.373047 0.5

# verts
v -0.4 0 -0.9
v -0.4 0 -1
v -0.4 0 -1.2
v -0.4 0 -1.3
v -0.4 0 -1.4
v -0.4 0 -1.5
v -0.4 0 -1.7
v -0.4 0 -1.8
v -0.4 0 -1.9
v -0.4 0 -2
v -0.4 0.1 -1.3
v -0.4 0.1 -1.4
v -0.4 0.1 -1.5
v -0.4 0.1 -1.7
v -0.4 0.1 -1.8
v -0.4 0.1 -1.9
v -0.4 0.1 -2
v -0.4 0.2 -1.1
v -0.4 0.2 -1.2
v -0.4 0.2 -1.3
v -0.4 0.2 -1.7
v -0.4 0.2 -1.9
v -0.4 0.2 -2
v -0.4 0.3 -0.9
v -0.4 0.3 -1
v -0.4 0.3 -1.1
v -0.4 0.3 -1.2
v -0.4 0.3 -1.3
v -0.4 0.3 -1.7
v -0.4 0.3 -1.8
v -0.4 0.3 -2
v -0.3 0.1 -0.8
v -0.3 0.1 -0.9
v -0.3 0.2 -0.8
v -0.3 0.2 -0.9
v -0.2 0.1 -0.8
v -0.2 0.1 -0.9
v -0.2 0.2 -0.8
v -0.2 0.2 -0.9
v -0.1 0 -0.9
v -0.1 0 -1
v -0.1 0 -1.2
v -0.1 0 -1.3
v -0.1 0 -1.4
v -0.1 0 -1.7
v -0.1 0 -1.8
v -0.1 0 -2
v -0.1 0.1 -1.3
v -0.1 0.1 -1.4
v -0.1 0.1 -1.5
v -0.1 0.1 -1.7
v -0.1 0.1 -1.9
v -0.1 0.1 -2
v -0.1 0.2 -1.9
v -0.1 0.2 -2
v -0.1 0.3 -0.9
v -0.1 0.3 -1
v -0.1 0.3 -1.2
v -0.1 0.3 -1.3
v -0.1 0.3 -1.5
v -0.1 0.3 -1.7
v -0.1 0.3 -1.8
v -0.1 0.3 -2
v -0.3 0.1 -0.8
v -0.3 0.2 -0.8
v -0.2 0.1 -0.8
v -0.2 0.2 -0.8
v -0.4 0 -0.9
v -0.4 0.3 -0.9
v -0.3 0.1 -0.9
v -0.3 0.2 -0.9
v -0.2 0.1 -0.9
v -0.2 0.2 -0.9
v -0.1 0 -0.9
v -0.1 0.3 -0.9
v -0.4 0 -2
v -0.4 0.1 -2
v -0.4 0.2 -2
v -0.4 0.3 -2
v -0.3 0 -2
v -0.3 0.1 -2
v -0.3 0.2 -2
v -0.3 0.3 -2
v -0.2 0.1 -2
v -0.2 0.2 -2
v -0.1 0 -2
v -0.1 0.1 -2
v -0.1 0.2 -2
v -0.1 0.3 -2
v -0.4 0 -0.9
v -0.1 0 -0.9
v -0.4 0 -1
v -0.1 0 -1
v -0.4 0 -1.2
v -0.1 0 -1.2
v -0.4 0 -1.3
v -0.2 0 -1.3
v -0.1 0 -1.3
v -0.4 0 -1.4
v -0.3 0 -1.4
v -0.2 0 -1.4
v -0.1 0 -1.4
v -0.4 0 -1.5
v -0.3 0 -1.5
v -0.4 0 -1.7
v -0.1 0 -1.7
v -0.4 0 -1.8
v -0.1 0 -1.8
v -0.4 0 -1.9
v -0.3 0 -1.9
v -0.4 0 -2
v -0.3 0 -2
v -0.1 0 -2
v -0.3 0.1 -0.8
v -0.2 0.1 -0.8
v -0.3 0.1 -0.9
v -0.2 0.1 -0.9
v -0.3 0.2 -0.8
v -0.2 0.2 -0.8
v -0.3 0.2 -0.9
v -0.2 0.2 -0.9
v -0.4 0.3 -0.9
v -0.1 0.3 -0.9
v -0.4 0.3 -1
v -0.1 0.3 -1
v -0.4 0.3 -1.1
v -0.3 0.3 -1.1
v -0.4 0.3 -1.2
v -0.3 0.3 -1.2
v -0.1 0.3 -1.2
v -0.4 0.3 -1.3
v -0.1 0.3 -1.3
v -0.2 0.3 -1.5
v -0.1 0.3 -1.5
v -0.4 0.3 -1.7
v -0.2 0.3 -1.7
v -0.1 0.3 -1.7
v -0.4 0.3 -1.8
v -0.3 0.3 -1.8
v -0.1 0.3 -1.8
v -0.4 0.3 -2
v -0.3 0.3 -2
v -0.1 0.3 -2

# faces
f 11/3/1 4/3/1 3/3/1
f 11/2/1 5/2/1 4/2/1
f 12/1/1 6/1/1 5/1/1
f 12/2/1 5/2/1 11/2/1
f 13/2/1 7/2/1 6/2/1
f 13/1/1 6/1/1 12/1/1
f 14/3/1 8/3/1 7/3/1
f 14/2/1 7/2/1 13/2/1
f 15/2/1 9/2/1 8/2/1
f 15/3/1 8/3/1 14/3/1
f 16/1/1 10/1/1 9/1/1
f 16/2/1 9/2/1 15/2/1
f 17/1/1 10/1/1 16/1/1
f 18/2/1 3/2/1 2/2/1
f 19/3/1 11/3/1 3/3/1
f 19/2/1 3/2/1 18/2/1
f 20/1/1 14/1/1 13/1/1
f 20/3/1 11/3/1 19/3/1
f 20/1/1 12/1/1 11/1/1
f 20/1/1 13/1/1 12/1/1
f 21/3/1 15/3/1 14/3/1
f 21/1/1 14/1/1 20/1/1
f 22/2/1 17/2/1 16/2/1
f 22/1/1 16/1/1 15/1/1
f 23/2/1 17/2/1 22/2/1
f 24/1/1 2/1/1 1/1/1
f 25/2/1 18/2/1 2/2/1
f 25/1/1 2/1/1 24/1/1
f 26/1/1 19/1/1 18/1/1
f 26/2/1 18/2/1 25/2/1
f 27/3/1 20/3/1 19/3/1
f 27/1/1 19/1/1 26/1/1
f 28/2/1 21/2/1 20/2/1
f 28/3/1 20/3/1 27/3/1
f 29/3/1 15/3/1 21/3/1
f 29/2/1 21/2/1 28/2/1
f 30/1/1 22/1/1 15/1/1
f 30/3/1 15/3/1 29/3/1
f 30/1/1 23/1/1 22/1/1
f 31/1/1 23/1/1 30/1/1
f 34/3/1 33/3/1 32/3/1
f 35/3/1 33/3/1 34/3/1
f 36/3/2 37/3/2 38/3/2
f 38/3/2 37/3/2 39/3/2
f 42/3/2 43/3/2 48/3/2
f 43/1/2 44/1/2 48/1/2
f 44/2/2 45/2/2 49/2/2
f 48/1/2 44/1/2 49/1/2
f 49/2/2 45/2/2 50/2/2
f 45/3/2 46/3/2 51/3/2
f 50/2/2 45/2/2 51/2/2
f 46/2/2 47/2/2 52/2/2
f 52/2/2 47/2/2 53/2/2
f 46/2/2 52/2/2 54/2/2
f 52/1/2 53/1/2 54/1/2
f 54/1/2 53/1/2 55/1/2
f 40/1/2 41/1/2 56/1/2
f 41/2/2 42/2/2 57/2/2
f 56/1/2 41/1/2 57/1/2
f 42/3/2 48/3/2 58/3/2
f 57/2/2 42/2/2 58/2/2
f 49/2/2 50/2/2 59/2/2
f 58/3/2 48/3/2 59/3/2
f 48/2/2 49/2/2 59/2/2
f 50/1/2 51/1/2 60/1/2
f 59/2/2 50/2/2 60/2/2
f 51/3/2 46/3/2 61/3/2
f 60/1/2 51/1/2 61/1/2
f 54/2/2 55/2/2 62/2/2
f 61/3/2 46/3/2 62/3/2
f 46/2/2 54/2/2 62/2/2
f 62/2/2 55/2/2 63/2/2
f 66/3/3 65/3/3 64/3/3
f 67/3/3 65/3/3 66/3/3
f 70/1/3 69/1/3 68/1/3
f 71/1/3 69/1/3 70/1/3
f 72/1/3 70/1/3 68/1/3
f 73/1/3 69/1/3 71/1/3
f 74/1/3 72/1/3 68/1/3
f 74/1/3 73/1/3 72/1/3
f 75/1/3 69/1/3 73/1/3
f 75/1/3 73/1/3 74/1/3
f 76/1/4 77/1/4 80/1/4
f 77/2/4 78/2/4 81/2/4
f 80/1/4 77/1/4 81/1/4
f 78/1/4 79/1/4 82/1/4
f 81/2/4 78/2/4 82/2/4
f 82/1/4 79/1/4 83/1/4
f 80/2/4 81/2/4 84/2/4
f 81/3/4 82/3/4 84/3/4
f 82/2/4 83/2/4 85/2/4
f 84/3/4 82/3/4 85/3/4
f 80/2/4 84/2/4 86/2/4
f 84/1/4 85/1/4 87/1/4
f 86/2/4 84/2/4 87/2/4
f 85/2/4 83/2/4 88/2/4
f 87/1/4 85/1/4 88/1/4
f 88/2/4 83/2/4 89/2/4
f 92/1/5 91/1/5 90/1/5
f 93/1/5 91/1/5 92/1/5
f 94/2/5 93/2/5 92/2/5
f 95/2/5 93/2/5 94/2/5
f 96/3/5 95/3/5 94/3/5
f 97/3/5 95/3/5 96/3/5
f 98/3/5 95/3/5 97/3/5
f 99/2/5 97/2/5 96/2/5
f 100/2/5 97/2/5 99/2/5
f 101/1/5 98/1/5 97/1/5
f 101/2/5 97/2/5 100/2/5
f 102/1/5 98/1/5 101/1/5
f 103/1/5 100/1/5 99/1/5
f 104/2/5 101/2/5 100/2/5
f 104/1/5 100/1/5 103/1/5
f 104/2/5 102/2/5 101/2/5
f 105/2/5 104/2/5 103/2/5
f 106/2/5 102/2/5 104/2/5
f 106/2/5 104/2/5 105/2/5
f 107/3/5 106/3/5 105/3/5
f 108/3/5 106/3/5 107/3/5
f 109/2/5 108/2/5 107/2/5
f 110/2/5 108/2/5 109/2/5
f 111/1/5 110/1/5 109/1/5
f 112/2/5 108/2/5 110/2/5
f 112/1/5 110/1/5 111/1/5
f 113/2/5 108/2/5 112/2/5
f 116/3/5 115/3/5 114/3/5
f 117/3/5 115/3/5 116/3/5
f 118/3/6 119/3/6 120/3/6
f 120/3/6 119/3/6 121/3/6
f 122/1/6 123/1/6 124/1/6
f 124/1/6 123/1/6 125/1/6
f 124/2/6 125/2/6 126/2/6
f 126/2/6 125/2/6 127/2/6
f 126/1/6 127/1/6 128/1/6
f 127/2/6 125/2/6 129/2/6
f 128/1/6 127/1/6 129/1/6
f 129/2/6 125/2/6 130/2/6
f 128/3/6 129/3/6 131/3/6
f 129/3/6 130/3/6 131/3/6
f 131/3/6 130/3/6 132/3/6
f 131/2/6 132/2/6 133/2/6
f 133/2/6 132/2/6 134/2/6
f 131/2/6 133/2/6 135/2/6
f 133/1/6 134/1/6 136/1/6
f 135/2/6 133/2/6 136/2/6
f 136/1/6 134/1/6 137/1/6
f 135/3/6 136/3/6 138/3/6
f 136/3/6 137/3/6 138/3/6
f 138/3/6 137/3/6 139/3/6
f 139/3/6 137/3/6 140/3/6
f 138/1/6 139/1/6 141/1/6
f 139/2/6 140/2/6 142/2/6
f 141/1/6 139/1/6 142/1/6
f 142/2/6 140/2/6 143/2/6
