# MagicaVoxel @ Ephtracy

# group
o 

# material
mtllib shell.mtl
usemtl palette

# normals
vn -1 0 0
vn 1 0 0
vn 0 0 1
vn 0 0 -1
vn 0 -1 0
vn 0 1 0

# texcoords
vt 0.861328 0.5
vt 0.986328 0.5

# verts
v -0.2 0 -0.8
v -0.2 0 -0.9
v -0.2 0 -1
v -0.2 0 -1.3
v -0.2 0 -1.4
v -0.2 0 -1.5
v -0.2 0.3 -0.8
v -0.2 0.3 -0.9
v -0.2 0.3 -1
v -0.2 0.3 -1.3
v -0.2 0.3 -1.4
v -0.2 0.3 -1.5
v -0.0999999 0.1 -0.4
v -0.0999999 0.1 -0.8
v -0.0999999 0.2 -0.4
v -0.0999999 0.2 -0.8
v 5.96046e-008 0.1 -0.4
v 5.96046e-008 0.1 -0.8
v 5.96046e-008 0.2 -0.4
v 5.96046e-008 0.2 -0.8
v 0.1 0 -0.8
v 0.1 0 -0.9
v 0.1 0 -1
v 0.1 0 -1.3
v 0.1 0 -1.4
v 0.1 0 -1.5
v 0.1 0.3 -0.8
v 0.1 0.3 -0.9
v 0.1 0.3 -1
v 0.1 0.3 -1.3
v 0.1 0.3 -1.4
v 0.1 0.3 -1.5
v -0.0999999 0.1 -0.4
v -0.0999999 0.2 -0.4
v 5.96046e-008 0.1 -0.4
v 5.96046e-008 0.2 -0.4
v -0.2 0 -0.8
v -0.2 0.3 -0.8
v -0.0999999 0.1 -0.8
v -0.0999999 0.2 -0.8
v 5.96046e-008 0.1 -0.8
v 5.96046e-008 0.2 -0.8
v 0.1 0 -0.8
v 0.1 0.3 -0.8
v -0.2 0 -1.5
v -0.2 0.3 -1.5
v -0.0999999 0.1 -1.5
v -0.0999999 0.2 -1.5
v 5.96046e-008 0.1 -1.5
v 5.96046e-008 0.2 -1.5
v 0.1 0 -1.5
v 0.1 0.3 -1.5
v -0.2 0 -0.8
v 0.1 0 -0.8
v -0.2 0 -0.9
v 0.1 0 -0.9
v -0.2 0 -1
v 0.1 0 -1
v -0.2 0 -1.3
v 0.1 0 -1.3
v -0.2 0 -1.4
v 0.1 0 -1.4
v -0.2 0 -1.5
v 0.1 0 -1.5
v -0.0999999 0.1 -0.4
v 5.96046e-008 0.1 -0.4
v -0.0999999 0.1 -0.8
v 5.96046e-008 0.1 -0.8
v -0.0999999 0.2 -0.4
v 5.96046e-008 0.2 -0.4
v -0.0999999 0.2 -0.8
v 5.96046e-008 0.2 -0.8
v -0.2 0.3 -0.8
v 0.1 0.3 -0.8
v -0.2 0.3 -0.9
v 0.1 0.3 -0.9
v -0.2 0.3 -1
v 0.1 0.3 -1
v -0.2 0.3 -1.3
v 0.1 0.3 -1.3
v -0.2 0.3 -1.4
v 0.1 0.3 -1.4
v -0.2 0.3 -1.5
v 0.1 0.3 -1.5

# faces
f 7/2/1 2/2/1 1/2/1
f 8/1/1 3/1/1 2/1/1
f 8/2/1 2/2/1 7/2/1
f 9/2/1 4/2/1 3/2/1
f 9/1/1 3/1/1 8/1/1
f 10/1/1 5/1/1 4/1/1
f 10/2/1 4/2/1 9/2/1
f 11/2/1 6/2/1 5/2/1
f 11/1/1 5/1/1 10/1/1
f 12/2/1 6/2/1 11/2/1
f 15/1/1 14/1/1 13/1/1
f 16/1/1 14/1/1 15/1/1
f 17/1/2 18/1/2 19/1/2
f 19/1/2 18/1/2 20/1/2
f 21/2/2 22/2/2 27/2/2
f 22/1/2 23/1/2 28/1/2
f 27/2/2 22/2/2 28/2/2
f 23/2/2 24/2/2 29/2/2
f 28/1/2 23/1/2 29/1/2
f 24/1/2 25/1/2 30/1/2
f 29/2/2 24/2/2 30/2/2
f 25/2/2 26/2/2 31/2/2
f 30/1/2 25/1/2 31/1/2
f 31/2/2 26/2/2 32/2/2
f 35/1/3 34/1/3 33/1/3
f 36/1/3 34/1/3 35/1/3
f 39/2/3 38/2/3 37/2/3
f 40/2/3 38/2/3 39/2/3
f 41/2/3 39/2/3 37/2/3
f 42/2/3 38/2/3 40/2/3
f 43/2/3 41/2/3 37/2/3
f 43/2/3 42/2/3 41/2/3
f 44/2/3 38/2/3 42/2/3
f 44/2/3 42/2/3 43/2/3
f 45/2/4 46/2/4 47/2/4
f 47/2/4 46/2/4 48/2/4
f 45/2/4 47/2/4 49/2/4
f 47/1/4 48/1/4 49/1/4
f 48/2/4 46/2/4 50/2/4
f 49/1/4 48/1/4 50/1/4
f 45/2/4 49/2/4 51/2/4
f 49/2/4 50/2/4 51/2/4
f 50/2/4 46/2/4 52/2/4
f 51/2/4 50/2/4 52/2/4
f 55/2/5 54/2/5 53/2/5
f 56/2/5 54/2/5 55/2/5
f 57/1/5 56/1/5 55/1/5
f 58/1/5 56/1/5 57/1/5
f 59/2/5 58/2/5 57/2/5
f 60/2/5 58/2/5 59/2/5
f 61/1/5 60/1/5 59/1/5
f 62/1/5 60/1/5 61/1/5
f 63/2/5 62/2/5 61/2/5
f 64/2/5 62/2/5 63/2/5
f 67/1/5 66/1/5 65/1/5
f 68/1/5 66/1/5 67/1/5
f 69/1/6 70/1/6 71/1/6
f 71/1/6 70/1/6 72/1/6
f 73/2/6 74/2/6 75/2/6
f 75/2/6 74/2/6 76/2/6
f 75/1/6 76/1/6 77/1/6
f 77/1/6 76/1/6 78/1/6
f 77/2/6 78/2/6 79/2/6
f 79/2/6 78/2/6 80/2/6
f 79/1/6 80/1/6 81/1/6
f 81/1/6 80/1/6 82/1/6
f 81/2/6 82/2/6 83/2/6
f 83/2/6 82/2/6 84/2/6
