# MagicaVoxel @ Ephtracy

# group
o 

# material
mtllib tower.mtl
usemtl palette

# normals
vn -1 0 0
vn 1 0 0
vn 0 0 1
vn 0 0 -1
vn 0 -1 0
vn 0 1 0

# texcoords
vt 0.0371094 0.5
vt 0.205078 0.5
vt 0.369141 0.5
vt 0.373047 0.5

# verts
v -1.1 0.2 -0.0999999
v -1.1 0.2 -0.2
v -1.1 0.2 -0.5
v -1.1 0.2 -0.6
v -1.1 0.3 -0.0999999
v -1.1 0.3 -0.2
v -1.1 0.4 -0.5
v -1.1 0.4 -0.6
v -1.1 0.5 -0.0999999
v -1.1 0.5 -0.6
v -0.8 0.1 0.1
v -0.8 0.1 5.96046e-008
v -0.8 0.1 -0.2
v -0.8 0.1 -0.4
v -0.8 0.1 -0.7
v -0.8 0.1 -1.2
v -0.8 0.1 -1.3
v -0.8 0.2 0.1
v -0.8 0.2 5.96046e-008
v -0.8 0.2 -0.0999999
v -0.8 0.2 -0.2
v -0.8 0.2 -0.4
v -0.8 0.2 -0.5
v -0.8 0.2 -0.6
v -0.8 0.3 -0.6
v -0.8 0.3 -0.7
v -0.8 0.3 -1.2
v -0.8 0.4 0.1
v -0.8 0.4 -0.0999999
v -0.8 0.4 -0.6
v -0.8 0.4 -1
v -0.8 0.4 -1.1
v -0.8 0.4 -1.3
v -0.8 0.5 -0.0999999
v -0.8 0.5 -0.6
v -0.8 0.5 -1
v -0.8 0.5 -1.1
v -0.8 0.5 -1.3
v -0.8 0.6 0.1
v -0.8 0.6 -0.6
v -0.7 0 0.1
v -0.7 0 -1.3
v -0.7 0.1 0.3
v -0.7 0.1 0.1
v -0.7 0.1 5.96046e-008
v -0.7 0.1 -0.2
v -0.7 0.1 -0.4
v -0.7 0.1 -0.7
v -0.7 0.1 -1.2
v -0.7 0.1 -1.3
v -0.7 0.1 -1.4
v -0.7 0.2 0.2
v -0.7 0.2 0.1
v -0.7 0.3 0.2
v -0.7 0.3 0.1
v -0.7 0.4 0.3
v -0.7 0.4 0.1
v -0.7 0.4 -1.3
v -0.7 0.4 -1.4
v -0.7 0.5 -0.6
v -0.7 0.5 -0.7
v -0.7 0.5 -1.3
v -0.7 0.5 -1.4
v -0.7 0.6 0.3
v -0.7 0.6 0.1
v -0.7 0.6 -0.3
v -0.7 0.6 -0.4
v -0.7 0.6 -0.6
v -0.7 0.7 -0.3
v -0.7 0.7 -0.4
v -0.7 0.7 -0.5
v -0.7 0.7 -0.6
v -0.7 0.7 -0.7
v -0.7 0.8 -0.3
v -0.7 0.8 -0.4
v -0.7 0.8 -0.5
v -0.7 0.8 -0.6
v -0.7 0.8 -0.7
v -0.6 0 0.2
v -0.6 0 0.1
v -0.6 0 -1.3
v -0.6 0 -1.4
v -0.6 0.1 0.2
v -0.6 0.1 0.1
v -0.6 0.1 -1.3
v -0.6 0.1 -1.4
v -0.6 0.1 -1.5
v -0.6 0.2 0.5
v -0.6 0.2 0.4
v -0.6 0.2 0.3
v -0.6 0.3 0.5
v -0.6 0.3 0.4
v -0.6 0.4 0.5
v -0.6 0.4 0.3
v -0.6 0.4 -1.4
v -0.6 0.4 -1.5
v -0.6 0.5 0.5
v -0.6 0.5 0.3
v -0.6 0.5 -0.7
v -0.6 0.5 -0.8
v -0.6 0.5 -1.4
v -0.6 0.5 -1.5
v -0.6 0.6 0.5
v -0.6 0.6 0.3
v -0.6 0.6 -0.2
v -0.6 0.6 -0.3
v -0.6 0.7 -0.3
v -0.6 0.7 -0.7
v -0.6 0.8 -0.2
v -0.6 0.8 -0.3
v -0.6 0.8 -0.7
v -0.6 0.8 -0.8
v -0.5 0.1 -1.5
v -0.5 0.1 -1.6
v -0.5 0.2 0.8
v -0.5 0.2 0.7
v -0.5 0.2 0.5
v -0.5 0.2 -1.5
v -0.5 0.2 -1.6
v -0.5 0.3 0.5
v -0.5 0.3 -1.5
v -0.5 0.3 -1.6
v -0.5 0.4 0.7
v -0.5 0.4 0.5
v -0.5 0.4 -1.5
v -0.5 0.4 -1.6
v -0.5 0.5 0.5
v -0.5 0.5 -1.5
v -0.5 0.5 -1.6
v -0.5 0.6 0.8
v -0.5 0.6 0.5
v -0.5 0.6 -0.8
v -0.5 0.6 -1.2
v -0.5 0.7 -0.8
v -0.5 0.7 -1.2
v -0.4 0.1 0.4
v -0.4 0.1 0.3
v -0.4 0.2 0.4
v -0.4 0.2 0.3
v -0.1 0.2 -1.6
v -0.1 0.2 -1.8
v -0.1 0.2 -1.9
v -0.1 0.2 -2.1
v -0.1 0.2 -2.2
v -0.1 0.2 -2.6
v -0.1 0.2 -2.8
v -0.1 0.2 -3
v -0.1 0.2 -3.2
v -0.1 0.2 -3.7
v -0.1 0.2 -4.2
v -0.1 0.2 -4.6
v -0.1 0.3 -1.6
v -0.1 0.3 -1.8
v -0.1 0.3 -1.9
v -0.1 0.3 -2
v -0.1 0.3 -2.1
v -0.1 0.3 -2.2
v -0.1 0.3 -2.5
v -0.1 0.3 -2.6
v -0.1 0.3 -2.8
v -0.1 0.3 -2.9
v -0.1 0.3 -3
v -0.1 0.3 -3.2
v -0.1 0.4 -1.6
v -0.1 0.4 -1.9
v -0.1 0.4 -2
v -0.1 0.4 -2.5
v -0.1 0.4 -2.6
v -0.1 0.4 -2.8
v -0.1 0.4 -2.9
v -0.1 0.4 -3.7
v -0.1 0.4 -4.2
v -0.1 0.4 -4.6
v -0.4 0.6 -0.8
v -0.4 0.6 -1.2
v -0.4 0.7 -0.8
v -0.4 0.7 -1.2
v -0.3 0.5 -0.7
v -0.3 0.5 -0.8
v -0.3 0.6 -0.2
v -0.3 0.6 -0.3
v -0.3 0.6 -0.7
v -0.3 0.6 -0.8
v -0.3 0.7 -0.7
v -0.3 0.7 -0.8
v -0.3 0.8 -0.2
v -0.3 0.8 -0.3
v -0.3 0.8 -0.7
v -0.3 0.8 -0.8
v -0.2 0.5 -0.6
v -0.2 0.5 -0.7
v -0.2 0.6 -0.3
v -0.2 0.6 -0.6
v -0.2 0.7 -0.4
v -0.2 0.7 -0.5
v -0.2 0.7 -0.6
v -0.2 0.7 -0.7
v -0.2 0.8 -0.3
v -0.2 0.8 -0.4
v -0.2 0.8 -0.5
v -0.2 0.8 -0.7
v 0.1 0.2 -1.6
v 0.1 0.2 -1.8
v 0.1 0.2 -1.9
v 0.1 0.2 -2.1
v 0.1 0.2 -2.2
v 0.1 0.2 -2.6
v 0.1 0.2 -2.8
v 0.1 0.2 -3
v 0.1 0.2 -3.2
v 0.1 0.2 -3.7
v 0.1 0.2 -4.2
v 0.1 0.2 -4.6
v 0.1 0.3 -1.6
v 0.1 0.3 -1.8
v 0.1 0.3 -1.9
v 0.1 0.3 -2
v 0.1 0.3 -2.1
v 0.1 0.3 -2.2
v 0.1 0.3 -2.5
v 0.1 0.3 -2.6
v 0.1 0.3 -2.8
v 0.1 0.3 -2.9
v 0.1 0.3 -3
v 0.1 0.3 -3.2
v 0.1 0.4 -1.6
v 0.1 0.4 -1.9
v 0.1 0.4 -2
v 0.1 0.4 -2.5
v 0.1 0.4 -2.6
v 0.1 0.4 -2.8
v 0.1 0.4 -2.9
v 0.1 0.4 -3.7
v 0.1 0.4 -4.2
v 0.1 0.4 -4.6
v 0.4 0.1 0.4
v 0.4 0.1 0.3
v 0.4 0.2 0.4
v 0.4 0.2 0.3
v 0.5 0.1 -1.5
v 0.5 0.1 -1.6
v 0.5 0.2 0.8
v 0.5 0.2 0.7
v 0.5 0.2 0.5
v 0.5 0.2 -1.5
v 0.5 0.2 -1.6
v 0.5 0.3 0.5
v 0.5 0.3 -1.5
v 0.5 0.3 -1.6
v 0.5 0.4 0.7
v 0.5 0.4 0.5
v 0.5 0.4 -1.5
v 0.5 0.4 -1.6
v 0.5 0.5 0.5
v 0.5 0.5 -1.5
v 0.5 0.5 -1.6
v 0.5 0.6 0.8
v 0.5 0.6 0.5
v 0.6 0 0.2
v 0.6 0 0.1
v 0.6 0 -1.3
v 0.6 0 -1.4
v 0.6 0.1 0.2
v 0.6 0.1 0.1
v 0.6 0.1 -1.3
v 0.6 0.1 -1.4
v 0.6 0.1 -1.5
v 0.6 0.2 0.5
v 0.6 0.2 0.4
v 0.6 0.2 0.3
v 0.6 0.3 0.5
v 0.6 0.3 0.4
v 0.6 0.4 0.5
v 0.6 0.4 0.3
v 0.6 0.4 -1.4
v 0.6 0.4 -1.5
v 0.6 0.5 0.5
v 0.6 0.5 0.3
v 0.6 0.5 -1.4
v 0.6 0.5 -1.5
v 0.6 0.6 0.5
v 0.6 0.6 0.3
v 0.7 0 0.1
v 0.7 0 -1.3
v 0.7 0.1 0.3
v 0.7 0.1 0.1
v 0.7 0.1 5.96046e-008
v 0.7 0.1 -0.2
v 0.7 0.1 -0.4
v 0.7 0.1 -0.7
v 0.7 0.1 -1.2
v 0.7 0.1 -1.3
v 0.7 0.1 -1.4
v 0.7 0.2 0.2
v 0.7 0.2 0.1
v 0.7 0.3 0.2
v 0.7 0.3 0.1
v 0.7 0.4 0.3
v 0.7 0.4 0.1
v 0.7 0.4 -1.3
v 0.7 0.4 -1.4
v 0.7 0.5 -1.3
v 0.7 0.5 -1.4
v 0.7 0.6 0.3
v 0.7 0.6 0.1
v 0.8 0.1 0.1
v 0.8 0.1 5.96046e-008
v 0.8 0.1 -0.2
v 0.8 0.1 -0.4
v 0.8 0.1 -0.7
v 0.8 0.1 -1.2
v 0.8 0.1 -1.3
v 0.8 0.2 0.1
v 0.8 0.2 5.96046e-008
v 0.8 0.2 -0.0999999
v 0.8 0.2 -0.2
v 0.8 0.2 -0.4
v 0.8 0.2 -0.5
v 0.8 0.2 -0.6
v 0.8 0.3 -0.6
v 0.8 0.3 -0.7
v 0.8 0.3 -1.2
v 0.8 0.4 0.1
v 0.8 0.4 -0.0999999
v 0.8 0.4 -0.6
v 0.8 0.4 -1
v 0.8 0.4 -1.1
v 0.8 0.4 -1.3
v 0.8 0.5 -0.0999999
v 0.8 0.5 -0.6
v 0.8 0.5 -1
v 0.8 0.5 -1.1
v 0.8 0.5 -1.3
v 0.8 0.6 0.1
v 0.8 0.6 -0.6
v 1.1 0.2 -0.0999999
v 1.1 0.2 -0.2
v 1.1 0.2 -0.5
v 1.1 0.2 -0.6
v 1.1 0.3 -0.0999999
v 1.1 0.3 -0.2
v 1.1 0.4 -0.5
v 1.1 0.4 -0.6
v 1.1 0.5 -0.0999999
v 1.1 0.5 -0.6
v -0.5 0.2 0.8
v -0.5 0.6 0.8
v -0.3 0.2 0.8
v -0.3 0.4 0.8
v -0.2 0.3 0.8
v -0.2 0.4 0.8
v 0.2 0.3 0.8
v 0.2 0.4 0.8
v 0.3 0.2 0.8
v 0.3 0.4 0.8
v 0.5 0.2 0.8
v 0.5 0.6 0.8
v -0.6 0.2 0.5
v -0.6 0.3 0.5
v -0.6 0.4 0.5
v -0.6 0.5 0.5
v -0.6 0.6 0.5
v -0.5 0.2 0.5
v -0.5 0.3 0.5
v -0.5 0.4 0.5
v -0.5 0.5 0.5
v -0.5 0.6 0.5
v 0.5 0.2 0.5
v 0.5 0.3 0.5
v 0.5 0.4 0.5
v 0.5 0.5 0.5
v 0.5 0.6 0.5
v 0.6 0.2 0.5
v 0.6 0.3 0.5
v 0.6 0.4 0.5
v 0.6 0.5 0.5
v 0.6 0.6 0.5
v -0.4 0.1 0.4
v -0.4 0.2 0.4
v 0.4 0.1 0.4
v 0.4 0.2 0.4
v -0.7 0.1 0.3
v -0.7 0.4 0.3
v -0.7 0.6 0.3
v -0.6 0.2 0.3
v -0.6 0.4 0.3
v -0.6 0.5 0.3
v -0.6 0.6 0.3
v -0.4 0.1 0.3
v -0.4 0.2 0.3
v 0.4 0.1 0.3
v 0.4 0.2 0.3
v 0.6 0.2 0.3
v 0.6 0.4 0.3
v 0.6 0.5 0.3
v 0.6 0.6 0.3
v 0.7 0.1 0.3
v 0.7 0.4 0.3
v 0.7 0.6 0.3
v -0.6 0 0.2
v -0.6 0.1 0.2
v 0.6 0 0.2
v 0.6 0.1 0.2
v -0.8 0.1 0.1
v -0.8 0.2 0.1
v -0.8 0.4 0.1
v -0.8 0.6 0.1
v -0.7 0 0.1
v -0.7 0.1 0.1
v -0.7 0.2 0.1
v -0.7 0.3 0.1
v -0.7 0.4 0.1
v -0.7 0.6 0.1
v -0.6 0 0.1
v -0.6 0.1 0.1
v 0.6 0 0.1
v 0.6 0.1 0.1
v 0.7 0 0.1
v 0.7 0.1 0.1
v 0.7 0.2 0.1
v 0.7 0.3 0.1
v 0.7 0.4 0.1
v 0.7 0.6 0.1
v 0.8 0.1 0.1
v 0.8 0.2 0.1
v 0.8 0.4 0.1
v 0.8 0.6 0.1
v -1.1 0.2 -0.0999999
v -1.1 0.3 -0.0999999
v -1.1 0.5 -0.0999999
v -1 0.2 -0.0999999
v -1 0.3 -0.0999999
v -0.8 0.2 -0.0999999
v -0.8 0.4 -0.0999999
v -0.8 0.5 -0.0999999
v 0.8 0.2 -0.0999999
v 0.8 0.4 -0.0999999
v 0.8 0.5 -0.0999999
v 1 0.2 -0.0999999
v 1 0.3 -0.0999999
v 1.1 0.2 -0.0999999
v 1.1 0.3 -0.0999999
v 1.1 0.5 -0.0999999
v -0.6 0.6 -0.2
v -0.6 0.8 -0.2
v -0.3 0.6 -0.2
v -0.3 0.8 -0.2
v -0.7 0.6 -0.3
v -0.7 0.7 -0.3
v -0.7 0.8 -0.3
v -0.6 0.6 -0.3
v -0.6 0.7 -0.3
v -0.6 0.8 -0.3
v -0.3 0.6 -0.3
v -0.3 0.8 -0.3
v -0.2 0.6 -0.3
v -0.2 0.8 -0.3
v -1.1 0.2 -0.6
v -1.1 0.4 -0.6
v -1.1 0.5 -0.6
v -1 0.2 -0.6
v -1 0.4 -0.6
v -0.9 0.2 -0.6
v -0.9 0.3 -0.6
v -0.8 0.2 -0.6
v -0.8 0.3 -0.6
v -0.8 0.4 -0.6
v -0.8 0.5 -0.6
v -0.8 0.6 -0.6
v -0.7 0.5 -0.6
v -0.7 0.6 -0.6
v -0.2 0.5 -0.6
v -0.2 0.6 -0.6
v 0.2 0.5 -0.6
v 0.2 0.6 -0.6
v 0.3 0.5 -0.6
v 0.3 0.6 -0.6
v 0.8 0.2 -0.6
v 0.8 0.3 -0.6
v 0.8 0.4 -0.6
v 0.8 0.5 -0.6
v 0.8 0.6 -0.6
v 0.9 0.2 -0.6
v 0.9 0.3 -0.6
v 1 0.2 -0.6
v 1 0.4 -0.6
v 1.1 0.2 -0.6
v 1.1 0.4 -0.6
v 1.1 0.5 -0.6
v -0.7 0.5 -0.7
v -0.7 0.7 -0.7
v -0.7 0.8 -0.7
v -0.6 0.5 -0.7
v -0.6 0.7 -0.7
v -0.6 0.8 -0.7
v -0.3 0.5 -0.7
v -0.3 0.6 -0.7
v -0.3 0.7 -0.7
v -0.3 0.8 -0.7
v -0.2 0.5 -0.7
v -0.2 0.7 -0.7
v -0.2 0.8 -0.7
v -0.6 0.5 -0.8
v -0.6 0.8 -0.8
v -0.5 0.6 -0.8
v -0.5 0.7 -0.8
v -0.4 0.6 -0.8
v -0.4 0.7 -0.8
v -0.3 0.5 -0.8
v -0.3 0.6 -0.8
v -0.3 0.7 -0.8
v -0.3 0.8 -0.8
v -0.5 0.6 -1.2
v -0.5 0.7 -1.2
v -0.4 0.6 -1.2
v -0.4 0.7 -1.2
v -0.8 0.1 -1.3
v -0.8 0.4 -1.3
v -0.8 0.5 -1.3
v -0.7 0 -1.3
v -0.7 0.1 -1.3
v -0.7 0.4 -1.3
v -0.7 0.5 -1.3
v -0.6 0 -1.3
v -0.6 0.1 -1.3
v 0.6 0 -1.3
v 0.6 0.1 -1.3
v 0.7 0 -1.3
v 0.7 0.1 -1.3
v 0.7 0.4 -1.3
v 0.7 0.5 -1.3
v 0.8 0.1 -1.3
v 0.8 0.4 -1.3
v 0.8 0.5 -1.3
v -0.7 0.1 -1.4
v -0.7 0.4 -1.4
v -0.7 0.5 -1.4
v -0.6 0 -1.4
v -0.6 0.1 -1.4
v -0.6 0.4 -1.4
v -0.6 0.5 -1.4
v 0.6 0 -1.4
v 0.6 0.1 -1.4
v 0.6 0.4 -1.4
v 0.6 0.5 -1.4
v 0.7 0.1 -1.4
v 0.7 0.4 -1.4
v 0.7 0.5 -1.4
v -0.6 0.1 -1.5
v -0.6 0.4 -1.5
v -0.6 0.5 -1.5
v -0.5 0.1 -1.5
v -0.5 0.2 -1.5
v -0.5 0.3 -1.5
v -0.5 0.4 -1.5
v -0.5 0.5 -1.5
v 0.5 0.1 -1.5
v 0.5 0.2 -1.5
v 0.5 0.3 -1.5
v 0.5 0.4 -1.5
v 0.5 0.5 -1.5
v 0.6 0.1 -1.5
v 0.6 0.4 -1.5
v 0.6 0.5 -1.5
v -0.5 0.1 -1.6
v -0.5 0.2 -1.6
v -0.5 0.3 -1.6
v -0.5 0.4 -1.6
v -0.5 0.5 -1.6
v -0.4 0.2 -1.6
v -0.4 0.3 -1.6
v -0.3 0.1 -1.6
v -0.3 0.2 -1.6
v -0.2 0.2 -1.6
v -0.2 0.3 -1.6
v -0.1 0.1 -1.6
v -0.1 0.2 -1.6
v -0.1 0.3 -1.6
v -0.1 0.4 -1.6
v 0.1 0.1 -1.6
v 0.1 0.2 -1.6
v 0.1 0.3 -1.6
v 0.1 0.4 -1.6
v 0.2 0.2 -1.6
v 0.2 0.3 -1.6
v 0.3 0.1 -1.6
v 0.3 0.2 -1.6
v 0.4 0.2 -1.6
v 0.4 0.3 -1.6
v 0.5 0.1 -1.6
v 0.5 0.2 -1.6
v 0.5 0.3 -1.6
v 0.5 0.4 -1.6
v 0.5 0.5 -1.6
v -0.1 0.2 -4.6
v -0.1 0.4 -4.6
v 0.1 0.2 -4.6
v 0.1 0.4 -4.6
v -0.6 0 0.2
v 0.6 0 0.2
v -0.7 0 0.1
v -0.6 0 0.1
v 0.6 0 0.1
v 0.7 0 0.1
v -0.7 0 -1.3
v -0.6 0 -1.3
v 0.6 0 -1.3
v 0.7 0 -1.3
v -0.6 0 -1.4
v 0.6 0 -1.4
v -0.4 0.1 0.4
v 0.4 0.1 0.4
v -0.7 0.1 0.3
v -0.4 0.1 0.3
v 0.4 0.1 0.3
v 0.7 0.1 0.3
v -0.6 0.1 0.2
v 0.6 0.1 0.2
v -0.8 0.1 0.1
v -0.7 0.1 0.1
v -0.6 0.1 0.1
v 0.6 0.1 0.1
v 0.7 0.1 0.1
v 0.8 0.1 0.1
v -0.8 0.1 5.96046e-008
v -0.7 0.1 5.96046e-008
v 0.7 0.1 5.96046e-008
v 0.8 0.1 5.96046e-008
v -0.8 0.1 -0.2
v -0.7 0.1 -0.2
v 0.7 0.1 -0.2
v 0.8 0.1 -0.2
v -0.8 0.1 -0.4
v -0.7 0.1 -0.4
v 0.7 0.1 -0.4
v 0.8 0.1 -0.4
v -0.8 0.1 -0.7
v -0.7 0.1 -0.7
v 0.7 0.1 -0.7
v 0.8 0.1 -0.7
v -0.8 0.1 -1.2
v -0.7 0.1 -1.2
v 0.7 0.1 -1.2
v 0.8 0.1 -1.2
v -0.8 0.1 -1.3
v -0.7 0.1 -1.3
v -0.6 0.1 -1.3
v 0.6 0.1 -1.3
v 0.7 0.1 -1.3
v 0.8 0.1 -1.3
v -0.7 0.1 -1.4
v -0.6 0.1 -1.4
v 0.6 0.1 -1.4
v 0.7 0.1 -1.4
v -0.6 0.1 -1.5
v -0.5 0.1 -1.5
v -0.3 0.1 -1.5
v -0.1 0.1 -1.5
v 0.1 0.1 -1.5
v 0.3 0.1 -1.5
v 0.5 0.1 -1.5
v 0.6 0.1 -1.5
v -0.5 0.1 -1.6
v -0.3 0.1 -1.6
v -0.1 0.1 -1.6
v 0.1 0.1 -1.6
v 0.3 0.1 -1.6
v 0.5 0.1 -1.6
v -0.5 0.2 0.8
v -0.3 0.2 0.8
v 0.3 0.2 0.8
v 0.5 0.2 0.8
v -0.5 0.2 0.7
v -0.3 0.2 0.7
v 0.3 0.2 0.7
v 0.5 0.2 0.7
v -0.6 0.2 0.5
v -0.5 0.2 0.5
v 0.5 0.2 0.5
v 0.6 0.2 0.5
v -0.6 0.2 0.4
v -0.5 0.2 0.4
v -0.4 0.2 0.4
v 0.4 0.2 0.4
v 0.5 0.2 0.4
v 0.6 0.2 0.4
v -0.6 0.2 0.3
v -0.4 0.2 0.3
v 0.4 0.2 0.3
v 0.6 0.2 0.3
v -1.1 0.2 -0.0999999
v -1 0.2 -0.0999999
v -0.8 0.2 -0.0999999
v 0.8 0.2 -0.0999999
v 1 0.2 -0.0999999
v 1.1 0.2 -0.0999999
v -1.1 0.2 -0.2
v -1 0.2 -0.2
v -0.8 0.2 -0.2
v 0.8 0.2 -0.2
v 1 0.2 -0.2
v 1.1 0.2 -0.2
v -0.8 0.2 -0.4
v 0.8 0.2 -0.4
v -1.1 0.2 -0.5
v -1 0.2 -0.5
v -0.9 0.2 -0.5
v -0.8 0.2 -0.5
v 0.8 0.2 -0.5
v 0.9 0.2 -0.5
v 1 0.2 -0.5
v 1.1 0.2 -0.5
v -1.1 0.2 -0.6
v -1 0.2 -0.6
v -0.9 0.2 -0.6
v -0.8 0.2 -0.6
v 0.8 0.2 -0.6
v 0.9 0.2 -0.6
v 1 0.2 -0.6
v 1.1 0.2 -0.6
v -0.1 0.2 -1.6
v 0.1 0.2 -1.6
v -0.1 0.2 -1.8
v 0.1 0.2 -1.8
v -0.1 0.2 -1.9
v 0.1 0.2 -1.9
v -0.1 0.2 -2.1
v 0.1 0.2 -2.1
v -0.1 0.2 -2.2
v 0.1 0.2 -2.2
v -0.1 0.2 -2.6
v 0.1 0.2 -2.6
v -0.1 0.2 -2.8
v 0.1 0.2 -2.8
v -0.1 0.2 -3
v 0.1 0.2 -3
v -0.1 0.2 -3.2
v 0.1 0.2 -3.2
v -0.1 0.2 -3.7
v 0.1 0.2 -3.7
v -0.1 0.2 -4.2
v 0.1 0.2 -4.2
v -0.1 0.2 -4.6
v 0.1 0.2 -4.6
v -0.5 0.6 -0.8
v -0.4 0.6 -0.8
v -0.5 0.6 -1.2
v -0.4 0.6 -1.2
v -0.1 0.4 -1.6
v 0.1 0.4 -1.6
v -0.1 0.4 -1.9
v 0.1 0.4 -1.9
v -0.1 0.4 -2
v 0.1 0.4 -2
v -0.1 0.4 -2.5
v 0.1 0.4 -2.5
v -0.1 0.4 -2.6
v 0.1 0.4 -2.6
v -0.1 0.4 -2.8
v 0.1 0.4 -2.8
v -0.1 0.4 -2.9
v 0.1 0.4 -2.9
v -0.1 0.4 -3.7
v 0.1 0.4 -3.7
v -0.1 0.4 -4.2
v 0.1 0.4 -4.2
v -0.1 0.4 -4.6
v 0.1 0.4 -4.6
v -1.1 0.5 -0.0999999
v -0.8 0.5 -0.0999999
v 0.8 0.5 -0.0999999
v 1.1 0.5 -0.0999999
v -1.1 0.5 -0.6
v -0.8 0.5 -0.6
v -0.7 0.5 -0.6
v -0.2 0.5 -0.6
v 0.2 0.5 -0.6
v 0.3 0.5 -0.6
v 0.8 0.5 -0.6
v 1.1 0.5 -0.6
v -0.7 0.5 -0.7
v -0.6 0.5 -0.7
v -0.3 0.5 -0.7
v -0.2 0.5 -0.7
v -0.1 0.5 -0.7
v 0.1 0.5 -0.7
v 0.2 0.5 -0.7
v -0.6 0.5 -0.8
v -0.3 0.5 -0.8
v -0.2 0.5 -0.9
v -0.1 0.5 -0.9
v 0.1 0.5 -0.9
v 0.2 0.5 -0.9
v -0.8 0.5 -1
v -0.6 0.5 -1
v 0.6 0.5 -1
v 0.8 0.5 -1
v -0.8 0.5 -1.1
v -0.7 0.5 -1.1
v -0.6 0.5 -1.1
v -0.5 0.5 -1.1
v -0.3 0.5 -1.1
v -0.2 0.5 -1.1
v 0.2 0.5 -1.1
v 0.3 0.5 -1.1
v 0.5 0.5 -1.1
v 0.6 0.5 -1.1
v 0.7 0.5 -1.1
v 0.8 0.5 -1.1
v -0.3 0.5 -1.2
v -0.2 0.5 -1.2
v 0.2 0.5 -1.2
v 0.3 0.5 -1.2
v -0.8 0.5 -1.3
v -0.7 0.5 -1.3
v -0.5 0.5 -1.3
v 0.5 0.5 -1.3
v 0.7 0.5 -1.3
v 0.8 0.5 -1.3
v -0.7 0.5 -1.4
v -0.6 0.5 -1.4
v -0.3 0.5 -1.4
v -0.1 0.5 -1.4
v 0.1 0.5 -1.4
v 0.3 0.5 -1.4
v 0.6 0.5 -1.4
v 0.7 0.5 -1.4
v -0.6 0.5 -1.5
v -0.5 0.5 -1.5
v -0.3 0.5 -1.5
v -0.1 0.5 -1.5
v 0.1 0.5 -1.5
v 0.3 0.5 -1.5
v 0.5 0.5 -1.5
v 0.6 0.5 -1.5
v -0.5 0.5 -1.6
v 0.5 0.5 -1.6
v -0.5 0.6 0.8
v 0.5 0.6 0.8
v -0.6 0.6 0.5
v -0.5 0.6 0.5
v -0.3 0.6 0.5
v 0.3 0.6 0.5
v 0.5 0.6 0.5
v 0.6 0.6 0.5
v -0.1 0.6 0.4
v 0.1 0.6 0.4
v -0.7 0.6 0.3
v -0.6 0.6 0.3
v -0.3 0.6 0.3
v 0.3 0.6 0.3
v 0.6 0.6 0.3
v 0.7 0.6 0.3
v -0.1 0.6 0.2
v 0.1 0.6 0.2
v -0.8 0.6 0.1
v -0.7 0.6 0.1
v 0.7 0.6 0.1
v 0.8 0.6 0.1
v -0.6 0.6 -0.2
v -0.3 0.6 -0.2
v -0.7 0.6 -0.3
v -0.6 0.6 -0.3
v -0.3 0.6 -0.3
v -0.2 0.6 -0.3
v -0.7 0.6 -0.4
v 0.2 0.6 -0.4
v 0.3 0.6 -0.4
v -0.8 0.6 -0.6
v -0.7 0.6 -0.6
v -0.2 0.6 -0.6
v 0.2 0.6 -0.6
v 0.3 0.6 -0.6
v 0.8 0.6 -0.6
v -0.5 0.7 -0.8
v -0.4 0.7 -0.8
v -0.5 0.7 -1.2
v -0.4 0.7 -1.2
v -0.6 0.8 -0.2
v -0.3 0.8 -0.2
v -0.7 0.8 -0.3
v -0.6 0.8 -0.3
v -0.3 0.8 -0.3
v -0.2 0.8 -0.3
v -0.7 0.8 -0.4
v -0.6 0.8 -0.4
v -0.5 0.8 -0.4
v -0.4 0.8 -0.4
v -0.3 0.8 -0.4
v -0.2 0.8 -0.4
v -0.7 0.8 -0.5
v -0.6 0.8 -0.5
v -0.5 0.8 -0.5
v -0.4 0.8 -0.5
v -0.3 0.8 -0.5
v -0.2 0.8 -0.5
v -0.7 0.8 -0.6
v -0.6 0.8 -0.6
v -0.7 0.8 -0.7
v -0.6 0.8 -0.7
v -0.3 0.8 -0.7
v -0.2 0.8 -0.7
v -0.6 0.8 -0.8
v -0.3 0.8 -0.8

# faces
f 5/1/1 2/1/1 1/1/1
f 6/3/1 3/3/1 2/3/1
f 6/1/1 2/1/1 5/1/1
f 7/1/1 4/1/1 3/1/1
f 7/3/1 3/3/1 6/3/1
f 7/3/1 6/3/1 5/3/1
f 8/1/1 4/1/1 7/1/1
f 9/3/1 7/3/1 5/3/1
f 9/3/1 8/3/1 7/3/1
f 10/3/1 8/3/1 9/3/1
f 18/1/1 12/1/1 11/1/1
f 19/2/1 13/2/1 12/2/1
f 19/1/1 12/1/1 18/1/1
f 20/2/1 13/2/1 19/2/1
f 21/1/1 14/1/1 13/1/1
f 21/2/1 13/2/1 20/2/1
f 22/2/1 15/2/1 14/2/1
f 22/1/1 14/1/1 21/1/1
f 23/2/1 15/2/1 22/2/1
f 24/2/1 15/2/1 23/2/1
f 25/2/1 15/2/1 24/2/1
f 26/1/1 16/1/1 15/1/1
f 26/2/1 15/2/1 25/2/1
f 27/2/1 17/2/1 16/2/1
f 27/1/1 16/1/1 26/1/1
f 28/2/1 20/2/1 19/2/1
f 28/2/1 19/2/1 18/2/1
f 29/2/1 20/2/1 28/2/1
f 30/2/1 26/2/1 25/2/1
f 30/2/1 27/2/1 26/2/1
f 31/2/1 27/2/1 30/2/1
f 32/2/1 27/2/1 31/2/1
f 33/2/1 17/2/1 27/2/1
f 33/2/1 27/2/1 32/2/1
f 34/1/1 29/1/1 28/1/1
f 35/1/1 31/1/1 30/1/1
f 36/2/1 32/2/1 31/2/1
f 36/1/1 31/1/1 35/1/1
f 37/1/1 33/1/1 32/1/1
f 37/2/1 32/2/1 36/2/1
f 38/1/1 33/1/1 37/1/1
f 39/1/1 35/1/1 34/1/1
f 39/1/1 34/1/1 28/1/1
f 40/1/1 35/1/1 39/1/1
f 44/4/1 42/4/1 41/4/1
f 45/4/1 42/4/1 44/4/1
f 46/4/1 42/4/1 45/4/1
f 47/4/1 42/4/1 46/4/1
f 48/4/1 42/4/1 47/4/1
f 49/4/1 42/4/1 48/4/1
f 50/4/1 42/4/1 49/4/1
f 52/2/1 44/2/1 43/2/1
f 53/2/1 44/2/1 52/2/1
f 54/2/1 52/2/1 43/2/1
f 54/1/1 53/1/1 52/1/1
f 55/1/1 53/1/1 54/1/1
f 56/2/1 54/2/1 43/2/1
f 56/2/1 55/2/1 54/2/1
f 57/2/1 55/2/1 56/2/1
f 58/2/1 51/2/1 50/2/1
f 59/2/1 51/2/1 58/2/1
f 62/1/1 59/1/1 58/1/1
f 63/1/1 59/1/1 62/1/1
f 64/1/1 57/1/1 56/1/1
f 65/1/1 57/1/1 64/1/1
f 68/1/1 61/1/1 60/1/1
f 69/2/1 67/2/1 66/2/1
f 70/1/1 68/1/1 67/1/1
f 70/2/1 67/2/1 69/2/1
f 71/1/1 68/1/1 70/1/1
f 72/1/1 61/1/1 68/1/1
f 72/1/1 68/1/1 71/1/1
f 73/1/1 61/1/1 72/1/1
f 74/1/1 70/1/1 69/1/1
f 75/2/1 71/2/1 70/2/1
f 75/1/1 70/1/1 74/1/1
f 76/1/1 72/1/1 71/1/1
f 76/2/1 71/2/1 75/2/1
f 77/2/1 73/2/1 72/2/1
f 77/1/1 72/1/1 76/1/1
f 78/2/1 73/2/1 77/2/1
f 83/4/1 80/4/1 79/4/1
f 84/4/1 80/4/1 83/4/1
f 85/4/1 82/4/1 81/4/1
f 86/4/1 82/4/1 85/4/1
f 91/1/1 89/1/1 88/1/1
f 92/2/1 90/2/1 89/2/1
f 92/1/1 89/1/1 91/1/1
f 93/2/1 92/2/1 91/2/1
f 94/2/1 90/2/1 92/2/1
f 94/2/1 92/2/1 93/2/1
f 95/2/1 87/2/1 86/2/1
f 96/2/1 87/2/1 95/2/1
f 97/1/1 94/1/1 93/1/1
f 98/1/1 94/1/1 97/1/1
f 101/1/1 96/1/1 95/1/1
f 102/1/1 96/1/1 101/1/1
f 103/2/1 98/2/1 97/2/1
f 104/2/1 98/2/1 103/2/1
f 107/2/1 106/2/1 105/2/1
f 108/2/1 100/2/1 99/2/1
f 109/2/1 107/2/1 105/2/1
f 110/2/1 107/2/1 109/2/1
f 111/2/1 100/2/1 108/2/1
f 112/2/1 100/2/1 111/2/1
f 118/2/1 114/2/1 113/2/1
f 119/2/1 114/2/1 118/2/1
f 120/2/1 117/2/1 116/2/1
f 121/1/1 119/1/1 118/1/1
f 122/1/1 119/1/1 121/1/1
f 123/1/1 116/1/1 115/1/1
f 123/2/1 120/2/1 116/2/1
f 124/2/1 120/2/1 123/2/1
f 125/2/1 122/2/1 121/2/1
f 126/2/1 122/2/1 125/2/1
f 127/1/1 124/1/1 123/1/1
f 128/1/1 126/1/1 125/1/1
f 129/1/1 126/1/1 128/1/1
f 130/1/1 123/1/1 115/1/1
f 130/1/1 127/1/1 123/1/1
f 131/1/1 127/1/1 130/1/1
f 134/4/1 133/4/1 132/4/1
f 135/4/1 133/4/1 134/4/1
f 138/2/1 137/2/1 136/2/1
f 139/2/1 137/2/1 138/2/1
f 152/4/1 141/4/1 140/4/1
f 153/1/1 142/1/1 141/1/1
f 153/4/1 141/4/1 152/4/1
f 154/4/1 143/4/1 142/4/1
f 154/1/1 142/1/1 153/1/1
f 155/4/1 143/4/1 154/4/1
f 156/1/1 144/1/1 143/1/1
f 156/4/1 143/4/1 155/4/1
f 157/4/1 145/4/1 144/4/1
f 157/1/1 144/1/1 156/1/1
f 158/4/1 145/4/1 157/4/1
f 159/1/1 146/1/1 145/1/1
f 159/4/1 145/4/1 158/4/1
f 160/4/1 147/4/1 146/4/1
f 160/1/1 146/1/1 159/1/1
f 161/4/1 147/4/1 160/4/1
f 162/1/1 148/1/1 147/1/1
f 162/4/1 147/4/1 161/4/1
f 163/4/1 149/4/1 148/4/1
f 163/1/1 148/1/1 162/1/1
f 164/4/1 153/4/1 152/4/1
f 164/4/1 154/4/1 153/4/1
f 165/1/1 155/1/1 154/1/1
f 165/4/1 154/4/1 164/4/1
f 166/4/1 156/4/1 155/4/1
f 166/1/1 155/1/1 165/1/1
f 166/4/1 158/4/1 157/4/1
f 166/4/1 157/4/1 156/4/1
f 167/1/1 159/1/1 158/1/1
f 167/4/1 158/4/1 166/4/1
f 168/4/1 160/4/1 159/4/1
f 168/1/1 159/1/1 167/1/1
f 169/1/1 161/1/1 160/1/1
f 169/4/1 160/4/1 168/4/1
f 170/4/1 162/4/1 161/4/1
f 170/1/1 161/1/1 169/1/1
f 170/4/1 163/4/1 162/4/1
f 171/4/1 149/4/1 163/4/1
f 171/4/1 163/4/1 170/4/1
f 171/2/1 150/2/1 149/2/1
f 172/4/1 151/4/1 150/4/1
f 172/2/1 150/2/1 171/2/1
f 173/4/1 151/4/1 172/4/1
f 174/4/2 175/4/2 176/4/2
f 176/4/2 175/4/2 177/4/2
f 178/2/2 179/2/2 182/2/2
f 182/2/2 179/2/2 183/2/2
f 182/1/2 183/1/2 184/1/2
f 184/1/2 183/1/2 185/1/2
f 180/2/2 181/2/2 186/2/2
f 186/2/2 181/2/2 187/2/2
f 184/2/2 185/2/2 188/2/2
f 188/2/2 185/2/2 189/2/2
f 190/1/2 191/1/2 193/1/2
f 192/2/2 193/2/2 194/2/2
f 194/2/2 193/2/2 195/2/2
f 193/1/2 191/1/2 196/1/2
f 195/2/2 193/2/2 196/2/2
f 196/1/2 191/1/2 197/1/2
f 192/2/2 194/2/2 198/2/2
f 194/1/2 195/1/2 199/1/2
f 198/2/2 194/2/2 199/2/2
f 195/2/2 196/2/2 200/2/2
f 199/1/2 195/1/2 200/1/2
f 196/2/2 197/2/2 200/2/2
f 200/2/2 197/2/2 201/2/2
f 202/4/2 203/4/2 214/4/2
f 203/1/2 204/1/2 215/1/2
f 214/4/2 203/4/2 215/4/2
f 204/4/2 205/4/2 216/4/2
f 215/1/2 204/1/2 216/1/2
f 216/4/2 205/4/2 217/4/2
f 205/1/2 206/1/2 218/1/2
f 217/4/2 205/4/2 218/4/2
f 206/4/2 207/4/2 219/4/2
f 218/1/2 206/1/2 219/1/2
f 219/4/2 207/4/2 220/4/2
f 207/1/2 208/1/2 221/1/2
f 220/4/2 207/4/2 221/4/2
f 208/4/2 209/4/2 222/4/2
f 221/1/2 208/1/2 222/1/2
f 222/4/2 209/4/2 223/4/2
f 209/1/2 210/1/2 224/1/2
f 223/4/2 209/4/2 224/4/2
f 210/4/2 211/4/2 225/4/2
f 224/1/2 210/1/2 225/1/2
f 214/4/2 215/4/2 226/4/2
f 215/4/2 216/4/2 226/4/2
f 216/1/2 217/1/2 227/1/2
f 226/4/2 216/4/2 227/4/2
f 217/4/2 218/4/2 228/4/2
f 227/1/2 217/1/2 228/1/2
f 219/4/2 220/4/2 228/4/2
f 218/4/2 219/4/2 228/4/2
f 220/1/2 221/1/2 229/1/2
f 228/4/2 220/4/2 229/4/2
f 221/4/2 222/4/2 230/4/2
f 229/1/2 221/1/2 230/1/2
f 222/1/2 223/1/2 231/1/2
f 230/4/2 222/4/2 231/4/2
f 223/4/2 224/4/2 232/4/2
f 231/1/2 223/1/2 232/1/2
f 224/4/2 225/4/2 232/4/2
f 225/4/2 211/4/2 233/4/2
f 232/4/2 225/4/2 233/4/2
f 211/2/2 212/2/2 233/2/2
f 212/4/2 213/4/2 234/4/2
f 233/2/2 212/2/2 234/2/2
f 234/4/2 213/4/2 235/4/2
f 236/2/2 237/2/2 238/2/2
f 238/2/2 237/2/2 239/2/2
f 240/2/2 241/2/2 245/2/2
f 245/2/2 241/2/2 246/2/2
f 243/2/2 244/2/2 247/2/2
f 245/1/2 246/1/2 248/1/2
f 248/1/2 246/1/2 249/1/2
f 242/1/2 243/1/2 250/1/2
f 243/2/2 247/2/2 250/2/2
f 250/2/2 247/2/2 251/2/2
f 248/2/2 249/2/2 252/2/2
f 252/2/2 249/2/2 253/2/2
f 250/1/2 251/1/2 254/1/2
f 252/1/2 253/1/2 255/1/2
f 255/1/2 253/1/2 256/1/2
f 242/1/2 250/1/2 257/1/2
f 250/1/2 254/1/2 257/1/2
f 257/1/2 254/1/2 258/1/2
f 259/4/2 260/4/2 263/4/2
f 263/4/2 260/4/2 264/4/2
f 261/4/2 262/4/2 265/4/2
f 265/4/2 262/4/2 266/4/2
f 268/1/2 269/1/2 271/1/2
f 269/2/2 270/2/2 272/2/2
f 271/1/2 269/1/2 272/1/2
f 271/2/2 272/2/2 273/2/2
f 272/2/2 270/2/2 274/2/2
f 273/2/2 272/2/2 274/2/2
f 266/2/2 267/2/2 275/2/2
f 275/2/2 267/2/2 276/2/2
f 273/1/2 274/1/2 277/1/2
f 277/1/2 274/1/2 278/1/2
f 275/1/2 276/1/2 279/1/2
f 279/1/2 276/1/2 280/1/2
f 277/2/2 278/2/2 281/2/2
f 281/2/2 278/2/2 282/2/2
f 283/4/2 284/4/2 286/4/2
f 286/4/2 284/4/2 287/4/2
f 287/4/2 284/4/2 288/4/2
f 288/4/2 284/4/2 289/4/2
f 289/4/2 284/4/2 290/4/2
f 290/4/2 284/4/2 291/4/2
f 291/4/2 284/4/2 292/4/2
f 285/2/2 286/2/2 294/2/2
f 294/2/2 286/2/2 295/2/2
f 285/2/2 294/2/2 296/2/2
f 294/1/2 295/1/2 296/1/2
f 296/1/2 295/1/2 297/1/2
f 285/2/2 296/2/2 298/2/2
f 296/2/2 297/2/2 298/2/2
f 298/2/2 297/2/2 299/2/2
f 292/2/2 293/2/2 300/2/2
f 300/2/2 293/2/2 301/2/2
f 300/1/2 301/1/2 302/1/2
f 302/1/2 301/1/2 303/1/2
f 298/1/2 299/1/2 304/1/2
f 304/1/2 299/1/2 305/1/2
f 306/1/2 307/1/2 313/1/2
f 307/2/2 308/2/2 314/2/2
f 313/1/2 307/1/2 314/1/2
f 314/2/2 308/2/2 315/2/2
f 308/1/2 309/1/2 316/1/2
f 315/2/2 308/2/2 316/2/2
f 309/2/2 310/2/2 317/2/2
f 316/1/2 309/1/2 317/1/2
f 317/2/2 310/2/2 318/2/2
f 318/2/2 310/2/2 319/2/2
f 319/2/2 310/2/2 320/2/2
f 310/1/2 311/1/2 321/1/2
f 320/2/2 310/2/2 321/2/2
f 311/2/2 312/2/2 322/2/2
f 321/1/2 311/1/2 322/1/2
f 314/2/2 315/2/2 323/2/2
f 313/2/2 314/2/2 323/2/2
f 323/2/2 315/2/2 324/2/2
f 320/2/2 321/2/2 325/2/2
f 321/2/2 322/2/2 325/2/2
f 325/2/2 322/2/2 326/2/2
f 326/2/2 322/2/2 327/2/2
f 322/2/2 312/2/2 328/2/2
f 327/2/2 322/2/2 328/2/2
f 323/1/2 324/1/2 329/1/2
f 325/1/2 326/1/2 330/1/2
f 326/2/2 327/2/2 331/2/2
f 330/1/2 326/1/2 331/1/2
f 327/1/2 328/1/2 332/1/2
f 331/2/2 327/2/2 332/2/2
f 332/1/2 328/1/2 333/1/2
f 329/1/2 330/1/2 334/1/2
f 323/1/2 329/1/2 334/1/2
f 334/1/2 330/1/2 335/1/2
f 336/1/2 337/1/2 340/1/2
f 337/3/2 338/3/2 341/3/2
f 340/1/2 337/1/2 341/1/2
f 338/1/2 339/1/2 342/1/2
f 341/3/2 338/3/2 342/3/2
f 340/3/2 341/3/2 342/3/2
f 342/1/2 339/1/2 343/1/2
f 340/3/2 342/3/2 344/3/2
f 342/3/2 343/3/2 344/3/2
f 344/3/2 343/3/2 345/3/2
f 348/1/3 347/1/3 346/1/3
f 349/1/3 347/1/3 348/1/3
f 350/2/3 349/2/3 348/2/3
f 351/1/3 347/1/3 349/1/3
f 351/2/3 349/2/3 350/2/3
f 352/2/3 350/2/3 348/2/3
f 352/1/3 351/1/3 350/1/3
f 353/1/3 347/1/3 351/1/3
f 353/1/3 351/1/3 352/1/3
f 354/2/3 352/2/3 348/2/3
f 354/2/3 353/2/3 352/2/3
f 355/1/3 347/1/3 353/1/3
f 355/2/3 353/2/3 354/2/3
f 356/1/3 355/1/3 354/1/3
f 357/1/3 347/1/3 355/1/3
f 357/1/3 355/1/3 356/1/3
f 363/1/3 359/1/3 358/1/3
f 364/2/3 360/2/3 359/2/3
f 364/1/3 359/1/3 363/1/3
f 365/1/3 361/1/3 360/1/3
f 365/2/3 360/2/3 364/2/3
f 366/2/3 362/2/3 361/2/3
f 366/1/3 361/1/3 365/1/3
f 367/2/3 362/2/3 366/2/3
f 373/1/3 369/1/3 368/1/3
f 374/2/3 370/2/3 369/2/3
f 374/1/3 369/1/3 373/1/3
f 375/1/3 371/1/3 370/1/3
f 375/2/3 370/2/3 374/2/3
f 376/2/3 372/2/3 371/2/3
f 376/1/3 371/1/3 375/1/3
f 377/2/3 372/2/3 376/2/3
f 380/2/3 379/2/3 378/2/3
f 381/2/3 379/2/3 380/2/3
f 385/2/3 383/2/3 382/2/3
f 386/1/3 384/1/3 383/1/3
f 386/2/3 383/2/3 385/2/3
f 387/1/3 384/1/3 386/1/3
f 388/1/3 384/1/3 387/1/3
f 389/2/3 385/2/3 382/2/3
f 390/2/3 385/2/3 389/2/3
f 393/2/3 392/2/3 391/2/3
f 397/2/3 393/2/3 391/2/3
f 397/2/3 394/2/3 393/2/3
f 398/1/3 396/1/3 395/1/3
f 398/2/3 394/2/3 397/2/3
f 398/1/3 395/1/3 394/1/3
f 399/1/3 396/1/3 398/1/3
f 402/4/3 401/4/3 400/4/3
f 403/4/3 401/4/3 402/4/3
f 409/1/3 405/1/3 404/1/3
f 410/2/3 406/2/3 405/2/3
f 410/1/3 405/1/3 409/1/3
f 411/2/3 406/2/3 410/2/3
f 412/1/3 407/1/3 406/1/3
f 412/2/3 406/2/3 411/2/3
f 413/1/3 407/1/3 412/1/3
f 414/4/3 409/4/3 408/4/3
f 415/4/3 409/4/3 414/4/3
f 418/4/3 417/4/3 416/4/3
f 419/4/3 417/4/3 418/4/3
f 424/1/3 420/1/3 419/1/3
f 425/2/3 422/2/3 421/2/3
f 425/1/3 420/1/3 424/1/3
f 425/2/3 421/2/3 420/2/3
f 426/1/3 423/1/3 422/1/3
f 426/2/3 422/2/3 425/2/3
f 427/1/3 423/1/3 426/1/3
f 431/1/3 429/1/3 428/1/3
f 432/3/3 430/3/3 429/3/3
f 432/1/3 429/1/3 431/1/3
f 433/3/3 432/3/3 431/3/3
f 434/3/3 430/3/3 432/3/3
f 434/3/3 432/3/3 433/3/3
f 435/3/3 430/3/3 434/3/3
f 439/3/3 437/3/3 436/3/3
f 439/3/3 438/3/3 437/3/3
f 440/3/3 438/3/3 439/3/3
f 441/1/3 440/1/3 439/1/3
f 442/3/3 438/3/3 440/3/3
f 442/1/3 440/1/3 441/1/3
f 443/3/3 438/3/3 442/3/3
f 446/2/3 445/2/3 444/2/3
f 447/2/3 445/2/3 446/2/3
f 451/2/3 449/2/3 448/2/3
f 452/1/3 450/1/3 449/1/3
f 452/2/3 449/2/3 451/2/3
f 453/1/3 450/1/3 452/1/3
f 456/2/3 455/2/3 454/2/3
f 457/2/3 455/2/3 456/2/3
f 458/1/4 459/1/4 461/1/4
f 459/3/4 460/3/4 462/3/4
f 461/1/4 459/1/4 462/1/4
f 461/3/4 462/3/4 463/3/4
f 463/3/4 462/3/4 464/3/4
f 463/1/4 464/1/4 465/1/4
f 464/3/4 462/3/4 466/3/4
f 465/1/4 464/1/4 466/1/4
f 462/3/4 460/3/4 467/3/4
f 466/3/4 462/3/4 467/3/4
f 467/3/4 460/3/4 468/3/4
f 468/1/4 469/1/4 470/1/4
f 470/1/4 469/1/4 471/1/4
f 472/1/4 473/1/4 474/1/4
f 474/1/4 473/1/4 475/1/4
f 474/2/4 475/2/4 476/2/4
f 476/2/4 475/2/4 477/2/4
f 476/1/4 477/1/4 481/1/4
f 481/1/4 477/1/4 482/1/4
f 478/1/4 479/1/4 483/1/4
f 479/3/4 480/3/4 484/3/4
f 483/1/4 479/1/4 484/1/4
f 480/3/4 481/3/4 484/3/4
f 483/3/4 484/3/4 485/3/4
f 484/3/4 481/3/4 486/3/4
f 485/3/4 484/3/4 486/3/4
f 485/1/4 486/1/4 487/1/4
f 486/3/4 481/3/4 488/3/4
f 487/1/4 486/1/4 488/1/4
f 488/3/4 481/3/4 489/3/4
f 490/1/4 491/1/4 493/1/4
f 491/2/4 492/2/4 494/2/4
f 493/1/4 491/1/4 494/1/4
f 494/2/4 492/2/4 495/2/4
f 496/1/4 497/1/4 500/1/4
f 497/1/4 498/1/4 500/1/4
f 498/2/4 499/2/4 501/2/4
f 500/1/4 498/1/4 501/1/4
f 501/2/4 499/2/4 502/2/4
f 503/2/4 504/2/4 505/2/4
f 505/2/4 504/2/4 506/2/4
f 503/2/4 505/2/4 507/2/4
f 506/2/4 504/2/4 508/2/4
f 503/2/4 507/2/4 509/2/4
f 507/1/4 508/1/4 510/1/4
f 509/2/4 507/2/4 510/2/4
f 508/2/4 504/2/4 511/2/4
f 510/1/4 508/1/4 511/1/4
f 511/2/4 504/2/4 512/2/4
f 513/4/4 514/4/4 515/4/4
f 515/4/4 514/4/4 516/4/4
f 517/2/4 518/2/4 521/2/4
f 518/1/4 519/1/4 522/1/4
f 521/2/4 518/2/4 522/2/4
f 522/1/4 519/1/4 523/1/4
f 520/4/4 521/4/4 524/4/4
f 524/4/4 521/4/4 525/4/4
f 526/4/4 527/4/4 528/4/4
f 528/4/4 527/4/4 529/4/4
f 529/2/4 530/2/4 532/2/4
f 530/1/4 531/1/4 533/1/4
f 532/2/4 530/2/4 533/2/4
f 533/1/4 531/1/4 534/1/4
f 535/2/4 536/2/4 539/2/4
f 536/1/4 537/1/4 540/1/4
f 539/2/4 536/2/4 540/2/4
f 540/1/4 537/1/4 541/1/4
f 538/4/4 539/4/4 542/4/4
f 542/4/4 539/4/4 543/4/4
f 543/2/4 544/2/4 546/2/4
f 544/1/4 545/1/4 547/1/4
f 546/2/4 544/2/4 547/2/4
f 547/1/4 545/1/4 548/1/4
f 549/2/4 550/2/4 552/2/4
f 552/2/4 550/2/4 553/2/4
f 553/2/4 550/2/4 554/2/4
f 550/1/4 551/1/4 555/1/4
f 554/2/4 550/2/4 555/2/4
f 555/1/4 551/1/4 556/1/4
f 557/2/4 558/2/4 562/2/4
f 558/2/4 559/2/4 562/2/4
f 559/2/4 560/2/4 562/2/4
f 560/1/4 561/1/4 563/1/4
f 562/2/4 560/2/4 563/2/4
f 563/1/4 561/1/4 564/1/4
f 565/2/4 566/2/4 570/2/4
f 566/1/4 567/1/4 570/1/4
f 567/2/4 568/2/4 571/2/4
f 570/1/4 567/1/4 571/1/4
f 565/2/4 570/2/4 572/2/4
f 570/2/4 571/2/4 572/2/4
f 572/2/4 571/2/4 573/2/4
f 572/1/4 573/1/4 574/1/4
f 573/2/4 571/2/4 574/2/4
f 571/2/4 568/2/4 575/2/4
f 574/2/4 571/2/4 575/2/4
f 572/1/4 574/1/4 576/1/4
f 574/1/4 575/1/4 576/1/4
f 576/1/4 575/1/4 577/1/4
f 575/2/4 568/2/4 578/2/4
f 577/1/4 575/1/4 578/1/4
f 568/1/4 569/1/4 579/1/4
f 578/2/4 568/2/4 579/2/4
f 576/2/4 577/2/4 580/2/4
f 580/2/4 577/2/4 581/2/4
f 579/1/4 569/1/4 583/1/4
f 581/1/4 582/1/4 584/1/4
f 580/1/4 581/1/4 584/1/4
f 582/2/4 583/2/4 585/2/4
f 584/1/4 582/1/4 585/1/4
f 580/1/4 584/1/4 586/1/4
f 584/2/4 585/2/4 587/2/4
f 586/1/4 584/1/4 587/1/4
f 586/2/4 587/2/4 588/2/4
f 587/2/4 585/2/4 588/2/4
f 585/2/4 583/2/4 589/2/4
f 588/2/4 585/2/4 589/2/4
f 586/2/4 588/2/4 590/2/4
f 588/1/4 589/1/4 591/1/4
f 590/2/4 588/2/4 591/2/4
f 589/2/4 583/2/4 592/2/4
f 591/1/4 589/1/4 592/1/4
f 583/1/4 569/1/4 593/1/4
f 592/2/4 583/2/4 593/2/4
f 593/1/4 569/1/4 594/1/4
f 595/4/4 596/4/4 597/4/4
f 597/4/4 596/4/4 598/4/4
f 602/4/5 600/4/5 599/4/5
f 603/4/5 600/4/5 602/4/5
f 605/4/5 602/4/5 601/4/5
f 605/4/5 604/4/5 603/4/5
f 605/4/5 603/4/5 602/4/5
f 606/4/5 604/4/5 605/4/5
f 607/4/5 604/4/5 606/4/5
f 608/4/5 604/4/5 607/4/5
f 609/4/5 607/4/5 606/4/5
f 610/4/5 607/4/5 609/4/5
f 614/2/5 612/2/5 611/2/5
f 615/2/5 612/2/5 614/2/5
f 617/2/5 614/2/5 613/2/5
f 617/2/5 616/2/5 615/2/5
f 617/2/5 615/2/5 614/2/5
f 618/2/5 616/2/5 617/2/5
f 620/2/5 617/2/5 613/2/5
f 621/2/5 617/2/5 620/2/5
f 622/2/5 616/2/5 618/2/5
f 623/2/5 616/2/5 622/2/5
f 625/1/5 620/1/5 619/1/5
f 626/1/5 620/1/5 625/1/5
f 627/1/5 624/1/5 623/1/5
f 628/1/5 624/1/5 627/1/5
f 629/2/5 626/2/5 625/2/5
f 630/2/5 626/2/5 629/2/5
f 631/2/5 628/2/5 627/2/5
f 632/2/5 628/2/5 631/2/5
f 633/1/5 630/1/5 629/1/5
f 634/1/5 630/1/5 633/1/5
f 635/1/5 632/1/5 631/1/5
f 636/1/5 632/1/5 635/1/5
f 637/2/5 634/2/5 633/2/5
f 638/2/5 634/2/5 637/2/5
f 639/2/5 636/2/5 635/2/5
f 640/2/5 636/2/5 639/2/5
f 641/1/5 638/1/5 637/1/5
f 642/1/5 638/1/5 641/1/5
f 643/1/5 640/1/5 639/1/5
f 644/1/5 640/1/5 643/1/5
f 645/2/5 642/2/5 641/2/5
f 646/2/5 642/2/5 645/2/5
f 649/2/5 644/2/5 643/2/5
f 650/2/5 644/2/5 649/2/5
f 651/2/5 647/2/5 646/2/5
f 652/2/5 647/2/5 651/2/5
f 653/2/5 649/2/5 648/2/5
f 654/2/5 649/2/5 653/2/5
f 655/2/5 653/2/5 652/2/5
f 656/2/5 653/2/5 655/2/5
f 657/2/5 653/2/5 656/2/5
f 658/2/5 653/2/5 657/2/5
f 659/2/5 653/2/5 658/2/5
f 660/2/5 653/2/5 659/2/5
f 661/2/5 653/2/5 660/2/5
f 662/2/5 653/2/5 661/2/5
f 663/2/5 657/2/5 656/2/5
f 664/1/5 658/1/5 657/1/5
f 664/2/5 657/2/5 663/2/5
f 665/2/5 659/2/5 658/2/5
f 665/1/5 658/1/5 664/1/5
f 666/1/5 660/1/5 659/1/5
f 666/2/5 659/2/5 665/2/5
f 667/2/5 661/2/5 660/2/5
f 667/1/5 660/1/5 666/1/5
f 668/2/5 661/2/5 667/2/5
f 673/1/5 670/1/5 669/1/5
f 674/2/5 671/2/5 670/2/5
f 674/1/5 670/1/5 673/1/5
f 675/1/5 672/1/5 671/1/5
f 675/2/5 671/2/5 674/2/5
f 676/1/5 672/1/5 675/1/5
f 678/2/5 674/2/5 673/2/5
f 678/2/5 675/2/5 674/2/5
f 678/2/5 676/2/5 675/2/5
f 679/2/5 676/2/5 678/2/5
f 681/1/5 678/1/5 677/1/5
f 682/2/5 679/2/5 678/2/5
f 682/1/5 678/1/5 681/1/5
f 683/2/5 679/2/5 682/2/5
f 684/2/5 679/2/5 683/2/5
f 685/1/5 680/1/5 679/1/5
f 685/2/5 679/2/5 684/2/5
f 686/1/5 680/1/5 685/1/5
f 687/2/5 682/2/5 681/2/5
f 687/2/5 683/2/5 682/2/5
f 688/2/5 683/2/5 687/2/5
f 689/2/5 686/2/5 685/2/5
f 689/2/5 685/2/5 684/2/5
f 690/2/5 686/2/5 689/2/5
f 697/1/5 692/1/5 691/1/5
f 698/3/5 693/3/5 692/3/5
f 698/1/5 692/1/5 697/1/5
f 699/3/5 693/3/5 698/3/5
f 700/3/5 695/3/5 694/3/5
f 701/1/5 696/1/5 695/1/5
f 701/3/5 695/3/5 700/3/5
f 702/1/5 696/1/5 701/1/5
f 703/3/5 699/3/5 698/3/5
f 703/3/5 698/3/5 697/3/5
f 704/3/5 702/3/5 701/3/5
f 704/3/5 701/3/5 700/3/5
f 705/3/5 703/3/5 697/3/5
f 706/3/5 703/3/5 705/3/5
f 707/3/5 703/3/5 706/3/5
f 708/3/5 703/3/5 707/3/5
f 709/3/5 702/3/5 704/3/5
f 710/3/5 702/3/5 709/3/5
f 711/3/5 702/3/5 710/3/5
f 712/3/5 702/3/5 711/3/5
f 713/1/5 706/1/5 705/1/5
f 714/3/5 707/3/5 706/3/5
f 714/1/5 706/1/5 713/1/5
f 715/1/5 708/1/5 707/1/5
f 715/3/5 707/3/5 714/3/5
f 716/1/5 708/1/5 715/1/5
f 717/1/5 710/1/5 709/1/5
f 718/3/5 711/3/5 710/3/5
f 718/1/5 710/1/5 717/1/5
f 719/1/5 712/1/5 711/1/5
f 719/3/5 711/3/5 718/3/5
f 720/1/5 712/1/5 719/1/5
f 723/4/5 722/4/5 721/4/5
f 724/4/5 722/4/5 723/4/5
f 725/1/5 724/1/5 723/1/5
f 726/1/5 724/1/5 725/1/5
f 727/4/5 726/4/5 725/4/5
f 728/4/5 726/4/5 727/4/5
f 729/1/5 728/1/5 727/1/5
f 730/1/5 728/1/5 729/1/5
f 731/4/5 730/4/5 729/4/5
f 732/4/5 730/4/5 731/4/5
f 733/1/5 732/1/5 731/1/5
f 734/1/5 732/1/5 733/1/5
f 735/4/5 734/4/5 733/4/5
f 736/4/5 734/4/5 735/4/5
f 737/1/5 736/1/5 735/1/5
f 738/1/5 736/1/5 737/1/5
f 739/4/5 738/4/5 737/4/5
f 740/4/5 738/4/5 739/4/5
f 741/2/5 740/2/5 739/2/5
f 742/2/5 740/2/5 741/2/5
f 743/4/5 742/4/5 741/4/5
f 744/4/5 742/4/5 743/4/5
f 747/4/5 746/4/5 745/4/5
f 748/4/5 746/4/5 747/4/5
f 749/4/6 750/4/6 751/4/6
f 751/4/6 750/4/6 752/4/6
f 751/1/6 752/1/6 753/1/6
f 753/1/6 752/1/6 754/1/6
f 753/4/6 754/4/6 755/4/6
f 755/4/6 754/4/6 756/4/6
f 755/1/6 756/1/6 757/1/6
f 757/1/6 756/1/6 758/1/6
f 757/4/6 758/4/6 759/4/6
f 759/4/6 758/4/6 760/4/6
f 759/1/6 760/1/6 761/1/6
f 761/1/6 760/1/6 762/1/6
f 761/4/6 762/4/6 763/4/6
f 763/4/6 762/4/6 764/4/6
f 763/2/6 764/2/6 765/2/6
f 765/2/6 764/2/6 766/2/6
f 765/4/6 766/4/6 767/4/6
f 767/4/6 766/4/6 768/4/6
f 769/3/6 770/3/6 773/3/6
f 773/3/6 770/3/6 774/3/6
f 771/3/6 772/3/6 779/3/6
f 779/3/6 772/3/6 780/3/6
f 774/1/6 775/1/6 781/1/6
f 777/1/6 778/1/6 784/1/6
f 778/1/6 779/1/6 784/1/6
f 776/1/6 777/1/6 784/1/6
f 784/1/6 779/1/6 785/1/6
f 785/1/6 779/1/6 786/1/6
f 786/1/6 779/1/6 787/1/6
f 781/1/6 782/1/6 788/1/6
f 783/1/6 784/1/6 789/1/6
f 784/2/6 785/2/6 790/2/6
f 788/1/6 789/1/6 790/1/6
f 789/1/6 784/1/6 790/1/6
f 785/1/6 786/1/6 791/1/6
f 790/2/6 785/2/6 791/2/6
f 786/2/6 787/2/6 792/2/6
f 791/1/6 786/1/6 792/1/6
f 787/1/6 779/1/6 793/1/6
f 792/2/6 787/2/6 793/2/6
f 791/1/6 792/1/6 794/1/6
f 774/1/6 781/1/6 794/1/6
f 792/1/6 793/1/6 794/1/6
f 790/1/6 791/1/6 794/1/6
f 788/1/6 790/1/6 794/1/6
f 781/1/6 788/1/6 794/1/6
f 794/1/6 793/1/6 795/1/6
f 793/1/6 779/1/6 796/1/6
f 795/1/6 793/1/6 796/1/6
f 796/1/6 779/1/6 797/1/6
f 794/2/6 795/2/6 798/2/6
f 798/2/6 795/2/6 799/2/6
f 795/1/6 796/1/6 800/1/6
f 799/2/6 795/2/6 800/2/6
f 800/1/6 796/1/6 801/1/6
f 801/1/6 796/1/6 802/1/6
f 802/1/6 796/1/6 803/1/6
f 803/1/6 796/1/6 804/1/6
f 804/1/6 796/1/6 805/1/6
f 805/1/6 796/1/6 806/1/6
f 796/2/6 797/2/6 807/2/6
f 806/1/6 796/1/6 807/1/6
f 807/2/6 797/2/6 808/2/6
f 808/2/6 797/2/6 809/2/6
f 801/1/6 802/1/6 810/1/6
f 802/2/6 803/2/6 810/2/6
f 803/1/6 804/1/6 811/1/6
f 810/2/6 803/2/6 811/2/6
f 804/2/6 805/2/6 812/2/6
f 811/1/6 804/1/6 812/1/6
f 805/1/6 806/1/6 813/1/6
f 812/2/6 805/2/6 813/2/6
f 798/1/6 799/1/6 814/1/6
f 799/2/6 800/2/6 815/2/6
f 814/1/6 799/1/6 815/1/6
f 800/2/6 801/2/6 815/2/6
f 811/1/6 812/1/6 816/1/6
f 815/2/6 801/2/6 816/2/6
f 812/1/6 813/1/6 816/1/6
f 801/1/6 810/1/6 816/1/6
f 810/1/6 811/1/6 816/1/6
f 813/1/6 806/1/6 817/1/6
f 816/1/6 813/1/6 817/1/6
f 807/2/6 808/2/6 817/2/6
f 806/2/6 807/2/6 817/2/6
f 808/1/6 809/1/6 818/1/6
f 817/2/6 808/2/6 818/2/6
f 818/1/6 809/1/6 819/1/6
f 815/1/6 816/1/6 820/1/6
f 817/1/6 818/1/6 820/1/6
f 816/1/6 817/1/6 820/1/6
f 820/1/6 818/1/6 821/1/6
f 821/1/6 818/1/6 822/1/6
f 822/1/6 818/1/6 823/1/6
f 823/1/6 818/1/6 824/1/6
f 824/1/6 818/1/6 825/1/6
f 825/1/6 818/1/6 826/1/6
f 826/1/6 818/1/6 827/1/6
f 821/1/6 822/1/6 828/1/6
f 828/1/6 822/1/6 829/1/6
f 822/2/6 823/2/6 830/2/6
f 829/1/6 822/1/6 830/1/6
f 823/1/6 824/1/6 831/1/6
f 830/2/6 823/2/6 831/2/6
f 824/2/6 825/2/6 832/2/6
f 831/1/6 824/1/6 832/1/6
f 825/1/6 826/1/6 833/1/6
f 832/2/6 825/2/6 833/2/6
f 833/1/6 826/1/6 834/1/6
f 834/1/6 826/1/6 835/1/6
f 831/1/6 832/1/6 836/1/6
f 833/1/6 834/1/6 836/1/6
f 832/1/6 833/1/6 836/1/6
f 829/1/6 830/1/6 836/1/6
f 830/1/6 831/1/6 836/1/6
f 836/1/6 834/1/6 837/1/6
f 838/1/6 839/1/6 841/1/6
f 841/1/6 839/1/6 842/1/6
f 842/1/6 839/1/6 843/1/6
f 843/1/6 839/1/6 844/1/6
f 842/1/6 843/1/6 846/1/6
f 846/1/6 843/1/6 847/1/6
f 840/2/6 841/2/6 849/2/6
f 841/2/6 842/2/6 849/2/6
f 842/1/6 846/1/6 850/1/6
f 849/2/6 842/2/6 850/2/6
f 847/1/6 843/1/6 851/1/6
f 844/2/6 845/2/6 851/2/6
f 843/2/6 844/2/6 851/2/6
f 851/2/6 845/2/6 852/2/6
f 850/1/6 846/1/6 854/1/6
f 846/2/6 847/2/6 854/2/6
f 849/1/6 850/1/6 854/1/6
f 848/1/6 849/1/6 854/1/6
f 852/1/6 853/1/6 855/1/6
f 854/2/6 847/2/6 855/2/6
f 851/1/6 852/1/6 855/1/6
f 847/1/6 851/1/6 855/1/6
f 848/1/6 854/1/6 857/1/6
f 854/1/6 855/1/6 857/1/6
f 855/1/6 853/1/6 858/1/6
f 857/1/6 855/1/6 858/1/6
f 856/1/6 857/1/6 860/1/6
f 858/1/6 859/1/6 860/1/6
f 857/1/6 858/1/6 860/1/6
f 860/1/6 859/1/6 861/1/6
f 856/1/6 860/1/6 862/1/6
f 862/1/6 860/1/6 863/1/6
f 861/1/6 859/1/6 864/1/6
f 864/1/6 859/1/6 865/1/6
f 856/1/6 862/1/6 866/1/6
f 865/1/6 859/1/6 867/1/6
f 867/1/6 859/1/6 868/1/6
f 856/1/6 866/1/6 869/1/6
f 869/1/6 866/1/6 870/1/6
f 865/1/6 867/1/6 871/1/6
f 867/2/6 868/2/6 872/2/6
f 871/1/6 867/1/6 872/1/6
f 868/1/6 859/1/6 873/1/6
f 872/2/6 868/2/6 873/2/6
f 873/1/6 859/1/6 874/1/6
f 875/4/6 876/4/6 877/4/6
f 877/4/6 876/4/6 878/4/6
f 879/2/6 880/2/6 882/2/6
f 882/2/6 880/2/6 883/2/6
f 881/1/6 882/1/6 885/1/6
f 883/2/6 884/2/6 886/2/6
f 885/1/6 882/1/6 886/1/6
f 882/2/6 883/2/6 886/2/6
f 886/2/6 884/2/6 887/2/6
f 887/2/6 884/2/6 888/2/6
f 888/2/6 884/2/6 889/2/6
f 889/2/6 884/2/6 890/2/6
f 885/2/6 886/2/6 891/2/6
f 886/2/6 887/2/6 891/2/6
f 891/2/6 887/2/6 892/2/6
f 887/1/6 888/1/6 893/1/6
f 892/2/6 887/2/6 893/2/6
f 888/2/6 889/2/6 894/2/6
f 893/1/6 888/1/6 894/1/6
f 889/1/6 890/1/6 895/1/6
f 894/2/6 889/2/6 895/2/6
f 895/1/6 890/1/6 896/1/6
f 891/1/6 892/1/6 897/1/6
f 893/2/6 894/2/6 898/2/6
f 897/1/6 892/1/6 898/1/6
f 892/2/6 893/2/6 898/2/6
f 895/2/6 896/2/6 898/2/6
f 894/2/6 895/2/6 898/2/6
f 897/2/6 898/2/6 899/2/6
f 898/2/6 896/2/6 900/2/6
f 899/2/6 898/2/6 900/2/6
f 900/2/6 896/2/6 901/2/6
f 901/2/6 896/2/6 902/2/6
f 900/2/6 901/2/6 903/2/6
f 903/2/6 901/2/6 904/2/6
