# MagicaVoxel @ Ephtracy

# group
o 

# material
mtllib shellguard.mtl
usemtl palette

# normals
vn -1 0 0
vn 1 0 0
vn 0 0 1
vn 0 0 -1
vn 0 -1 0
vn 0 1 0

# texcoords
vt 0.0683594 0.5
vt 0.396484 0.5
vt 0.701172 0.5
vt 0.990234 0.5

# verts
v -0.3 0 0.2
v -0.3 0 0.0999999
v -0.3 0 -0.1
v -0.3 0 -0.2
v -0.3 0 -0.3
v -0.3 0 -0.4
v -0.3 0 -0.5
v -0.3 0 -0.6
v -0.3 0.2 0.2
v -0.3 0.2 0.0999999
v -0.3 0.2 -0.1
v -0.3 0.2 -0.2
v -0.3 0.2 -0.3
v -0.3 0.2 -0.4
v -0.3 0.2 -0.5
v -0.3 0.2 -0.6
v -0.1 0 0.2
v -0.1 0 0.0999999
v -0.1 0 -0.1
v -0.1 0 -0.2
v -0.1 0 -0.3
v -0.1 0 -0.4
v -0.1 0 -0.5
v -0.1 0 -0.6
v -0.1 0.2 0.2
v -0.1 0.2 0.0999999
v -0.1 0.2 -0.1
v -0.1 0.2 -0.2
v -0.1 0.2 -0.3
v -0.1 0.2 -0.4
v -0.1 0.2 -0.5
v -0.1 0.2 -0.6
v -0.3 0 0.2
v -0.3 0.2 0.2
v -0.1 0 0.2
v -0.1 0.2 0.2
v -0.3 0 -0.6
v -0.3 0.2 -0.6
v -0.1 0 -0.6
v -0.1 0.2 -0.6
v -0.3 0 0.2
v -0.1 0 0.2
v -0.3 0 0.0999999
v -0.1 0 0.0999999
v -0.3 0 -0.1
v -0.1 0 -0.1
v -0.3 0 -0.2
v -0.1 0 -0.2
v -0.3 0 -0.3
v -0.1 0 -0.3
v -0.3 0 -0.4
v -0.1 0 -0.4
v -0.3 0 -0.5
v -0.1 0 -0.5
v -0.3 0 -0.6
v -0.1 0 -0.6
v -0.3 0.2 0.2
v -0.1 0.2 0.2
v -0.3 0.2 0.0999999
v -0.1 0.2 0.0999999
v -0.3 0.2 -0.1
v -0.1 0.2 -0.1
v -0.3 0.2 -0.2
v -0.1 0.2 -0.2
v -0.3 0.2 -0.3
v -0.1 0.2 -0.3
v -0.3 0.2 -0.4
v -0.1 0.2 -0.4
v -0.3 0.2 -0.5
v -0.1 0.2 -0.5
v -0.3 0.2 -0.6
v -0.1 0.2 -0.6

# faces
f 9/4/1 2/4/1 1/4/1
f 10/2/1 3/2/1 2/2/1
f 10/4/1 2/4/1 9/4/1
f 11/3/1 4/3/1 3/3/1
f 11/2/1 3/2/1 10/2/1
f 12/2/1 5/2/1 4/2/1
f 12/3/1 4/3/1 11/3/1
f 13/3/1 6/3/1 5/3/1
f 13/2/1 5/2/1 12/2/1
f 14/2/1 7/2/1 6/2/1
f 14/3/1 6/3/1 13/3/1
f 15/1/1 8/1/1 7/1/1
f 15/2/1 7/2/1 14/2/1
f 16/1/1 8/1/1 15/1/1
f 17/4/2 18/4/2 25/4/2
f 18/2/2 19/2/2 26/2/2
f 25/4/2 18/4/2 26/4/2
f 19/3/2 20/3/2 27/3/2
f 26/2/2 19/2/2 27/2/2
f 20/2/2 21/2/2 28/2/2
f 27/3/2 20/3/2 28/3/2
f 21/3/2 22/3/2 29/3/2
f 28/2/2 21/2/2 29/2/2
f 22/2/2 23/2/2 30/2/2
f 29/3/2 22/3/2 30/3/2
f 23/1/2 24/1/2 31/1/2
f 30/2/2 23/2/2 31/2/2
f 31/1/2 24/1/2 32/1/2
f 35/4/3 34/4/3 33/4/3
f 36/4/3 34/4/3 35/4/3
f 37/1/4 38/1/4 39/1/4
f 39/1/4 38/1/4 40/1/4
f 43/4/5 42/4/5 41/4/5
f 44/4/5 42/4/5 43/4/5
f 45/2/5 44/2/5 43/2/5
f 46/2/5 44/2/5 45/2/5
f 47/3/5 46/3/5 45/3/5
f 48/3/5 46/3/5 47/3/5
f 49/2/5 48/2/5 47/2/5
f 50/2/5 48/2/5 49/2/5
f 51/3/5 50/3/5 49/3/5
f 52/3/5 50/3/5 51/3/5
f 53/2/5 52/2/5 51/2/5
f 54/2/5 52/2/5 53/2/5
f 55/1/5 54/1/5 53/1/5
f 56/1/5 54/1/5 55/1/5
f 57/4/6 58/4/6 59/4/6
f 59/4/6 58/4/6 60/4/6
f 59/2/6 60/2/6 61/2/6
f 61/2/6 60/2/6 62/2/6
f 61/3/6 62/3/6 63/3/6
f 63/3/6 62/3/6 64/3/6
f 63/2/6 64/2/6 65/2/6
f 65/2/6 64/2/6 66/2/6
f 65/3/6 66/3/6 67/3/6
f 67/3/6 66/3/6 68/3/6
f 67/2/6 68/2/6 69/2/6
f 69/2/6 68/2/6 70/2/6
f 69/1/6 70/1/6 71/1/6
f 71/1/6 70/1/6 72/1/6
