# MagicaVoxel @ Ephtracy

# group
o 

# material
mtllib tower2.mtl
usemtl palette

# normals
vn -1 0 0
vn 1 0 0
vn 0 0 1
vn 0 0 -1
vn 0 -1 0
vn 0 1 0

# texcoords
vt 0.509766 0.5
vt 0.677734 0.5
vt 0.986328 0.5
vt 0.990234 0.5

# verts
v -0.6 0.2 0.5
v -0.6 0.2 0.2
v -0.6 0.2 -0.2
v -0.6 0.2 -0.5
v -0.6 0.3 0.5
v -0.6 0.3 0.2
v -0.6 0.3 -0.2
v -0.6 0.3 -0.5
v -0.6 0.4 0.5
v -0.6 0.4 0.2
v -0.6 0.4 -0.2
v -0.6 0.4 -0.5
v -0.6 0.5 0.5
v -0.6 0.5 0.2
v -0.6 0.5 -0.2
v -0.6 0.5 -0.5
v -0.6 0.6 0.5
v -0.6 0.6 0.2
v -0.6 0.6 -0.2
v -0.6 0.6 -0.5
v -0.6 0.7 0.5
v -0.6 0.7 0.2
v -0.6 0.7 -0.2
v -0.6 0.7 -0.5
v -0.5 0 0.7
v -0.5 0 -0.9
v -0.5 0.2 0.5
v -0.5 0.2 0.2
v -0.5 0.2 -0.2
v -0.5 0.2 -0.5
v -0.5 0.3 0.5
v -0.5 0.3 0.2
v -0.5 0.3 -0.2
v -0.5 0.3 -0.5
v -0.5 0.4 0.5
v -0.5 0.4 0.2
v -0.5 0.4 -0.2
v -0.5 0.4 -0.5
v -0.5 0.5 0.5
v -0.5 0.5 0.2
v -0.5 0.5 -0.2
v -0.5 0.5 -0.5
v -0.5 0.6 0.7
v -0.5 0.6 0.6
v -0.5 0.6 0.5
v -0.5 0.6 0.2
v -0.5 0.6 -0.2
v -0.5 0.6 -0.5
v -0.5 0.7 0.6
v -0.5 0.7 0.5
v -0.5 0.7 0.2
v -0.5 0.7 -0.2
v -0.5 0.7 -0.5
v -0.5 0.7 -0.9
v -0.4 0.2 0.8
v -0.4 0.2 0.7
v -0.4 0.6 0.8
v -0.4 0.6 0.7
v -0.4 0.7 -0.4
v -0.4 0.7 -0.8
v -0.4 0.9 -0.4
v -0.4 0.9 -0.8
v -0.3 0.3 3.3
v -0.3 0.3 0.9
v -0.3 0.3 0.8
v -0.3 0.5 3.3
v -0.3 0.5 0.9
v -0.3 0.5 0.8
v -0.3 0.7 0.5
v -0.3 0.7 -0.4
v -0.3 0.7 -0.8
v -0.3 0.7 -0.9
v -0.3 0.8 0.5
v -0.3 0.8 -0.3
v -0.3 0.9 -0.3
v -0.3 0.9 -0.4
v -0.3 0.9 -0.8
v -0.3 0.9 -0.9
v -0.3 1 -0.4
v -0.3 1 -0.8
v -0.0999999 0.3 3.3
v -0.0999999 0.3 0.9
v -0.0999999 0.3 0.8
v -0.0999999 0.5 3.3
v -0.0999999 0.5 0.9
v -0.0999999 0.5 0.8
v 5.96046e-008 0.2 0.8
v 5.96046e-008 0.2 0.7
v 5.96046e-008 0.6 0.8
v 5.96046e-008 0.6 0.7
v 0.3 0.7 0.5
v 0.3 0.7 -0.4
v 0.3 0.7 -0.8
v 0.3 0.7 -0.9
v 0.3 0.8 0.5
v 0.3 0.8 -0.3
v 0.3 0.9 -0.3
v 0.3 0.9 -0.4
v 0.3 0.9 -0.8
v 0.3 0.9 -0.9
v 0.3 1 -0.4
v 0.3 1 -0.8
v 0.4 0.7 -0.4
v 0.4 0.7 -0.8
v 0.4 0.9 -0.4
v 0.4 0.9 -0.8
v 0.5 0 0.7
v 0.5 0 -0.9
v 0.5 0.2 0.5
v 0.5 0.2 0.2
v 0.5 0.2 -0.2
v 0.5 0.2 -0.5
v 0.5 0.3 0.5
v 0.5 0.3 0.2
v 0.5 0.3 -0.2
v 0.5 0.3 -0.5
v 0.5 0.4 0.5
v 0.5 0.4 0.2
v 0.5 0.4 -0.2
v 0.5 0.4 -0.5
v 0.5 0.5 0.5
v 0.5 0.5 0.2
v 0.5 0.5 -0.2
v 0.5 0.5 -0.5
v 0.5 0.6 0.7
v 0.5 0.6 0.6
v 0.5 0.6 0.5
v 0.5 0.6 0.2
v 0.5 0.6 -0.2
v 0.5 0.6 -0.5
v 0.5 0.7 0.6
v 0.5 0.7 0.5
v 0.5 0.7 0.2
v 0.5 0.7 -0.2
v 0.5 0.7 -0.5
v 0.5 0.7 -0.9
v 0.6 0.2 0.5
v 0.6 0.2 0.2
v 0.6 0.2 -0.2
v 0.6 0.2 -0.5
v 0.6 0.3 0.5
v 0.6 0.3 0.2
v 0.6 0.3 -0.2
v 0.6 0.3 -0.5
v 0.6 0.4 0.5
v 0.6 0.4 0.2
v 0.6 0.4 -0.2
v 0.6 0.4 -0.5
v 0.6 0.5 0.5
v 0.6 0.5 0.2
v 0.6 0.5 -0.2
v 0.6 0.5 -0.5
v 0.6 0.6 0.5
v 0.6 0.6 0.2
v 0.6 0.6 -0.2
v 0.6 0.6 -0.5
v 0.6 0.7 0.5
v 0.6 0.7 0.2
v 0.6 0.7 -0.2
v 0.6 0.7 -0.5
v -0.3 0.3 3.3
v -0.3 0.5 3.3
v -0.0999999 0.3 3.3
v -0.0999999 0.5 3.3
v -0.4 0.2 0.8
v -0.4 0.6 0.8
v -0.3 0.3 0.8
v -0.3 0.5 0.8
v -0.0999999 0.3 0.8
v -0.0999999 0.5 0.8
v 5.96046e-008 0.2 0.8
v 5.96046e-008 0.6 0.8
v -0.5 0 0.7
v -0.5 0.6 0.7
v -0.4 0.2 0.7
v -0.4 0.6 0.7
v 5.96046e-008 0.2 0.7
v 5.96046e-008 0.6 0.7
v 0.5 0 0.7
v 0.5 0.6 0.7
v -0.5 0.6 0.6
v -0.5 0.7 0.6
v 0.5 0.6 0.6
v 0.5 0.7 0.6
v -0.6 0.2 0.5
v -0.6 0.3 0.5
v -0.6 0.4 0.5
v -0.6 0.5 0.5
v -0.6 0.6 0.5
v -0.6 0.7 0.5
v -0.5 0.2 0.5
v -0.5 0.3 0.5
v -0.5 0.4 0.5
v -0.5 0.5 0.5
v -0.5 0.6 0.5
v -0.5 0.7 0.5
v -0.3 0.7 0.5
v -0.3 0.8 0.5
v 0.3 0.7 0.5
v 0.3 0.8 0.5
v 0.5 0.2 0.5
v 0.5 0.3 0.5
v 0.5 0.4 0.5
v 0.5 0.5 0.5
v 0.5 0.6 0.5
v 0.5 0.7 0.5
v 0.6 0.2 0.5
v 0.6 0.3 0.5
v 0.6 0.4 0.5
v 0.6 0.5 0.5
v 0.6 0.6 0.5
v 0.6 0.7 0.5
v -0.6 0.2 -0.2
v -0.6 0.3 -0.2
v -0.6 0.4 -0.2
v -0.6 0.5 -0.2
v -0.6 0.6 -0.2
v -0.6 0.7 -0.2
v -0.5 0.2 -0.2
v -0.5 0.3 -0.2
v -0.5 0.4 -0.2
v -0.5 0.5 -0.2
v -0.5 0.6 -0.2
v -0.5 0.7 -0.2
v 0.5 0.2 -0.2
v 0.5 0.3 -0.2
v 0.5 0.4 -0.2
v 0.5 0.5 -0.2
v 0.5 0.6 -0.2
v 0.5 0.7 -0.2
v 0.6 0.2 -0.2
v 0.6 0.3 -0.2
v 0.6 0.4 -0.2
v 0.6 0.5 -0.2
v 0.6 0.6 -0.2
v 0.6 0.7 -0.2
v -0.3 0.8 -0.3
v -0.3 0.9 -0.3
v 0.3 0.8 -0.3
v 0.3 0.9 -0.3
v -0.4 0.7 -0.4
v -0.4 0.9 -0.4
v -0.3 0.7 -0.4
v -0.3 0.9 -0.4
v -0.3 1 -0.4
v 0.3 0.7 -0.4
v 0.3 0.9 -0.4
v 0.3 1 -0.4
v 0.4 0.7 -0.4
v 0.4 0.9 -0.4
v -0.6 0.2 0.2
v -0.6 0.3 0.2
v -0.6 0.4 0.2
v -0.6 0.5 0.2
v -0.6 0.6 0.2
v -0.6 0.7 0.2
v -0.5 0.2 0.2
v -0.5 0.3 0.2
v -0.5 0.4 0.2
v -0.5 0.5 0.2
v -0.5 0.6 0.2
v -0.5 0.7 0.2
v 0.5 0.2 0.2
v 0.5 0.3 0.2
v 0.5 0.4 0.2
v 0.5 0.5 0.2
v 0.5 0.6 0.2
v 0.5 0.7 0.2
v 0.6 0.2 0.2
v 0.6 0.3 0.2
v 0.6 0.4 0.2
v 0.6 0.5 0.2
v 0.6 0.6 0.2
v 0.6 0.7 0.2
v -0.6 0.2 -0.5
v -0.6 0.3 -0.5
v -0.6 0.4 -0.5
v -0.6 0.5 -0.5
v -0.6 0.6 -0.5
v -0.6 0.7 -0.5
v -0.5 0.2 -0.5
v -0.5 0.3 -0.5
v -0.5 0.4 -0.5
v -0.5 0.5 -0.5
v -0.5 0.6 -0.5
v -0.5 0.7 -0.5
v 0.5 0.2 -0.5
v 0.5 0.3 -0.5
v 0.5 0.4 -0.5
v 0.5 0.5 -0.5
v 0.5 0.6 -0.5
v 0.5 0.7 -0.5
v 0.6 0.2 -0.5
v 0.6 0.3 -0.5
v 0.6 0.4 -0.5
v 0.6 0.5 -0.5
v 0.6 0.6 -0.5
v 0.6 0.7 -0.5
v -0.4 0.7 -0.8
v -0.4 0.9 -0.8
v -0.3 0.7 -0.8
v -0.3 0.9 -0.8
v -0.3 1 -0.8
v 0.3 0.7 -0.8
v 0.3 0.9 -0.8
v 0.3 1 -0.8
v 0.4 0.7 -0.8
v 0.4 0.9 -0.8
v -0.5 0 -0.9
v -0.5 0.7 -0.9
v -0.3 0.7 -0.9
v -0.3 0.9 -0.9
v 0.3 0.7 -0.9
v 0.3 0.9 -0.9
v 0.5 0 -0.9
v 0.5 0.7 -0.9
v -0.5 0 0.7
v 0.5 0 0.7
v -0.5 0 -0.9
v 0.5 0 -0.9
v -0.4 0.2 0.8
v 5.96046e-008 0.2 0.8
v -0.4 0.2 0.7
v 5.96046e-008 0.2 0.7
v -0.6 0.2 0.5
v -0.5 0.2 0.5
v 0.5 0.2 0.5
v 0.6 0.2 0.5
v -0.6 0.2 0.2
v -0.5 0.2 0.2
v 0.5 0.2 0.2
v 0.6 0.2 0.2
v -0.6 0.2 -0.2
v -0.5 0.2 -0.2
v 0.5 0.2 -0.2
v 0.6 0.2 -0.2
v -0.6 0.2 -0.5
v -0.5 0.2 -0.5
v 0.5 0.2 -0.5
v 0.6 0.2 -0.5
v -0.3 0.3 3.3
v -0.0999999 0.3 3.3
v -0.3 0.3 0.9
v -0.0999999 0.3 0.9
v -0.3 0.3 0.8
v -0.0999999 0.3 0.8
v -0.3 0.5 3.3
v -0.0999999 0.5 3.3
v -0.3 0.5 0.9
v -0.0999999 0.5 0.9
v -0.3 0.5 0.8
v -0.0999999 0.5 0.8
v -0.4 0.6 0.8
v 5.96046e-008 0.6 0.8
v -0.5 0.6 0.7
v -0.4 0.6 0.7
v 5.96046e-008 0.6 0.7
v 0.5 0.6 0.7
v -0.5 0.6 0.6
v 0.5 0.6 0.6
v -0.5 0.7 0.6
v 0.5 0.7 0.6
v -0.6 0.7 0.5
v -0.5 0.7 0.5
v -0.3 0.7 0.5
v 0.3 0.7 0.5
v 0.5 0.7 0.5
v 0.6 0.7 0.5
v -0.6 0.7 0.2
v -0.5 0.7 0.2
v 0.5 0.7 0.2
v 0.6 0.7 0.2
v -0.6 0.7 -0.2
v -0.5 0.7 -0.2
v 0.5 0.7 -0.2
v 0.6 0.7 -0.2
v -0.4 0.7 -0.4
v -0.3 0.7 -0.4
v 0.3 0.7 -0.4
v 0.4 0.7 -0.4
v -0.6 0.7 -0.5
v -0.5 0.7 -0.5
v 0.5 0.7 -0.5
v 0.6 0.7 -0.5
v -0.4 0.7 -0.8
v -0.3 0.7 -0.8
v 0.3 0.7 -0.8
v 0.4 0.7 -0.8
v -0.5 0.7 -0.9
v -0.3 0.7 -0.9
v 0.3 0.7 -0.9
v 0.5 0.7 -0.9
v -0.3 0.8 0.5
v 0.3 0.8 0.5
v -0.3 0.8 -0.3
v 0.3 0.8 -0.3
v -0.3 0.9 -0.3
v 0.3 0.9 -0.3
v -0.4 0.9 -0.4
v -0.3 0.9 -0.4
v 0.3 0.9 -0.4
v 0.4 0.9 -0.4
v -0.4 0.9 -0.8
v -0.3 0.9 -0.8
v 0.3 0.9 -0.8
v 0.4 0.9 -0.8
v -0.3 0.9 -0.9
v 0.3 0.9 -0.9
v -0.3 1 -0.4
v 0.3 1 -0.4
v -0.3 1 -0.8
v 0.3 1 -0.8

# faces
f 5/3/1 2/3/1 1/3/1
f 6/3/1 2/3/1 5/3/1
f 7/3/1 4/3/1 3/3/1
f 8/3/1 4/3/1 7/3/1
f 9/4/1 6/4/1 5/4/1
f 10/4/1 6/4/1 9/4/1
f 11/4/1 8/4/1 7/4/1
f 12/4/1 8/4/1 11/4/1
f 13/3/1 10/3/1 9/3/1
f 14/3/1 10/3/1 13/3/1
f 15/3/1 12/3/1 11/3/1
f 16/3/1 12/3/1 15/3/1
f 17/4/1 14/4/1 13/4/1
f 18/4/1 14/4/1 17/4/1
f 19/4/1 16/4/1 15/4/1
f 20/4/1 16/4/1 19/4/1
f 21/3/1 18/3/1 17/3/1
f 22/3/1 18/3/1 21/3/1
f 23/3/1 20/3/1 19/3/1
f 24/3/1 20/3/1 23/3/1
f 27/2/1 26/2/1 25/2/1
f 28/2/1 26/2/1 27/2/1
f 29/2/1 26/2/1 28/2/1
f 30/2/1 26/2/1 29/2/1
f 31/2/1 27/2/1 25/2/1
f 32/2/1 29/2/1 28/2/1
f 33/2/1 29/2/1 32/2/1
f 34/2/1 26/2/1 30/2/1
f 35/2/1 31/2/1 25/2/1
f 36/2/1 33/2/1 32/2/1
f 37/2/1 33/2/1 36/2/1
f 38/2/1 26/2/1 34/2/1
f 39/2/1 35/2/1 25/2/1
f 40/2/1 37/2/1 36/2/1
f 41/2/1 37/2/1 40/2/1
f 42/2/1 26/2/1 38/2/1
f 43/2/1 39/2/1 25/2/1
f 44/2/1 39/2/1 43/2/1
f 45/2/1 39/2/1 44/2/1
f 46/2/1 41/2/1 40/2/1
f 47/2/1 41/2/1 46/2/1
f 48/2/1 26/2/1 42/2/1
f 49/2/1 45/2/1 44/2/1
f 50/2/1 45/2/1 49/2/1
f 51/2/1 47/2/1 46/2/1
f 52/2/1 47/2/1 51/2/1
f 53/2/1 26/2/1 48/2/1
f 54/2/1 26/2/1 53/2/1
f 57/1/1 56/1/1 55/1/1
f 58/1/1 56/1/1 57/1/1
f 61/2/1 60/2/1 59/2/1
f 62/2/1 60/2/1 61/2/1
f 66/4/1 64/4/1 63/4/1
f 67/1/1 65/1/1 64/1/1
f 67/4/1 64/4/1 66/4/1
f 68/1/1 65/1/1 67/1/1
f 73/2/1 70/2/1 69/2/1
f 74/2/1 70/2/1 73/2/1
f 75/2/1 70/2/1 74/2/1
f 76/2/1 70/2/1 75/2/1
f 77/2/1 72/2/1 71/2/1
f 78/2/1 72/2/1 77/2/1
f 79/2/1 77/2/1 76/2/1
f 80/2/1 77/2/1 79/2/1
f 81/4/2 82/4/2 84/4/2
f 82/1/2 83/1/2 85/1/2
f 84/4/2 82/4/2 85/4/2
f 85/1/2 83/1/2 86/1/2
f 87/1/2 88/1/2 89/1/2
f 89/1/2 88/1/2 90/1/2
f 91/2/2 92/2/2 95/2/2
f 95/2/2 92/2/2 96/2/2
f 96/2/2 92/2/2 97/2/2
f 97/2/2 92/2/2 98/2/2
f 93/2/2 94/2/2 99/2/2
f 99/2/2 94/2/2 100/2/2
f 98/2/2 99/2/2 101/2/2
f 101/2/2 99/2/2 102/2/2
f 103/2/2 104/2/2 105/2/2
f 105/2/2 104/2/2 106/2/2
f 107/2/2 108/2/2 109/2/2
f 109/2/2 108/2/2 110/2/2
f 110/2/2 108/2/2 111/2/2
f 111/2/2 108/2/2 112/2/2
f 107/2/2 109/2/2 113/2/2
f 110/2/2 111/2/2 114/2/2
f 114/2/2 111/2/2 115/2/2
f 112/2/2 108/2/2 116/2/2
f 107/2/2 113/2/2 117/2/2
f 114/2/2 115/2/2 118/2/2
f 118/2/2 115/2/2 119/2/2
f 116/2/2 108/2/2 120/2/2
f 107/2/2 117/2/2 121/2/2
f 118/2/2 119/2/2 122/2/2
f 122/2/2 119/2/2 123/2/2
f 120/2/2 108/2/2 124/2/2
f 107/2/2 121/2/2 125/2/2
f 125/2/2 121/2/2 126/2/2
f 126/2/2 121/2/2 127/2/2
f 122/2/2 123/2/2 128/2/2
f 128/2/2 123/2/2 129/2/2
f 124/2/2 108/2/2 130/2/2
f 126/2/2 127/2/2 131/2/2
f 131/2/2 127/2/2 132/2/2
f 128/2/2 129/2/2 133/2/2
f 133/2/2 129/2/2 134/2/2
f 130/2/2 108/2/2 135/2/2
f 135/2/2 108/2/2 136/2/2
f 137/3/2 138/3/2 141/3/2
f 141/3/2 138/3/2 142/3/2
f 139/3/2 140/3/2 143/3/2
f 143/3/2 140/3/2 144/3/2
f 141/4/2 142/4/2 145/4/2
f 145/4/2 142/4/2 146/4/2
f 143/4/2 144/4/2 147/4/2
f 147/4/2 144/4/2 148/4/2
f 145/3/2 146/3/2 149/3/2
f 149/3/2 146/3/2 150/3/2
f 147/3/2 148/3/2 151/3/2
f 151/3/2 148/3/2 152/3/2
f 149/4/2 150/4/2 153/4/2
f 153/4/2 150/4/2 154/4/2
f 151/4/2 152/4/2 155/4/2
f 155/4/2 152/4/2 156/4/2
f 153/3/2 154/3/2 157/3/2
f 157/3/2 154/3/2 158/3/2
f 155/3/2 156/3/2 159/3/2
f 159/3/2 156/3/2 160/3/2
f 163/4/3 162/4/3 161/4/3
f 164/4/3 162/4/3 163/4/3
f 167/1/3 166/1/3 165/1/3
f 168/1/3 166/1/3 167/1/3
f 169/1/3 167/1/3 165/1/3
f 170/1/3 166/1/3 168/1/3
f 171/1/3 169/1/3 165/1/3
f 171/1/3 170/1/3 169/1/3
f 172/1/3 166/1/3 170/1/3
f 172/1/3 170/1/3 171/1/3
f 175/2/3 174/2/3 173/2/3
f 176/2/3 174/2/3 175/2/3
f 177/2/3 175/2/3 173/2/3
f 179/2/3 177/2/3 173/2/3
f 179/2/3 178/2/3 177/2/3
f 180/2/3 178/2/3 179/2/3
f 183/2/3 182/2/3 181/2/3
f 184/2/3 182/2/3 183/2/3
f 191/3/3 186/3/3 185/3/3
f 192/4/3 187/4/3 186/4/3
f 192/3/3 186/3/3 191/3/3
f 193/3/3 188/3/3 187/3/3
f 193/4/3 187/4/3 192/4/3
f 194/4/3 189/4/3 188/4/3
f 194/3/3 188/3/3 193/3/3
f 195/3/3 190/3/3 189/3/3
f 195/4/3 189/4/3 194/4/3
f 196/3/3 190/3/3 195/3/3
f 199/2/3 198/2/3 197/2/3
f 200/2/3 198/2/3 199/2/3
f 207/3/3 202/3/3 201/3/3
f 208/4/3 203/4/3 202/4/3
f 208/3/3 202/3/3 207/3/3
f 209/3/3 204/3/3 203/3/3
f 209/4/3 203/4/3 208/4/3
f 210/4/3 205/4/3 204/4/3
f 210/3/3 204/3/3 209/3/3
f 211/3/3 206/3/3 205/3/3
f 211/4/3 205/4/3 210/4/3
f 212/3/3 206/3/3 211/3/3
f 219/3/3 214/3/3 213/3/3
f 220/4/3 215/4/3 214/4/3
f 220/3/3 214/3/3 219/3/3
f 221/3/3 216/3/3 215/3/3
f 221/4/3 215/4/3 220/4/3
f 222/4/3 217/4/3 216/4/3
f 222/3/3 216/3/3 221/3/3
f 223/3/3 218/3/3 217/3/3
f 223/4/3 217/4/3 222/4/3
f 224/3/3 218/3/3 223/3/3
f 231/3/3 226/3/3 225/3/3
f 232/4/3 227/4/3 226/4/3
f 232/3/3 226/3/3 231/3/3
f 233/3/3 228/3/3 227/3/3
f 233/4/3 227/4/3 232/4/3
f 234/4/3 229/4/3 228/4/3
f 234/3/3 228/3/3 233/3/3
f 235/3/3 230/3/3 229/3/3
f 235/4/3 229/4/3 234/4/3
f 236/3/3 230/3/3 235/3/3
f 239/2/3 238/2/3 237/2/3
f 240/2/3 238/2/3 239/2/3
f 243/2/3 242/2/3 241/2/3
f 244/2/3 242/2/3 243/2/3
f 247/2/3 245/2/3 244/2/3
f 248/2/3 245/2/3 247/2/3
f 249/2/3 247/2/3 246/2/3
f 250/2/3 247/2/3 249/2/3
f 251/3/4 252/3/4 257/3/4
f 252/4/4 253/4/4 258/4/4
f 257/3/4 252/3/4 258/3/4
f 253/3/4 254/3/4 259/3/4
f 258/4/4 253/4/4 259/4/4
f 254/4/4 255/4/4 260/4/4
f 259/3/4 254/3/4 260/3/4
f 255/3/4 256/3/4 261/3/4
f 260/4/4 255/4/4 261/4/4
f 261/3/4 256/3/4 262/3/4
f 263/3/4 264/3/4 269/3/4
f 264/4/4 265/4/4 270/4/4
f 269/3/4 264/3/4 270/3/4
f 265/3/4 266/3/4 271/3/4
f 270/4/4 265/4/4 271/4/4
f 266/4/4 267/4/4 272/4/4
f 271/3/4 266/3/4 272/3/4
f 267/3/4 268/3/4 273/3/4
f 272/4/4 267/4/4 273/4/4
f 273/3/4 268/3/4 274/3/4
f 275/3/4 276/3/4 281/3/4
f 276/4/4 277/4/4 282/4/4
f 281/3/4 276/3/4 282/3/4
f 277/3/4 278/3/4 283/3/4
f 282/4/4 277/4/4 283/4/4
f 278/4/4 279/4/4 284/4/4
f 283/3/4 278/3/4 284/3/4
f 279/3/4 280/3/4 285/3/4
f 284/4/4 279/4/4 285/4/4
f 285/3/4 280/3/4 286/3/4
f 287/3/4 288/3/4 293/3/4
f 288/4/4 289/4/4 294/4/4
f 293/3/4 288/3/4 294/3/4
f 289/3/4 290/3/4 295/3/4
f 294/4/4 289/4/4 295/4/4
f 290/4/4 291/4/4 296/4/4
f 295/3/4 290/3/4 296/3/4
f 291/3/4 292/3/4 297/3/4
f 296/4/4 291/4/4 297/4/4
f 297/3/4 292/3/4 298/3/4
f 299/2/4 300/2/4 301/2/4
f 301/2/4 300/2/4 302/2/4
f 302/2/4 303/2/4 305/2/4
f 305/2/4 303/2/4 306/2/4
f 304/2/4 305/2/4 307/2/4
f 307/2/4 305/2/4 308/2/4
f 309/2/4 310/2/4 311/2/4
f 309/2/4 311/2/4 313/2/4
f 311/2/4 312/2/4 313/2/4
f 313/2/4 312/2/4 314/2/4
f 309/2/4 313/2/4 315/2/4
f 315/2/4 313/2/4 316/2/4
f 319/2/5 318/2/5 317/2/5
f 320/2/5 318/2/5 319/2/5
f 323/1/5 322/1/5 321/1/5
f 324/1/5 322/1/5 323/1/5
f 329/3/5 326/3/5 325/3/5
f 330/3/5 326/3/5 329/3/5
f 331/3/5 328/3/5 327/3/5
f 332/3/5 328/3/5 331/3/5
f 337/3/5 334/3/5 333/3/5
f 338/3/5 334/3/5 337/3/5
f 339/3/5 336/3/5 335/3/5
f 340/3/5 336/3/5 339/3/5
f 343/4/5 342/4/5 341/4/5
f 344/4/5 342/4/5 343/4/5
f 345/1/5 344/1/5 343/1/5
f 346/1/5 344/1/5 345/1/5
f 347/4/6 348/4/6 349/4/6
f 349/4/6 348/4/6 350/4/6
f 349/1/6 350/1/6 351/1/6
f 351/1/6 350/1/6 352/1/6
f 353/1/6 354/1/6 356/1/6
f 356/1/6 354/1/6 357/1/6
f 355/2/6 356/2/6 359/2/6
f 357/2/6 358/2/6 359/2/6
f 356/2/6 357/2/6 359/2/6
f 359/2/6 358/2/6 360/2/6
f 361/2/6 362/2/6 364/2/6
f 364/2/6 362/2/6 365/2/6
f 365/2/6 362/2/6 366/2/6
f 366/2/6 362/2/6 367/2/6
f 363/3/6 364/3/6 369/3/6
f 364/2/6 365/2/6 370/2/6
f 369/3/6 364/3/6 370/3/6
f 367/3/6 368/3/6 371/3/6
f 366/2/6 367/2/6 371/2/6
f 371/3/6 368/3/6 372/3/6
f 370/2/6 365/2/6 374/2/6
f 366/2/6 371/2/6 375/2/6
f 374/2/6 365/2/6 377/2/6
f 377/2/6 365/2/6 378/2/6
f 366/2/6 375/2/6 379/2/6
f 379/2/6 375/2/6 380/2/6
f 373/3/6 374/3/6 381/3/6
f 374/2/6 377/2/6 382/2/6
f 381/3/6 374/3/6 382/3/6
f 380/2/6 375/2/6 383/2/6
f 375/3/6 376/3/6 383/3/6
f 383/3/6 376/3/6 384/3/6
f 382/2/6 377/2/6 385/2/6
f 380/2/6 383/2/6 388/2/6
f 385/2/6 386/2/6 389/2/6
f 382/2/6 385/2/6 389/2/6
f 389/2/6 386/2/6 390/2/6
f 387/2/6 388/2/6 391/2/6
f 388/2/6 383/2/6 392/2/6
f 391/2/6 388/2/6 392/2/6
f 393/2/6 394/2/6 395/2/6
f 395/2/6 394/2/6 396/2/6
f 397/2/6 398/2/6 400/2/6
f 400/2/6 398/2/6 401/2/6
f 399/2/6 400/2/6 403/2/6
f 403/2/6 400/2/6 404/2/6
f 401/2/6 402/2/6 405/2/6
f 405/2/6 402/2/6 406/2/6
f 404/2/6 405/2/6 407/2/6
f 407/2/6 405/2/6 408/2/6
f 409/2/6 410/2/6 411/2/6
f 411/2/6 410/2/6 412/2/6
