# MagicaVoxel @ Ephtracy

# group
o 

# material
mtllib tower1.mtl
usemtl palette

# normals
vn -1 0 0
vn 1 0 0
vn 0 0 1
vn 0 0 -1
vn 0 -1 0
vn 0 1 0

# texcoords
vt 0.509766 0.5
vt 0.677734 0.5
vt 0.990234 0.5

# verts
v -0.4 0 -2.2
v -0.4 0 -3.1
v -0.4 0.5 -3
v -0.4 0.5 -3.1
v -0.4 0.6 -2.2
v -0.4 0.6 -3
v 0 0.1 -3.1
v 0 0.1 -3.2
v 0 0.4 -3.1
v 0 0.4 -3.2
v 0.1 0.2 -3.2
v 0.1 0.2 -3.3
v 0.1 0.2 -3.6
v 0.1 0.3 -3.2
v 0.1 0.3 -3.3
v 0.1 0.3 -3.6
v 0.2 0.2 -3.2
v 0.2 0.2 -3.3
v 0.2 0.2 -3.6
v 0.2 0.3 -3.2
v 0.2 0.3 -3.3
v 0.2 0.3 -3.6
v 0.3 0.1 -3.1
v 0.3 0.1 -3.2
v 0.3 0.4 -3.1
v 0.3 0.4 -3.2
v 0.4 0 -2.2
v 0.4 0 -3.1
v 0.4 0.5 -3
v 0.4 0.5 -3.1
v 0.4 0.6 -2.2
v 0.4 0.6 -3
v -0.4 0 -2.2
v -0.4 0.6 -2.2
v 0.4 0 -2.2
v 0.4 0.6 -2.2
v -0.4 0.5 -3
v -0.4 0.6 -3
v 0.4 0.5 -3
v 0.4 0.6 -3
v -0.4 0 -3.1
v -0.4 0.5 -3.1
v 0 0.1 -3.1
v 0 0.4 -3.1
v 0.3 0.1 -3.1
v 0.3 0.4 -3.1
v 0.4 0 -3.1
v 0.4 0.5 -3.1
v 0 0.1 -3.2
v 0 0.4 -3.2
v 0.1 0.2 -3.2
v 0.1 0.3 -3.2
v 0.2 0.2 -3.2
v 0.2 0.3 -3.2
v 0.3 0.1 -3.2
v 0.3 0.4 -3.2
v 0.1 0.2 -3.6
v 0.1 0.3 -3.6
v 0.2 0.2 -3.6
v 0.2 0.3 -3.6
v -0.4 0 -2.2
v 0.4 0 -2.2
v -0.4 0 -3.1
v 0.4 0 -3.1
v 0 0.1 -3.1
v 0.3 0.1 -3.1
v 0 0.1 -3.2
v 0.3 0.1 -3.2
v 0.1 0.2 -3.2
v 0.2 0.2 -3.2
v 0.1 0.2 -3.3
v 0.2 0.2 -3.3
v 0.1 0.2 -3.6
v 0.2 0.2 -3.6
v 0.1 0.3 -3.2
v 0.2 0.3 -3.2
v 0.1 0.3 -3.3
v 0.2 0.3 -3.3
v 0.1 0.3 -3.6
v 0.2 0.3 -3.6
v 0 0.4 -3.1
v 0.3 0.4 -3.1
v 0 0.4 -3.2
v 0.3 0.4 -3.2
v -0.4 0.5 -3
v 0.4 0.5 -3
v -0.4 0.5 -3.1
v 0.4 0.5 -3.1
v -0.4 0.6 -2.2
v 0.4 0.6 -2.2
v -0.4 0.6 -3
v 0.4 0.6 -3

# faces
f 3/2/1 2/2/1 1/2/1
f 4/2/1 2/2/1 3/2/1
f 5/2/1 3/2/1 1/2/1
f 6/2/1 3/2/1 5/2/1
f 9/1/1 8/1/1 7/1/1
f 10/1/1 8/1/1 9/1/1
f 14/1/1 12/1/1 11/1/1
f 15/3/1 13/3/1 12/3/1
f 15/1/1 12/1/1 14/1/1
f 16/3/1 13/3/1 15/3/1
f 17/1/2 18/1/2 20/1/2
f 18/3/2 19/3/2 21/3/2
f 20/1/2 18/1/2 21/1/2
f 21/3/2 19/3/2 22/3/2
f 23/1/2 24/1/2 25/1/2
f 25/1/2 24/1/2 26/1/2
f 27/2/2 28/2/2 29/2/2
f 29/2/2 28/2/2 30/2/2
f 27/2/2 29/2/2 31/2/2
f 31/2/2 29/2/2 32/2/2
f 35/2/3 34/2/3 33/2/3
f 36/2/3 34/2/3 35/2/3
f 37/2/4 38/2/4 39/2/4
f 39/2/4 38/2/4 40/2/4
f 41/2/4 42/2/4 43/2/4
f 43/2/4 42/2/4 44/2/4
f 41/2/4 43/2/4 45/2/4
f 44/2/4 42/2/4 46/2/4
f 41/2/4 45/2/4 47/2/4
f 45/2/4 46/2/4 47/2/4
f 46/2/4 42/2/4 48/2/4
f 47/2/4 46/2/4 48/2/4
f 49/1/4 50/1/4 51/1/4
f 51/1/4 50/1/4 52/1/4
f 49/1/4 51/1/4 53/1/4
f 52/1/4 50/1/4 54/1/4
f 49/1/4 53/1/4 55/1/4
f 53/1/4 54/1/4 55/1/4
f 54/1/4 50/1/4 56/1/4
f 55/1/4 54/1/4 56/1/4
f 57/3/4 58/3/4 59/3/4
f 59/3/4 58/3/4 60/3/4
f 63/2/5 62/2/5 61/2/5
f 64/2/5 62/2/5 63/2/5
f 67/1/5 66/1/5 65/1/5
f 68/1/5 66/1/5 67/1/5
f 71/1/5 70/1/5 69/1/5
f 72/1/5 70/1/5 71/1/5
f 73/3/5 72/3/5 71/3/5
f 74/3/5 72/3/5 73/3/5
f 75/1/6 76/1/6 77/1/6
f 77/1/6 76/1/6 78/1/6
f 77/3/6 78/3/6 79/3/6
f 79/3/6 78/3/6 80/3/6
f 81/1/6 82/1/6 83/1/6
f 83/1/6 82/1/6 84/1/6
f 85/2/6 86/2/6 87/2/6
f 87/2/6 86/2/6 88/2/6
f 89/2/6 90/2/6 91/2/6
f 91/2/6 90/2/6 92/2/6
